<svg width="55" height="55" viewBox="0 0 55 55" fill="none" xmlns="http://www.w3.org/2000/svg">
<path d="M17.091 41.9629H1.85366C1.05638 41.9629 0.409912 42.6094 0.409912 43.4066V49.599C0.409912 50.3962 1.05616 51.0427 1.85366 51.0427H17.0909C17.8882 51.0427 18.5346 50.3962 18.5346 49.599V43.4066C18.5346 42.6094 17.8883 41.9629 17.091 41.9629Z" fill="#F8F9FA"/>
<path d="M40.2426 43.054C40.085 42.4274 39.5196 41.9629 38.8441 41.9629H23.6068C22.8095 41.9629 22.1631 42.6094 22.1631 43.4066V49.599C22.1631 50.3962 22.8093 51.0427 23.6068 51.0427H38.8441C39.5195 51.0427 40.085 50.5781 40.2426 49.9516C40.2216 49.6515 40.2199 43.3774 40.2426 43.054Z" fill="#F8F9FA"/>
<path d="M28.152 29.3086C28.0049 29.3086 12.3651 29.3086 12.3651 29.3086C11.6993 29.437 11.1963 30.0221 11.1963 30.7254V36.9177C11.1963 37.715 11.8428 38.3614 12.64 38.3614H27.8773C28.6745 38.3614 29.321 37.715 29.321 36.9177V30.7254C29.3209 30.0221 28.8178 29.437 28.152 29.3086Z" fill="#F8F9FA"/>
<path d="M6.37795 29.308C1.14479 29.308 0 29.2812 0 29.2812V38.3608H6.10316C6.90044 38.3608 7.54691 37.7144 7.54691 36.9171V30.7248C7.54691 30.0214 7.04364 29.4363 6.37795 29.308Z" fill="#F8F9FA"/>
<path d="M49.7718 29.2812C48.7316 29.2812 35.2986 29.3082 34.2597 29.3082C33.5939 29.4366 33.0908 30.0217 33.0908 30.725V36.9173C33.0908 37.7146 33.7371 38.3611 34.5346 38.3611H49.7718C50.5691 38.3611 51.2155 37.7146 51.2155 36.9173V30.725C51.2154 29.9277 50.5691 29.2812 49.7718 29.2812Z" fill="#F8F9FA"/>
<path d="M45.2624 41.963V41.9629C44.4651 41.9629 43.8186 42.6094 43.8186 43.4066V49.599C43.8186 50.3962 44.4651 51.0427 45.2624 51.0427H55V41.9631H45.2624V41.963Z" fill="#F8F9FA"/>
<path d="M16.6931 16.6387H1.45595C0.658671 16.6387 0.012207 17.2849 0.012207 18.0824V24.2747C0.012207 25.072 0.658671 25.7185 1.45595 25.7185H16.6932C17.4905 25.7185 18.1367 25.0722 18.1367 24.2747V18.0824C18.1368 17.285 17.4906 16.6387 16.6931 16.6387Z" fill="#F8F9FA"/>
<path d="M38.446 16.6387H23.2087C22.4114 16.6388 21.7651 17.2851 21.7651 18.0824V24.2747C21.7651 25.072 22.4114 25.7185 23.2089 25.7185H38.4461C39.2434 25.7185 39.8899 25.0722 39.8899 24.2747V18.0824C39.8897 17.285 39.2433 16.6387 38.446 16.6387Z" fill="#F8F9FA"/>
<path d="M27.4794 3.95703H12.2421C11.4448 3.95703 10.7983 4.60328 10.7983 5.40078V11.5931C10.7983 12.3905 11.4446 13.0368 12.2421 13.0368H27.4793C28.2766 13.0368 28.9231 12.3906 28.9231 11.5931V5.40067C28.9231 4.60339 28.2768 3.95703 27.4794 3.95703Z" fill="#F8F9FA"/>
<path d="M5.70431 3.95703H0V13.0366H5.70441C6.5017 13.0367 7.14794 12.3905 7.14794 11.5931V5.40067C7.14805 4.60339 6.5017 3.95703 5.70431 3.95703Z" fill="#F8F9FA"/>
</svg>
