<svg width="55" height="55" viewBox="0 0 55 55" fill="none" xmlns="http://www.w3.org/2000/svg">
<path d="M27.5001 32.083C24.9792 32.083 22.9167 30.0434 22.9167 27.4997C22.9167 24.9559 24.9792 22.9163 27.5001 22.9163C30.0209 22.9163 32.0834 24.9788 32.0834 27.4997C32.0834 30.0205 30.0438 32.083 27.5001 32.083ZM52.7084 43.5413H2.29175V38.958H9.16675V34.3747H2.29175V29.7913H9.16675V25.208H2.29175V20.6247H9.16675V16.0413H2.29175V11.458H52.7084V16.0413H45.8334V20.6247H52.7084V25.208H45.8334V29.7913H52.7084V34.3747H45.8334V38.958H52.7084V43.5413ZM27.5001 36.483C28.9209 38.0872 31.3042 38.5226 33.2292 37.4226C35.1542 36.3226 35.9563 34.008 35.2917 31.9913C37.3772 31.5788 38.9584 29.7226 38.9584 27.4997C38.9584 25.2768 37.3772 23.4205 35.2917 23.008C35.9563 20.9913 35.1542 18.6768 33.2292 17.5768C31.3042 16.4768 28.9209 16.9122 27.5001 18.5163C26.8031 17.7174 25.8501 17.1855 24.8041 17.0117C23.7582 16.838 22.6844 17.0331 21.7665 17.5638C20.8486 18.0945 20.1437 18.9278 19.7725 19.9209C19.4012 20.914 19.3867 22.0053 19.7313 23.008C17.623 23.4205 16.0417 25.2768 16.0417 27.4997C16.0417 29.7226 17.623 31.5788 19.7313 31.9913C19.3867 32.994 19.4012 34.0853 19.7725 35.0785C20.1437 36.0716 20.8486 36.9048 21.7665 37.4355C22.6844 37.9662 23.7582 38.1614 24.8041 37.9876C25.8501 37.8139 26.8031 37.282 27.5001 36.483Z" fill="#F8F9FA"/>
</svg>
