<svg width="55" height="55" viewBox="0 0 55 55" fill="none" xmlns="http://www.w3.org/2000/svg">
<path d="M17.3524 7.01676C16.0187 8.59113 15.7437 10.8943 15.1891 15.5051L14.9828 17.2399C14.4076 22.0249 14.1212 24.4174 15.487 25.9574C16.8551 27.4997 19.2637 27.4997 24.0808 27.4997H25.7812V31.5101H16.0416C15.306 31.5101 14.6162 31.7072 14.0249 32.0532L13.3833 30.1351C13.2509 29.7115 13.094 29.2961 12.9135 28.8907C12.7823 28.597 12.6307 28.3129 12.4597 28.0405C11.8066 26.9657 10.9564 26.033 9.57679 25.428C8.27971 24.8551 6.65721 24.6351 4.58325 24.6351C4.12741 24.6351 3.69024 24.8162 3.36791 25.1385C3.04558 25.4608 2.8645 25.898 2.8645 26.3538C2.8645 26.8097 3.04558 27.2469 3.36791 27.5692C3.69024 27.8915 4.12741 28.0726 4.58325 28.0726C6.47846 28.0726 7.5395 28.2834 8.19033 28.5722C8.76096 28.8243 9.12992 29.1795 9.52179 29.8257C9.59054 29.9403 9.62033 29.9884 9.65013 30.0457C9.67992 30.1007 9.72117 30.1786 9.7945 30.3368C9.90909 30.5888 9.96638 30.7493 10.1383 31.2626L12.1183 37.2095C12.1932 37.4242 12.3074 37.6232 12.4551 37.7961C12.9143 38.982 13.7215 40.0011 14.7706 40.7198C15.8197 41.4384 17.0616 41.8228 18.3333 41.8226H25.7812V44.4947C24.473 44.8622 23.2747 45.5446 22.2912 46.4822C21.3076 47.4198 20.5687 48.5841 20.1391 49.8732C20.002 50.3038 20.0399 50.7711 20.2448 51.1739C20.4496 51.5767 20.8049 51.8826 21.2336 52.0254C21.6624 52.1682 22.1301 52.1364 22.5356 51.9369C22.941 51.7374 23.2516 51.3863 23.4001 50.9595C23.8017 49.7565 24.6556 48.7571 25.7812 48.1728V50.4163C25.7812 50.8722 25.9622 51.3093 26.2846 51.6317C26.6069 51.954 27.0441 52.1351 27.4999 52.1351C27.9558 52.1351 28.3929 51.954 28.7153 51.6317C29.0376 51.3093 29.2187 50.8722 29.2187 50.4163V48.1705C30.3447 48.7554 31.1987 49.7557 31.5997 50.9595C31.7562 51.3756 32.0678 51.7148 32.4691 51.9061C32.8704 52.0973 33.3302 52.1256 33.752 51.985C34.1737 51.8444 34.5246 51.5459 34.7309 51.1521C34.9372 50.7584 34.9829 50.3 34.8585 49.8732C34.429 48.5843 33.6905 47.4202 32.7074 46.4826C31.7242 45.5451 30.5265 44.8625 29.2187 44.4947V41.8226H36.6666C37.9382 41.8228 39.1802 41.4384 40.2293 40.7198C41.2784 40.0011 42.0855 38.982 42.5447 37.7961C42.6916 37.623 42.8051 37.424 42.8793 37.2095L44.8639 31.2626C45.0335 30.7493 45.0885 30.5865 45.2076 30.3368C45.2869 30.1609 45.3772 29.9902 45.478 29.8257C45.8722 29.1795 46.2389 28.8243 46.8095 28.5722C47.4626 28.2834 48.5214 28.0726 50.4166 28.0726C50.8724 28.0726 51.3096 27.8915 51.6319 27.5692C51.9543 27.2469 52.1353 26.8097 52.1353 26.3538C52.1353 25.898 51.9543 25.4608 51.6319 25.1385C51.3096 24.8162 50.8724 24.6351 50.4166 24.6351C48.3426 24.6351 46.7201 24.8528 45.4207 25.4257C44.0457 26.033 43.1932 26.9657 42.5401 28.0382C42.3691 28.3114 42.2175 28.5963 42.0864 28.8907C41.905 29.296 41.7474 29.7115 41.6143 30.1351L40.9749 32.0532C40.3629 31.6962 39.6668 31.5087 38.9582 31.5101H29.2187V27.4997H30.9168C35.7362 27.4997 38.1447 27.4997 39.5105 25.9574C40.881 24.4174 40.5922 22.0249 40.0193 17.2399L39.8107 15.5051C39.2585 10.8943 38.9812 8.59113 37.6474 7.01676C37.2243 6.51697 36.732 6.0802 36.1853 5.71967C34.4666 4.58301 32.1428 4.58301 27.4999 4.58301C22.857 4.58301 20.5355 4.58301 18.8145 5.71967C18.2679 6.0802 17.7755 6.51697 17.3524 7.01676Z" fill="#F8F9FA"/>
</svg>
