<svg width="509" height="665" viewBox="0 0 509 665" fill="none" xmlns="http://www.w3.org/2000/svg">
<g clip-path="url(#clip0_419_3955)">
<path d="M121.235 658.952C121.235 662.295 203.992 665.01 306.081 665.01C408.17 665.01 490.927 662.303 490.927 658.952C490.927 655.601 408.17 652.895 306.081 652.895C203.992 652.895 121.235 655.601 121.235 658.952Z" fill="#CCCCCC"/>
<path d="M234.81 210.174C231.485 201.977 217.849 191.829 210.837 185.9C196.831 195.266 178.221 202.2 166.485 214.135L167.967 271.353C171.506 272.788 188.133 263.559 193.709 260.861C204.964 255.414 216.673 245.704 224.185 236.158C229.613 229.267 237.895 217.787 234.81 210.174Z" fill="#E07F4F"/>
<path d="M293.048 169.944C289.871 194.02 272.391 214.857 251.604 230.263C246.936 233.717 242.11 236.905 237.237 239.792C236.783 240.059 236.329 240.325 235.876 240.591C229.456 244.312 225.204 248.926 218.702 246.804C213.07 244.956 206.419 238.916 202.111 235.255C200.509 233.889 198.767 232.291 196.998 230.512C189.791 223.252 182.186 213.052 181.89 204.073C181.834 202.552 181.232 201.461 181.343 199.88C183.4 197.508 185.651 194.974 188.041 192.361C202.695 176.354 222.527 157.399 233.893 152.879L293.057 169.944H293.048Z" fill="#DEF0F9"/>
<g style="mix-blend-mode:color-dodge" opacity="0.5">
<path d="M237.237 239.792C236.783 240.058 236.33 240.325 235.876 240.591C229.456 244.312 225.204 248.926 218.702 246.803C213.07 244.956 206.419 238.916 202.111 235.255C200.509 233.889 198.767 232.291 196.998 230.512C189.791 223.251 182.186 213.052 181.89 204.073C181.834 202.552 181.232 201.461 181.343 199.88C183.4 197.508 185.651 194.973 188.041 192.361C191.107 204.15 204.288 222.28 211.56 228.45C212.393 229.154 213.311 229.945 214.283 230.787C218.387 234.284 223.602 238.503 228.15 239.998C231.846 241.201 235.783 240.179 237.247 239.783L237.237 239.792Z" fill="white"/>
</g>
<g style="mix-blend-mode:multiply" opacity="0.7">
<path d="M251.604 230.264C246.936 233.718 242.11 236.906 237.237 239.793C236.783 240.059 236.33 240.326 235.876 240.592C229.456 244.313 225.204 248.927 218.702 246.804C213.07 244.957 206.419 238.916 202.111 235.256C200.509 233.89 198.767 232.292 196.998 230.513C202.686 231.862 208.799 232.068 214.283 230.788C216.858 230.186 219.295 229.258 221.481 227.961C225.908 225.332 229.78 220.752 233.486 217.22C237.571 213.319 245.546 206.652 249.715 206.488L251.614 230.264H251.604Z" fill="#C7DDE5"/>
</g>
<path d="M208.123 151.641C207.715 153.171 207.373 154.726 207.076 156.29C206.067 161.6 205.585 166.919 204.946 171.267C203.139 183.399 202.278 194.982 201.769 207.338C200.768 231.423 194.701 249.553 173.72 266.996C166.189 273.26 158.158 272.796 153.128 265.836C152.813 265.397 152.488 264.882 152.164 264.306C148.663 258.163 144.93 245.377 144.93 245.377C139.214 230.203 155.518 205.525 162.558 190.909C168.68 178.184 180.176 162.76 188.031 150.688L208.132 151.65L208.123 151.641Z" fill="#FFA471"/>
<path d="M315.437 151.058C316.132 151.865 316.66 154.16 317.836 153.378C318.549 152.905 318.679 151.264 318.846 150.207L315.428 151.058H315.437Z" fill="#7F7F82"/>
<path d="M310.416 152.304C311.111 153.111 311.648 155.406 312.815 154.624C313.529 154.151 313.658 152.51 313.825 151.453L310.407 152.304H310.416Z" fill="#7F7F82"/>
<path d="M305.396 153.558C306.09 154.365 306.628 156.66 307.795 155.878C308.508 155.405 308.638 153.764 308.804 152.707L305.386 153.558H305.396Z" fill="#7F7F82"/>
<path d="M300.375 154.814C301.07 155.621 301.607 157.915 302.774 157.134C303.488 156.661 303.617 155.02 303.784 153.963L300.366 154.814H300.375Z" fill="#7F7F82"/>
<path d="M295.354 156.067C296.049 156.875 296.577 159.169 297.754 158.387C298.467 157.915 298.596 156.274 298.763 155.217L295.345 156.067H295.354Z" fill="#7F7F82"/>
<path d="M293.668 137.636C292.973 136.829 292.436 134.534 291.269 135.316C290.556 135.789 290.426 137.43 290.259 138.487L293.677 137.636H293.668Z" fill="#7F7F82"/>
<path d="M298.689 136.39C297.994 135.583 297.457 133.288 296.29 134.07C295.576 134.543 295.447 136.184 295.28 137.241L298.698 136.39H298.689Z" fill="#7F7F82"/>
<path d="M303.709 135.136C303.015 134.329 302.477 132.034 301.31 132.816C300.597 133.289 300.467 134.93 300.301 135.987L303.719 135.136H303.709Z" fill="#7F7F82"/>
<path d="M308.73 133.88C308.035 133.073 307.498 130.779 306.331 131.56C305.618 132.033 305.488 133.674 305.321 134.731L308.739 133.88H308.73Z" fill="#7F7F82"/>
<path d="M313.751 132.627C313.056 131.819 312.519 129.525 311.352 130.307C310.638 130.779 310.509 132.42 310.342 133.477L313.76 132.627H313.751Z" fill="#7F7F82"/>
<path d="M285.007 148.179C283.571 143.247 286.73 138.168 292.047 136.837L367.209 118.079C372.526 116.747 378 119.677 379.436 124.609L379.695 125.503C381.131 130.435 377.972 135.513 372.655 136.845L297.494 155.603C292.177 156.934 286.702 154.004 285.267 149.072L285.007 148.179Z" fill="#706F74"/>
<path d="M288.499 147.44C287.471 143.891 289.741 140.231 293.566 139.277L347.645 125.778C351.47 124.825 355.407 126.93 356.445 130.479L356.63 131.123C357.658 134.672 355.389 138.332 351.563 139.286L297.485 152.785C293.659 153.738 289.713 151.633 288.685 148.085L288.499 147.44Z" fill="#7F7F82"/>
<path d="M332.998 123.507L341.157 151.635L327.337 155.084L319.178 126.956L332.998 123.507Z" fill="#706F74"/>
<path d="M329.924 126.37C329.387 124.506 330.573 122.581 332.592 122.083C334.602 121.584 336.677 122.684 337.224 124.557L344.245 148.771C344.783 150.636 343.597 152.56 341.577 153.059C339.567 153.566 337.492 152.457 336.946 150.584L329.924 126.37Z" fill="#8F8E91"/>
<path d="M314.575 130.203C314.038 128.339 315.224 126.414 317.243 125.907C319.253 125.409 321.328 126.508 321.865 128.382L328.887 152.595C329.424 154.46 328.238 156.385 326.219 156.883C324.209 157.381 322.134 156.282 321.587 154.408L314.566 130.195L314.575 130.203Z" fill="#8F8E91"/>
<path d="M369.812 138.279L364.235 119.049C369.246 118.25 387.393 113.516 395.044 109.864C395.535 109.632 395.98 109.4 396.378 109.177C397.212 108.704 397.833 108.266 398.185 107.853C402.825 102.397 392.914 87.6695 393.729 80.8728C393.887 79.5839 394.424 78.5786 395.526 77.9771C396.721 77.3241 398.138 77.2983 399.657 77.6936C400.361 77.874 401.084 78.1404 401.825 78.4841C406.994 80.8728 412.635 86.6813 414.599 88.8724C420.611 95.5488 423.371 104.958 421.472 113.516C419.573 122.091 412.959 127.839 404.159 130.434C396.267 132.763 380.335 136.226 369.812 138.279Z" fill="#706F74"/>
<path d="M349.266 142.688L399.898 130.048C405.215 128.717 408.374 123.647 406.938 118.706L406.679 117.813C405.252 112.881 399.778 109.95 394.451 111.282L343.819 123.913L349.266 142.679V142.688Z" fill="#706F74"/>
<path d="M348.506 140.051L398.388 127.6C402.214 126.647 404.484 122.995 403.455 119.437L403.27 118.793C402.242 115.244 398.305 113.139 394.47 114.093L344.588 126.543L348.506 140.051Z" fill="#7F7F82"/>
<g style="mix-blend-mode:multiply" opacity="0.3">
<path d="M365.523 123.475L361.762 119.059C366.773 118.26 387.393 113.508 395.054 109.856C395.545 109.624 395.989 109.392 396.388 109.169C396.1 108.73 395.878 108.241 395.73 107.717C395.044 105.354 396.054 102.948 398.073 101.599L392.719 83.142C392.664 82.4976 392.59 81.8531 392.506 81.2087L393.738 80.865C393.896 79.5761 394.433 78.5708 395.535 77.9693C396.73 77.3163 398.148 77.2905 399.667 77.6858C400.371 77.8662 401.093 78.1326 401.834 78.4763C405.827 82.3429 409.013 86.9227 411.32 91.7947C413.765 96.9587 417.443 103.91 414.849 109.633C413.45 112.717 410.727 116.189 404.206 117.813C398.75 119.17 366.467 123.174 365.523 123.467V123.475Z" fill="#5D5D5D"/>
</g>
<path d="M352.1 90.0081L361.012 122.144C363.383 120.151 367.551 118.741 370.423 116.937C371.859 116.035 375.407 112.933 376.481 111.61C377.556 110.278 371.47 91.4774 367.894 86.2617L352.1 90.0081Z" fill="#8F8E91"/>
<path d="M396.388 109.178C396.1 108.739 395.878 108.25 395.73 107.726C395.044 105.363 396.054 102.957 398.073 101.608L392.191 81.3122L392.516 81.2263L393.748 80.8826C393.905 79.5937 394.442 78.5884 395.545 77.9869C396.74 77.3339 398.157 77.3081 399.676 77.7033C402.927 86.6309 409.254 103.988 409.384 104.426C410.505 108.284 408.041 112.254 403.881 113.294C400.371 114.17 396.767 112.675 395.063 109.865C395.554 109.633 395.998 109.401 396.397 109.178H396.388Z" fill="#605F63"/>
<path d="M142.846 156.135C140.595 148.367 156.203 141.158 168.588 138.452C171.089 137.988 346.904 91.3132 359.594 88.1426C359.659 88.1254 359.715 88.1168 359.78 88.0996L368.339 117.615L376.398 115.604C376.805 116.962 377.834 119.093 377.834 119.093C377.834 119.093 383.382 136.115 379.594 143.633C378.473 145.858 375.49 147.921 371.711 149.579C361.836 153.927 346.468 155.585 344.338 150.516C341.003 142.568 336.446 125.408 336.446 125.408L315.076 130.521C315.076 130.521 320.615 140.402 316.937 141.889C312.047 143.865 302.765 134.362 296.253 133.717C269.177 131.062 205.372 150.438 174.266 158.017C172.182 158.429 168.968 159.074 165.364 159.615C156.166 160.998 144.467 161.703 142.846 156.118V156.135ZM152.405 152.827C152.979 154.82 156.99 155.542 161.363 154.451C165.735 153.36 168.81 150.859 168.236 148.874C167.662 146.881 163.651 146.151 159.278 147.242C154.906 148.333 151.831 150.834 152.405 152.818V152.827Z" fill="#EA521C"/>
<g style="mix-blend-mode:multiply" opacity="0.5">
<path d="M142.846 156.135C140.595 148.367 156.203 141.158 168.588 138.452C171.089 137.988 346.904 91.3132 359.594 88.1426C359.659 88.1254 359.715 88.1168 359.78 88.0996L368.339 117.615L376.398 115.604C376.805 116.962 377.834 119.093 377.834 119.093C377.834 119.093 383.382 136.115 379.594 143.633C378.473 145.858 375.49 147.921 371.711 149.579C371.664 148.9 371.609 148.23 371.553 147.594C371.479 146.795 371.377 146.047 371.229 145.377C370.201 140.712 369.043 136.974 366.792 132.738C362.049 123.784 353.592 119.849 343.866 116.567C320.976 108.833 298.911 111.506 275.355 115.475C248.788 119.952 221.147 128.467 197.591 140.737C188.439 145.506 178.657 151.023 169.19 157.115C167.902 157.94 166.633 158.773 165.364 159.624C156.166 161.007 144.467 161.712 142.846 156.126V156.135ZM168.236 148.874C167.662 146.881 163.651 146.151 159.278 147.242C154.906 148.333 151.831 150.834 152.405 152.818C152.979 154.812 156.99 155.534 161.363 154.442C165.735 153.351 168.81 150.851 168.236 148.866V148.874Z" fill="#EA521C"/>
</g>
<path d="M395.721 107.725C395.035 105.362 396.045 102.956 398.064 101.607L392.182 81.3115L392.506 81.2255L393.738 80.8818L398.472 79.5586C398.472 79.5586 407.494 104.288 407.633 104.76C408.513 107.811 406.568 110.947 403.289 111.763C400.565 112.442 397.777 111.317 396.397 109.177C396.11 108.739 395.887 108.249 395.739 107.725H395.721Z" fill="#7F7F82"/>
<path d="M140.928 156.616C140.085 153.712 140.687 149.235 148.32 144.363C152.887 141.45 159.38 138.812 166.142 137.128C166.809 136.965 167.476 136.802 168.125 136.664H168.18C168.264 136.638 168.421 136.595 168.671 136.535C174.331 135.126 218.553 123.432 261.321 112.124C306.294 100.232 352.795 87.936 359.076 86.3722C359.177 86.3464 359.27 86.3292 359.363 86.3121L361.206 85.9512L369.738 115.381L377.778 113.37L378.306 115.131C378.612 116.137 379.371 117.812 379.64 118.371L379.686 118.474L379.723 118.586C379.955 119.307 385.439 136.381 381.372 144.44C378.519 150.094 367.755 153.162 364.522 153.969C359.807 155.147 355.139 155.679 351.387 155.473C345.357 155.138 343.208 152.973 342.467 151.211C339.725 144.69 336.26 132.334 334.982 127.685L317.892 131.775C319.161 134.439 320.847 138.804 319.846 141.433C319.457 142.447 318.716 143.203 317.706 143.615C317.465 143.71 317.215 143.796 316.956 143.856C313.427 144.733 309.305 142.284 304.942 139.689C301.755 137.79 298.467 135.831 296.012 135.59C279.292 133.949 247.64 141.175 225.288 146.752C215.589 149.175 205.891 151.735 197.331 153.995C190.06 155.92 183.196 157.733 177.369 159.185C176.471 159.409 175.582 159.632 174.729 159.838L174.637 159.855L174.377 159.907C170.459 160.68 163.169 162.124 156.444 162.416C147.347 162.811 142.104 160.869 140.882 156.633L140.928 156.616ZM144.763 155.662C145.652 158.721 152.377 158.893 156.305 158.721C160.705 158.532 165.429 157.81 169.19 157.132C170.894 156.822 172.404 156.521 173.59 156.289L173.803 156.246C174.637 156.04 175.498 155.834 176.378 155.611C182.177 154.167 189.022 152.354 196.275 150.438C204.844 148.17 214.561 145.609 224.287 143.177C246.945 137.523 279.088 130.203 296.457 131.904C299.847 132.239 303.543 134.439 307.109 136.561C310.388 138.512 314.112 140.728 315.946 140.273C316.002 140.256 316.048 140.247 316.095 140.23C316.178 140.05 316.539 138.967 315.261 135.59C314.418 133.365 313.325 131.397 313.306 131.38L312.158 129.326L337.891 123.174L338.372 124.987C338.419 125.159 342.939 142.12 346.191 149.862C347.08 151.985 354.249 152.706 363.513 150.395C366.514 149.647 369.265 148.676 371.553 147.611C374.721 146.124 377 144.44 377.796 142.868C380.622 137.274 377.472 124.394 375.972 119.754C375.842 119.471 375.481 118.706 375.129 117.847L366.94 119.892L358.381 90.3763C347.784 93.1001 304.432 104.563 262.414 115.673C217.664 127.505 175.396 138.675 169.709 140.101C169.264 140.213 169.116 140.247 169.023 140.264C168.421 140.402 167.8 140.539 167.189 140.694C160.844 142.275 154.786 144.724 150.58 147.413C147.421 149.433 143.846 152.5 144.772 155.671L144.763 155.662Z" fill="#FFBB4D"/>
<g style="mix-blend-mode:color-dodge" opacity="0.6">
<path d="M350.211 147.337C354.629 150.662 362.864 147.706 367.542 146.065C373.526 143.968 376.37 140.403 375.879 133.975C375.703 131.638 374.554 124.841 372.831 123.003C373.22 126.233 373.378 129.567 373.072 132.489C372.433 138.598 369.626 140.549 363.012 141.872C357.936 142.894 351.693 144.003 348.701 139.328C345.764 134.74 339.187 111.325 336.696 106.428C337.418 108.292 343.754 142.473 350.211 147.345V147.337Z" fill="#FFBB4D"/>
</g>
<path d="M392.812 170.02C392.756 170.166 392.71 170.303 392.664 170.449C390.153 177.418 389.199 184.249 388.171 191.063C386.365 202.946 384.318 214.804 373.378 227.34C371.979 228.947 370.58 230.58 369.2 232.238C368.153 233.493 367.107 234.764 366.079 236.053C364.17 238.433 362.29 240.865 360.484 243.348C352.517 254.226 345.681 266.007 341.994 278.38C341.438 280.253 340.948 282.135 340.54 284.034C337.937 296.201 345.431 330.451 345.033 335.649C341.457 337.23 337.585 338.296 333.778 339.189C328.433 340.435 322.996 341.303 317.577 342.197C312.232 343.082 306.859 343.898 301.477 344.585C290.389 345.994 279.171 346.922 267.963 346.622C257.051 346.338 246.046 344.938 235.764 341.432C233.31 340.59 230.892 339.636 228.539 338.562C230.79 331.344 244.805 244.173 233.782 227.822C215.172 200.231 212.504 173.311 218.627 164.082C220.36 161.479 225.158 156.762 233.745 152.362C237.135 150.627 240.72 148.865 244.212 147.181C255.31 141.828 265.536 137.214 266.147 136.354L316.4 126.061C320.439 134.284 340.883 144.638 349.303 147.765C349.766 147.937 350.257 148.126 350.766 148.341C353.082 149.286 355.861 150.601 358.89 152.13C362.271 153.832 365.958 155.799 369.682 157.801C377.574 162.063 385.577 166.531 390.959 169.161C391.617 169.478 392.238 169.771 392.812 170.037V170.02Z" fill="#DEF0F9"/>
<path d="M283.729 112.579L284.415 112.923C280.709 112.476 276.004 110.938 272.409 112.33C276.17 109.554 280.218 110.525 283.738 112.579H283.729Z" fill="#E07F4F"/>
<path d="M272.363 112.339C272.363 112.339 272.391 112.339 272.4 112.33C272.391 112.33 272.382 112.347 272.372 112.347C272.26 112.425 272.26 112.425 272.372 112.347L272.363 112.339Z" fill="#FFA471"/>
<path d="M262.665 138.297C265.805 145.669 270.233 158.412 276.161 169.006C276.893 168.388 277.615 167.786 278.301 167.211C281.432 164.607 283.961 162.588 284.516 162.373C285.156 162.622 289.546 165.501 294.548 168.938C294.817 169.127 295.095 169.316 295.373 169.505C295.688 169.17 296.012 168.835 296.327 168.499C302.052 162.424 308.517 154.76 314.02 148.178C318.901 142.327 323.023 137.343 325.191 135.083C324.385 133.64 323.283 131.371 322.088 128.622C321.319 126.851 320.513 124.892 319.735 122.813C317.206 116.111 314.881 108.257 314.622 102.234C314.464 98.5306 315.085 95.5232 316.919 93.8906L311 95.1108L305.164 96.3137L267.731 104.03C270.52 109.632 272.752 122.392 269.603 130.847C268.315 134.318 266.11 137.068 262.665 138.305V138.297Z" fill="#FFA471"/>
<path d="M272.28 148.479C273.651 153.171 274.216 163.482 278.301 167.202C281.432 164.599 283.96 162.579 284.516 162.365C285.155 162.614 289.546 165.492 294.548 168.929C295.16 168.8 295.752 168.646 296.327 168.482C302.051 162.407 308.517 154.743 314.019 148.161C317.039 141.648 319.475 134.74 322.088 128.605C321.319 126.834 320.513 124.875 319.735 122.796C317.206 116.094 314.881 108.24 314.622 102.217L311 95.0938L305.164 96.2967C305.182 108.034 307.387 120.837 303.654 132.291C299.634 144.63 287.453 162.313 272.28 148.462V148.479Z" fill="#E07F4F"/>
<path d="M317.743 38.752C319.226 41.2266 356.667 65.4403 359.039 80.924C360.419 89.9461 346.746 86.1998 341.985 84.8164C331.286 81.6973 321.745 75.7771 311.676 71.5324L317.743 38.752Z" fill="#21597C"/>
<path d="M261.507 68.2684C258.376 60.707 252.92 58.8252 250.067 62.5715C247.742 65.6219 247.807 70.5368 247.881 74.0339C247.946 77.3592 250.901 84.1645 254.532 84.113C257.375 84.07 258.783 80.8306 260.182 78.1412L261.507 68.2684Z" fill="#E07F4F"/>
<path d="M260.516 70.6134C259.599 65.054 249.706 59.1682 250.002 68.5598L250.206 68.5942C250.502 60.8093 261.285 67.2451 257.616 74.5316C252.799 73.87 253.198 79.6441 256.616 78.5701C259.061 77.8053 260.951 73.2857 260.516 70.6134Z" fill="#C15F33"/>
<path d="M258.33 110.027C259.173 113.309 260.053 115.5 260.84 116.171C266.277 120.785 275.624 124.248 282.553 124.093C291.89 123.878 300.848 120.639 308.934 116.179C324.635 107.501 322.19 90.1009 324.876 76.1123C326.414 68.0698 327.553 64.7702 329.573 57.0026C329.573 56.994 329.573 56.9854 329.573 56.9682C329.841 55.9371 330.286 54.4077 330.768 52.6892C331.824 48.8827 333.046 44.1052 332.852 41.6478C332.75 40.3847 324.608 32.2562 322.264 30.4088C317.058 26.3359 311.167 22.4693 307.573 20.9398C300.032 17.7348 291.538 14.7017 283.451 13.6792C276.504 12.8027 261.989 27.1608 261.989 27.1608C249.659 42.4555 253.717 92.2748 258.33 110.036V110.027Z" fill="#FFA471"/>
<path d="M301.524 49.5964C310.713 50.2409 310.37 64.4787 310.564 67.5548C310.564 67.5548 295.484 63.671 293.928 66.3776C294.085 65.6301 292.742 48.9864 301.524 49.5964Z" fill="#E07F4F"/>
<path d="M296.355 63.4472C297.568 62.2787 299.013 61.849 300.681 61.66C301.839 61.5311 303.126 61.2905 304.154 61.6858C312.565 64.9423 313.306 71.9366 301.811 71.2492C298.921 71.0774 295.049 70.0721 294.345 66.953C294.002 65.4235 295.327 64.4354 296.346 63.4472H296.355Z" fill="white"/>
<path d="M300.486 66.3256C300.718 69.2127 302.441 71.4553 304.349 71.3264C306.257 71.1975 307.61 68.7487 307.387 65.8616C307.156 62.9745 305.433 60.7319 303.524 60.8608C301.616 60.9896 300.264 63.4385 300.486 66.3256Z" fill="#2D140D"/>
<path d="M304.099 66.4119C304.154 67.0993 304.618 67.6321 305.127 67.5977C305.646 67.5633 306.016 66.979 305.961 66.283C305.905 65.5956 305.442 65.0629 304.933 65.0973C304.414 65.1316 304.043 65.7159 304.099 66.4119Z" fill="white"/>
<path d="M302.913 47.4059C303.006 48.2737 303.497 48.9955 303.552 49.7774C303.552 49.7173 304.034 47.9558 304.191 47.3114C305.887 48.2652 310.981 51.1608 311.157 51.3069C312.287 52.2263 311.963 56.8147 311.963 56.8147C306.785 53.6011 301.45 51.8139 295.169 52.338C294.715 50.1383 293.909 47.698 293.215 45.5413C296.271 45.3265 300.236 46.0483 302.904 47.4059H302.913Z" fill="#562818"/>
<path d="M266.277 43.2974C265.944 44.1137 265.277 44.698 265.018 45.4456C265.036 45.3854 265.055 43.5724 265.073 42.9108C263.174 43.4349 256.19 45.3081 255.995 45.4284C254.865 46.09 254.958 50.2832 254.958 50.2832C260.849 48.3928 266.5 47.9202 272.428 49.8965C273.466 47.8687 274.911 45.7033 276.17 43.7786C273.271 42.8506 269.242 42.61 266.287 43.306L266.277 43.2974Z" fill="#562818"/>
<path d="M293.891 66.9869L295.086 65.5176C297.161 73.0962 305.757 70.7504 310 69.2209C307.526 72.5806 301.468 72.9587 298.8 72.4603C297.865 72.2885 295.429 71.1972 294.678 70.4583C293.65 69.4444 293.465 68.671 293.891 66.9869Z" fill="#E07F4F"/>
<path d="M258.33 110.027C259.173 113.309 260.053 115.5 260.84 116.171C266.277 120.785 275.624 124.248 282.553 124.093C291.89 123.878 300.848 120.639 308.934 116.179C324.635 107.501 322.19 90.101 324.876 76.1124C326.414 68.0699 327.553 64.7703 329.573 57.0027C329.573 56.9941 329.573 56.9855 329.573 56.9683C329.841 55.9372 330.286 54.4078 330.768 52.6893C331.824 48.8828 333.046 44.1053 332.852 41.6479C332.75 40.3848 324.608 32.2563 322.264 30.4089L302.756 29.7559C309.277 41.5018 313.955 55.8771 314.325 69.3415C314.529 76.7053 304.877 76.6022 302.376 83.6738C300.69 88.4427 308.619 106.117 304.747 109.554C302.348 111.685 299.004 113.619 296.16 114.822C292.594 116.334 292.261 115.724 289 114.066C282.942 110.972 277.189 112.665 273.012 117.193C269.112 115.415 264.786 114.169 261.053 111.917C260.117 111.359 259.2 110.714 258.33 110.027Z" fill="#E07F4F"/>
<path d="M293.678 67.8291C293.733 67.8463 293.798 67.8549 293.854 67.8721C297.448 60.1388 306.155 61.4621 310.564 67.5542C308.554 56.3495 294.53 56.8737 293.678 67.8291Z" fill="#2D140D"/>
<path d="M266.092 50.1725C256.884 50.4303 256.523 64.6681 256.18 67.727C256.18 67.727 271.437 64.4876 272.854 67.2544C272.734 66.4983 274.892 49.9319 266.092 50.1725Z" fill="#E07F4F"/>
<path d="M270.575 64.2301C269.427 63.0186 268 62.5202 266.342 62.2624C265.184 62.082 263.915 61.7898 262.868 62.1421C254.309 65.0378 253.225 71.9891 264.74 71.8001C267.639 71.7486 271.548 70.9151 272.409 67.8218C272.826 66.3095 271.557 65.2698 270.575 64.2301Z" fill="white"/>
<path d="M269.232 66.7379C269.251 69.6336 267.722 71.9966 265.814 72.0052C263.906 72.0137 262.34 69.6766 262.322 66.7809C262.303 63.8852 263.832 61.5309 265.74 61.5137C267.648 61.5051 269.214 63.8423 269.232 66.7379Z" fill="#2D140D"/>
<path d="M265.129 66.6697C265.129 67.3657 264.721 67.9243 264.202 67.9243C263.684 67.9243 263.267 67.3657 263.257 66.6783C263.257 65.9823 263.665 65.4238 264.184 65.4238C264.703 65.4238 265.119 65.9823 265.129 66.6697Z" fill="white"/>
<path d="M272.863 67.8724L271.742 66.3516C269.297 73.827 260.821 71.129 256.662 69.4277C258.968 72.8905 264.999 73.5177 267.694 73.1311C268.639 72.9936 271.122 72.014 271.909 71.3008C272.984 70.3385 273.206 69.5652 272.863 67.8724Z" fill="#E07F4F"/>
<path d="M273.03 68.7237C272.974 68.7323 272.91 68.7494 272.854 68.758C269.64 60.8787 260.886 61.8325 256.171 67.7269C258.728 56.6168 272.706 57.7338 273.03 68.7151V68.7237Z" fill="#2D140D"/>
<path d="M256.625 39.57C257.19 37.3187 258.042 35.1362 260.321 34.0793C267.713 30.6509 280.746 20.6493 289.083 21.2335C296.633 21.7663 300.162 32.5069 306.98 35.6002C310.722 37.2929 314.418 38.7107 317.919 40.8588C319.67 41.9329 322.421 44.8028 323.7 45.2754L331.916 49.5201C331.045 51.694 330.814 54.4608 330.258 56.7893C329.647 59.3499 328.804 61.8933 327.924 64.3164C327.034 66.7566 326.58 69.3258 325.83 71.7575C325.487 72.8659 325.219 73.9314 324.848 74.9969C324.348 76.4404 324.404 76.9903 322.755 77.1278C321.402 77.2481 318.207 77.145 316.808 77.0849C318.271 67.9682 315.733 53.1032 306.387 47.4235C301.811 44.6395 299.597 45.7737 294.419 44.4935C288.212 42.964 281.469 42.2164 275.096 42.036C268.417 41.847 260.877 42.0188 255.532 46.0745C254.819 44.313 256.19 41.3056 256.625 39.5614V39.57Z" fill="#562818"/>
<path d="M329.776 18.3971C334.88 31.346 334.621 47.689 331.407 50.6878C331.407 50.6878 290.38 49.2356 256.671 39.191C265.629 -17.4852 321.884 -1.64063 329.776 18.3971ZM300.746 39.105C301.82 32.9184 297.253 24.4548 288.833 23.9736C284.73 23.7416 280.441 24.5751 277.615 27.6426C275.911 29.49 274.188 32.4201 273.799 35.5134L300.755 39.105H300.746Z" fill="#2A6C9E"/>
<path d="M297.402 47.4915C297.216 47.4743 297.04 47.4485 296.864 47.4141C297.031 47.4399 297.207 47.4657 297.402 47.4915Z" fill="#1D5577"/>
<path d="M273.799 35.5047C278.523 35.9859 299.921 38.8901 299.921 38.8901C302.802 39.3799 310.778 40.6688 308.999 45.0596C307.582 48.5739 300.644 47.938 297.402 47.4826C300.699 47.8263 305.775 45.8844 302.265 42.8771C299.838 40.8063 280.385 37.859 273.799 35.4961V35.5047Z" fill="#1D5577"/>
<path d="M254.513 83.4687C256.384 82.7728 269.844 93.2041 292.918 88.4438C300.644 86.8456 317.16 78.4507 317.577 69.9355L322.134 75.9933C324.265 85.677 326.886 102.699 320.55 111.429C314.548 119.695 298.217 129.189 288.296 131.656C278.681 134.044 263.341 127.093 257.626 116.447C250.465 103.12 254.504 89.2085 254.522 83.4773L254.513 83.4687Z" fill="#562818"/>
<path d="M259.645 91.5703C262.878 88.9668 266.287 91.4328 269.14 93.2802C276.133 97.8085 284.266 96.6914 292.01 94.5691C295.79 93.538 299.337 90.4962 303.293 90.2471C307.211 89.9979 310.231 96.6399 306.933 99.716C306.933 99.716 282.469 124.926 260.164 100.111C257.968 97.671 256.82 93.8387 259.645 91.5703Z" fill="#FFA471"/>
<path d="M276.244 63.5769C279.292 70.1502 274.318 85.8659 278.606 86.4502C283.72 87.1462 285.878 87.7305 288.953 89.3115C284.665 91.9494 278.31 93.4273 273.493 89.3115C271.557 87.6618 277.161 71.5938 276.244 63.5684V63.5769Z" fill="#E07F4F"/>
<path d="M276.874 112.159C277.94 109.77 278.857 106.651 280.144 104.512C281.163 104.804 282.201 104.641 283.266 104.709C283.757 107.571 284.322 110.269 285.637 112.915L276.884 112.159H276.874Z" fill="#562818"/>
<path d="M262.757 93.4704C263.304 94.3297 264.332 95.5756 265.49 96.3575C266.074 96.6067 266.648 96.8387 267.213 97.0621C267.324 97.0707 267.435 97.0793 267.546 97.0707L267.407 97.1394C279.644 101.848 288.027 99.9835 300.097 95.6787L300.032 95.6615C300.097 95.6615 300.162 95.6443 300.227 95.6357C300.495 95.5412 300.764 95.4467 301.033 95.3436C302.478 94.5788 303.691 92.6369 304.21 91.4512C306.498 92.7916 306.859 94.6991 307.1 97.0363C305.979 95.2405 304.766 94.914 303.2 95.3608C300.116 97.569 285.387 111.764 276.189 103.567C281.969 105.466 286.712 103.644 291.306 100.843C282.516 103.163 272.706 102.501 265.583 97.4745C263.313 96.8301 261.803 97.0191 260.784 99.3906C260.655 97.0449 260.71 95.1116 262.767 93.479L262.757 93.4704Z" fill="#E07F4F"/>
<path d="M319.383 72.2457C322.208 63.7563 331.471 61.9948 334.575 65.956C337.103 69.1696 336.168 74.0845 335.473 77.5644C334.806 80.8812 329.748 87.463 324.978 87.1451C321.236 86.8959 319.957 83.5534 318.568 80.7695C318.568 80.7695 318.577 74.6344 319.374 72.2543L319.383 72.2457Z" fill="#E07F4F"/>
<path d="M319.448 73.2245C321.615 67.7425 335.64 62.5956 333.63 71.9528L333.352 71.97C334.306 64.1766 319.012 69.8047 322.579 77.3575C329.026 77.0482 327.507 82.788 323.199 81.4648C320.115 80.5196 318.41 75.871 319.448 73.2245Z" fill="#C15F33"/>
<path d="M284.516 162.372C285.193 162.639 290.028 165.818 295.364 169.504C301.357 173.637 307.971 178.397 310.046 180.391C310.815 172.185 315.159 161.994 318.762 154.356C321.495 148.573 326.84 143.065 330.953 138.305C327.025 134.232 321.551 125.407 319.457 122.297C313.279 130.245 284.507 162.381 284.507 162.381L284.516 162.372Z" fill="white"/>
<path d="M256.736 139.989C260.858 144.749 263.711 171.059 264.48 179.274C266.546 177.28 271.622 172.847 276.152 169.014C280.2 165.586 283.831 162.647 284.516 162.381C284.516 162.381 275.772 138.941 269.603 130.855C269.566 130.804 269.529 130.752 269.491 130.709C266.972 135.744 260.803 135.779 256.745 140.006L256.736 139.989Z" fill="white"/>
<path d="M212.403 123.749C209.494 115.965 201.509 114.951 201.87 124.6C197.758 116.978 191.912 120.287 194.942 127.874C193.635 125.64 191.394 122.014 188.448 123.225C185.234 124.548 185.651 129.352 186.521 131.715C184.937 130.409 183.057 128.475 181.306 129.438C177.434 131.569 179.833 136.054 180.361 138.898L182.121 142.112C184.057 146.511 188.003 142.361 188.587 139.534C191.208 146.33 195.201 138.09 195.006 134.713C196.164 137.016 197.063 140.823 200.694 138.95C202.871 137.824 203.649 132.72 203.927 130.855C205.872 132.359 209.049 135.607 211.597 134.026C214.329 132.333 213.329 126.224 212.412 123.758L212.403 123.749Z" fill="#FFA471"/>
<path d="M205.613 158.283L205.529 158.154C205.474 158.447 205.492 158.542 205.613 158.283Z" fill="#FFA471"/>
<path d="M221.657 143.753C221.091 142.095 219.294 128.175 218.646 126.8C215.932 121.009 210.309 136.286 210.124 138.907C201.509 138.752 192.793 154.107 197.572 157.69L205.529 158.154C205.687 157.278 223.342 148.72 221.657 143.745V143.753Z" fill="#FFA471"/>
<path d="M207.085 156.281C206.076 161.591 205.594 166.91 204.955 171.258C203.149 183.391 202.287 194.973 201.778 207.329C200.777 231.414 197.118 250.593 176.137 268.035C168.606 274.299 158.167 272.787 153.137 265.827C152.822 265.389 152.498 264.873 152.173 264.298C153.489 264.186 154.702 263.842 155.629 262.725C157.602 260.371 155.249 256.161 155.842 253.402C166.411 268.181 179.027 248.092 184.437 238.331C191.829 224.978 194.404 211.686 196.035 196.58C197.294 184.851 200.629 163.929 207.095 156.281H207.085Z" fill="#E07F4F"/>
<path d="M200.156 610.794C199.925 610.424 199.637 610.174 199.276 610.088L200.156 610.794Z" fill="#2F6C81"/>
<path d="M200.156 610.793C203.037 615.433 196.572 640.746 195.488 645.782C199.489 646.203 204.807 647.904 208.91 647.698C212.847 640.351 215.07 632.669 217.358 624.489L200.156 610.802V610.793Z" fill="#FFA471"/>
<path d="M301.718 351.135C301.681 357.433 300.449 360.965 298.754 364.316C297.55 366.687 296.114 368.973 294.696 372.075C293.881 373.854 293.075 375.907 292.325 378.399C291.825 380.057 291.13 382.137 290.287 384.568C290.037 385.282 289.778 386.021 289.5 386.785C289.12 387.859 288.712 388.985 288.286 390.171C287.499 392.336 286.638 394.665 285.72 397.139C284.924 399.279 284.081 401.539 283.21 403.876C283.201 403.91 283.182 403.945 283.173 403.979C282.979 404.503 282.775 405.044 282.58 405.577C280.552 411.008 278.366 416.868 276.115 422.96C275.809 423.802 275.494 424.644 275.179 425.503C274.734 426.723 274.29 427.943 273.836 429.172C273.725 429.482 273.614 429.791 273.502 430.1C272.826 431.948 272.159 433.812 271.483 435.685C271.372 435.995 271.261 436.313 271.15 436.622C270.149 439.432 269.149 442.25 268.167 445.068C268.056 445.378 267.944 445.696 267.833 446.005C267.796 446.108 267.759 446.22 267.722 446.323C267.454 447.105 267.176 447.895 266.907 448.677C266.787 449.038 266.657 449.399 266.536 449.76C266.435 450.069 266.323 450.379 266.222 450.688C266.008 451.315 265.795 451.942 265.582 452.561C265.304 453.386 265.027 454.202 264.758 455.018C264.1 456.986 263.461 458.928 262.831 460.853C262.451 462.03 262.072 463.199 261.71 464.358C261.034 466.489 260.386 468.586 259.765 470.64C259.682 470.932 259.589 471.215 259.506 471.507C258.82 473.81 258.172 476.053 257.57 478.235C257.496 478.51 257.421 478.777 257.347 479.052C256.819 480.994 256.328 482.884 255.875 484.706C255.782 485.101 255.68 485.487 255.587 485.883C255.569 485.951 255.56 486.012 255.541 486.08C255.43 486.527 255.328 486.974 255.226 487.412C255.069 488.1 254.92 488.77 254.781 489.431C254.744 489.603 254.707 489.767 254.67 489.938C254.485 490.806 254.318 491.657 254.161 492.482C254.133 492.619 254.105 492.765 254.077 492.903C254.05 493.023 254.031 493.152 254.013 493.272C253.976 493.496 253.929 493.711 253.892 493.934C253.827 494.269 253.772 494.604 253.716 494.931C253.577 495.773 253.448 496.598 253.346 497.388C253.327 497.569 253.299 497.749 253.281 497.929C253.225 498.393 253.17 498.849 253.123 499.296C253.105 499.485 253.086 499.665 253.068 499.854C253.049 500.043 253.031 500.224 253.021 500.404C253.012 500.559 252.994 500.705 252.984 500.86C252.984 500.928 252.975 500.988 252.975 501.057C252.966 501.212 252.957 501.375 252.947 501.53C252.929 501.848 252.91 502.166 252.901 502.466C252.531 513.808 253.661 540.54 252.707 552.045C252.012 560.337 232.402 606.152 216.923 634.215H195.006C196.461 619.926 198.109 602.096 200.305 585.229C200.712 582.085 201.148 578.974 201.592 575.924C204.001 559.632 207.03 545.111 211.032 536.845C214.626 529.412 218.127 517.933 220.156 507.776C220.989 503.575 221.582 499.605 221.814 496.237C222.963 480.023 227.316 419.48 231.299 371.74C232.68 355.182 234.013 340.162 235.153 329.061C236.32 317.667 238.932 313.345 239.219 312.254L278.801 320.726L300.782 325.435C298.318 331.192 301.755 344.261 301.718 351.161V351.135Z" fill="#247DBA"/>
<path d="M302.274 348.231L300.995 348.403C301.56 348.085 301.996 348.008 302.274 348.231Z" fill="#21484F"/>
<path d="M175.387 661.651L212.44 661.547C212.56 660.353 212.68 658.506 212.764 656.856C212.838 655.498 212.884 654.261 212.884 653.625C212.884 649.724 213.403 645.23 211.522 641.587C210.902 640.393 208.308 640.04 206.159 639.963C204.464 639.903 203.047 640.015 203.047 640.015C203.047 640.006 203.028 639.997 203.019 639.98C198.73 640.195 196.831 641.793 195.154 644.165C194.487 645.11 193.848 646.175 193.117 647.318C192.922 647.628 192.718 647.937 192.505 648.255C192.394 648.418 192.264 648.581 192.107 648.727C191.218 649.63 189.671 650.274 187.883 650.841C186.771 651.194 185.558 651.511 184.354 651.829C180.713 652.809 177.101 653.84 176.156 656.014C175.822 656.787 173.349 660.697 175.396 661.651H175.387Z" fill="#141D1E"/>
<path d="M214.107 661.865C214.2 661.616 214.246 661.349 214.246 661.074C214.246 659.588 212.829 658.385 211.078 658.385H175.674C173.923 658.385 172.506 659.588 172.506 661.074C172.506 661.349 172.552 661.616 172.645 661.865H214.107Z" fill="#080C0C"/>
<path d="M192.088 648.728H200.203C200.62 648.728 200.962 648.41 200.962 648.023C200.962 647.636 200.62 647.318 200.203 647.318H193.098C192.903 647.628 192.7 647.937 192.487 648.256C192.375 648.419 192.246 648.582 192.088 648.728Z" fill="#3D4444"/>
<path d="M184.335 651.831C184.456 652.08 184.724 652.252 185.03 652.252H195.96C196.377 652.252 196.72 651.934 196.72 651.547C196.72 651.16 196.377 650.842 195.96 650.842H187.864C186.753 651.194 185.539 651.512 184.335 651.831Z" fill="#3D4444"/>
<path d="M212.884 653.626C212.884 654.262 212.838 655.499 212.764 656.857C212.68 658.507 212.551 660.354 212.44 661.548H194.803C195.72 660.629 196.748 660.071 197.989 659.486C201.129 658.008 204.427 656.642 206.761 654.099C208.966 651.684 209.781 648.058 209.318 644.862C209.096 643.298 207.817 641.15 206.15 639.973C208.308 640.05 210.893 640.394 211.513 641.597C213.403 645.231 212.875 649.734 212.875 653.635L212.884 653.626Z" fill="#080C0C"/>
<path d="M344.948 613.13C345.273 612.82 345.616 612.656 345.987 612.656L344.948 613.13Z" fill="#2F6C81"/>
<path d="M344.949 613.129C340.901 616.953 340.308 642.962 339.993 648.083C336.001 647.55 330.397 647.972 326.478 646.812C324.653 638.778 324.589 630.829 324.589 622.374L344.949 613.129Z" fill="#FFA471"/>
<path d="M324.894 652.67C324.894 653.306 324.941 654.543 325.015 655.901C325.098 657.551 325.228 659.398 325.339 660.592H359.048C361.095 659.639 359.048 655.978 358.705 655.205C356.871 650.952 347.737 650.926 345.292 647.3C344.273 645.796 343.486 644.404 342.633 643.21C340.947 640.838 339.058 639.24 334.769 639.025C334.76 639.034 334.75 639.042 334.741 639.06C334.741 639.06 333.315 638.948 331.629 639.008C329.47 639.085 326.886 639.429 326.265 640.632C324.376 644.267 324.894 648.769 324.894 652.67Z" fill="#141D1E"/>
<path d="M323.653 660.91C323.57 660.66 323.523 660.394 323.523 660.119C323.523 658.633 324.82 657.43 326.423 657.43H358.862C360.465 657.43 361.762 658.633 361.762 660.119C361.762 660.394 361.715 660.66 361.632 660.91H323.644H323.653Z" fill="#080C0C"/>
<path d="M331.045 647.076C331.045 647.463 331.388 647.781 331.805 647.781H342.735C343.152 647.781 343.495 647.463 343.495 647.076C343.495 646.689 343.152 646.371 342.735 646.371H331.805C331.388 646.371 331.045 646.689 331.045 647.076Z" fill="#3D4444"/>
<path d="M334.231 650.738C334.231 651.125 334.574 651.443 334.991 651.443H345.922C346.338 651.443 346.681 651.125 346.681 650.738C346.681 650.351 346.338 650.033 345.922 650.033H334.991C334.574 650.033 334.231 650.351 334.231 650.738Z" fill="#3D4444"/>
<path d="M324.894 652.671C324.894 653.307 324.941 654.544 325.015 655.902C325.098 657.552 325.228 659.399 325.339 660.593H342.976C342.059 659.674 341.031 659.115 339.79 658.531C336.649 657.053 333.352 655.687 331.017 653.144C328.813 650.729 327.998 647.103 328.461 643.907C328.683 642.343 329.961 640.195 331.629 639.018C329.47 639.095 326.886 639.439 326.265 640.642C324.376 644.276 324.894 648.779 324.894 652.68V652.671Z" fill="#080C0C"/>
<path d="M345.431 634.196H323.959C320.828 617.346 317.345 597.91 315.539 581.052C314.992 575.991 314.603 571.153 314.409 566.702C314.14 560.301 314.288 554.664 315.029 550.222C316.808 539.498 314.214 516.376 311.769 504.389C311.639 503.762 311.509 503.161 311.379 502.594C309.184 492.858 303.913 467.416 298.04 438.536C294.835 422.778 291.445 405.988 288.286 390.178C286.934 383.372 285.609 376.748 284.368 370.467C284.035 368.757 283.701 367.081 283.377 365.431C280.255 349.612 277.689 336.371 276.235 328.475C275.438 324.136 274.984 321.403 274.957 320.767L278.81 320.716L334.593 319.917L338.335 319.865C337.622 325.983 344.727 337.858 346.691 344.543C347.283 346.554 347.83 348.573 348.339 350.592C350.665 359.777 352.156 369.092 352.563 378.535C352.647 380.365 352.684 382.187 352.684 384.017C352.665 404.226 336.418 475.785 343.273 501.734C346.19 512.793 354.398 548.031 356.797 559.373C358.501 567.407 349.757 604.045 345.44 634.188L345.431 634.196Z" fill="#247DBA"/>
<path d="M352.554 378.536C352.499 381.801 352.397 385.17 352.258 388.675C348.071 389.621 343.726 388.847 339.289 387.094C322.727 380.53 304.886 360.174 288.925 364.006C287.082 364.445 285.229 364.926 283.377 365.433C274.012 368.002 264.637 371.344 255.828 375.013C247.658 378.407 240.322 373.57 231.336 373.063C230.568 336.149 225.213 232.507 232.105 208.37C259.654 201.273 325.228 210.295 333.009 209.9C332.425 213.182 331.768 216.585 331.156 220.065C329.572 229.113 328.285 238.693 329.257 248.128C329.832 253.687 331.582 260.553 337.529 263.208C341.772 265.107 348.173 263.354 350.35 259.298L345.375 290.721C345.375 308.026 353.453 329.696 352.563 378.553L352.554 378.536Z" fill="#247DBA"/>
<path d="M345.431 634.197H323.959C320.828 617.347 317.345 597.911 315.539 581.052C314.992 575.991 314.603 571.154 314.408 566.703C326.543 559.408 333.843 544.156 332.694 530.537C333.713 532.333 335.816 534.274 336.594 535.813C337.307 527.839 333.259 523.018 331.443 516.273C329.665 509.674 330.702 501.331 330.702 494.242C330.702 463.3 332.194 432.926 337.048 403.385C337.909 398.152 338.678 392.696 339.28 387.093C341.716 364.71 341.605 340.204 334.574 319.917C333.944 318.087 333.25 316.291 332.499 314.538C327.849 315.672 322.291 317.769 317.521 318.01C319.438 313.937 323.57 310.792 327.266 307.75C321.393 307.613 313.241 307.647 309.36 303.248C318.28 301.452 329.554 302.32 332.777 294.492C333.305 293.22 332.926 283.519 332.666 281.294C331.99 275.356 331.138 276.869 327.877 271.593C318.781 256.865 322.514 232.686 330.684 219.771L331.128 220.046C329.544 229.094 328.257 238.675 329.23 248.11C329.804 253.669 331.555 260.534 337.502 263.189C341.744 265.088 348.145 263.335 350.322 259.28L345.347 290.703C345.347 308.008 353.425 329.678 352.536 378.535C352.619 380.365 352.656 382.187 352.656 384.017C352.638 404.227 336.39 475.785 343.245 501.735C346.163 512.793 354.37 548.031 356.769 559.373C358.473 567.407 349.729 604.046 345.412 634.188L345.431 634.197Z" fill="#196893"/>
<path d="M322.152 221.517L331.064 222.033C331.48 215.863 335.139 199.409 341.994 182.163C347.302 168.811 353.11 158.525 358.881 152.115C355.852 150.586 353.073 149.28 350.757 148.326C343.43 157.082 337.64 169.18 333.62 179.302C326.877 196.29 322.68 213.732 322.152 221.526V221.517Z" fill="#247DBA"/>
<path d="M233.374 217.143L242.054 215.209C240.498 209.195 238.802 192.474 239.914 174.12C240.553 163.422 242.026 154.306 244.203 147.174C240.711 148.858 237.126 150.619 233.735 152.355C232.198 159.556 231.392 167.048 231.003 173.656C229.91 191.726 231.41 209.547 233.374 217.143Z" fill="#247DBA"/>
<path d="M322.328 216.601C322.328 218.561 324.042 220.15 326.154 220.15C328.266 220.15 329.98 218.561 329.98 216.601C329.98 214.642 328.266 213.053 326.154 213.053C324.042 213.053 322.328 214.642 322.328 216.601Z" fill="#16445B"/>
<path d="M233.569 213.053C233.569 215.012 235.283 216.601 237.395 216.601C239.507 216.601 241.22 215.012 241.22 213.053C241.22 211.094 239.507 209.504 237.395 209.504C235.283 209.504 233.569 211.094 233.569 213.053Z" fill="#16445B"/>
<path d="M305.571 229.663V250.251C302.125 250.835 289.833 248.841 285.044 251.007C280.487 253.069 278.514 255.071 276.374 258.345C273.762 254.323 271.27 252.906 269.232 250.534C260.645 249.116 255.967 249.589 250.474 249.537C246.648 243.145 246.648 237.465 248.251 226.965C257.653 227.197 288.74 228.237 305.571 229.663Z" fill="#2992CC"/>
<path d="M300.328 374.153C297.299 385.134 293.399 395.918 294.511 408.583C295.419 418.92 297.651 428.458 298.05 438.537C294.844 422.778 291.454 405.988 288.295 390.178C287.508 392.344 286.647 394.672 285.73 397.147C284.933 399.286 284.09 401.546 283.219 403.883C283.21 403.918 283.191 403.952 283.182 403.986C282.988 404.511 282.784 405.052 282.589 405.585C280.561 411.015 278.375 416.875 276.124 422.967C275.809 423.809 275.503 424.651 275.188 425.511C274.743 426.731 274.299 427.951 273.845 429.18C273.734 429.489 273.623 429.798 273.511 430.108C272.835 431.955 272.168 433.82 271.492 435.693C271.381 436.002 271.27 436.32 271.159 436.629C270.158 439.439 269.158 442.257 268.176 445.076C268.065 445.385 267.953 445.703 267.842 446.012C267.805 446.115 267.768 446.227 267.731 446.33C267.463 447.112 267.185 447.903 266.916 448.685C266.796 449.045 266.666 449.406 266.545 449.767C266.434 450.077 266.332 450.386 266.231 450.695C266.018 451.322 265.804 451.95 265.591 452.568C265.313 453.393 265.036 454.21 264.767 455.026C264.109 456.994 263.47 458.935 262.84 460.86C262.46 462.037 262.081 463.206 261.719 464.366C261.043 466.497 260.395 468.593 259.774 470.647C259.681 470.939 259.598 471.223 259.515 471.515C258.829 473.818 258.181 476.06 257.579 478.243C257.505 478.518 257.431 478.784 257.356 479.059C256.828 481.001 256.337 482.891 255.884 484.713C255.791 485.108 255.689 485.495 255.596 485.89C255.578 485.959 255.569 486.019 255.55 486.088C255.439 486.535 255.337 486.981 255.235 487.42C255.078 488.107 254.929 488.777 254.791 489.439C254.753 489.611 254.716 489.774 254.679 489.946C254.494 490.814 254.327 491.664 254.17 492.489C254.142 492.627 254.114 492.773 254.087 492.91C254.059 493.031 254.04 493.159 254.022 493.28C253.985 493.503 253.938 493.718 253.901 493.941C253.836 494.276 253.781 494.612 253.725 494.938C253.586 495.78 253.457 496.605 253.355 497.396C253.336 497.576 253.308 497.756 253.29 497.937C253.234 498.401 253.179 498.856 253.132 499.303C253.114 499.492 253.095 499.681 253.077 499.862C253.058 500.051 253.04 500.231 253.031 500.411C253.021 500.566 253.003 500.712 252.993 500.867C252.993 500.936 252.984 500.996 252.984 501.065C252.975 501.219 252.966 501.382 252.956 501.537C252.938 501.855 252.919 502.173 252.91 502.474C252.54 513.816 253.67 540.547 252.716 552.052C252.021 560.344 232.411 606.159 216.932 634.223H195.015C196.47 619.933 198.118 602.104 200.314 585.237C214.218 585.434 227.742 577.701 234.791 565.465C245.24 547.309 243.777 528.071 242.535 508.076C239.895 507.939 237.413 508.093 235.079 508.531C238.46 504.768 243.545 503.058 245.676 498.736C248.056 493.907 247.334 486.93 248.186 481.697C249.937 470.913 251.965 460.516 254.114 449.733C258.477 427.951 265.341 408.051 273.187 387.42C269.63 387.085 266.879 387.961 263.377 387.841C267.249 384.756 274.475 382.204 279.292 380.013C277.124 376.095 259.774 361.17 257.292 355.576C263.331 359.46 286.322 374.531 286.322 374.531C287.351 374.179 303.07 369.891 307.433 368.035C305.256 369.977 302.783 372.022 300.328 374.17V374.153Z" fill="#196893"/>
<path d="M433.718 377.538C433.7 378.157 433.681 378.767 433.663 379.377C433.653 379.764 433.644 380.159 433.635 380.546C428.179 381.439 423.214 383.433 416.943 383.545C416.415 383.553 415.887 383.545 415.34 383.527C414.506 383.502 413.654 383.441 412.774 383.33C412.672 382.943 412.552 382.531 412.432 382.101C412.163 381.164 411.857 380.116 411.514 378.982C406.837 363.455 395.461 330.108 393.192 318.577C390.654 305.671 391.46 285.461 385.652 274.927C383.391 270.828 379.455 263.138 374.99 254.184C373.341 250.868 371.609 247.388 369.877 243.848C361.447 226.68 352.684 208.223 350.22 201.925L403.178 186.768C418.592 199.484 422.843 234.808 425.77 254.966C427.475 266.721 425.372 277.908 429.142 290.024C432.857 301.976 435.469 314.701 435.756 326.868C436.164 343.718 434.293 361.015 433.728 377.53L433.718 377.538Z" fill="#FFA471"/>
<path d="M413.858 380.898C410.542 382.084 406.262 392.335 405.706 395.11C405.262 397.327 405.706 399.639 405.354 401.873C405.039 403.918 403.687 406.1 403.418 408.257C403.066 411.17 402.77 411.333 406.475 410.637C408.374 410.276 410.579 409.194 412.135 408.154C416.164 405.464 417.906 401.899 420.24 398.307L413.849 380.898H413.858Z" fill="#E07F4F"/>
<path d="M412.135 408.163C412.117 408.232 412.107 408.3 412.098 408.369H411.829C411.941 408.3 412.042 408.232 412.144 408.163H412.135ZM455.7 411.093V437.712C455.7 438.056 455.681 438.4 455.653 438.735C455.098 444.586 449.781 449.192 443.333 449.192H403.548C397.101 449.192 391.784 444.586 391.228 438.735C391.191 438.4 391.182 438.056 391.182 437.712V411.093C391.182 404.769 396.73 399.613 403.557 399.613H443.343C443.454 399.613 443.565 399.613 443.676 399.613C450.346 399.777 455.718 404.855 455.718 411.084L455.7 411.093ZM446.261 411.093C446.261 409.804 445.288 408.713 443.982 408.438C443.769 408.395 443.556 408.369 443.333 408.369H403.548C403.548 408.369 403.455 408.369 403.409 408.369C401.853 408.438 400.612 409.632 400.612 411.084V437.704C400.612 438.065 400.686 438.408 400.825 438.726C401.26 439.723 402.316 440.428 403.539 440.428H443.324C444.556 440.428 445.603 439.723 446.048 438.726C446.186 438.408 446.261 438.065 446.261 437.704V411.084V411.093Z" fill="#14333F"/>
<path d="M506.425 445.824V521.782C506.425 525.7 502.84 528.879 498.403 528.879H335.612C331.184 528.879 327.59 525.7 327.59 521.782V445.824C327.59 441.906 331.184 438.727 335.612 438.727H498.412C502.84 438.727 506.434 441.906 506.434 445.824H506.425Z" fill="#A3343F"/>
<path d="M506.425 445.824V521.782C506.425 525.7 502.84 528.879 498.403 528.879H374.906C370.478 528.879 366.884 525.7 366.884 521.782V445.824C366.884 441.906 370.469 438.727 374.906 438.727H498.403C502.83 438.727 506.425 441.906 506.425 445.824Z" fill="#C0434B"/>
<path d="M506.425 455.5V428.82C506.425 424.713 502.84 421.379 498.403 421.379H335.612C331.184 421.379 327.59 424.704 327.59 428.82V455.5H506.425Z" fill="#A3343F"/>
<path d="M506.425 428.819V455.508H366.588V428.819C366.588 424.712 370.182 421.387 374.619 421.387H498.394C502.831 421.387 506.425 424.712 506.425 428.819Z" fill="#C0434B"/>
<g style="mix-blend-mode:color-dodge" opacity="0.4">
<path d="M423.816 451.9H450.216V529.233H423.816V451.9Z" fill="#C0434B"/>
</g>
<path d="M403.706 452.965H393.062C392.191 452.965 391.497 453.704 391.497 454.606V472.143C391.497 473.054 392.201 473.785 393.062 473.785H403.706C404.567 473.785 405.271 473.046 405.271 472.143V454.606C405.271 453.695 404.567 452.965 403.706 452.965Z" fill="#A3343F"/>
<path d="M484.536 453.086H473.893C473.022 453.086 472.327 453.825 472.327 454.727V472.264C472.327 473.175 473.031 473.906 473.893 473.906H484.536C485.407 473.906 486.102 473.167 486.102 472.264V454.727C486.102 453.816 485.398 453.086 484.536 453.086Z" fill="#A3343F"/>
<path d="M374.462 424.576C374.462 424.576 497.514 423.734 499.561 424.206C501.599 424.679 503.896 426.097 503.896 430.118V445.499C503.896 445.499 502.618 429.646 499.561 427.283C496.504 424.92 374.462 424.576 374.462 424.576Z" fill="#E55368"/>
<path d="M509 453.068C509 455.027 507.286 456.617 505.174 456.617H326.617C324.505 456.617 322.792 455.027 322.792 453.068C322.792 452.089 323.218 451.204 323.913 450.559C324.607 449.915 325.561 449.52 326.617 449.52H505.174C507.286 449.52 509 451.109 509 453.068Z" fill="#BC3F51"/>
<path d="M509 453.068C509 455.027 507.11 456.617 504.776 456.617H367.32C364.986 456.617 363.096 455.027 363.096 453.068C363.096 452.089 363.568 451.204 364.337 450.559C365.097 449.915 366.153 449.52 367.32 449.52H504.776C507.11 449.52 509 451.109 509 453.068Z" fill="#D14A57"/>
<path d="M405.253 471.18C405.253 472.091 404.549 472.822 403.687 472.822H395.526C394.656 472.822 393.961 472.083 393.961 471.18V453.643C393.961 452.732 394.665 452.002 395.526 452.002H403.687C404.558 452.002 405.253 452.741 405.253 453.643V471.18Z" fill="#AAAEAF"/>
<path d="M407.735 471.18C407.735 472.091 407.031 472.822 406.17 472.822H398.009C397.138 472.822 396.443 472.083 396.443 471.18V453.643C396.443 452.732 397.147 452.002 398.009 452.002H406.17C407.031 452.002 407.735 452.741 407.735 453.643V471.18Z" fill="#CECECE"/>
<path d="M405.707 467.856C405.707 469.033 404.799 469.986 403.678 469.986C402.557 469.986 401.649 469.033 401.649 467.856V456.969C401.649 455.792 402.557 454.838 403.678 454.838C404.799 454.838 405.707 455.792 405.707 456.969V467.856Z" fill="#DDDDDD"/>
<path d="M486.092 471.302C486.092 472.212 485.388 472.943 484.527 472.943H476.366C475.495 472.943 474.8 472.204 474.8 471.302V453.764C474.8 452.853 475.504 452.123 476.366 452.123H484.527C485.398 452.123 486.092 452.862 486.092 453.764V471.302Z" fill="#AAAEAF"/>
<path d="M488.575 471.302C488.575 472.212 487.871 472.943 487.009 472.943H478.848C477.978 472.943 477.283 472.204 477.283 471.302V453.764C477.283 452.853 477.987 452.123 478.848 452.123H487.009C487.88 452.123 488.575 452.862 488.575 453.764V471.302Z" fill="#CECECE"/>
<path d="M486.537 467.977C486.537 469.154 485.629 470.108 484.508 470.108C483.387 470.108 482.48 469.154 482.48 467.977V457.09C482.48 455.913 483.387 454.959 484.508 454.959C485.629 454.959 486.537 455.913 486.537 457.09V467.977Z" fill="#DDDDDD"/>
<path d="M443.973 409.314C437.85 417.829 410.051 417.649 412.144 408.163C413.099 403.858 418.721 395.248 408.393 396.537C409.477 392.722 409.801 386.398 411.82 383.09C412.024 382.755 412.228 382.428 412.432 382.102C413.247 380.787 414.071 379.507 414.831 378.278C415.442 377.29 416.016 376.336 416.526 375.4H419.574L431.31 375.365C431.829 375.769 432.384 376.147 432.857 376.628C433.153 376.929 433.45 377.238 433.728 377.539C440.138 384.456 442.611 392.361 443.528 398.582C444.343 404.081 443.945 408.275 443.973 409.314Z" fill="#FFA471"/>
<path d="M398.98 287.086C398.98 287.086 398.962 287.086 398.943 287.095C398.943 287.095 398.953 287.112 398.962 287.121C399.167 287.293 399.167 287.285 398.98 287.086Z" fill="#E07F4F"/>
<path d="M443.972 409.314C437.85 417.83 410.051 417.649 412.144 408.163C413.098 403.858 418.721 395.248 408.393 396.537C409.476 392.722 409.801 386.398 411.82 383.09C412.024 382.755 412.228 382.428 412.431 382.102C412.163 381.165 411.857 380.117 411.514 378.983C406.836 363.456 395.461 330.109 393.192 318.577C390.654 305.672 391.46 285.462 385.652 274.928C383.391 270.829 379.455 263.139 374.99 254.185L384.271 246.271C386.281 254.031 385.883 262.305 388.338 269.935C390.45 276.491 394.489 281.905 398.953 287.095C389.811 289.457 400.047 326.483 401.223 332.764C406.716 362.21 416.294 374.601 416.924 377.35C417.119 378.184 416.535 380.865 415.525 383.15C415.47 383.27 415.414 383.399 415.349 383.528C414.599 385.083 413.145 387.696 413.839 389.208C414.84 391.373 417.989 390.583 418.86 392.121C421.074 396.022 416.97 402.131 420.111 406.591C423.075 410.801 426.9 408.189 428.132 404.039C430.532 410.268 434.682 406.651 436.201 402.475C436.729 406.711 440.554 404.056 442.055 402.088C442.815 401.091 443.25 399.871 443.537 398.591C444.352 404.09 443.954 408.283 443.982 409.323L443.972 409.314Z" fill="#E07F4F"/>
<path d="M428.864 244.587C428.54 245.352 428.077 246.117 427.447 246.873C427.03 247.38 426.159 248.119 424.918 249.021C418.499 253.695 402.196 262.752 387.291 265.888C386.115 266.137 384.948 266.344 383.79 266.515C383.493 266.558 383.197 266.601 382.9 266.636C382.391 266.704 381.881 266.756 381.372 266.808C376.277 267.289 371.544 266.859 367.69 265.029C366.894 261.454 365.828 257.622 364.485 253.67C363.337 250.276 361.993 246.796 360.465 243.341C358.39 238.65 355.972 233.984 353.23 229.619C348.849 222.625 343.643 216.369 337.715 211.91L366.032 156.531C367.273 156.935 368.487 157.348 369.682 157.777C377.917 160.785 384.938 164.643 390.959 169.136C391.534 169.566 392.099 169.996 392.655 170.434C412.441 186.064 420.944 208.705 426.484 229.782C426.548 230.032 426.623 230.281 426.687 230.53C428.234 235.978 430.606 240.394 428.855 244.57L428.864 244.587Z" fill="#DEF0F9"/>
<g style="mix-blend-mode:color-dodge" opacity="0.5">
<path d="M364.485 253.67C365.828 257.623 366.894 261.464 367.69 265.029C371.924 267.04 377.213 267.367 382.891 266.636C383.188 266.602 383.484 266.559 383.78 266.516C402.381 263.792 424.677 250.182 427.447 246.865C428.077 246.109 428.54 245.344 428.864 244.579C430.615 240.403 428.234 235.987 426.697 230.539C417.915 236.794 393.266 250.843 375.86 253.567C375.833 253.567 375.814 253.567 375.796 253.576C371.683 254.22 367.829 254.315 364.495 253.67H364.485Z" fill="white"/>
</g>
<g style="mix-blend-mode:multiply" opacity="0.7">
<path d="M382.891 266.644C382.382 266.713 381.872 266.764 381.363 266.816C376.268 267.297 371.534 266.867 367.681 265.037C366.884 261.463 365.819 257.63 364.476 253.678C363.327 250.284 361.984 246.804 360.456 243.35C352.489 254.228 352.536 259.701 346.505 262.605C345.542 263.069 342.42 264.023 342.42 264.023C339.984 259.555 346.052 244.664 353.212 229.627C354.944 225.984 356.695 222.65 358.316 219.926C360.076 216.979 361.697 214.745 363.003 213.594C361.604 217.099 360.928 220.992 360.697 224.944C360.521 227.917 360.595 230.933 360.808 233.838C362.021 233.219 363.188 232.815 364.365 232.566C365.94 232.231 367.514 232.171 369.172 232.231C370.803 232.291 372.507 232.471 374.369 232.618C372.915 233.494 372.062 234.791 369.969 235.453C370.599 240.385 372.766 246.958 375.74 253.523C375.74 253.54 375.758 253.557 375.758 253.575C375.87 253.807 375.972 254.039 376.083 254.279C378.074 258.584 380.399 262.855 382.873 266.635L382.891 266.644Z" fill="#C7DDE5"/>
</g>
<path d="M371.859 400.481C359.372 406.599 345.125 412.734 330.564 414.839C326.191 415.466 321.801 415.733 317.419 415.535C313.047 398.144 308.582 381.809 306.202 364.59C280.487 367.597 254.337 365.286 230.373 359.581L230.651 353.136L230.716 351.727C245.833 360.423 331.703 353.867 352.165 344.707C356.686 352.93 370.46 391.45 371.859 400.49V400.481Z" fill="#FFBB4D"/>
<path d="M353.499 358.043C353.147 358.352 352.749 358.644 352.314 358.936C348.09 361.729 340.336 363.662 335.816 364.599C331.212 365.561 326.432 366.266 322.171 366.627C321.856 366.652 321.551 366.678 321.236 366.704C320.346 366.773 319.485 366.824 318.651 366.859C317.78 366.893 316.947 366.919 316.15 366.919C315.641 366.919 315.159 366.91 314.687 366.893L314.788 364.298C316.113 364.341 317.586 364.324 319.142 364.246C319.624 364.221 320.106 364.195 320.606 364.161C320.726 364.161 320.856 364.143 320.976 364.135C330.86 363.413 343.634 360.681 349.535 357.501C349.535 357.501 349.544 357.501 349.553 357.493C349.933 357.287 350.285 357.08 350.6 356.874C350.97 356.634 351.295 356.393 351.573 356.152L351.86 356.436L352.666 357.244L353.481 358.051L353.499 358.043Z" fill="#E2921E"/>
<g style="mix-blend-mode:multiply" opacity="0.5">
<path d="M343.375 403.488C348.358 397.628 352.971 390.926 352.962 383.305C352.944 371.859 343.699 361.6 332.407 357.011C330.008 356.041 327.766 355.018 325.46 354.984C322.959 354.949 258.635 364.891 230.66 353.136L230.725 351.727C245.843 360.423 331.712 353.867 352.175 344.707C356.695 352.93 370.469 391.45 371.868 400.49C359.381 406.607 345.135 412.742 330.573 414.848C330.74 414.727 330.916 414.616 331.073 414.495C335.668 411.23 339.818 407.682 343.375 403.497V403.488Z" fill="#E2921E"/>
</g>
<path d="M366.987 398.779C364.782 398.642 360.697 387.815 359.557 385.865C360.688 388.571 367.552 406.006 361.447 406.435C359.27 406.59 356.955 401.288 355.065 395.815C353.36 390.848 351.999 385.727 351.406 384.378C351.851 387.214 354.25 394.474 354.555 397.92C354.704 399.587 354.518 405.67 352.675 407.612C352.314 407.999 351.878 408.222 351.378 408.214C350.359 408.197 349.34 407.217 348.377 405.653C345.968 401.761 343.856 394.26 342.661 389.207C342.652 389.156 342.634 389.104 342.624 389.053C342.096 386.818 341.763 385.083 341.661 384.378C341.587 385.839 341.976 387.703 342.485 389.697C342.523 389.834 342.56 389.972 342.597 390.118C343.532 393.718 344.792 397.671 344.44 400.429C344.264 401.847 343.319 405.67 341.596 405.945C341.476 405.963 341.365 405.971 341.263 405.963C340.466 405.937 339.836 405.344 339.317 404.579C338.743 403.72 338.308 402.646 337.965 401.907C335.779 397.19 334.565 392.026 333.296 386.913C333.269 386.793 333.232 386.672 333.204 386.552C332.481 383.656 331.74 380.778 330.786 378.011C331.073 380.924 330.416 390.213 327.553 391.553C325.682 392.429 324.654 391.347 324.098 389.559C323.311 387.059 323.44 383.175 323.459 381.362C323.459 381.302 323.459 381.242 323.459 381.19C323.459 377.65 324.478 371.455 323.857 367.872C323.765 367.313 323.57 366.789 323.339 366.291C323.274 366.153 323.2 366.016 323.125 365.879C322.783 365.26 322.375 364.684 321.977 364.117C322.088 364.117 322.199 364.1 322.31 364.091C322.783 364.057 323.255 364.014 323.746 363.971C332.203 363.189 342.523 360.903 347.432 358.257C347.432 358.257 347.441 358.257 347.451 358.257C347.784 358.077 348.099 357.896 348.377 357.707C348.525 357.887 348.673 358.077 348.821 358.248C349.173 358.678 349.525 359.099 349.868 359.529C350.202 359.941 350.535 360.354 350.859 360.775C356.63 368.104 361.021 375.631 364.828 384.567C365.588 386.346 371.498 399.08 366.996 398.805L366.987 398.779Z" fill="#C9C1B9"/>
<path d="M355.074 395.806C355.055 399.544 354.787 406.469 352.693 407.603C352.314 407.81 351.878 407.827 351.378 407.603C349.386 406.718 349.933 395.256 349.655 393.048C349.637 394.603 349.451 400.635 348.395 405.644C347.469 410.001 345.894 413.592 343.171 412.793C341.735 412.372 341.272 409.545 341.272 405.945C341.272 400.497 342.309 393.305 342.606 390.1C342.643 389.748 342.661 389.439 342.671 389.19C342.671 389.061 342.671 388.94 342.671 388.846C342.652 388.906 342.643 388.966 342.624 389.026C342.578 389.224 342.532 389.439 342.485 389.671C341.828 392.91 341.17 399.483 340.179 402.499C340.04 402.938 339.734 403.677 339.317 404.544C337.928 407.457 335.279 411.805 333.111 410.963C329.183 409.442 332.101 392.403 333.306 386.878C333.445 386.251 333.556 385.778 333.639 385.486C333.482 385.804 333.343 386.148 333.222 386.517C331.814 390.625 331.888 397.773 329.795 401.348C329.063 402.602 326.655 405.833 324.95 405.49C323.07 405.112 323.246 402.113 323.199 400.489C323.098 396.863 323.533 393.202 324.117 389.533C324.839 384.945 325.765 380.348 326.108 375.828C325.728 377.014 324.737 379.196 323.477 381.336C321.754 384.275 319.531 387.136 317.688 387.282C312.575 387.686 316.863 378.947 318.031 376.249C319.226 373.491 321.828 369.238 323.144 365.852C323.394 365.208 323.598 364.598 323.737 364.031C323.737 364.005 323.746 363.979 323.755 363.953C332.213 363.171 342.532 360.886 347.441 358.239C347.441 358.239 347.45 358.239 347.46 358.239C347.793 358.059 348.108 357.878 348.386 357.689C348.534 357.87 348.682 358.059 348.831 358.231C349.183 358.66 349.535 359.081 349.877 359.511C350.211 359.924 350.544 360.336 350.869 360.757C351.026 363.068 351.156 365.045 351.211 365.251C353.925 374.582 355.12 383.493 355.074 393.649C355.074 394.01 355.083 394.792 355.074 395.814V395.806Z" fill="#EAE3DA"/>
</g>
<g clip-path="url(#clip1_419_3955)">
<path d="M121.199 408.922H93.8174V492.739H121.199V408.922Z" fill="#C9BDAD"/>
<g style="mix-blend-mode:multiply" opacity="0.4">
<path d="M93.8174 408.922V492.739H114.139C107.079 482.794 103.867 472.112 101.673 459.412C99.5291 446.991 98.6705 434.462 99.2238 421.857C99.3892 418.207 99.4083 413.403 99.9108 408.928H93.8174V408.922Z" fill="#C9BDAD"/>
</g>
<path d="M83.5264 401.121V406.859C83.5264 414.177 89.4671 420.105 96.8008 420.105H118.929C126.263 420.105 132.203 414.177 132.203 406.859V401.121C132.203 397.307 130.588 393.873 127.999 391.455C126.085 389.659 123.642 388.428 120.92 388.021C120.271 387.92 119.603 387.869 118.929 387.869H96.8008C96.1265 387.869 95.4587 387.92 94.8099 388.021C92.0876 388.428 89.6388 389.659 87.7307 391.455C85.1419 393.873 83.5264 397.307 83.5264 401.121Z" fill="#E2CBAA"/>
<path d="M120.92 388.022V409.506C120.92 411.461 122.504 413.042 124.463 413.042C125.442 413.042 126.327 412.642 126.969 412.007C127.611 411.366 128.006 410.484 128.006 409.506V391.449C126.091 389.653 123.649 388.422 120.927 388.016L120.92 388.022Z" fill="#CCB596"/>
<path d="M109.859 387.869V409.506C109.859 411.461 111.443 413.041 113.402 413.041C114.381 413.041 115.265 412.641 115.908 412.006C116.55 411.365 116.944 410.483 116.944 409.506V387.869H109.865H109.859Z" fill="#CCB596"/>
<path d="M98.7917 387.869V409.506C98.7917 411.461 100.376 413.041 102.328 413.041C103.308 413.041 104.192 412.641 104.834 412.006C105.477 411.365 105.871 410.483 105.871 409.506V387.869H98.7917Z" fill="#CCB596"/>
<path d="M87.7307 391.455V409.512C87.7307 411.466 89.3145 413.047 91.2735 413.047C92.253 413.047 93.1372 412.647 93.7796 412.012C94.422 411.371 94.8163 410.489 94.8163 409.512V388.027C92.094 388.434 89.6452 389.665 87.7371 391.461L87.7307 391.455Z" fill="#CCB596"/>
<path d="M8.23047 334.701V358.121C8.23047 380.983 26.8095 399.522 49.7201 399.522H165.297C188.201 399.522 206.787 380.983 206.787 358.121V334.701H8.23047Z" fill="#DFEBEE"/>
<path d="M88.8818 492.752V501.86H92.0748V529.45C92.0748 537.929 98.9696 544.86 107.512 544.86C111.78 544.86 115.641 543.115 118.426 540.341C121.244 537.561 122.949 533.709 122.949 529.45V501.86H126.142V492.752H88.8818Z" fill="#E2CBAA"/>
<path d="M93.8175 468.52H73.9346V485.523H93.8175V468.52Z" fill="#C9BDAD"/>
<path d="M34.3977 514.306H52.1753L49.0905 509.178H37.4762L34.3977 514.306Z" fill="#FFF2E3"/>
<path d="M34.3977 514.307H52.1753L49.0905 519.441H37.4762L34.3977 514.307Z" fill="#DDD3CA"/>
<path d="M34.3977 524.57H52.1753L49.0905 519.441H37.4762L34.3977 524.57Z" fill="#FFF2E3"/>
<path d="M97.4937 324.458C97.4937 326.235 96.0499 327.676 94.269 327.676H87.6349C85.854 327.676 84.4102 326.235 84.4102 324.458C84.4102 322.681 85.854 321.24 87.6349 321.24H94.269C96.0499 321.24 97.4937 322.681 97.4937 324.458Z" fill="#A3A6A8"/>
<path d="M99.9743 326.583C98.7594 327.808 96.7813 327.821 95.5473 326.609C94.3198 325.396 94.307 323.416 95.5219 322.191C96.7368 320.966 98.7149 320.954 99.9488 322.159C101.176 323.372 101.189 325.352 99.9743 326.577V326.583Z" fill="#D6D6D6"/>
<path d="M105.444 319.653C106.278 318.809 106.271 317.45 105.425 316.619C104.579 315.787 103.225 315.794 102.385 316.638C101.946 317.082 101.749 317.66 101.768 318.237L97.9262 322.122C97.3602 322.693 97.3665 323.62 97.939 324.184C98.5114 324.749 99.44 324.743 100.006 324.172L103.854 320.287C104.427 320.306 105.012 320.097 105.444 319.653Z" fill="#D6D6D6"/>
<path d="M90.0521 329.116C89.2188 329.96 89.2252 331.312 90.0712 332.143C90.9171 332.975 92.2719 332.969 93.1051 332.124C93.544 331.68 93.7475 331.103 93.7221 330.525L97.5638 326.641C98.1299 326.069 98.1236 325.143 97.5511 324.578C96.9787 324.013 96.0564 324.019 95.4839 324.591L91.6422 328.475C91.0698 328.456 90.4846 328.665 90.0457 329.11L90.0521 329.116Z" fill="#D6D6D6"/>
<path d="M102.493 332.289C103.339 333.12 104.694 333.114 105.527 332.27C106.36 331.426 106.354 330.074 105.508 329.236C105.063 328.798 104.484 328.595 103.905 328.62L100.012 324.787C99.44 324.222 98.5114 324.228 97.9453 324.8C97.3792 325.371 97.3855 326.297 97.958 326.862L101.851 330.696C101.832 331.267 102.041 331.851 102.487 332.283L102.493 332.289Z" fill="#D6D6D6"/>
<path d="M93.0096 316.924C92.1637 316.092 90.8089 316.098 89.9757 316.943C89.1424 317.787 89.1488 319.145 89.9947 319.976C90.44 320.414 91.0188 320.611 91.5976 320.592L95.4902 324.426C96.0627 324.99 96.9913 324.984 97.5574 324.413C98.1235 323.842 98.1171 322.915 97.5447 322.35L93.652 318.51C93.6711 317.939 93.4612 317.355 93.016 316.924H93.0096Z" fill="#D6D6D6"/>
<path d="M99.2747 325.689C98.4987 326.476 97.2329 326.483 96.4442 325.708C95.6555 324.934 95.6492 323.671 96.4252 322.884C97.2011 322.097 98.4669 322.091 99.2556 322.865C100.044 323.639 100.051 324.902 99.2747 325.689Z" fill="#C0434B"/>
<path d="M34.3977 524.57H52.1753L49.0905 529.705H37.4762L34.3977 524.57Z" fill="#DDD3CA"/>
<path d="M34.3977 534.825H52.1753L49.0905 529.703H37.4762L34.3977 534.825Z" fill="#FFF2E3"/>
<path d="M34.3977 534.826H52.1753L49.0905 539.967H37.4762L34.3977 534.826Z" fill="#DDD3CA"/>
<path d="M34.3977 545.082H52.1753L49.0905 539.967H37.4762L34.3977 545.082Z" fill="#FFF2E3"/>
<path d="M34.3977 545.082H52.1753L49.0905 550.223H37.4762L34.3977 545.082Z" fill="#DDD3CA"/>
<path d="M34.3977 555.345H52.1753L49.0905 550.223H37.4762L34.3977 555.345Z" fill="#FFF2E3"/>
<path d="M34.3977 555.346H52.1753L49.0905 560.487H37.4762L34.3977 555.346Z" fill="#DDD3CA"/>
<path d="M67.3196 467.484L70.2836 486.233L73.9345 482.895V470.118L67.3196 467.484Z" fill="#FFF2E3"/>
<path d="M61.8369 472.124L65.9013 484.545L70.2837 486.233L67.3197 467.484H67.2942L61.8687 472.124H61.8369Z" fill="#DDD3CA"/>
<path d="M54.9932 472.125L63.5608 488.925L65.9014 484.578V484.546L61.8371 472.125H54.9932Z" fill="#FFF2E3"/>
<path d="M51.342 478.161L59.1718 488.925H63.5606L54.993 472.125L51.342 478.161Z" fill="#DDD3CA"/>
<path d="M44.8037 480.109L58.2244 493.507L59.1721 488.925L51.3423 478.16L44.8037 480.109Z" fill="#FFF2E3"/>
<path d="M43.2324 486.913V486.945L53.9562 494.72H53.988L58.2241 493.539V493.508L44.8035 480.109H44.7717L43.2324 486.913Z" fill="#DDD3CA"/>
<path d="M37.9214 490.874V490.906L54.1598 499.157L53.9562 494.72L43.2324 486.945L37.9214 490.874Z" fill="#FFF2E3"/>
<path d="M37.9214 490.906L38.9263 497.856L50.6361 501.639L54.1598 499.157L37.9214 490.906Z" fill="#DDD3CA"/>
<path d="M34.3979 502.946L52.1756 505.751L50.6363 501.638L38.9266 497.855L34.3979 502.946Z" fill="#FFF2E3"/>
<path d="M34.3977 502.945L37.508 509.178H49.0905L52.1753 505.751L34.3977 502.945Z" fill="#DDD3CA"/>
<g style="mix-blend-mode:multiply" opacity="0.4">
<path d="M92.0684 501.859V529.449C92.0684 537.929 98.9695 544.86 107.505 544.86C107.766 544.86 107.989 544.86 108.25 544.822C103.161 541.597 99.8218 535.968 99.8218 529.526V510.047L122.955 507.089V501.859H92.0747H92.0684Z" fill="#C9BDAD"/>
</g>
<path d="M101.399 297.095C101.552 292.983 100.025 285.804 94.7017 287.486C91.2162 288.591 90.631 294.004 90.1285 296.645C88.2776 306.413 90.7837 316.771 93.5632 325.758H74.6788C74.399 312.817 72.917 296.346 80.5114 286.433C91.0572 272.672 106.888 280.479 106.628 296.251C104.656 296.448 103.467 296.454 101.406 297.095H101.399Z" fill="#BBBDBF"/>
<path d="M88.8436 325.752H93.5631C90.7836 316.764 88.2775 306.413 90.1284 296.645C90.58 294.271 91.0952 289.689 93.703 287.969C92.749 287.258 91.5278 287.004 89.9821 287.486C86.4966 288.591 85.9114 293.998 85.4089 296.645C83.558 306.413 86.0641 316.771 88.8436 325.752Z" fill="#A3A6A8"/>
<path d="M99.4211 295.693C99.4211 296.829 100.343 297.743 101.476 297.743H106.717C107.855 297.743 108.771 296.823 108.771 295.693C108.771 294.557 107.849 293.637 106.717 293.637H101.476C100.337 293.637 99.4211 294.557 99.4211 295.693Z" fill="#BBBDBF"/>
<path d="M91.1589 282.186C91.1589 282.186 91.4197 282.198 91.8586 282.211C92.0876 282.211 92.3547 282.217 92.66 282.224C92.9717 282.262 93.3215 282.3 93.6968 282.344C93.8876 282.357 94.0784 282.395 94.2819 282.446C94.4855 282.49 94.689 282.535 94.9053 282.579C95.1215 282.611 95.3314 282.7 95.5477 282.77C95.7639 282.846 95.9866 282.909 96.2092 282.992C97.0933 283.366 97.9901 283.88 98.8488 284.553C100.541 285.93 101.736 287.657 102.487 288.996C102.856 289.675 103.123 290.234 103.295 290.652C103.46 291.052 103.556 291.3 103.556 291.3C103.556 291.3 103.556 291.033 103.562 290.602C103.549 290.157 103.486 289.485 103.308 288.685C103.104 287.892 102.818 286.94 102.271 285.975C101.73 285.016 100.992 283.995 99.9555 283.176C98.9251 282.357 97.7484 281.83 96.6481 281.564C96.3682 281.507 96.0947 281.475 95.8339 281.437C95.5668 281.405 95.3187 281.354 95.0643 281.373C94.8226 281.373 94.5809 281.386 94.3455 281.386C94.1166 281.386 93.9003 281.399 93.6968 281.443C93.2897 281.513 92.9208 281.583 92.6028 281.646C92.2911 281.741 92.0303 281.837 91.8141 281.913C91.3879 282.065 91.1589 282.16 91.1589 282.16V282.186Z" fill="#D6D6D6"/>
<path d="M65.1826 323.13C65.1826 324.907 66.6265 326.348 68.4074 326.348H75.0478C76.8287 326.348 78.2725 324.907 78.2725 323.13C78.2725 321.353 76.8287 319.912 75.0478 319.912H68.4074C66.6265 319.912 65.1826 321.353 65.1826 323.13Z" fill="#A3A6A8"/>
<path d="M62.7021 325.256C63.9169 326.481 65.9014 326.494 67.129 325.282C68.3566 324.069 68.3693 322.089 67.1608 320.864C65.9459 319.639 63.9614 319.627 62.7339 320.839C61.5063 322.051 61.4936 324.031 62.7084 325.256H62.7021Z" fill="#D6D6D6"/>
<path d="M57.232 318.332C56.3988 317.488 56.4051 316.136 57.2511 315.304C58.097 314.473 59.4518 314.479 60.285 315.323C60.7239 315.768 60.9275 316.345 60.902 316.923L64.7438 320.807C65.3099 321.378 65.3035 322.305 64.731 322.87C64.1586 323.435 63.23 323.428 62.6639 322.857L58.8221 318.973C58.2497 318.992 57.6645 318.783 57.232 318.338V318.332Z" fill="#D6D6D6"/>
<path d="M72.6306 327.789C73.4639 328.633 73.4575 329.992 72.6115 330.823C71.7656 331.655 70.4108 331.648 69.5776 330.804C69.1387 330.36 68.9415 329.782 68.9606 329.205L65.1189 325.32C64.5528 324.749 64.5591 323.822 65.1316 323.258C65.704 322.693 66.6327 322.699 67.1988 323.27L71.0405 327.155C71.6129 327.136 72.1981 327.345 72.6306 327.789Z" fill="#D6D6D6"/>
<path d="M60.1896 330.962C59.3436 331.794 57.9888 331.787 57.1492 330.943C56.316 330.099 56.3224 328.747 57.1683 327.916C57.6136 327.478 58.1924 327.275 58.7712 327.3L62.6638 323.467C63.2362 322.902 64.1649 322.908 64.731 323.479C65.2971 324.051 65.2907 324.977 64.7183 325.542L60.8256 329.376C60.8447 329.947 60.6348 330.531 60.1896 330.962Z" fill="#D6D6D6"/>
<path d="M69.673 315.603C70.5189 314.771 71.8737 314.784 72.7069 315.622C73.5402 316.466 73.5338 317.818 72.6879 318.649C72.2426 319.087 71.6638 319.29 71.085 319.265L67.1924 323.099C66.6199 323.663 65.6913 323.657 65.1252 323.086C64.5591 322.515 64.5655 321.588 65.1379 321.023L69.0306 317.183C69.0115 316.612 69.2214 316.028 69.6666 315.596L69.673 315.603Z" fill="#D6D6D6"/>
<path d="M63.4081 324.361C64.184 325.148 65.4498 325.155 66.2385 324.38C67.0272 323.606 67.0336 322.343 66.2576 321.556C65.4816 320.769 64.2159 320.763 63.4271 321.537C62.6384 322.311 62.6321 323.574 63.4081 324.361Z" fill="#3C9DBF"/>
<g style="mix-blend-mode:multiply" opacity="0.5">
<path d="M206.793 336.65H8.23047V346.368H206.793V336.65Z" fill="#DFEBEE"/>
</g>
<path d="M0 332.233C0 335.888 2.97672 338.859 6.64038 338.859H206.221C206.418 338.859 206.609 338.852 206.793 338.833C210.19 338.541 212.855 335.698 212.855 332.239C212.855 330.411 212.11 328.755 210.908 327.561C209.706 326.362 208.046 325.619 206.214 325.619H6.64038C2.97672 325.619 0 328.583 0 332.245V332.233Z" fill="#DFEBEE"/>
<path d="M47.793 329.141C47.793 330.119 48.588 330.906 49.5612 330.906H202.678C203.657 330.906 204.446 330.112 204.446 329.141C204.446 328.164 203.651 327.377 202.678 327.377H49.5612C48.5817 327.377 47.793 328.17 47.793 329.141Z" fill="#F0FCFF"/>
<g style="mix-blend-mode:multiply" opacity="0.5">
<path d="M0 332.232C0 335.887 2.97672 338.858 6.64038 338.858H8.2305V358.121C8.2305 380.982 26.8096 399.522 49.7201 399.522H96.5526C95.7893 399.173 95.0197 398.817 94.2564 398.468C75.2703 389.709 59.7825 375.664 53.4219 355.836C52.4106 352.681 51.7428 349.527 51.2785 346.366C50.9095 343.878 50.6615 341.378 50.4707 338.858C50.4071 338.122 42.043 335.323 42.043 332.232C42.043 326.913 49.5166 325.866 49.4975 325.605H6.64038C2.97672 325.605 0 328.569 0 332.232Z" fill="#DFEBEE"/>
</g>
<path d="M85.6697 497.532C85.6697 500.864 88.3793 503.568 91.7185 503.568H123.356C126.695 503.568 129.405 500.864 129.405 497.532C129.405 494.2 126.695 491.496 123.356 491.496H91.7185C88.3793 491.496 85.6697 494.2 85.6697 497.532Z" fill="#E2CBAA"/>
<path d="M94.0398 495.208C94.0398 495.894 94.5932 496.446 95.2801 496.446H125.054C125.741 496.446 126.294 495.894 126.294 495.208C126.294 494.523 125.741 493.971 125.054 493.971H95.2801C94.5932 493.971 94.0398 494.523 94.0398 495.208Z" fill="#EFD8B9"/>
<path d="M103.638 420.15H120.602C124.424 431.365 133.914 465.569 124.418 465.087C113.656 464.534 123.47 446.972 119.794 442.016C118.751 443.71 121.346 452.171 119.31 451.974C114.368 451.504 119.196 439.286 117.491 437.604C114.018 442.155 114.845 450.546 114.222 456.252C113.898 459.197 114.387 463.589 110.393 463.379C106.373 463.17 106.373 457.908 106.678 455.154C107.308 449.518 112.403 445.068 112.581 439.305C112.689 435.776 110.813 434.786 110.253 431.791C109.744 429.049 112.091 425.647 108.854 424.638C107.264 426.351 105.133 439.483 102.722 432.749C101.787 430.134 104.249 427.557 104.363 425.101C104.44 423.457 103.823 421.547 103.638 420.15Z" fill="#80C0FF"/>
<path d="M119.349 490.106C111.29 486.996 116.671 473.737 117.695 468.209C118.026 466.432 118.541 463.017 118.865 459.26C118.999 469.593 123.909 482.026 119.349 490.106Z" fill="#80C0FF"/>
<path d="M109.611 505.897C101.552 502.787 106.933 489.528 107.957 484C108.288 482.223 108.803 478.808 109.127 475.051C109.261 485.384 114.171 497.817 109.611 505.897Z" fill="#80C0FF"/>
<path d="M111.703 462.439C108.428 460.884 111.099 455.496 111.703 453.211C111.9 452.475 112.218 451.059 112.479 449.498C112.212 453.833 113.878 459.196 111.71 462.439H111.703Z" fill="#AEDAFF"/>
<path d="M121.619 434.221C118.032 433.675 119.024 427.747 118.942 425.386C118.916 424.631 118.814 423.177 118.604 421.609C119.603 425.836 122.752 430.495 121.613 434.221H121.619Z" fill="#AEDAFF"/>
<path d="M107.811 499.359C104.535 497.804 107.206 492.416 107.811 490.131C108.001 489.395 108.326 487.979 108.587 486.418C108.319 490.753 109.986 496.116 107.817 499.359H107.811Z" fill="#AEDAFF"/>
<path d="M118.032 481.867C114.756 480.312 117.428 474.924 118.032 472.639C118.229 471.902 118.547 470.487 118.808 468.926C118.541 473.261 120.207 478.624 118.038 481.867H118.032Z" fill="#AEDAFF"/>
<path d="M125.824 462.439C122.542 460.884 125.219 455.496 125.824 453.211C126.014 452.475 126.339 451.059 126.6 449.498C126.332 453.833 127.999 459.196 125.83 462.439H125.824Z" fill="#AEDAFF"/>
<path d="M200.261 349.268C200.261 349.268 208.478 390.802 165.761 393.531C177.261 385.337 200.827 365.554 200.261 349.268Z" fill="#F0FCFF"/>
</g>
<defs>
<clipPath id="clip0_419_3955">
<rect width="387.765" height="665" fill="white" transform="matrix(-1 0 0 1 509 0)"/>
</clipPath>
<clipPath id="clip1_419_3955">
<rect width="212.855" height="281.168" fill="white" transform="translate(0 279.318)"/>
</clipPath>
</defs>
</svg>
