<svg width="682" height="691" viewBox="0 0 682 691" fill="none" xmlns="http://www.w3.org/2000/svg">
<g clip-path="url(#clip0_144_199)">
<path d="M341 691C152.671 691 0 600.707 0 489.325C0 377.943 152.671 287.65 341 287.65C529.329 287.65 682 377.943 682 489.325C682 600.707 529.329 691 341 691Z" fill="#F5F5F5"/>
<path d="M633.518 199.226L630.982 200.734L579.039 170.727L581.575 169.219L633.518 199.226Z" fill="#FAFAFA"/>
<path d="M581.575 169.219L630.982 197.763V145.975L581.575 117.446V169.219Z" fill="#D8DBE3"/>
<path d="M574.265 107.682L635.771 143.213V209.02L574.265 173.489V107.682ZM579.039 170.727L630.982 200.734V145.975L579.039 115.968V170.727Z" fill="#F0F0F0"/>
<path d="M579.039 170.727L581.575 169.219V117.446L579.039 115.968V170.727Z" fill="#E0E0E0"/>
<path d="M574.266 107.682L576.831 106.219L638.336 141.75L635.771 143.213L574.266 107.682Z" fill="#FAFAFA"/>
<path d="M638.336 141.75L635.771 143.213V209.02L638.336 207.542V141.75Z" fill="#E0E0E0"/>
<path d="M583.499 167.667L629.058 193.986V180.834L617.661 154.514L610.575 161.083L613.126 172.116L597.388 138.451L583.499 154.514V167.667Z" fill="#F0F0F0"/>
<path d="M611.007 141.795C612.872 142.87 614.379 145.482 614.379 147.632C614.379 149.782 612.872 150.648 611.007 149.573C609.143 148.498 607.636 145.885 607.636 143.736C607.636 141.586 609.143 140.72 611.007 141.795Z" fill="#F0F0F0"/>
<path d="M633.518 116.057L630.982 117.565L579.039 87.5432L581.575 86.0354L633.518 116.057Z" fill="#FAFAFA"/>
<path d="M581.575 86.0354L630.982 114.579V62.7911L581.575 34.2768V86.0354Z" fill="#D8DBE3"/>
<path d="M574.265 24.4984L635.771 60.0292V125.836L574.265 90.3051V24.4984ZM579.039 87.5432L630.982 117.55V62.7911L579.039 32.7839V87.5432Z" fill="#F0F0F0"/>
<path d="M579.039 87.5432L581.575 86.0354V34.2768L579.039 32.7839V87.5432Z" fill="#E0E0E0"/>
<path d="M574.266 24.4984L576.831 23.0353L638.336 58.5662L635.771 60.0292L574.266 24.4984Z" fill="#FAFAFA"/>
<path d="M638.336 58.5662L635.771 60.0292V125.836L638.336 124.373V58.5662Z" fill="#E0E0E0"/>
<path d="M583.499 84.4828L629.058 110.802V97.6501L617.661 71.3304L610.575 77.914L613.126 88.9465L597.388 55.2669L583.499 71.3304V84.4828Z" fill="#F0F0F0"/>
<path d="M611.007 58.611C612.872 59.6858 614.379 62.2984 614.379 64.4482C614.379 66.5979 612.872 67.4638 611.007 66.3889C609.143 65.3141 607.636 62.7015 607.636 60.5517C607.636 58.402 609.143 57.5361 611.007 58.611Z" fill="#F0F0F0"/>
<path d="M176.266 13.033L180.293 15.2872V192.255L176.266 190V13.033Z" fill="#FAFAFA"/>
<path d="M176.266 190V17.6161L14.5744 111.056L14.6042 283.411L176.266 190Z" fill="#D8DBE3"/>
<path d="M7.10077 300.967V106.727L187.767 2.32892V196.569L7.08588 300.967H7.10077ZM180.308 192.255V15.2872L14.5745 111.041V287.994L180.308 192.24V192.255Z" fill="#F0F0F0"/>
<path d="M180.293 192.255L176.266 190L14.6044 283.411L14.5745 288.009L180.293 192.255Z" fill="#E0E0E0"/>
<path d="M135.168 41.368L139.196 39.0391V216.007L135.168 213.752V41.368Z" fill="#FAFAFA"/>
<path d="M44.3351 93.8581L48.3628 91.5292V268.482L44.3351 266.227V93.8581Z" fill="#FAFAFA"/>
<path d="M7.10083 300.967L3.08805 298.623V104.398L7.10083 106.727V300.967Z" fill="#E0E0E0"/>
<path d="M3.08798 104.398L7.10077 106.727L187.767 2.32891L183.769 0L3.08798 104.398Z" fill="#FAFAFA"/>
<path d="M14.5745 191.717V196.36L180.308 100.606L176.31 98.2621L14.5745 191.717Z" fill="#E0E0E0"/>
<path d="M14.5894 204.989L14.5745 196.36L180.308 100.606L180.293 109.25L14.5894 204.989Z" fill="#F0F0F0"/>
<path d="M48.3628 277.126L55.8215 272.811V78.5709L48.3628 82.8854V277.126Z" fill="#F0F0F0"/>
<path d="M139.181 224.65L146.639 220.336V26.0958L139.181 30.4102V224.65Z" fill="#F0F0F0"/>
<path d="M48.3628 176.848L44.3351 174.519V93.8581L48.3628 91.5292V176.848Z" fill="#FAFAFA"/>
<path d="M139.151 124.388L135.123 122.059V41.3979L139.151 39.069V124.388Z" fill="#FAFAFA"/>
<path d="M207.906 305.192C194.092 313.268 194.092 326.346 207.906 334.423C221.719 342.499 244.111 342.499 257.924 334.423C271.738 326.346 271.738 313.268 257.924 305.192C244.111 297.115 221.719 297.115 207.906 305.192Z" fill="#E0E0E0"/>
<path d="M433.131 479.592C382.29 479.592 341.075 455.777 341.075 426.4C341.075 397.023 382.29 373.208 433.131 373.208C483.972 373.208 525.187 397.023 525.187 426.4C525.187 455.777 483.972 479.592 433.131 479.592Z" fill="#E0E0E0"/>
<path d="M214.947 350.232L1.95422 473.59L354.351 677.355L567.165 553.997L214.947 350.232Z" fill="#E0E0E0"/>
<path d="M549.726 516.003L501.379 488.191C499.708 487.22 499.708 485.668 501.379 484.697L571.864 444.225C573.535 443.255 576.265 443.255 577.935 444.225L626.283 472.038C627.954 473.008 627.954 474.561 626.283 475.531L555.798 516.003C554.127 516.974 551.397 516.974 549.726 516.003Z" fill="#E0E0E0"/>
<path d="M254.135 324.585C265.487 312.865 272.156 283.231 261.087 273.946H204.743C193.674 283.246 200.328 312.85 211.68 324.585C211.769 324.689 211.889 324.794 211.993 324.913C212.127 325.047 212.247 325.182 212.381 325.301C212.694 325.615 213.037 325.928 213.41 326.227C213.5 326.301 213.589 326.376 213.679 326.451C213.962 326.675 214.231 326.899 214.529 327.108C215.006 327.451 215.499 327.779 215.991 328.063C225.329 333.512 240.471 333.512 249.809 328.063C250.301 327.779 250.794 327.451 251.286 327.108C251.569 326.913 251.823 326.704 252.077 326.495C252.181 326.406 252.3 326.316 252.405 326.227C252.763 325.928 253.091 325.645 253.389 325.331C253.538 325.182 253.688 325.032 253.837 324.883C253.926 324.794 254.016 324.704 254.105 324.614L254.135 324.585Z" fill="#37474F"/>
<path d="M209.636 270.199C196.777 277.708 196.777 289.89 209.636 297.399C222.495 304.908 243.335 304.908 256.194 297.399C269.053 289.89 269.053 277.708 256.194 270.199C243.335 262.689 222.495 262.689 209.636 270.199Z" fill="#45506B"/>
<path d="M215.827 273.811C206.384 279.32 206.384 288.277 215.827 293.786C225.27 299.295 240.575 299.295 250.018 293.786C259.461 288.277 259.461 279.335 250.018 273.811C240.575 268.303 225.27 268.303 215.827 273.811Z" fill="#263238"/>
<path d="M250.018 283.291C240.575 277.782 225.27 277.782 215.827 283.291C213.201 284.829 211.337 286.62 210.173 288.546C211.337 290.457 213.201 292.263 215.827 293.801C225.27 299.31 240.575 299.31 250.018 293.801C252.643 292.263 254.508 290.472 255.672 288.546C254.508 286.635 252.643 284.829 250.018 283.306V283.291Z" fill="#D8DBE3"/>
<path d="M240.635 229.084C244.439 233.891 255.866 236.011 261.549 224.232C266.89 213.185 272.543 202.75 274.229 198.689C275.93 194.613 271.902 192.926 271.902 192.926C271.902 192.926 272.051 186.641 261.132 190.075C250.316 193.464 242.246 199.376 236.831 209.423C231.49 219.336 233.639 227.158 240.62 229.099L240.635 229.084Z" fill="#1C63D7"/>
<g opacity="0.5">
<path d="M240.635 229.084C244.439 233.891 255.866 236.011 261.549 224.232C266.89 213.185 272.543 202.75 274.229 198.689C275.93 194.613 271.902 192.926 271.902 192.926C271.902 192.926 272.051 186.641 261.132 190.075C250.316 193.464 242.246 199.376 236.831 209.423C231.49 219.336 233.639 227.158 240.62 229.099L240.635 229.084Z" fill="#D8DBE3"/>
</g>
<path d="M234.817 244.79C235.175 242.685 235.623 240.58 236.219 238.519C237.413 234.429 238.904 230.443 240.665 226.576C244.26 218.679 248.989 211.379 254.672 204.825C257.865 201.137 261.325 197.629 265.159 194.598C265.279 194.509 265.338 194.763 265.264 194.822C258.879 200.734 253.166 207.169 248.556 214.558C244.066 221.754 240.501 229.472 238.009 237.594C237.308 239.863 236.637 242.147 236.04 244.431C235.429 246.76 234.996 249.134 234.429 251.478C234.369 251.717 233.997 251.821 233.997 251.508C234.026 249.253 234.444 246.984 234.832 244.775L234.817 244.79Z" fill="#1C63D7"/>
<path opacity="0.3" d="M234.817 244.79C235.175 242.685 235.623 240.58 236.219 238.519C237.413 234.429 238.904 230.443 240.665 226.576C244.26 218.679 248.989 211.379 254.672 204.825C257.865 201.137 261.325 197.629 265.159 194.598C265.279 194.509 265.338 194.763 265.264 194.822C258.879 200.734 253.166 207.169 248.556 214.558C244.066 221.754 240.501 229.472 238.009 237.594C237.308 239.863 236.637 242.147 236.04 244.431C235.429 246.76 234.996 249.134 234.429 251.478C234.369 251.717 233.997 251.821 233.997 251.508C234.026 249.253 234.444 246.984 234.832 244.775L234.817 244.79Z" fill="black"/>
<path d="M228.238 220.649C238.159 223.71 245.513 215.977 242.962 203.825C240.411 191.672 227.672 178.192 222.853 181.819C219.84 178.804 213.216 179.893 210.099 189.747C206.981 199.615 209.815 224.934 228.224 220.635L228.238 220.649Z" fill="#1C63D7"/>
<g opacity="0.3">
<path d="M228.238 220.649C238.159 223.71 245.513 215.977 242.962 203.825C240.411 191.672 227.672 178.192 222.853 181.819C219.84 178.804 213.216 179.893 210.099 189.747C206.981 199.615 209.815 224.934 228.224 220.635L228.238 220.649Z" fill="#D8DBE3"/>
</g>
<path d="M222.421 189.209C225.374 196.181 227.299 203.66 229.014 211.035C230.759 218.559 231.923 226.218 232.848 233.876C234.623 248.716 234.936 247.895 234.832 262.824C234.802 266.959 234.742 271.079 234.668 275.215C234.593 279.469 234.668 283.769 234.295 288.009C234.161 289.636 231.848 289.203 231.819 287.71C231.669 280.276 232.087 272.796 232.162 265.362C232.236 258.002 232.206 266.481 232.027 259.121C231.64 244.148 230.551 229.174 228.015 214.409C227.314 210.289 226.523 206.183 225.568 202.123C224.554 197.838 223.316 193.628 222.197 189.373C222.152 189.209 222.346 188.985 222.45 189.209H222.421Z" fill="#1C63D7"/>
<path opacity="0.3" d="M222.421 189.209C225.374 196.181 227.299 203.66 229.014 211.035C230.759 218.559 231.923 226.218 232.848 233.876C234.623 248.716 234.936 247.895 234.832 262.824C234.802 266.959 234.742 271.079 234.668 275.215C234.593 279.469 234.668 283.769 234.295 288.009C234.161 289.636 231.848 289.203 231.819 287.71C231.669 280.276 232.087 272.796 232.162 265.362C232.236 258.002 232.206 266.481 232.027 259.121C231.64 244.148 230.551 229.174 228.015 214.409C227.314 210.289 226.523 206.183 225.568 202.123C224.554 197.838 223.316 193.628 222.197 189.373C222.152 189.209 222.346 188.985 222.45 189.209H222.421Z" fill="black"/>
<path d="M251.182 253.478C252.45 259.898 261.251 264.526 271.41 260.331C281.569 256.121 301.603 229.696 292.458 226.785C292.951 221.993 265.279 218.052 251.599 234.936C241.649 247.208 251.197 253.478 251.197 253.478H251.182Z" fill="#1C63D7"/>
<g opacity="0.7">
<path d="M251.182 253.478C252.45 259.898 261.251 264.526 271.41 260.331C281.569 256.121 301.603 229.696 292.458 226.785C292.951 221.993 265.279 218.052 251.599 234.936C241.649 247.208 251.197 253.478 251.197 253.478H251.182Z" fill="#D8DBE3"/>
</g>
<path d="M236.667 263.018C237.92 261.39 239.337 259.912 240.799 258.479C243.768 255.538 246.885 252.762 250.122 250.134C256.761 244.76 263.981 240.266 271.559 236.34C275.751 234.175 280.047 232.07 284.492 230.458C284.612 230.413 284.567 230.652 284.492 230.682C280.793 232.428 277.093 234.13 273.513 236.131C269.814 238.191 266.233 240.505 262.758 242.923C256.06 247.596 249.72 252.762 243.842 258.42C242.171 260.032 240.575 261.719 238.89 263.301C237.144 264.958 235.25 266.466 233.579 268.198C233.34 268.452 232.893 268.332 233.161 267.974C234.355 266.332 235.429 264.63 236.667 263.033V263.018Z" fill="#1C63D7"/>
<path opacity="0.3" d="M236.667 263.018C237.92 261.39 239.337 259.912 240.799 258.479C243.768 255.538 246.885 252.762 250.122 250.134C256.761 244.76 263.981 240.266 271.559 236.34C275.751 234.175 280.047 232.07 284.492 230.458C284.612 230.413 284.567 230.652 284.492 230.682C280.793 232.428 277.093 234.13 273.513 236.131C269.814 238.191 266.233 240.505 262.758 242.923C256.06 247.596 249.72 252.762 243.842 258.42C242.171 260.032 240.575 261.719 238.89 263.301C237.144 264.958 235.25 266.466 233.579 268.198C233.34 268.452 232.893 268.332 233.161 267.974C234.355 266.332 235.429 264.63 236.667 263.033V263.018Z" fill="black"/>
<path d="M194.957 245.73C195.121 242.117 213.336 242.311 221.869 249.164C230.401 256.031 231.416 262.764 226.09 265.108C227.015 272.751 214.977 277.782 204.191 268.228C193.406 258.673 191.049 246.476 194.942 245.715L194.957 245.73Z" fill="#1C63D7"/>
<path opacity="0.3" d="M194.957 245.73C195.121 242.117 213.336 242.311 221.869 249.164C230.401 256.031 231.416 262.764 226.09 265.108C227.015 272.751 214.977 277.782 204.191 268.228C193.406 258.673 191.049 246.476 194.942 245.715L194.957 245.73Z" fill="#D8DBE3"/>
<path d="M212.903 255.285C217.065 257.195 220.854 259.539 224.3 262.57C227.716 265.585 230.625 269.094 233.027 272.975C233.295 273.423 232.609 274.274 232.311 273.796C227.627 266.198 220.78 259.629 212.903 255.404C212.858 255.374 212.828 255.255 212.903 255.285Z" fill="#1C63D7"/>
<path opacity="0.3" d="M212.903 255.285C217.065 257.195 220.854 259.539 224.3 262.57C227.716 265.585 230.625 269.094 233.027 272.975C233.295 273.423 232.609 274.274 232.311 273.796C227.627 266.198 220.78 259.629 212.903 255.404C212.858 255.374 212.828 255.255 212.903 255.285Z" fill="black"/>
<path d="M225.016 276.857C231.177 282.918 224.36 290.427 214.365 294.145C204.37 297.862 193.302 295.354 188.468 292.935C183.65 290.532 182.651 289.322 182.651 289.322C182.651 289.322 185.007 281.365 187.752 277.066C191.616 271.035 200.164 263.824 212.978 265.466C225.792 267.108 226.821 272.438 225.001 276.842L225.016 276.857Z" fill="#1C63D7"/>
<g opacity="0.5">
<path d="M225.016 276.857C231.177 282.918 224.36 290.427 214.365 294.145C204.37 297.862 193.302 295.354 188.468 292.935C183.65 290.532 182.651 289.322 182.651 289.322C182.651 289.322 185.007 281.365 187.752 277.066C191.616 271.035 200.164 263.824 212.978 265.466C225.792 267.108 226.821 272.438 225.001 276.842L225.016 276.857Z" fill="#D8DBE3"/>
</g>
<path d="M199.119 281.41C204.132 278.992 209.293 276.663 214.798 275.603C220.168 274.573 226.762 274.528 231.103 278.35C232.788 279.828 235.026 283.037 233.654 285.322C233.519 285.545 232.848 285.963 232.684 285.516C232.207 284.097 232.057 282.619 231.312 281.306C230.521 279.932 229.328 278.917 227.955 278.156C224.599 276.29 220.377 275.857 216.588 276.23C210.487 276.812 204.743 279.26 199.119 281.574C199.06 281.604 199.06 281.455 199.119 281.425V281.41Z" fill="#1C63D7"/>
<path opacity="0.3" d="M199.119 281.41C204.132 278.992 209.293 276.663 214.798 275.603C220.168 274.573 226.762 274.528 231.103 278.35C232.788 279.828 235.026 283.037 233.654 285.322C233.519 285.545 232.848 285.963 232.684 285.516C232.207 284.097 232.057 282.619 231.312 281.306C230.521 279.932 229.328 278.917 227.955 278.156C224.599 276.29 220.377 275.857 216.588 276.23C210.487 276.812 204.743 279.26 199.119 281.574C199.06 281.604 199.06 281.455 199.119 281.425V281.41Z" fill="black"/>
<path d="M223.315 238.669C224.852 244.088 217.945 249.149 209.338 246.253C200.73 243.356 191.795 240.669 184.47 240.565C177.131 240.475 172.491 235.653 173.998 232.384C175.505 229.129 177.28 221.396 195.972 219.186C214.663 216.977 223.092 223.576 226.985 228.741C230.894 233.906 226.433 239.564 223.315 238.654V238.669Z" fill="#1C63D7"/>
<g opacity="0.7">
<path d="M223.315 238.669C224.852 244.088 217.945 249.149 209.338 246.253C200.73 243.356 191.795 240.669 184.47 240.565C177.131 240.475 172.491 235.653 173.998 232.384C175.505 229.129 177.28 221.396 195.972 219.186C214.663 216.977 223.092 223.576 226.985 228.741C230.894 233.906 226.433 239.564 223.315 238.654V238.669Z" fill="#D8DBE3"/>
</g>
<path d="M188.603 227.263C190.527 226.755 192.645 226.696 194.629 226.711C196.584 226.726 198.538 226.875 200.462 227.188C204.251 227.815 207.936 229.054 211.441 230.607C218.005 233.518 224.524 237.325 228.79 243.252C231.043 246.372 232.997 249.925 234.295 253.553C234.549 254.254 233.191 254.643 232.878 254.016C231.386 250.97 230.088 247.895 228.209 245.043C226.284 242.147 223.912 239.579 221.048 237.579C215.141 233.444 208.294 230.07 201.223 228.502C199.149 228.039 197.031 227.681 194.898 227.576C192.75 227.457 190.676 227.696 188.543 227.815C188.259 227.815 188.394 227.308 188.588 227.263H188.603Z" fill="#1C63D7"/>
<path opacity="0.3" d="M188.603 227.263C190.527 226.755 192.645 226.696 194.629 226.711C196.584 226.726 198.538 226.875 200.462 227.188C204.251 227.815 207.936 229.054 211.441 230.607C218.005 233.518 224.524 237.325 228.79 243.252C231.043 246.372 232.997 249.925 234.295 253.553C234.549 254.254 233.191 254.643 232.878 254.016C231.386 250.97 230.088 247.895 228.209 245.043C226.284 242.147 223.912 239.579 221.048 237.579C215.141 233.444 208.294 230.07 201.223 228.502C199.149 228.039 197.031 227.681 194.898 227.576C192.75 227.457 190.676 227.696 188.543 227.815C188.259 227.815 188.394 227.308 188.588 227.263H188.603Z" fill="black"/>
<path d="M238.636 269.228C240.098 263.645 247.154 260.525 256.388 259.838C265.622 259.151 274.527 263.361 279.346 271.632C284.179 279.902 286.178 286.471 283.239 287.561C280.301 288.636 267.904 290.353 259.893 291.069C251.883 291.786 241.888 290.338 235.354 284.247C228.82 278.156 230.983 270.512 238.621 269.228H238.636Z" fill="#1C63D7"/>
<path opacity="0.3" d="M238.636 269.228C240.098 263.645 247.154 260.525 256.388 259.838C265.622 259.151 274.527 263.361 279.346 271.632C284.179 279.902 286.178 286.471 283.239 287.561C280.301 288.636 267.904 290.353 259.893 291.069C251.883 291.786 241.888 290.338 235.354 284.247C228.82 278.156 230.983 270.512 238.621 269.228H238.636Z" fill="#D8DBE3"/>
<path d="M238.293 268.497C241.426 267.481 245.036 267.661 248.258 268.034C251.465 268.392 254.628 269.154 257.671 270.199C260.893 271.303 264.011 272.751 266.994 274.394C268.561 275.245 270.097 276.155 271.604 277.126C273.006 278.021 274.483 278.887 275.736 279.977C275.781 280.022 275.781 280.216 275.691 280.171C274.17 279.499 272.752 278.529 271.305 277.723C269.739 276.842 268.173 275.976 266.577 275.17C263.593 273.662 260.52 272.304 257.343 271.244C254.165 270.199 250.883 269.452 247.542 269.139C244.394 268.855 241.336 269.168 238.203 269.377C237.562 269.422 237.92 268.616 238.308 268.482L238.293 268.497Z" fill="#1C63D7"/>
<path opacity="0.3" d="M238.293 268.497C241.426 267.481 245.036 267.661 248.258 268.034C251.465 268.392 254.628 269.154 257.671 270.199C260.893 271.303 264.011 272.751 266.994 274.394C268.561 275.245 270.097 276.155 271.604 277.126C273.006 278.021 274.483 278.887 275.736 279.977C275.781 280.022 275.781 280.216 275.691 280.171C274.17 279.499 272.752 278.529 271.305 277.723C269.739 276.842 268.173 275.976 266.577 275.17C263.593 273.662 260.52 272.304 257.343 271.244C254.165 270.199 250.883 269.452 247.542 269.139C244.394 268.855 241.336 269.168 238.203 269.377C237.562 269.422 237.92 268.616 238.308 268.482L238.293 268.497Z" fill="black"/>
<path d="M225.046 353.905L20.9442 472.112L347.668 660.381L551.576 542.189L225.046 353.905Z" fill="#1C63D7"/>
<path opacity="0.2" d="M225.046 353.905L20.9442 472.112L347.668 660.381L551.576 542.189L225.046 353.905Z" fill="#D8DBE3"/>
<path d="M347.489 661.739C347.713 661.739 347.922 661.68 348.115 661.575L552.202 543.652C552.59 543.428 552.829 543.01 552.829 542.562C552.829 542.114 552.59 541.696 552.202 541.472L225.657 352.8C225.27 352.576 224.792 352.576 224.404 352.8L20.3176 470.724C19.9297 470.948 19.691 471.366 19.691 471.814C19.691 472.262 19.9297 472.679 20.3176 472.903L346.848 661.575C347.041 661.695 347.265 661.739 347.474 661.739H347.489ZM549.07 542.562L347.489 659.037L23.4651 471.814L225.031 355.353L549.07 542.577V542.562Z" fill="#45506B"/>
<path d="M225.031 355.144C225.464 355.144 225.881 354.92 226.12 354.517C226.463 353.92 226.269 353.144 225.658 352.8L216.677 347.605C216.066 347.247 215.305 347.471 214.962 348.068C214.619 348.665 214.813 349.441 215.424 349.785L224.405 354.98C224.598 355.099 224.822 355.144 225.031 355.144Z" fill="#45506B"/>
<path d="M213.679 361.698C214.111 361.698 214.529 361.474 214.768 361.071C215.111 360.474 214.917 359.697 214.305 359.354L205.325 354.159C204.713 353.8 203.953 354.024 203.609 354.622C203.266 355.219 203.46 355.995 204.072 356.338L213.052 361.534C213.246 361.653 213.47 361.698 213.679 361.698Z" fill="#45506B"/>
<path d="M202.327 368.237C202.759 368.237 203.177 368.013 203.415 367.61C203.759 367.013 203.565 366.236 202.953 365.893L193.973 360.698C193.361 360.339 192.6 360.563 192.257 361.16C191.914 361.758 192.108 362.534 192.72 362.877L201.7 368.073C201.894 368.192 202.118 368.237 202.327 368.237Z" fill="#45506B"/>
<path d="M190.974 374.776C191.407 374.776 191.825 374.552 192.063 374.149C192.407 373.537 192.213 372.775 191.601 372.432L182.621 367.237C182.009 366.878 181.248 367.102 180.905 367.699C180.562 368.296 180.756 369.073 181.368 369.416L190.348 374.611C190.542 374.731 190.766 374.776 190.974 374.776Z" fill="#45506B"/>
<path d="M179.622 381.315C180.055 381.315 180.472 381.091 180.711 380.688C181.054 380.09 180.86 379.314 180.249 378.971L171.268 373.775C170.657 373.417 169.896 373.641 169.553 374.238C169.21 374.835 169.404 375.612 170.015 375.955L178.996 381.15C179.19 381.27 179.413 381.315 179.622 381.315Z" fill="#45506B"/>
<path d="M168.27 387.853C168.702 387.853 169.12 387.629 169.359 387.226C169.702 386.629 169.508 385.853 168.896 385.51L159.916 380.314C159.304 379.956 158.544 380.18 158.2 380.777C157.857 381.374 158.051 382.151 158.663 382.494L167.643 387.689C167.837 387.809 168.061 387.853 168.27 387.853Z" fill="#45506B"/>
<path d="M156.903 394.407C157.335 394.407 157.753 394.183 157.992 393.78C158.335 393.183 158.141 392.407 157.529 392.063L148.549 386.868C147.937 386.51 147.176 386.734 146.833 387.331C146.49 387.928 146.684 388.704 147.296 389.048L156.276 394.243C156.47 394.362 156.694 394.407 156.903 394.407Z" fill="#45506B"/>
<path d="M145.55 400.946C145.983 400.946 146.401 400.722 146.639 400.319C146.982 399.722 146.789 398.946 146.177 398.602L137.197 393.407C136.585 393.049 135.824 393.273 135.481 393.87C135.138 394.467 135.332 395.243 135.943 395.587L144.924 400.782C145.118 400.901 145.342 400.946 145.55 400.946Z" fill="#45506B"/>
<path d="M134.198 407.485C134.631 407.485 135.049 407.261 135.287 406.858C135.63 406.261 135.436 405.484 134.825 405.141L125.844 399.946C125.233 399.588 124.472 399.811 124.129 400.409C123.786 401.021 123.98 401.782 124.591 402.125L133.572 407.321C133.766 407.44 133.989 407.485 134.198 407.485Z" fill="#45506B"/>
<path d="M122.846 414.024C123.279 414.024 123.696 413.8 123.935 413.397C124.278 412.8 124.084 412.023 123.473 411.68L114.492 406.485C113.881 406.126 113.12 406.35 112.777 406.947C112.434 407.545 112.628 408.321 113.239 408.664L122.219 413.86C122.413 413.979 122.637 414.024 122.846 414.024Z" fill="#45506B"/>
<path d="M111.494 420.563C111.926 420.563 112.344 420.339 112.583 419.936C112.926 419.338 112.732 418.562 112.12 418.219L103.14 413.024C102.528 412.665 101.767 412.889 101.424 413.486C101.081 414.083 101.275 414.86 101.887 415.203L110.867 420.398C111.061 420.518 111.285 420.563 111.494 420.563Z" fill="#45506B"/>
<path d="M100.141 427.116C100.574 427.116 100.992 426.892 101.23 426.489C101.574 425.892 101.38 425.116 100.768 424.773L91.7876 419.577C91.176 419.219 90.4152 419.443 90.0721 420.04C89.729 420.652 89.9229 421.414 90.5346 421.757L99.5149 426.952C99.7088 427.072 99.9326 427.116 100.141 427.116Z" fill="#45506B"/>
<path d="M88.7891 433.655C89.2217 433.655 89.6394 433.431 89.8781 433.028C90.2212 432.431 90.0273 431.655 89.4157 431.311L80.4353 426.116C79.8237 425.758 79.0629 425.982 78.7198 426.579C78.3767 427.176 78.5706 427.952 79.1822 428.296L88.1626 433.491C88.3565 433.61 88.5803 433.655 88.7891 433.655Z" fill="#45506B"/>
<path d="M77.4369 440.194C77.8695 440.194 78.2871 439.97 78.5258 439.567C78.8689 438.97 78.675 438.194 78.0634 437.85L69.083 432.655C68.4714 432.297 67.7106 432.521 67.3675 433.118C67.0244 433.715 67.2183 434.491 67.83 434.835L76.8103 440.03C77.0042 440.149 77.228 440.194 77.4369 440.194Z" fill="#45506B"/>
<path d="M66.0699 446.733C66.5025 446.733 66.9202 446.509 67.1589 446.106C67.502 445.494 67.3081 444.733 66.6964 444.389L57.7161 439.194C57.1045 438.836 56.3436 439.06 56.0005 439.657C55.6574 440.254 55.8514 441.03 56.463 441.374L65.4434 446.569C65.6373 446.688 65.861 446.733 66.0699 446.733Z" fill="#45506B"/>
<path d="M54.7176 453.272C55.1502 453.272 55.5679 453.048 55.8066 452.645C56.1497 452.048 55.9558 451.271 55.3441 450.928L46.3638 445.733C45.7521 445.375 44.9913 445.598 44.6482 446.196C44.3051 446.793 44.4991 447.569 45.1107 447.912L54.091 453.108C54.285 453.227 54.5087 453.272 54.7176 453.272Z" fill="#45506B"/>
<path d="M43.3653 459.811C43.7979 459.811 44.2156 459.587 44.4543 459.184C44.7974 458.587 44.6035 457.81 43.9918 457.467L35.0115 452.272C34.3999 451.913 33.6391 452.137 33.296 452.734C32.9529 453.332 33.1468 454.108 33.7584 454.451L42.7388 459.647C42.9327 459.766 43.1565 459.811 43.3653 459.811Z" fill="#45506B"/>
<path d="M32.013 466.365C32.4456 466.365 32.8633 466.141 33.102 465.738C33.4451 465.14 33.2512 464.364 32.6395 464.021L23.6592 458.825C23.0475 458.467 22.2868 458.691 21.9437 459.288C21.6006 459.885 21.7945 460.662 22.4061 461.005L31.3864 466.2C31.5804 466.32 31.8041 466.365 32.013 466.365Z" fill="#45506B"/>
<path d="M20.6607 472.903C21.0934 472.903 21.511 472.68 21.7497 472.276C22.0928 471.679 21.8989 470.903 21.2873 470.56L12.3069 465.364C11.6953 465.006 10.9345 465.23 10.5914 465.827C10.2483 466.424 10.4422 467.201 11.0538 467.544L20.0342 472.739C20.2281 472.859 20.4519 472.903 20.6607 472.903Z" fill="#45506B"/>
<path d="M560.69 549.086C561.123 549.086 561.541 548.862 561.779 548.459C562.123 547.862 561.929 547.085 561.317 546.742L552.337 541.547C551.725 541.188 550.964 541.412 550.621 542.009C550.278 542.607 550.472 543.383 551.084 543.726L560.064 548.921C560.258 549.041 560.482 549.086 560.69 549.086Z" fill="#45506B"/>
<path d="M549.323 555.625C549.756 555.625 550.174 555.401 550.412 554.998C550.755 554.4 550.561 553.624 549.95 553.281L540.969 548.085C540.358 547.727 539.597 547.951 539.254 548.548C538.911 549.145 539.105 549.922 539.716 550.265L548.697 555.46C548.891 555.58 549.114 555.625 549.323 555.625Z" fill="#45506B"/>
<path d="M537.971 562.163C538.404 562.163 538.821 561.94 539.06 561.536C539.403 560.939 539.209 560.163 538.598 559.82L529.617 554.624C529.006 554.266 528.245 554.49 527.902 555.087C527.559 555.684 527.753 556.461 528.364 556.804L537.344 561.999C537.538 562.119 537.762 562.163 537.971 562.163Z" fill="#45506B"/>
<path d="M526.619 568.702C527.052 568.702 527.469 568.478 527.708 568.075C528.051 567.478 527.857 566.702 527.246 566.358L518.265 561.163C517.654 560.805 516.893 561.029 516.55 561.626C516.207 562.223 516.4 562.999 517.012 563.343L525.992 568.538C526.186 568.658 526.41 568.702 526.619 568.702Z" fill="#45506B"/>
<path d="M515.267 575.256C515.699 575.256 516.117 575.032 516.356 574.629C516.699 574.017 516.505 573.256 515.893 572.912L506.913 567.717C506.301 567.359 505.54 567.583 505.197 568.18C504.854 568.777 505.048 569.553 505.66 569.897L514.64 575.092C514.834 575.211 515.058 575.256 515.267 575.256Z" fill="#45506B"/>
<path d="M503.914 581.795C504.347 581.795 504.765 581.571 505.003 581.168C505.346 580.571 505.153 579.795 504.541 579.451L495.561 574.256C494.949 573.898 494.188 574.122 493.845 574.719C493.502 575.316 493.696 576.092 494.307 576.435L503.288 581.631C503.482 581.75 503.706 581.795 503.914 581.795Z" fill="#45506B"/>
<path d="M492.562 588.334C492.995 588.334 493.412 588.11 493.651 587.707C493.994 587.11 493.8 586.333 493.189 585.99L484.208 580.795C483.597 580.436 482.836 580.66 482.493 581.257C482.15 581.855 482.344 582.631 482.955 582.974L491.936 588.17C492.129 588.289 492.353 588.334 492.562 588.334Z" fill="#45506B"/>
<path d="M481.21 594.873C481.642 594.873 482.06 594.649 482.299 594.246C482.642 593.648 482.448 592.872 481.836 592.529L472.856 587.334C472.244 586.975 471.484 587.199 471.14 587.796C470.797 588.394 470.991 589.17 471.603 589.513L480.583 594.708C480.777 594.828 481.001 594.873 481.21 594.873Z" fill="#45506B"/>
<path d="M469.858 601.426C470.29 601.426 470.708 601.203 470.947 600.799C471.29 600.202 471.096 599.426 470.484 599.083L461.504 593.887C460.892 593.529 460.131 593.753 459.788 594.35C459.445 594.962 459.639 595.724 460.251 596.067L469.231 601.262C469.425 601.382 469.649 601.426 469.858 601.426Z" fill="#45506B"/>
<path d="M458.491 607.965C458.923 607.965 459.341 607.741 459.58 607.338C459.923 606.741 459.729 605.965 459.117 605.622L450.137 600.426C449.525 600.068 448.764 600.292 448.421 600.889C448.078 601.486 448.272 602.262 448.884 602.606L457.864 607.801C458.058 607.921 458.282 607.965 458.491 607.965Z" fill="#45506B"/>
<path d="M447.138 614.504C447.571 614.504 447.989 614.28 448.227 613.877C448.57 613.28 448.376 612.504 447.765 612.16L438.784 606.965C438.173 606.607 437.412 606.831 437.069 607.428C436.726 608.025 436.92 608.801 437.531 609.145L446.512 614.34C446.706 614.459 446.929 614.504 447.138 614.504Z" fill="#45506B"/>
<path d="M435.786 621.043C436.219 621.043 436.636 620.819 436.875 620.416C437.218 619.819 437.024 619.043 436.412 618.699L427.432 613.504C426.821 613.146 426.06 613.37 425.717 613.967C425.374 614.564 425.567 615.34 426.179 615.684L435.159 620.879C435.353 620.998 435.577 621.043 435.786 621.043Z" fill="#45506B"/>
<path d="M424.434 627.582C424.866 627.582 425.284 627.358 425.523 626.955C425.866 626.358 425.672 625.581 425.06 625.238L416.08 620.043C415.468 619.685 414.707 619.908 414.364 620.506C414.021 621.118 414.215 621.879 414.827 622.222L423.807 627.418C424.001 627.537 424.225 627.582 424.434 627.582Z" fill="#45506B"/>
<path d="M413.081 634.121C413.514 634.121 413.932 633.897 414.17 633.494C414.513 632.897 414.32 632.12 413.708 631.777L404.728 626.582C404.116 626.223 403.355 626.447 403.012 627.044C402.669 627.642 402.863 628.418 403.474 628.761L412.455 633.957C412.649 634.076 412.873 634.121 413.081 634.121Z" fill="#45506B"/>
<path d="M401.729 640.675C402.162 640.675 402.58 640.451 402.818 640.048C403.161 639.45 402.967 638.674 402.356 638.331L393.376 633.136C392.764 632.777 392.003 633.001 391.66 633.598C391.317 634.195 391.511 634.972 392.122 635.315L401.103 640.51C401.297 640.63 401.52 640.675 401.729 640.675Z" fill="#45506B"/>
<path d="M390.362 647.213C390.795 647.213 391.212 646.99 391.451 646.586C391.794 645.989 391.6 645.213 390.989 644.87L382.008 639.674C381.397 639.316 380.636 639.54 380.293 640.137C379.95 640.749 380.144 641.511 380.755 641.854L389.736 647.049C389.93 647.169 390.153 647.213 390.362 647.213Z" fill="#45506B"/>
<path d="M379.01 653.752C379.442 653.752 379.86 653.528 380.099 653.125C380.442 652.528 380.248 651.752 379.636 651.408L370.656 646.213C370.044 645.855 369.284 646.079 368.941 646.676C368.597 647.273 368.791 648.05 369.403 648.393L378.383 653.588C378.577 653.708 378.801 653.752 379.01 653.752Z" fill="#45506B"/>
<path d="M367.658 660.291C368.09 660.291 368.508 660.067 368.747 659.664C369.09 659.067 368.896 658.291 368.284 657.947L359.304 652.752C358.692 652.394 357.931 652.618 357.588 653.215C357.245 653.812 357.439 654.588 358.051 654.932L367.031 660.127C367.225 660.246 367.449 660.291 367.658 660.291Z" fill="#45506B"/>
<path d="M356.305 666.83C356.738 666.83 357.156 666.606 357.394 666.203C357.737 665.606 357.543 664.83 356.932 664.486L347.951 659.291C347.34 658.933 346.579 659.157 346.236 659.754C345.893 660.351 346.087 661.127 346.698 661.471L355.679 666.666C355.873 666.785 356.096 666.83 356.305 666.83Z" fill="#45506B"/>
<path d="M306.675 638.152C306.884 638.152 307.107 638.107 307.301 637.987L511.388 520.064C511.985 519.721 512.194 518.944 511.851 518.347C511.508 517.75 510.747 517.541 510.135 517.884L306.048 635.808C305.452 636.151 305.243 636.928 305.586 637.525C305.81 637.928 306.242 638.152 306.675 638.152Z" fill="#45506B"/>
<path d="M265.86 614.564C266.069 614.564 266.293 614.519 266.487 614.4L470.574 496.476C471.17 496.133 471.379 495.357 471.036 494.759C470.693 494.162 469.932 493.953 469.321 494.297L265.234 612.22C264.637 612.564 264.428 613.34 264.771 613.937C264.995 614.34 265.428 614.564 265.86 614.564Z" fill="#45506B"/>
<path d="M225.046 590.976C225.255 590.976 225.479 590.931 225.672 590.812L429.759 472.889C430.356 472.545 430.565 471.769 430.222 471.172C429.879 470.574 429.103 470.365 428.506 470.709L224.419 588.632C223.823 588.976 223.614 589.752 223.957 590.349C224.181 590.752 224.613 590.976 225.046 590.976Z" fill="#45506B"/>
<path d="M184.231 567.389C184.44 567.389 184.664 567.329 184.858 567.224L388.945 449.301C389.542 448.957 389.75 448.181 389.407 447.584C389.064 446.987 388.288 446.778 387.692 447.121L183.605 565.045C183.008 565.388 182.799 566.164 183.142 566.762C183.366 567.165 183.799 567.389 184.231 567.389Z" fill="#45506B"/>
<path d="M143.417 543.816C143.626 543.816 143.85 543.771 144.044 543.652L348.131 425.728C348.727 425.385 348.936 424.608 348.593 424.011C348.25 423.414 347.474 423.205 346.878 423.548L142.791 541.472C142.194 541.815 141.985 542.592 142.328 543.189C142.552 543.592 142.985 543.816 143.417 543.816Z" fill="#45506B"/>
<path d="M102.603 520.228C102.812 520.228 103.035 520.168 103.229 520.064L307.316 402.14C307.913 401.797 308.122 401.021 307.779 400.424C307.435 399.826 306.66 399.617 306.063 399.961L101.976 517.884C101.38 518.228 101.171 519.004 101.514 519.601C101.738 520.004 102.17 520.228 102.603 520.228Z" fill="#45506B"/>
<path d="M61.7883 496.64C61.9971 496.64 62.2209 496.581 62.4149 496.476L266.502 378.553C267.098 378.209 267.307 377.433 266.964 376.836C266.621 376.239 265.845 376.03 265.249 376.373L61.1618 494.297C60.5651 494.64 60.3562 495.416 60.6994 496.013C60.9231 496.416 61.3557 496.64 61.7883 496.64Z" fill="#45506B"/>
<path d="M388.303 638.152C388.632 638.152 388.96 638.017 389.184 637.793C389.422 637.554 389.557 637.241 389.557 636.898V591.245L449.257 602.74C449.644 602.8 450.002 602.71 450.301 602.471C450.599 602.233 450.763 601.874 450.763 601.501L450.808 555.893L510.538 567.389C510.926 567.448 511.284 567.359 511.582 567.12C511.88 566.881 512.044 566.523 512.044 566.149V518.959C512.044 518.257 511.478 517.705 510.791 517.705C510.105 517.705 509.538 518.272 509.538 518.959V564.627L449.808 553.131C449.421 553.072 449.063 553.161 448.764 553.4C448.481 553.639 448.302 553.997 448.302 554.371L448.257 599.978L388.557 588.483C388.169 588.423 387.811 588.513 387.513 588.752C387.214 588.991 387.05 589.349 387.05 589.722V635.644L306.66 635.554C305.959 635.554 305.407 636.121 305.407 636.808C305.407 637.495 305.974 638.062 306.66 638.062L388.303 638.152Z" fill="#45506B"/>
<path d="M306.66 590.991C306.988 590.991 307.316 590.857 307.54 590.633C307.778 590.394 307.913 590.081 307.913 589.737V544.085L367.613 555.58C368.015 555.64 368.359 555.55 368.657 555.311C368.955 555.072 369.119 554.714 369.119 554.341L369.179 508.718L428.894 520.213C429.297 520.273 429.655 520.183 429.938 519.944C430.222 519.706 430.401 519.347 430.401 518.974V471.784C430.401 471.082 429.834 470.53 429.148 470.53C428.461 470.53 427.894 471.097 427.894 471.784V517.451L368.165 505.956C367.777 505.881 367.419 505.986 367.12 506.225C366.837 506.464 366.658 506.822 366.658 507.195L366.598 552.818L306.898 541.323C306.51 541.263 306.152 541.353 305.854 541.591C305.571 541.83 305.392 542.189 305.392 542.562V588.483L225.001 588.394C224.3 588.394 223.748 588.961 223.748 589.648C223.748 590.334 224.315 590.902 225.001 590.902L306.63 590.991H306.66Z" fill="#45506B"/>
<path d="M225.016 543.816C225.344 543.816 225.672 543.681 225.896 543.458C226.135 543.219 226.269 542.905 226.269 542.562V496.909L285.984 508.404C286.372 508.464 286.73 508.375 287.028 508.136C287.327 507.897 287.491 507.539 287.491 507.165L287.536 461.557L347.25 473.053C347.638 473.112 347.996 473.023 348.295 472.784C348.593 472.545 348.757 472.187 348.757 471.814V424.623C348.757 423.922 348.19 423.369 347.504 423.369C346.818 423.369 346.251 423.937 346.251 424.623V470.291L286.536 458.796C286.148 458.736 285.79 458.825 285.492 459.064C285.193 459.303 285.029 459.661 285.029 460.035L284.985 505.643L225.285 494.147C224.897 494.088 224.539 494.177 224.24 494.416C223.942 494.655 223.778 495.013 223.778 495.386V541.308L143.387 541.218C142.686 541.218 142.134 541.785 142.134 542.472C142.134 543.159 142.701 543.726 143.387 543.726L225.016 543.816Z" fill="#45506B"/>
<path d="M143.372 496.655C143.701 496.655 144.029 496.521 144.253 496.297C144.491 496.058 144.626 495.745 144.626 495.401V449.749L204.34 461.244C204.743 461.304 205.086 461.214 205.385 460.975C205.683 460.736 205.847 460.378 205.847 460.005L205.892 414.382L265.622 425.877C266.025 425.922 266.368 425.847 266.666 425.609C266.964 425.37 267.128 425.011 267.128 424.638V377.448C267.128 376.746 266.562 376.194 265.875 376.194C265.189 376.194 264.622 376.761 264.622 377.448V423.116L204.892 411.62C204.505 411.546 204.147 411.65 203.848 411.889C203.55 412.128 203.386 412.486 203.386 412.859L203.326 458.482L143.626 446.987C143.238 446.927 142.88 447.017 142.582 447.256C142.284 447.494 142.119 447.853 142.119 448.226V494.147L61.7288 494.058C61.0277 494.058 60.4757 494.625 60.4757 495.312C60.4757 495.998 61.0426 496.566 61.7288 496.566L143.358 496.655H143.372Z" fill="#45506B"/>
<path opacity="0.3" d="M561.765 548.459C561.541 548.862 561.123 549.086 560.691 549.086C560.467 549.086 560.243 549.041 560.064 548.907L551.576 543.995L542.745 549.101L549.95 553.266C550.547 553.609 550.756 554.385 550.412 554.983C550.189 555.371 549.771 555.595 549.324 555.595C549.115 555.595 548.891 555.55 548.697 555.43L540.239 550.519L531.408 555.625L538.598 559.79C539.195 560.133 539.403 560.894 539.06 561.492C538.822 561.895 538.419 562.119 537.971 562.119C537.762 562.119 537.539 562.074 537.345 561.94L528.916 557.058L520.085 562.148L527.26 566.299C527.857 566.642 528.066 567.404 527.723 568.016C527.484 568.404 527.081 568.628 526.634 568.628C526.425 568.628 526.201 568.583 526.007 568.463L517.594 563.582L511.612 567.03H511.597C511.597 567.03 511.567 567.045 511.552 567.06L508.763 568.672L515.923 572.823C516.52 573.166 516.729 573.927 516.386 574.525C516.147 574.928 515.744 575.152 515.297 575.152C515.073 575.152 514.864 575.107 514.67 574.972L506.271 570.106L497.44 575.196L504.586 579.332C505.183 579.675 505.391 580.451 505.048 581.049C504.81 581.437 504.407 581.676 503.959 581.676C503.75 581.676 503.527 581.616 503.333 581.496L494.934 576.63L486.118 581.735L493.248 585.856C493.845 586.199 494.054 586.96 493.711 587.572C493.472 587.961 493.069 588.185 492.622 588.185C492.398 588.185 492.189 588.14 491.995 588.02L483.612 583.154L474.796 588.259L481.911 592.365C482.508 592.708 482.717 593.484 482.374 594.081C482.135 594.485 481.717 594.708 481.285 594.708C481.061 594.708 480.852 594.664 480.658 594.529L472.304 589.707L463.473 594.798L470.574 598.904C471.171 599.247 471.379 600.023 471.036 600.62C470.798 601.009 470.38 601.247 469.947 601.247C469.724 601.247 469.5 601.188 469.321 601.068L460.967 596.246L452.136 601.337L459.222 605.442C459.833 605.786 460.027 606.547 459.684 607.144C459.46 607.547 459.043 607.771 458.61 607.771C458.386 607.771 458.162 607.727 457.983 607.592L449.645 602.785L440.813 607.876L447.884 611.966C448.481 612.31 448.69 613.086 448.347 613.683C448.123 614.071 447.705 614.295 447.258 614.295C447.049 614.295 446.825 614.25 446.631 614.131L438.322 609.324L429.491 614.415L436.532 618.505C437.129 618.834 437.338 619.61 436.994 620.207C436.771 620.61 436.353 620.834 435.905 620.834C435.697 620.834 435.473 620.789 435.279 620.655L426.985 615.863L418.154 620.968L425.18 625.029C425.776 625.373 425.985 626.149 425.642 626.746C425.404 627.134 425.001 627.373 424.553 627.373C424.344 627.373 424.121 627.313 423.927 627.194L415.647 622.417L406.816 627.507L413.827 631.568C414.424 631.911 414.633 632.673 414.29 633.285C414.051 633.673 413.648 633.897 413.201 633.897C412.977 633.897 412.768 633.852 412.574 633.733L404.31 628.955L395.479 634.046L402.475 638.092C403.072 638.45 403.281 639.212 402.938 639.809C402.699 640.212 402.281 640.436 401.849 640.436C401.625 640.436 401.416 640.391 401.222 640.257L392.973 635.494L384.142 640.585L391.123 644.631C391.72 644.974 391.929 645.75 391.585 646.348C391.347 646.736 390.929 646.975 390.496 646.975C390.273 646.975 390.049 646.915 389.87 646.796L381.635 642.033L372.804 647.124L379.771 651.17C380.367 651.513 380.561 652.274 380.218 652.872C379.995 653.275 379.577 653.499 379.144 653.499C378.92 653.499 378.697 653.454 378.518 653.319L370.298 648.572L361.467 653.678L368.404 657.679C369 658.022 369.209 658.798 368.866 659.396C368.642 659.784 368.225 660.022 367.777 660.022C367.568 660.022 367.344 659.963 367.151 659.843L358.961 655.096L350.13 660.202L357.051 664.203C357.648 664.531 357.857 665.307 357.514 665.905C357.29 666.308 356.872 666.532 356.425 666.532C356.216 666.532 355.992 666.487 355.798 666.352L347.027 661.291C347.027 661.291 346.997 661.277 346.982 661.277L161.647 554.206L320.086 462.662L246.885 420.413L88.4462 511.943L20.4371 472.605C20.4371 472.605 20.3625 472.545 20.3327 472.515C20.2731 472.485 20.2134 472.47 20.1537 472.441L11.1733 467.245C10.5767 466.902 10.3678 466.126 10.7109 465.529C11.0391 464.931 11.8148 464.707 12.4264 465.066L21.0637 470.067L29.8948 464.976L22.5107 460.707C21.914 460.378 21.7051 459.602 22.0482 458.99C22.3764 458.407 23.1521 458.183 23.7637 458.542L32.3861 463.528L41.2173 458.422L33.848 454.183C33.2513 453.839 33.0425 453.063 33.3856 452.466C33.7287 451.869 34.4894 451.645 35.1011 452.003L43.7085 456.989L52.5397 451.884L45.1853 447.644C44.5886 447.3 44.3798 446.539 44.7228 445.927C45.066 445.33 45.8268 445.121 46.4384 445.464L55.0309 450.435L63.8621 445.345L56.5376 441.105C55.9409 440.776 55.732 440 56.0751 439.403C56.4182 438.806 57.179 438.582 57.7906 438.94L66.3831 443.897L75.1994 438.806L67.8898 434.581C67.2931 434.238 67.0843 433.461 67.4423 432.864C67.7705 432.267 68.5313 432.058 69.1429 432.401L77.7205 437.358L86.5367 432.267L79.257 428.042C78.6603 427.699 78.4515 426.937 78.7946 426.325C79.1227 425.743 79.8984 425.519 80.4951 425.862L89.0578 430.819L97.889 425.728L90.6092 421.518C90.0125 421.175 89.8037 420.398 90.1468 419.801C90.4899 419.204 91.2507 418.995 91.8623 419.338L100.395 424.28L109.226 419.174L101.961 414.979C101.365 414.636 101.156 413.874 101.499 413.262C101.827 412.68 102.603 412.456 103.215 412.8L111.732 417.726L120.564 412.635L113.314 408.455C112.717 408.112 112.508 407.336 112.851 406.738C113.194 406.141 113.955 405.932 114.567 406.276L123.07 411.187L131.901 406.096L124.666 401.916C124.069 401.573 123.86 400.797 124.204 400.2C124.547 399.602 125.307 399.393 125.919 399.737L134.407 404.648L143.238 399.558L136.018 395.378C135.422 395.034 135.213 394.273 135.556 393.676C135.899 393.079 136.66 392.855 137.271 393.213L145.744 398.11L154.576 393.019L147.37 388.854C146.774 388.51 146.565 387.734 146.908 387.137C147.251 386.54 148.012 386.316 148.624 386.674L157.082 391.571L165.913 386.48L158.738 382.315C158.141 381.971 157.932 381.195 158.275 380.598C158.603 380.016 159.379 379.792 159.976 380.135L168.404 385.032L177.235 379.926L170.075 375.791C169.478 375.433 169.269 374.671 169.612 374.074C169.941 373.477 170.716 373.253 171.328 373.611L179.727 378.493L188.558 373.387L181.412 369.252C180.816 368.909 180.607 368.147 180.95 367.535C181.293 366.953 182.054 366.729 182.665 367.072L191.064 371.939L199.88 366.848L192.75 362.728C192.153 362.37 191.944 361.608 192.287 361.011C192.63 360.414 193.391 360.19 194.003 360.548L202.386 365.385L211.217 360.295L204.087 356.174C203.49 355.831 203.281 355.055 203.624 354.457C203.968 353.86 204.728 353.651 205.34 353.995L213.709 358.832L222.54 353.741L215.424 349.62C214.828 349.277 214.619 348.516 214.962 347.919C215.305 347.321 216.081 347.097 216.677 347.456L225.658 352.651L266.457 376.224C266.457 376.224 266.577 376.283 266.651 376.328L307.331 399.841C307.331 399.841 307.406 399.871 307.451 399.901L347.952 423.295L347.967 423.31L348.19 423.429C348.19 423.429 348.235 423.444 348.25 423.459L389.02 447.017C389.02 447.017 389.035 447.032 389.049 447.032L429.58 470.47C429.58 470.47 429.61 470.485 429.625 470.485L511.209 517.63C511.209 517.63 511.299 517.675 511.329 517.69L552.173 541.278C552.173 541.278 552.218 541.323 552.232 541.338C552.247 541.338 552.277 541.338 552.292 541.353L561.258 546.548C561.854 546.891 562.063 547.667 561.72 548.265L561.765 548.459Z" fill="black"/>
<path d="M533.988 344.634L530.647 346.56V366.027L533.988 364.101V344.634Z" fill="#37474F"/>
<path d="M527.29 344.634L530.647 346.56V366.027L527.29 364.101V344.634Z" fill="#263238"/>
<path d="M572.371 322.45L575.713 320.524V339.991L572.371 341.917V322.45Z" fill="#37474F"/>
<path d="M572.371 322.45L569.015 320.524V339.991L572.371 341.917V322.45Z" fill="#263238"/>
<path d="M570.835 310.163C570.163 309.715 569.253 309.715 568.269 310.298L530.796 331.93C528.707 333.139 527.007 336.393 527.007 339.185V344.828L530.662 346.948L575.728 320.927V315.284C575.728 313.776 575.235 312.716 574.46 312.238C573.803 311.835 571.446 310.551 570.849 310.163H570.835Z" fill="#37474F"/>
<path d="M534.451 334.05L571.924 312.418C574.012 311.208 575.713 312.492 575.713 315.284V320.927L530.647 346.948V341.305C530.647 338.513 532.347 335.259 534.436 334.05H534.451Z" fill="#45506B"/>
<path d="M584.753 332.572L604.474 344.037C605.742 344.769 607.01 346.545 607.278 347.978L615.423 390.332V395.333V470.515L607.338 475.188L605.563 474.172L568.686 495.491V497.521L557.066 504.239L521.92 483.861V369.655C521.92 367.341 522.949 365.609 524.232 364.878L580.143 332.572C581.411 331.84 583.485 331.84 584.753 332.572Z" fill="#45506B"/>
<g opacity="0.05">
<path d="M584.753 332.572L604.474 344.037C605.742 344.769 607.01 346.545 607.278 347.978L615.423 390.332V395.333V470.515L607.338 475.188L605.563 474.172L568.686 495.491V497.521L557.066 504.239L521.92 483.861V369.655C521.92 367.132 522.949 365.609 524.232 364.878L580.143 332.572C581.411 331.84 583.485 331.84 584.753 332.572Z" fill="#D8DBE3"/>
</g>
<path d="M548.906 381.718L548.936 381.897L522.591 366.595C523.009 365.863 523.576 365.236 524.217 364.878L580.128 332.572C581.396 331.84 583.47 331.84 584.738 332.572L604.474 344.037C605.637 344.709 606.786 346.246 607.174 347.605C606.771 346.455 605.637 346.037 604.474 346.709L550.711 377.776C549.428 378.508 548.622 380.269 548.906 381.718Z" fill="#1C63D7"/>
<g opacity="0.35">
<path d="M548.906 381.718L548.936 381.897L522.591 366.595C523.009 365.863 523.576 365.236 524.217 364.878L580.128 332.572C581.396 331.84 583.47 331.84 584.738 332.572L604.474 344.037C605.637 344.709 606.786 346.246 607.174 347.605C606.771 346.455 605.637 346.037 604.474 346.709L550.711 377.776C549.428 378.508 548.622 380.269 548.906 381.718Z" fill="#D8DBE3"/>
</g>
<path d="M557.051 429.057V504.239L521.905 483.861V368.879C521.905 368.147 522.174 367.341 522.591 366.609L548.936 381.897L557.051 424.071V429.072V429.057Z" fill="#37474F"/>
<path d="M544.625 391.795V395.094L526.888 384.853V381.553L544.625 391.795ZM526.888 387.883L544.625 398.124V401.424L526.888 391.182V387.883ZM526.888 394.213L544.625 404.454V407.754L526.888 397.512V394.213Z" fill="#263238"/>
<path d="M569.552 395.557L591.137 383.643L607.979 351.621L607.278 347.993C606.995 346.545 605.742 345.978 604.474 346.709L550.696 377.761C549.428 378.493 548.622 380.269 548.891 381.703L549.562 385.211L569.537 395.542L569.552 395.557Z" fill="#1C63D7"/>
<path d="M615.423 390.332V470.5L607.338 475.173L605.563 474.157L568.686 495.476V497.506L557.066 504.209V424.041L615.438 390.317L615.423 390.332Z" fill="#45506B"/>
<path d="M607.338 431.804V475.188L605.562 474.172L568.686 495.491V454.138L605.562 432.819L607.338 431.804Z" fill="#263238"/>
<path d="M605.562 432.819V449.301C602.982 450.57 600.52 452.078 598.253 453.839C593.942 457.183 590.168 461.408 585.155 463.573C581.426 465.17 577.294 465.514 573.385 466.529C571.789 466.947 570.208 467.484 568.686 468.111V454.123L605.562 432.804V432.819Z" fill="#37474F"/>
<path d="M605.562 449.301V474.157L568.686 495.476V468.111C570.208 467.484 571.789 466.932 573.385 466.529C577.294 465.514 581.426 465.17 585.155 463.573C590.168 461.408 593.942 457.183 598.253 453.839C600.52 452.078 602.982 450.57 605.562 449.301Z" fill="#1C63D7"/>
<path opacity="0.4" d="M605.562 449.301V474.157L568.686 495.476V468.111C570.208 467.484 571.789 466.932 573.385 466.529C577.294 465.514 581.426 465.17 585.155 463.573C590.168 461.408 593.942 457.183 598.253 453.839C600.52 452.078 602.982 450.57 605.562 449.301Z" fill="black"/>
<path opacity="0.4" d="M605.562 449.301V453.615C602.997 454.705 600.192 455.437 598.656 457.691C598.089 458.497 597.731 459.482 596.97 460.109C595.359 461.453 592.987 461.154 591.436 462.617C590.72 463.274 590.153 464.2 589.392 464.782C588.661 465.305 587.751 465.573 586.886 465.752C585.752 466.006 583.604 466.126 583.201 467.484C583.097 467.813 583.112 468.171 582.918 468.47C582.813 468.604 582.664 468.723 582.5 468.813C581.724 469.246 580.784 469.216 579.904 469.156C579.576 469.141 579.173 469.037 579.158 468.723C579.144 468.499 579.367 468.32 579.546 468.186C579.725 468.037 579.904 467.783 579.755 467.589C579.561 467.32 578.427 467.544 578.159 467.619C577.607 467.798 577.1 468.156 576.652 468.529C575.936 469.111 575.235 469.798 574.325 469.948C573.52 470.067 572.55 469.888 571.73 469.813C570.7 469.739 569.656 469.843 568.657 470.142V468.141C570.178 467.514 571.759 466.962 573.356 466.559C577.264 465.543 581.396 465.2 585.125 463.603C590.138 461.438 593.912 457.213 598.223 453.869C600.491 452.107 602.952 450.6 605.533 449.331L605.562 449.301ZM581.62 467.678C581.247 467.753 580.889 467.872 580.576 468.111C580.456 468.201 580.322 468.32 580.262 468.484C580.247 468.514 580.247 468.544 580.247 468.574C580.262 468.604 580.307 468.634 580.337 468.649C580.605 468.738 580.874 468.679 581.157 468.604C581.501 468.514 581.873 468.395 582.038 468.081C582.246 467.693 581.903 467.633 581.62 467.678ZM597.253 458.258C596.836 458.064 595.941 459.079 595.687 459.303C595.448 459.482 595.225 459.706 595.195 459.99C595.18 460.079 595.21 460.199 595.299 460.259C595.359 460.288 595.419 460.288 595.463 460.274C596.343 460.199 597.164 459.587 597.373 458.736C597.418 458.572 597.418 458.333 597.253 458.258ZM598.402 456.9C598.417 456.407 597.82 456.825 597.656 456.989C597.567 457.079 597.492 457.198 597.492 457.333C597.492 457.467 597.582 457.616 597.701 457.631C597.746 457.631 597.776 457.631 597.805 457.616C598.134 457.542 598.387 457.228 598.387 456.9H598.402Z" fill="#1C63D7"/>
<path opacity="0.2" d="M605.562 432.819V474.172L568.686 495.491V454.138L605.562 432.819Z" fill="#1C63D7"/>
<path opacity="0.1" d="M587.423 484.652L605.562 458.049V469.141L599.909 477.442L587.423 484.652ZM583.246 445.718L568.686 467.081V460.079L575.369 450.271L583.246 445.718ZM605.562 432.819V436.626L568.686 490.714V473.665L590.675 441.403L605.562 432.804V432.819ZM574.295 492.236L605.562 446.375V449.883L578.234 489.967L574.295 492.251V492.236Z" fill="#D8DBE3"/>
<path d="M544.58 431.67L521.92 405.111V483.876L550.248 500.298V447.032C550.248 441.403 548.249 435.954 544.595 431.685L544.58 431.67Z" fill="#1C63D7"/>
<path opacity="0.2" d="M521.92 413.024L539.194 433.372V493.849L521.92 483.861V413.024Z" fill="black"/>
<path opacity="0.2" d="M521.92 416.89L536.569 434.656V492.356L539.194 493.849V433.372L521.92 413.024V416.89Z" fill="black"/>
<path d="M594.106 427.325C588.258 430.953 581.709 429.565 578.935 426.639C576.175 423.698 564.345 392.959 564.345 392.959V369.849L594.091 427.325H594.106Z" fill="#1C63D7"/>
<path opacity="0.2" d="M594.106 427.325C588.258 430.953 581.709 429.565 578.935 426.639C576.175 423.698 564.345 392.959 564.345 392.959V369.849L594.091 427.325H594.106Z" fill="black"/>
<path d="M594.106 427.325C600.356 423.713 604.056 414.158 602.594 405.41L593.852 352.8L564.345 369.849L578.771 419.174C581.172 427.385 587.855 430.938 594.091 427.325H594.106Z" fill="#1C63D7"/>
<path opacity="0.2" d="M594.106 427.325C600.356 423.713 604.056 414.158 602.594 405.41L593.852 352.8L564.345 369.849L578.771 419.174C581.172 427.385 587.855 430.938 594.091 427.325H594.106Z" fill="#D8DBE3"/>
<path d="M582.172 416.099C583.544 422.145 588.258 424.982 592.704 422.414C597.149 419.846 599.64 412.859 598.253 406.813C596.881 400.767 592.167 397.93 587.721 400.498C583.276 403.066 580.785 410.053 582.172 416.099Z" fill="#263238"/>
<path d="M587.766 412.874C588.184 414.725 589.631 415.576 590.973 414.8C592.331 414.024 593.092 411.889 592.674 410.038C592.256 408.187 590.809 407.336 589.467 408.112C588.109 408.888 587.348 411.023 587.766 412.874Z" fill="#37474F"/>
<path d="M548.936 381.897L522.606 366.609C522.189 367.341 521.92 368.147 521.92 368.879V369.67L549.577 385.241L548.936 381.912V381.897Z" fill="#1C63D7"/>
<path d="M517.758 453.615C520.547 452.003 524.411 452.227 528.678 454.705C537.21 459.632 544.117 471.62 544.117 481.458C544.117 486.384 542.387 489.848 539.597 491.46C536.808 493.072 534.093 494.715 531.288 496.327C528.499 497.939 524.635 497.715 520.368 495.237C511.836 490.311 504.929 478.323 504.929 468.47C504.929 463.543 506.659 460.079 509.449 458.467C512.238 456.855 514.953 455.213 517.758 453.6V453.615Z" fill="#37474F"/>
<path d="M520.368 495.252C524.635 497.715 528.499 497.954 531.288 496.342C534.078 494.73 535.808 491.266 535.808 486.339C535.808 476.486 528.901 464.498 520.368 459.572C516.102 457.109 512.238 456.87 509.449 458.497C506.659 460.109 504.929 463.573 504.929 468.499C504.929 478.352 511.836 490.34 520.368 495.267V495.252Z" fill="#45506B"/>
<path d="M520.548 491.818C523.964 493.849 527.052 494.073 529.259 492.804C531.467 491.52 532.81 488.743 532.765 484.772C532.661 476.815 527.037 467.066 520.204 462.991C516.788 460.96 513.7 460.736 511.493 462.005C509.285 463.289 507.942 466.066 507.987 470.037C508.091 477.994 513.715 487.743 520.548 491.818Z" fill="#1C63D7"/>
<path d="M520.458 484.488C522.144 485.488 523.65 485.593 524.739 484.966C525.828 484.339 526.485 482.98 526.455 481.025C526.41 477.113 523.65 472.321 520.279 470.321C518.593 469.32 517.087 469.216 515.998 469.843C514.909 470.47 514.252 471.828 514.282 473.784C514.327 477.696 517.087 482.488 520.458 484.488Z" fill="#37474F"/>
<path d="M520.279 470.321C519.518 469.873 518.802 469.619 518.146 469.529C517.997 470.067 517.892 470.664 517.892 471.366C517.937 475.277 520.697 480.069 524.068 482.07C524.829 482.518 525.545 482.771 526.201 482.861C526.35 482.324 526.455 481.726 526.455 481.025C526.41 477.113 523.65 472.321 520.279 470.321Z" fill="#263238"/>
<path d="M389.631 181.58C384.992 197.554 384.589 215.051 384.201 231.562C383.992 240.49 384.022 249.417 384.276 258.345C384.5 266.272 385.29 274.244 385.096 282.157C385.051 283.933 384.902 285.71 384.634 287.471C384.171 290.502 383.396 293.547 383.649 296.608C383.873 299.429 384.977 302.087 385.678 304.819C386.931 309.7 386.648 314.075 385.245 318.852C384.604 321.031 384.201 323.465 385.245 325.48C385.842 326.645 386.901 327.6 387.11 328.884C387.304 330.153 386.603 331.422 386.648 332.706C386.692 334.214 387.692 335.483 388.482 336.767C389.407 338.289 389.169 339.439 389.303 341.066C389.437 342.723 389.885 344.41 390.049 346.097C390.392 349.456 390.72 352.815 391.063 356.174C391.391 359.384 391.705 362.594 392.033 365.803C392.033 365.803 408.189 372.133 422.614 366.356C423.061 361.638 423.703 356.95 424.359 352.263C424.717 349.755 425.075 347.247 425.448 344.724C425.672 343.171 425.985 340.2 425.985 340.2C426.582 338.036 429.416 336.961 429.416 334.258C429.416 332.557 428.282 330.959 428.461 329.257C428.64 327.555 430.073 326.272 430.699 324.689C431.37 322.987 431.057 321.061 430.699 319.27C430.087 316.299 428.805 313.164 429.103 310.133C429.312 308.133 429.595 305.923 430.102 303.998C430.714 301.639 431.788 299.623 431.758 297.1C431.743 295.667 431.43 294.264 431.236 292.861C430.699 289.084 431.475 285.695 431.669 281.963C431.788 279.559 432.116 277.155 432.34 274.767C433.28 264.735 446.855 185.387 447.243 181.267L389.676 181.566L389.631 181.58Z" fill="#45506B"/>
<path d="M392.421 339.29C394.628 339.887 396.791 340.618 399.059 341.036C401.282 341.439 403.519 341.678 405.772 341.693C410.56 341.738 415.364 340.857 419.914 339.409C419.988 339.394 420.018 339.558 419.958 339.573C415.647 341.633 410.978 342.544 406.204 342.589C403.833 342.619 401.431 342.425 399.104 341.992C396.747 341.559 394.285 340.991 392.152 339.857C391.884 339.708 392.122 339.2 392.406 339.275L392.421 339.29ZM412.932 333.587C411.664 333.721 410.128 334.005 408.845 333.736C406.846 334.02 404.832 334.124 402.803 334.154C402.729 334.154 402.699 333.99 402.773 333.975C407.055 333.587 411.411 332.691 415.513 331.422C419.809 330.093 423.792 328.153 427.715 325.958C427.939 325.839 427.969 326.286 427.82 326.391C424.12 328.989 419.839 330.825 415.528 332.168C414.946 332.348 414.364 332.512 413.783 332.676C414.872 332.542 415.96 332.377 417.035 332.183C419.973 331.646 422.852 330.825 425.672 329.825C425.866 329.75 425.866 330.183 425.717 330.258C422.987 331.422 420.137 332.288 417.228 332.9C415.796 333.199 414.364 333.437 412.917 333.602L412.932 333.587ZM388.706 327.705C389.169 327.794 389.586 328.078 390.019 328.272C390.541 328.511 391.078 328.72 391.63 328.884C392.615 329.168 393.629 329.332 394.643 329.436C396.791 329.66 398.984 329.66 401.132 329.496C403.236 329.332 405.339 329.004 407.383 328.496C409.576 327.958 411.664 327.242 413.783 326.525C413.917 326.481 413.947 326.749 413.842 326.809C409.77 329.018 404.966 330.063 400.357 330.317C398.179 330.437 395.941 330.437 393.778 330.108C392.868 329.959 391.973 329.75 391.093 329.451C390.243 329.153 389.109 328.735 388.602 327.944C388.557 327.884 388.542 327.69 388.676 327.705H388.706Z" fill="#37474F"/>
<path d="M432.31 274.782L434.801 257.673L440.366 223.381C417.467 223.381 404.101 211.811 400.223 203.198C400.223 217.947 420.018 227.442 420.018 227.442L432.31 274.767V274.782Z" fill="#37474F"/>
<path d="M356.395 414.696C355.977 414.696 355.112 418.144 357.737 421.13C361.288 425.161 368.015 426.504 378.07 425.295C388.751 424.026 393.465 420.592 397.418 417.159C401.371 413.725 406.905 408.888 411.425 407.798C415.632 406.783 421.868 405.41 424.135 402.245C424.971 401.08 424.598 395.9 424.598 395.9L356.41 414.696H356.395Z" fill="#263238"/>
<path d="M426.104 355.637C427.775 344.933 428.849 341.126 425.97 340.23L425.582 343.246C425.582 343.246 421.376 347.694 407.651 347.336C393.927 346.963 389.288 340.902 389.288 340.902L389.169 338.886C389.169 338.886 387.871 338.603 388.527 345.56C389.288 353.576 390.093 368.893 390.332 377.134C390.422 380.284 389.959 383.822 387.781 386.107C384.126 389.973 377.309 394.631 370.82 397.975C366.658 400.125 361.258 402.394 357.752 405.514C355.231 407.768 355.157 414.024 356.962 417.084C359.035 420.622 365.569 423.19 375.549 422.847C382.098 422.623 391.943 418.517 396.583 414.546C401.058 410.709 406.189 407.082 410.635 405.29C414.991 403.529 421.704 402.857 424.598 397.856C426.119 391.018 425.015 386.987 423.867 381.404C422.703 375.82 424.449 366.087 426.089 355.651L426.104 355.637Z" fill="#1C63D7"/>
<path opacity="0.1" d="M357.514 417.831C357.32 417.577 357.126 417.323 356.977 417.069C355.186 414.009 355.246 407.754 357.767 405.499C361.273 402.379 366.658 400.11 370.835 397.96C377.324 394.616 384.126 389.958 387.796 386.092C389.974 383.808 390.437 380.269 390.347 377.119C390.108 368.894 389.303 353.562 388.542 345.545C387.886 338.588 389.184 338.872 389.184 338.872L389.303 340.887C389.303 340.887 393.942 346.948 407.666 347.321C411.978 347.441 415.364 347.082 417.959 346.53C417.915 346.739 417.855 346.948 417.766 347.142C416.975 348.904 415.155 349.949 413.365 350.68C411.202 351.576 408.934 352.188 406.622 352.531C404.862 352.785 402.893 352.964 401.684 354.263C400.819 355.204 400.521 356.532 400.297 357.786C399.253 363.4 398.552 369.058 398.179 374.761C398.089 376.179 398.015 377.627 398.447 378.971C399.014 380.732 400.357 382.121 401.297 383.718C402.236 385.315 402.729 387.48 401.58 388.928C401.162 389.451 400.581 389.824 399.999 390.152C390.243 395.885 378.488 397.736 369.209 404.215C367.866 405.156 366.524 406.246 365.853 407.739C365.166 409.232 365.345 411.232 366.643 412.247C367.747 413.098 369.716 413.65 369.373 415.009C369.119 415.994 367.792 416.114 366.777 415.994C363.913 415.651 361.094 414.919 358.409 413.845C357.335 414.815 357.364 416.293 357.469 417.831H357.514Z" fill="#D8DBE3"/>
<path d="M483.388 235.205C483.671 242.953 484.164 250.671 485.626 258.196C485.685 258.524 485.76 258.853 485.819 259.181C486.535 262.63 487.535 266.004 488.176 269.467C489.4 276.23 489.191 283.172 488.803 290.039C488.654 292.607 488.49 295.204 488.907 297.742C489.4 300.654 490.653 303.4 491.264 306.297C492.1 310.283 491.652 314.358 491.414 318.389C491.294 320.404 490.936 322.718 491.309 324.719C491.682 326.764 492.98 327.824 493.95 329.66C494.815 331.318 495.143 333.243 494.874 335.095C494.516 337.558 493.129 340.066 493.979 342.395C494.382 343.485 495.217 344.35 495.65 345.425C496.321 347.082 495.904 349.023 495.009 350.576C493.785 352.651 491.354 353.666 491.339 356.129C491.324 358.712 491.339 361.295 491.324 363.878C491.294 368.789 491.249 373.701 491.19 378.612C491.115 384.45 491.011 390.272 490.876 396.109C490.876 396.154 490.906 396.363 490.876 396.408C490.876 396.408 486.67 401.17 475.347 402.29C465.263 403.29 461.892 398.378 461.892 398.378C461.355 397.587 461.28 395.84 461.071 394.93C460.325 391.795 459.579 388.66 458.819 385.524C457.745 381.046 456.685 376.552 455.611 372.073C454.985 369.461 454.373 366.863 453.747 364.251C453.284 362.31 452.941 360.1 451.494 358.623C450.704 357.816 449.779 357.055 449.48 355.965C449.107 354.607 449.808 353.069 449.182 351.815C448.869 351.188 448.287 350.755 447.824 350.218C446.019 348.083 446.661 344.888 446.944 342.096C447.287 338.588 446.84 334.99 445.661 331.676C444.901 329.556 443.856 327.555 443.14 325.436C442.275 322.883 441.887 320.21 441.499 317.538L440.783 312.582C438.292 295.264 435.279 278.096 432.206 260.868C429.312 244.67 426.463 228.457 423.643 212.259C421.883 202.212 420.123 192.165 418.422 182.103C418.422 182.103 477.704 180.177 477.734 180.177C478.405 180.162 480.703 195.912 480.956 197.599C481.732 202.899 482.239 208.214 482.597 213.558C483.075 220.709 483.134 227.98 483.403 235.22L483.388 235.205Z" fill="#45506B"/>
<path d="M469.142 358.608C468.053 358.637 466.859 358.667 465.815 358.384C465.576 358.324 465.726 357.861 465.934 357.846C467.143 357.772 468.381 357.876 469.604 357.846C470.768 357.801 471.931 357.682 473.08 357.488C475.168 357.145 477.227 356.562 479.196 355.771C481.404 354.89 483.507 353.741 485.432 352.337C486.267 351.725 487.073 351.068 487.848 350.382C488.624 349.68 489.355 348.665 490.265 348.127C490.31 348.098 490.339 348.187 490.325 348.217C489.802 349.292 488.773 350.173 487.908 350.979C487.028 351.785 486.073 352.546 485.103 353.248C483.328 354.502 481.404 355.562 479.39 356.398C477.212 357.309 474.915 357.951 472.573 358.309C471.439 358.473 470.29 358.578 469.142 358.623V358.608ZM483.567 337.483C481.807 338.692 479.897 339.827 477.943 340.797C477.108 341.35 476.257 341.887 475.377 342.365C474.079 343.067 472.737 343.694 471.364 344.231C470.037 344.754 468.59 345.321 467.173 345.515C466.859 345.56 466.979 345.007 467.173 344.918C468.5 344.336 469.887 343.932 471.23 343.365C472.095 343.007 472.946 342.589 473.796 342.156C474.9 341.484 476.034 340.872 477.167 340.275C478.674 339.319 480.106 338.259 481.419 337.05C485.223 333.572 488.042 329.153 489.415 324.181C489.489 323.898 489.802 324.047 489.743 324.301C488.728 329.227 486.028 333.706 482.433 337.2C482.314 337.319 482.18 337.423 482.06 337.543C482.418 337.319 482.791 337.11 483.149 336.871C484.492 335.96 485.76 334.96 486.938 333.841C488.281 332.572 489.31 331.094 490.489 329.69C490.727 329.407 490.891 329.78 490.802 330.019C490.16 331.571 488.803 332.975 487.624 334.139C486.386 335.378 485.014 336.468 483.567 337.453V337.483ZM449.197 351.352C454.493 352.95 460.012 353.144 465.502 353.009C467.232 352.964 468.948 352.875 470.678 352.741C471.141 352.711 471.618 352.666 472.08 352.741C472.125 352.83 472.021 352.905 471.916 352.95C469.917 353.726 467.844 353.845 465.726 353.905C462.951 353.995 460.161 353.965 457.402 353.741C454.552 353.502 451.703 353.009 449.092 351.8C448.913 351.71 449.018 351.307 449.212 351.367L449.197 351.352ZM467.695 363.713C469.261 363.713 470.842 363.594 472.394 363.355C473.93 363.116 475.422 362.683 476.943 362.385C477.048 362.37 477.063 362.594 476.988 362.623C474.005 363.967 470.365 364.266 467.128 364.206C463.95 364.146 460.833 363.609 457.894 362.37C457.864 362.37 457.849 362.25 457.894 362.265C461.086 363.116 464.383 363.698 467.695 363.698V363.713Z" fill="#37474F"/>
<path d="M462.205 439.851C462.787 446.927 463.891 451.764 467.68 456.84C470.663 460.841 477.003 462.423 482.329 461.065C487.669 459.706 493.517 456.049 495.904 450.122C498.067 444.762 498.813 439.597 497.485 433.058L462.205 439.851Z" fill="#263238"/>
<path d="M459.117 389.734C460.788 395.691 461.086 399.543 462.145 407.231C463.175 414.666 462.086 421.205 461.847 431.073C461.623 440.627 462.861 447.703 468.038 454.347C474.393 462.498 488.4 457.661 493.144 450.868C496.65 445.837 499.245 439.716 497.709 430.177C496.351 421.832 495.531 418.577 494.203 410.635C492.622 401.17 492.219 398.707 492.443 387.883C492.652 377.06 492.89 364.803 492.995 360.026C493.055 357.159 493.159 355.801 491.309 355.801V357.055C491.309 357.055 488.475 365.341 474.885 366.953C458.043 368.953 453.523 363.31 453.523 363.31C453.299 362.176 453.016 361.116 452.628 360.31C452.628 360.31 451.136 360.772 452.524 366.177C454.269 372.939 457.431 383.763 459.102 389.719L459.117 389.734Z" fill="#1C63D7"/>
<path opacity="0.1" d="M459.117 389.734C457.446 383.778 454.284 372.939 452.538 366.191C451.151 360.802 452.643 360.324 452.643 360.324C453.031 361.116 453.314 362.176 453.538 363.325C453.538 363.325 458.058 368.968 474.9 366.968C477.943 366.609 480.404 365.908 482.463 365.042C483.045 365.057 483.627 365.191 483.94 365.654C484.223 366.087 484.178 366.654 484.029 367.162C482.821 371.088 477.391 371.581 474.437 374.432C471.32 377.448 471.528 382.434 471.961 386.749C472.632 393.377 473.304 399.991 473.975 406.619C474.273 409.56 474.601 412.62 476.138 415.158C477.585 417.562 480.031 419.398 480.837 422.085C481.822 425.415 479.972 428.833 478.928 432.147C478.197 434.476 477.003 438.433 478.376 440.732C479.957 443.374 484.701 443.374 487.401 442.852C488.654 442.613 490.205 442.269 491.026 443.255C491.354 443.658 491.473 444.195 491.443 444.703C491.384 446.091 490.474 447.285 489.534 448.315C486.58 451.555 483.179 453.526 478.868 454.421C475.124 455.198 471.141 454.899 467.516 453.63C462.802 447.196 461.653 440.299 461.862 431.088C462.101 421.219 463.19 414.681 462.16 407.246C461.101 399.558 460.803 395.706 459.132 389.749L459.117 389.734Z" fill="#D8DBE3"/>
<path d="M391.093 83.4079C377.145 88.0955 374.997 94.1268 370.731 104.711C367.643 112.34 355.246 149.737 355.977 163.293C359.2 159.919 366.017 157.291 374.893 158.844C383.769 160.396 386.857 164.173 386.857 164.173L397.224 130.598L391.078 83.4228L391.093 83.4079Z" fill="#E0E0E0"/>
<path opacity="0.1" d="M362.273 147.543C366.226 145.661 370.999 145.497 375.236 146.333C379.935 147.274 384.559 149.588 388.14 152.783C388.169 152.812 388.14 152.932 388.095 152.902C386.021 151.558 383.993 150.245 381.74 149.229C379.443 148.199 377.041 147.393 374.565 146.96C372.476 146.587 370.328 146.483 368.21 146.632C366.166 146.781 364.242 147.274 362.288 147.856C362.094 147.916 362.168 147.587 362.288 147.528L362.273 147.543ZM371.328 150.409C374.46 150.722 377.638 151.767 380.218 153.589C380.248 153.604 380.248 153.693 380.203 153.678C377.25 152.335 374.236 151.379 370.999 151.066C369.418 150.916 367.822 150.931 366.241 151.111C364.704 151.275 363.242 151.678 361.721 151.947C361.586 151.976 361.646 151.723 361.721 151.678C364.6 150.26 368.195 150.095 371.342 150.409H371.328Z" fill="black"/>
<path d="M473.96 194.957C473.707 182.551 473.781 173.19 473.647 165.353C473.334 146.781 474.079 126.597 474.437 120.999C475.974 96.6797 457.819 77.7647 457.819 77.7647C453.553 77.1825 446.93 76.2719 432.982 75.6448L408.159 78.5261C408.159 78.5261 392.003 82.6017 391.063 83.3929C383.963 91.6188 380.681 112.743 382.441 129.717C384.544 149.812 392.943 185.044 394.241 192.434L473.93 194.957H473.96Z" fill="#EBEBEB"/>
<path d="M444.23 123.074C444.095 121.342 443.961 119.491 443.871 117.476C442.827 95.8437 449.003 81.2581 454.284 77.2273L446.273 76.4361C440.992 80.4818 435.025 95.2764 435.324 117.162C435.354 119.864 435.503 122.342 435.712 124.597L444.215 123.089L444.23 123.074Z" fill="#37474F"/>
<path d="M392.406 122.477C392.331 121.551 392.152 118.088 392.093 117.132C391.123 102.562 399.865 83.2287 403.326 79.7951C403.326 79.7951 397.717 80.9446 394.315 82.2733C390.795 87.1102 384.589 102.114 384.142 117.132C384.112 117.909 384.38 123.044 384.38 123.776L392.421 122.477H392.406Z" fill="#37474F"/>
<path d="M477.749 176.131C470.201 176.236 463.428 171.832 460.117 167.935C454.478 161.277 445.05 123.477 443.812 109.354C431.908 108.683 393.033 107.802 382.277 110.579C381.322 117.685 381.77 132.002 383.709 145.856C384.947 154.664 390.81 179.162 388.587 197.644C419.705 203.765 449.66 211.408 478.943 194.972C478.943 187.522 478.077 180.7 477.749 176.146V176.131Z" fill="#45506B"/>
<path d="M388.095 117.282C410.695 115.61 435.726 117.192 435.726 117.192L436.83 130.792C436.83 130.792 414.633 141.153 411.411 141.183C408.189 141.213 388.587 129.314 388.587 129.314C388.587 129.314 387.99 121.521 388.095 117.282Z" fill="#37474F"/>
<path d="M434.772 12.3164C434.772 12.3164 439.59 12.0775 443.469 17.5863C445.423 20.3481 447.228 25.618 444.886 41.6218C443.379 51.9228 440.59 56.6702 439.456 59.6261C438.322 62.582 435.368 63.7315 435.368 63.7315L434.175 51.8033L433.578 43.473C433.578 43.473 426 38.2628 424.658 32.3808C422.927 24.8119 425.433 20.0943 425.433 20.0943L434.757 12.3014L434.772 12.3164Z" fill="#37474F"/>
<path d="M436.472 12.5104C434.443 5.97157 424.792 -0.910658 407.995 0.283656C394.241 1.26896 384.708 9.97253 380.934 18.3775C377.16 26.7825 384.738 32.6346 384.738 32.6346L426.298 25.3045L436.472 12.5104Z" fill="#37474F"/>
<path d="M445.721 53.9084C439.814 57.6854 436.323 53.1768 436.323 53.1768L439.545 78.2425C429.491 95.56 395.524 93.8731 407.234 80.3773L406.518 74.3311C406.518 74.3311 404.414 74.5998 401.013 74.4953C395.345 74.3311 390.407 72.0768 388.005 66.374C386.782 63.4629 385.499 58.4915 384.843 54.9982C383.679 48.8474 383.769 42.5325 384.798 38.0389C385.529 34.859 383.724 31.0372 384.097 27.1707C384.38 24.2147 385.245 20.9304 387.781 19.2882C394.047 15.2275 400.819 19.109 410.575 21.5126C414.618 22.4979 424.046 21.9903 426.358 20.5422C423.554 24.4536 424.986 35.5458 430.341 39.4572C431.37 40.9202 432.37 41.7114 433.131 42.219C435.383 43.697 436.487 39.0242 437.979 37.0536C439.486 35.0979 445.706 32.7391 449.197 38.1583C452.732 43.682 451.226 50.4448 445.751 53.9531L445.721 53.9084Z" fill="#FFBDA7"/>
<path d="M406.518 74.3162C413.813 73.3607 420.182 71.6738 424.27 69.3598C428.357 67.0458 431.445 60.8652 431.982 55.0429C432.564 59.5963 431.549 67.9415 425.433 72.1067C419.332 76.2719 411.739 77.4065 406.98 78.0932L406.518 74.3162Z" fill="#F0997A"/>
<path d="M426.955 35.2024C429.073 38.3225 428.461 49.0415 425.433 50.7583C422.405 52.4752 418.497 50.833 411.247 49.7282C406.607 49.0266 401.878 48.5787 396.135 50.9076C392.973 52.1915 386.081 55.6252 384.679 54.1323C385.081 59.8948 388.497 73.3159 397.672 75.0178C404.191 76.2271 417.572 74.8984 424.926 69.9121C432.265 64.9259 433.131 60.1486 433.787 53.7143C434.443 47.2799 436.159 40.2782 436.159 40.2782L426.955 35.2173V35.2024Z" fill="#37474F"/>
<path d="M397.567 58.3571C397.597 58.0586 397.627 57.76 397.687 57.4763C397.866 56.4164 398.179 55.3564 398.835 54.4906C399.536 53.565 400.595 52.9379 401.699 52.5498C404.787 51.46 408.159 51.1763 410.918 53.1768C412.753 54.5055 413.947 56.6254 414.141 58.8498C414.26 60.2531 413.275 60.8503 412.022 61.3877C410.56 61.9998 408.86 62.1192 407.637 61.119C406.801 60.4323 405.608 60.4771 404.757 61.1787C404.295 61.5519 403.982 62.0744 403.489 62.388C402.878 62.7612 402.117 62.7612 401.401 62.7462C400.745 62.7462 400.088 62.7164 399.477 62.4626C398.582 62.0894 397.97 61.2235 397.716 60.2979C397.537 59.656 397.522 58.9991 397.582 58.3273L397.567 58.3571Z" fill="#FFBDA7"/>
<path d="M409.292 52.8932L402.251 55.0728C402.833 57.0434 404.892 58.1631 406.831 57.5659C408.77 56.9688 409.874 54.8638 409.292 52.8932Z" fill="#B16668"/>
<path d="M408.532 54.1323C408.83 54.0725 409.128 54.0576 409.427 54.0576C409.397 55.6401 408.383 57.0882 406.831 57.5659C406.443 57.6853 406.04 57.7152 405.653 57.7152C405.384 56.1029 406.637 54.5055 408.532 54.1323Z" fill="#F28F8F"/>
<path d="M409.188 29.5891L415.677 31.3657C416.14 29.5443 415.065 27.6782 413.275 27.1856C411.485 26.6929 409.65 27.7678 409.188 29.5891Z" fill="#37474F"/>
<path d="M386.573 33.5602L392.54 30.3356C391.69 28.6785 389.676 28.0514 388.02 28.9472C386.379 29.8429 385.723 31.9031 386.573 33.5602Z" fill="#37474F"/>
<path d="M414.111 36.0533C414.245 37.5313 413.126 38.8451 411.619 38.9794C410.113 39.1138 408.77 38.024 408.636 36.546C408.502 35.068 409.62 33.7543 411.127 33.6199C412.634 33.4856 413.976 34.5754 414.111 36.0533Z" fill="#263238"/>
<path d="M394.3 37.4567C394.434 38.9346 393.316 40.2484 391.809 40.3827C390.302 40.5171 388.96 39.4273 388.825 37.9493C388.691 36.4714 389.81 35.1576 391.317 35.0233C392.823 34.8889 394.166 35.9787 394.3 37.4567Z" fill="#263238"/>
<path d="M403.325 30.9327L403.236 48.2204L393.644 46.0408C396.15 39.6363 399.387 34.5903 403.34 30.9178L403.325 30.9327Z" fill="#F0997A"/>
<path d="M359.17 177.087C357.245 172.534 355.977 167.473 355.977 163.278C357.275 158.411 365.524 156.769 371.491 157.231C383.903 158.187 386.857 164.158 386.857 164.158C386.857 164.158 387.468 168.219 390.243 176.116C392.883 183.611 403.281 211.782 403.281 211.782L383.963 226.427C381.337 220.157 361.109 181.625 359.185 177.087H359.17Z" fill="#FFBDA7"/>
<path d="M381.949 228.442C381.74 233.623 381.278 239.206 383.455 243.998C384.231 245.7 384.828 243.431 385.425 242.804C386.096 242.087 387.036 241.595 387.901 242.326C389.393 243.61 390.362 245.924 391.332 247.596C393.525 251.343 395.643 255.21 398.612 258.405C399.447 257.748 399.865 256.703 400.253 255.717C402.699 249.447 405.056 243.132 407.324 236.788C407.741 235.608 408.174 234.414 408.308 233.175C408.517 231.249 408.025 229.308 407.428 227.457C406.354 224.143 404.922 220.963 403.49 217.783C402.102 214.708 400.7 211.603 398.85 208.781C397.94 207.407 396.896 206.079 395.479 205.228C394.062 204.377 392.212 204.123 390.78 204.914C389.661 205.526 388.945 206.661 388.274 207.751C386.618 210.438 384.947 213.155 383.873 216.126C382.456 220.037 382.128 224.247 381.964 228.412L381.949 228.442Z" fill="#1C63D7"/>
<path opacity="0.15" d="M381.949 228.442C381.74 233.623 381.278 239.206 383.455 243.998C384.231 245.7 384.828 243.431 385.425 242.804C386.096 242.087 387.036 241.595 387.901 242.326C389.393 243.61 390.362 245.924 391.332 247.596C393.525 251.343 395.643 255.21 398.612 258.405C399.447 257.748 399.865 256.703 400.253 255.717C402.699 249.447 405.056 243.132 407.324 236.788C407.741 235.608 408.174 234.414 408.308 233.175C408.517 231.249 408.025 229.308 407.428 227.457C406.354 224.143 404.922 220.963 403.49 217.783C402.102 214.708 400.7 211.603 398.85 208.781C397.94 207.407 396.896 206.079 395.479 205.228C394.062 204.377 392.212 204.123 390.78 204.914C389.661 205.526 388.945 206.661 388.274 207.751C386.618 210.438 384.947 213.155 383.873 216.126C382.456 220.037 382.128 224.247 381.964 228.412L381.949 228.442Z" fill="black"/>
<path d="M333.228 453.585L304.631 474.74L219.094 425.295L247.691 404.141L333.228 453.585Z" fill="#45506B"/>
<path d="M301.812 437.477L288.117 445.389L260.744 429.565L274.438 421.652L301.812 437.477Z" fill="#1C63D7"/>
<path opacity="0.5" d="M301.812 437.477L288.117 445.389L260.744 429.565L274.438 421.652L301.812 437.477Z" fill="#D8DBE3"/>
<path d="M301.812 437.477L288.117 445.389L284.567 452.272L301.812 442.299V437.477Z" fill="#1C63D7"/>
<path d="M260.744 429.565L257.178 436.447L284.567 452.272L288.117 445.389L260.744 429.565Z" fill="#1C63D7"/>
<path opacity="0.3" d="M260.744 429.565L257.178 436.447L284.567 452.272L288.117 445.389L260.744 429.565Z" fill="#D8DBE3"/>
<path d="M333.228 453.585L304.631 474.74V478.905L333.228 462.393V453.585Z" fill="#263238"/>
<path d="M219.094 425.295V429.475L304.631 478.905V474.74L219.094 425.295Z" fill="#37474F"/>
<path d="M592.331 413.561C606.831 399.005 621.45 382.852 630.266 363.504C639.813 342.544 641.409 318.986 634.503 300.504C625.895 277.454 611.53 267.332 586.334 255.688C563.092 244.954 549.622 238.146 543.327 223.068C538.926 212.498 539.373 196.002 544.624 175.325C548.279 160.964 550.681 145.945 543.58 133.375C534.585 117.431 512.328 109.683 493.95 116.087C476.481 122.178 462.026 134.972 449.779 155.216L454.881 158.306C466.382 139.317 479.793 127.344 495.904 121.73C511.672 116.237 530.721 122.775 538.374 136.316C544.431 147.05 542.178 160.71 538.836 173.862C533.183 196.106 532.84 213.439 537.822 225.382C544.953 242.476 559.945 250.104 583.828 261.122C608.054 272.304 620.987 281.365 628.909 302.594C635.174 319.374 633.608 341.768 624.836 361.026C617.004 378.209 604.802 392.496 588.9 408.545L591.54 414.367L592.331 413.561Z" fill="#37474F"/>
<path d="M278.376 435.283C280.584 436.566 284.179 436.566 286.402 435.283C287.088 434.894 287.565 434.402 287.819 433.924C287.819 433.909 287.834 433.879 287.864 433.864C300.409 412.755 461.191 152.618 461.34 152.394C461.743 151.752 461.728 150.842 461.206 149.812C460.132 147.752 457.402 145.975 455.06 145.87C453.911 145.811 453.076 146.184 452.673 146.826C452.539 147.02 295.144 401.573 277.138 431.744C277.078 431.849 277.019 431.953 276.959 432.058C276.377 433.163 276.855 434.432 278.376 435.297V435.283Z" fill="#263238"/>
<path d="M458.192 79.1681C463.816 81.1237 470.827 84.214 477.197 91.6636C484.671 100.382 509.344 134.734 512.88 139.914C516.415 145.094 518.966 153.335 514.342 159.321C509.717 165.293 476.705 179.162 469.112 184.835L458.028 168.025L478.256 147.766L456.178 124.089C456.178 124.089 446.348 98.3219 458.192 79.183V79.1681Z" fill="#FFBDA7"/>
<path d="M435.905 185.432C436.681 185.134 438.068 185.104 437.725 186.791C436.621 192.001 435.458 194.554 432.534 199.003L427.253 207.557C427.253 207.557 427.895 207.885 428.342 207.945C429.953 208.184 431.177 208.214 433.668 207.004C433.907 206.885 434.145 206.78 434.399 206.751C434.742 206.721 435.07 206.84 435.398 206.945C438.128 207.781 441.335 206.706 442.991 204.377C444.05 205.079 445.438 205.288 446.661 204.914C447.884 204.541 448.928 203.616 449.421 202.436C450.689 203.407 452.568 203.242 453.941 202.436C455.328 201.63 456.313 200.301 457.208 198.973C458.58 196.927 459.594 194.643 461.146 192.732C462.712 190.792 464.652 189.134 466.785 187.851C468.933 186.567 484.194 179.072 489.37 175.907C493.368 165.099 480.345 149.916 472.125 151.857C468.023 156.186 464.085 160.74 459.669 164.741C455.612 168.413 449.958 169.816 444.781 171.235C441.455 172.145 437.994 172.966 435.249 175.057C434.071 175.952 433.056 177.072 432.057 178.177C429.655 180.819 427.268 183.462 424.866 186.104C424.389 186.626 423.867 187.313 424.091 187.985C424.21 188.343 424.792 189.12 425.12 189.314C426.701 190.254 428.104 189.836 430.252 188.731C430.878 188.418 434.682 185.85 435.891 185.387L435.905 185.432Z" fill="#1C63D7"/>
<path opacity="0.2" d="M435.905 185.432C436.681 185.134 438.068 185.104 437.725 186.791C436.621 192.001 435.458 194.554 432.534 199.003L427.253 207.557C427.253 207.557 427.895 207.885 428.342 207.945C429.953 208.184 431.177 208.214 433.668 207.004C433.907 206.885 434.145 206.78 434.399 206.751C434.742 206.721 435.07 206.84 435.398 206.945C438.128 207.781 441.335 206.706 442.991 204.377C444.05 205.079 445.438 205.288 446.661 204.914C447.884 204.541 448.928 203.616 449.421 202.436C450.689 203.407 452.568 203.242 453.941 202.436C455.328 201.63 456.313 200.301 457.208 198.973C458.58 196.927 459.594 194.643 461.146 192.732C462.712 190.792 464.652 189.134 466.785 187.851C468.933 186.567 484.194 179.072 489.37 175.907C493.368 165.099 480.345 149.916 472.125 151.857C468.023 156.186 464.085 160.74 459.669 164.741C455.612 168.413 449.958 169.816 444.781 171.235C441.455 172.145 437.994 172.966 435.249 175.057C434.071 175.952 433.056 177.072 432.057 178.177C429.655 180.819 427.268 183.462 424.866 186.104C424.389 186.626 423.867 187.313 424.091 187.985C424.21 188.343 424.792 189.12 425.12 189.314C426.701 190.254 428.104 189.836 430.252 188.731C430.878 188.418 434.682 185.85 435.891 185.387L435.905 185.432Z" fill="#D8DBE3"/>
<path opacity="0.2" d="M483.627 164.457C484.238 164.084 484.104 163.188 483.865 162.516C481.777 156.948 476.78 153.813 471.29 152.797C467.501 156.843 463.801 161.053 459.684 164.77C455.627 168.443 449.973 169.846 444.796 171.265C441.47 172.175 438.009 172.996 435.264 175.086C434.086 175.982 433.071 177.102 432.072 178.207C429.67 180.849 427.283 183.491 424.881 186.134C424.568 186.477 424.255 186.895 424.121 187.343C424.419 187.448 424.777 187.522 425.21 187.522C426.105 187.522 426.925 187.089 427.686 186.626C433.623 182.999 437.666 177.415 444.617 175.564C446.422 175.086 448.317 174.653 450.167 174.937C453.15 175.4 455.507 177.639 458.162 179.087C458.923 179.505 459.789 179.864 460.624 179.655C461.549 179.416 462.175 178.49 462.295 177.55C462.414 176.609 462.131 175.654 461.713 174.788C461.355 174.041 460.922 173.34 460.698 172.548C460.475 171.757 460.519 170.832 461.057 170.22C461.34 169.906 461.713 169.697 462.116 169.548C463.861 168.921 465.949 169.398 467.501 168.368C469.172 167.249 469.44 164.83 470.887 163.427C472.364 161.994 474.721 161.949 476.69 162.486C478.674 163.024 480.494 164.054 482.508 164.502C482.881 164.591 483.299 164.636 483.612 164.442L483.627 164.457Z" fill="#D8DBE3"/>
<path d="M457.834 77.7647C468.784 80.4669 470.991 82.7659 478.197 90.9022C487.177 101.039 501.334 122.148 504.69 126.463C510.926 131.001 512.88 139.914 512.88 139.914C512.88 139.914 490.623 133.674 478.256 147.752C478.256 147.752 458.968 128.419 455.716 124.851C452.464 121.283 444.528 92.619 457.834 77.7647Z" fill="#E0E0E0"/>
<path opacity="0.1" d="M477.555 137.809C480.285 134.286 484.537 131.912 488.773 130.733C493.487 129.419 498.753 129.374 503.482 130.643C503.527 130.643 503.557 130.777 503.497 130.777C501.006 130.509 498.544 130.255 496.023 130.374C493.457 130.494 490.906 130.882 488.46 131.628C486.386 132.255 484.402 133.151 482.538 134.271C480.748 135.346 479.226 136.689 477.719 138.107C477.57 138.242 477.481 137.928 477.57 137.824L477.555 137.809ZM487.117 136.226C490.101 135.062 493.472 134.554 496.665 135.017C496.694 135.017 496.739 135.107 496.694 135.107C493.383 135.241 490.22 135.764 487.117 136.973C485.611 137.57 484.164 138.316 482.806 139.212C481.493 140.078 480.345 141.123 479.092 142.064C478.987 142.138 478.913 141.899 478.972 141.825C480.927 139.197 484.119 137.391 487.132 136.226H487.117Z" fill="black"/>
<path d="M384.813 254.986C385.007 255.18 385.216 255.299 385.469 255.299C385.738 255.299 385.977 255.21 386.215 255.076C388.9 253.672 389.035 250.851 388.677 248.208C388.319 245.611 387.543 243.013 387.811 240.356C388.154 236.937 391.093 233.757 393.212 232.01C396.762 229.084 402.073 228.786 402.073 228.786L406.279 221.889L397.985 190.299C387.573 188.284 376.34 192.897 370.895 202.466C370.895 202.466 376.519 216.738 378.085 221.038C378.712 222.739 379.234 224.143 379.592 226.397C379.92 228.442 379.592 230.114 379.204 232.175C378.98 233.354 378.652 234.996 378.592 236.19C378.518 237.444 378.682 238.982 378.935 240.221C379.189 241.416 379.159 242.879 379.652 243.998C380.427 245.79 381.203 247.566 382.008 249.328C382.516 250.418 383.023 251.508 383.56 252.597C383.828 253.15 384.216 254.389 384.813 254.971V254.986Z" fill="#1C63D7"/>
<path opacity="0.2" d="M384.813 254.986C385.007 255.18 385.216 255.299 385.469 255.299C385.738 255.299 385.977 255.21 386.215 255.076C388.9 253.672 389.035 250.851 388.677 248.208C388.319 245.611 387.543 243.013 387.811 240.356C388.154 236.937 391.093 233.757 393.212 232.01C396.762 229.084 402.073 228.786 402.073 228.786L406.279 221.889L397.985 190.299C387.573 188.284 376.34 192.897 370.895 202.466C370.895 202.466 376.519 216.738 378.085 221.038C378.712 222.739 379.234 224.143 379.592 226.397C379.92 228.442 379.592 230.114 379.204 232.175C378.98 233.354 378.652 234.996 378.592 236.19C378.518 237.444 378.682 238.982 378.935 240.221C379.189 241.416 379.159 242.879 379.652 243.998C380.427 245.79 381.203 247.566 382.008 249.328C382.516 250.418 383.023 251.508 383.56 252.597C383.828 253.15 384.216 254.389 384.813 254.971V254.986Z" fill="#D8DBE3"/>
<path opacity="0.2" d="M382.008 249.358C381.188 247.596 380.427 245.805 379.651 244.028C379.174 242.908 379.189 241.445 378.935 240.251C378.682 239.027 378.518 237.474 378.592 236.22C378.652 235.026 378.995 233.384 379.204 232.204C379.592 230.144 379.92 228.472 379.592 226.427C379.234 224.173 378.712 222.769 378.085 221.067C376.608 217.007 371.551 204.153 370.955 202.645C371.357 201.869 371.775 201.107 372.267 200.376C375.087 196.435 378.965 193.524 383.306 191.777C384.171 191.508 385.126 191.404 385.827 191.911C387.021 192.777 386.663 194.658 385.902 195.927C384.395 198.435 381.889 200.227 380.353 202.72C379.144 204.675 378.577 207.034 378.771 209.318C379.01 212.155 380.338 214.753 381.427 217.38C382.008 218.768 381.874 220.814 383.291 221.694C384.619 222.516 386.469 221.844 387.796 222.65C387.946 222.74 388.095 222.859 388.169 223.038C388.244 223.232 388.184 223.456 388.11 223.665C387.423 225.651 385.857 227.084 384.559 228.666C383.157 230.383 382.665 232.085 382.232 234.235C380.815 241.222 383.798 248.238 385.156 255.225C385.022 255.165 384.902 255.09 384.798 254.986C384.201 254.404 383.813 253.165 383.545 252.612C383.008 251.537 382.501 250.448 381.993 249.343L382.008 249.358Z" fill="#D8DBE3"/>
<path d="M413.245 237.236C412.843 236.414 412.291 235.623 411.873 234.996C411.485 234.429 411.097 233.847 410.71 233.279C410.187 232.518 409.665 231.742 408.934 231.145C408.188 230.532 407.01 229.995 406.04 230.413C405.041 230.846 404.325 231.757 404.205 232.802C404.116 233.608 404.325 234.429 404.638 235.19C404.086 234.713 403.534 234.235 402.967 233.757C401.714 232.667 399.268 232.19 398.074 233.697C397.194 234.817 397.493 236.489 397.88 237.728C398.194 238.743 398.656 239.699 399.119 240.654C397.254 239.251 393.823 237.385 392.57 240.445C392.182 241.386 392.242 242.446 392.525 243.401C393.196 245.715 394.703 247.94 396.195 249.865C395.434 249.612 394.733 249.209 393.942 249.074C392.376 248.805 391.078 249.97 391.108 251.433C391.108 252.269 391.436 253.135 391.884 253.911C392.137 254.344 392.45 254.762 392.779 255.105C394.599 257.061 396.851 258.644 399.357 259.719C399.82 259.913 400.312 260.107 400.819 260.107C401.983 260.107 402.967 259.151 403.281 258.091C403.624 256.987 403.37 255.986 403.131 254.896C403.116 254.807 403.102 254.717 403.131 254.643C403.206 254.493 403.415 254.464 403.594 254.449C405.638 254.284 406.861 252.075 406.413 250.313C406.16 249.313 405.563 248.432 405.115 247.492C405.026 247.298 404.936 247.089 405.041 246.895C405.115 246.73 405.324 246.641 405.503 246.641C405.697 246.641 405.876 246.686 406.055 246.73C406.786 246.924 407.547 247.014 408.308 246.924C409.889 246.73 410.963 245.655 411.127 244.163C411.217 243.341 411.023 242.52 410.724 241.744C411.873 242.028 413.066 241.177 413.514 240.206C413.932 239.281 413.678 238.236 413.201 237.265L413.245 237.236Z" fill="#1C63D7"/>
<path opacity="0.2" d="M413.245 237.236C412.843 236.414 412.291 235.623 411.873 234.996C411.485 234.429 411.097 233.847 410.71 233.279C410.187 232.518 409.665 231.742 408.934 231.145C408.188 230.532 407.01 229.995 406.04 230.413C405.041 230.846 404.325 231.757 404.205 232.802C404.116 233.608 404.325 234.429 404.638 235.19C404.086 234.713 403.534 234.235 402.967 233.757C401.714 232.667 399.268 232.19 398.074 233.697C397.194 234.817 397.493 236.489 397.88 237.728C398.194 238.743 398.656 239.699 399.119 240.654C397.254 239.251 393.823 237.385 392.57 240.445C392.182 241.386 392.242 242.446 392.525 243.401C393.196 245.715 394.703 247.94 396.195 249.865C395.434 249.612 394.733 249.209 393.942 249.074C392.376 248.805 391.078 249.97 391.108 251.433C391.108 252.269 391.436 253.135 391.884 253.911C392.137 254.344 392.45 254.762 392.779 255.105C394.599 257.061 396.851 258.644 399.357 259.719C399.82 259.913 400.312 260.107 400.819 260.107C401.983 260.107 402.967 259.151 403.281 258.091C403.624 256.987 403.37 255.986 403.131 254.896C403.116 254.807 403.102 254.717 403.131 254.643C403.206 254.493 403.415 254.464 403.594 254.449C405.638 254.284 406.861 252.075 406.413 250.313C406.16 249.313 405.563 248.432 405.115 247.492C405.026 247.298 404.936 247.089 405.041 246.895C405.115 246.73 405.324 246.641 405.503 246.641C405.697 246.641 405.876 246.686 406.055 246.73C406.786 246.924 407.547 247.014 408.308 246.924C409.889 246.73 410.963 245.655 411.127 244.163C411.217 243.341 411.023 242.52 410.724 241.744C411.873 242.028 413.066 241.177 413.514 240.206C413.932 239.281 413.678 238.236 413.201 237.265L413.245 237.236Z" fill="#D8DBE3"/>
<path d="M400.238 256.792C400.64 255.568 400.282 254.075 401.207 253.135C401.789 252.538 402.774 252.344 403.251 251.672C403.818 250.895 403.49 249.85 403.281 248.925C403.057 247.895 402.997 246.805 403.37 245.82C403.743 244.834 404.608 243.968 405.697 243.759C406.637 243.58 407.831 243.834 408.412 243.118C408.935 242.476 408.547 241.55 408.248 240.789C407.95 240.027 407.92 238.922 408.726 238.654C409.039 238.549 409.412 238.609 409.725 238.46C410.292 238.191 410.292 237.43 410.143 236.847C409.74 235.265 408.233 231.577 405.876 232.04C405.026 232.204 404.504 233.011 404.28 233.802C404.265 233.802 404.25 233.772 404.235 233.757C404.191 233.429 404.161 233.1 404.206 232.787C404.325 231.742 405.026 230.831 406.04 230.398C407.01 229.98 408.189 230.532 408.935 231.13C409.665 231.727 410.188 232.503 410.71 233.264C411.098 233.832 411.485 234.414 411.873 234.981C412.306 235.608 412.858 236.399 413.246 237.221C413.723 238.191 413.977 239.236 413.559 240.162C413.111 241.147 411.918 241.998 410.769 241.699C411.068 242.476 411.262 243.297 411.172 244.118C411.008 245.611 409.919 246.686 408.353 246.88C407.607 246.969 406.831 246.88 406.1 246.686C405.921 246.641 405.727 246.581 405.548 246.596C405.354 246.596 405.16 246.686 405.086 246.85C404.996 247.029 405.086 247.253 405.16 247.447C405.608 248.387 406.205 249.268 406.458 250.268C406.906 252.03 405.682 254.225 403.639 254.404C403.46 254.404 403.236 254.449 403.176 254.598C403.146 254.672 403.161 254.777 403.176 254.852C403.4 255.941 403.654 256.957 403.326 258.046C402.997 259.106 402.028 260.077 400.864 260.062C400.357 260.062 399.865 259.868 399.402 259.674C398.835 259.435 398.283 259.151 397.746 258.853C398.895 258.614 399.939 257.822 400.297 256.748L400.238 256.792Z" fill="#1C63D7"/>
<path d="M170.731 501.179C166.927 501.179 166.435 504.254 166.435 508.061C166.435 504.254 165.943 501.179 162.139 501.179C165.943 501.179 166.435 498.103 166.435 494.297C166.435 498.103 166.927 501.179 170.731 501.179ZM160.199 519.616C153.815 519.616 152.979 524.796 152.979 531.171C152.979 524.781 152.144 519.616 145.759 519.616C152.144 519.616 152.979 514.436 152.979 508.061C152.979 514.451 153.815 519.616 160.199 519.616ZM185.485 529.2C181.681 529.2 181.188 532.276 181.188 536.083C181.188 532.276 180.696 529.2 176.892 529.2C180.696 529.2 181.188 526.125 181.188 522.318C181.188 526.125 181.681 529.2 185.485 529.2ZM241.933 471.172C238.129 471.172 237.636 474.247 237.636 478.054C237.636 474.247 237.144 471.172 233.34 471.172C237.144 471.172 237.636 468.096 237.636 464.289C237.636 468.096 238.129 471.172 241.933 471.172ZM228.835 457.661C222.45 457.661 221.615 462.841 221.615 469.216C221.615 462.826 220.78 457.661 214.395 457.661C220.78 457.661 221.615 452.481 221.615 446.106C221.615 452.496 222.45 457.661 228.835 457.661Z" fill="#FAFAFA"/>
<path d="M292.026 40.7858C301.215 37.9195 310.688 38.9048 318.743 42.7863L322.398 44.8166C329.469 49.2804 335.048 56.1775 337.733 64.7766C343.73 84.005 332.974 104.517 313.761 110.519C305.168 113.206 296.322 112.519 288.639 109.25L284.895 107.399C277.123 102.98 270.917 95.7392 268.053 86.543C262.056 67.3145 272.812 46.8022 292.026 40.8007V40.7858Z" fill="#D8DBE3"/>
<path d="M291.041 37.8448C309.733 31.9777 329.558 40.741 338.151 57.6555L350.428 58.4616C352.516 58.596 353.352 61.2384 351.711 62.5522L342.104 70.2256C344.7 89.0211 333.437 107.563 314.76 113.43C293.935 119.969 271.663 108.339 265.129 87.4984C258.596 66.6576 270.216 44.3687 291.041 37.8299V37.8448ZM268.068 86.5877C270.947 95.784 277.153 103.01 284.94 107.414L288.684 109.265C296.382 112.519 305.228 113.191 313.805 110.489C333.004 104.458 343.715 83.9155 337.688 64.7169C334.988 56.1178 329.394 49.2356 322.323 44.7868L318.668 42.7564C310.613 38.8749 301.125 37.9194 291.936 40.8007C272.737 46.832 262.012 67.3742 268.038 86.5877H268.068Z" fill="#45506B"/>
<path d="M308.435 98.0531C310.016 98.0531 311.523 97.3963 312.612 96.2467L325.59 82.3778C327.753 80.0638 327.634 76.451 325.322 74.2863C323.009 72.1216 319.399 72.241 317.236 74.555L308.808 83.5572L288.878 58.2825C286.924 55.8043 283.329 55.3714 280.837 57.342C278.361 59.2977 277.929 62.9105 279.898 65.3887L303.96 95.8735C304.989 97.1873 306.54 97.9785 308.211 98.0531C308.286 98.0531 308.375 98.0531 308.45 98.0531H308.435Z" fill="#1C63D7"/>
</g>
<defs>
<clipPath id="clip0_144_199">
<rect width="682" height="691" fill="white" transform="matrix(-1 0 0 1 682 0)"/>
</clipPath>
</defs>
</svg>
