<svg width="25" height="55" viewBox="0 0 25 55" fill="none" xmlns="http://www.w3.org/2000/svg">
<path d="M7.15211 33.4764H17.8478C18.5887 33.4764 19.2469 33.1865 19.6536 32.6808C20.0201 32.2253 20.1498 31.6452 20.0188 31.0474C19.757 29.8546 18.5234 28.7006 17.2103 28.4201C17.186 28.4149 17.0511 28.3863 16.8374 28.3437C16.6546 28.3074 16.1358 28.1987 16.1358 27.6831V27.063C16.1358 26.2037 15.6072 25.466 14.8583 25.1566C14.6845 25.0849 14.3048 24.963 14.3048 24.5891V1.8048C14.3048 0.808035 13.4968 0 12.5 0C11.5032 0 10.6952 0.808035 10.6952 1.8048V24.5891C10.6952 24.9114 10.2781 25.0949 10.0893 25.179C9.36809 25.5005 8.86409 26.2239 8.86409 27.0631V27.7863C8.86409 28.173 8.44167 28.2893 8.27748 28.3214C7.99748 28.3761 7.81824 28.4142 7.78967 28.4203C6.4766 28.7008 5.24294 29.8547 4.98119 31.0476C4.85011 31.6453 4.97985 32.2254 5.34638 32.6809C5.75303 33.1864 6.41132 33.4764 7.15211 33.4764Z" fill="#F8F9FA"/>
<path d="M24.4613 51.3034L21.5762 38.1496C21.2837 36.8152 19.9342 35.7295 18.5681 35.7295H6.43186C5.06568 35.7295 3.71621 36.8151 3.42373 38.1495L0.538623 51.3035C0.389598 51.9833 0.522122 52.6593 0.911856 53.2071C1.30149 53.7547 1.89686 54.1015 2.58795 54.1835C2.86908 54.2168 9.50631 54.9998 12.4855 55.0001H12.4877C12.4879 55.0001 12.4876 55.0001 12.4876 55.0001C15.4756 55.0001 22.1299 54.2165 22.4118 54.1832C23.1029 54.1013 23.6982 53.7547 24.088 53.2071C24.4778 52.6593 24.6104 51.9834 24.4613 51.3034Z" fill="#F8F9FA"/>
</svg>
