<svg width="55" height="41" viewBox="0 0 55 41" fill="none" xmlns="http://www.w3.org/2000/svg">
<path d="M6.40566 14.4661C7.63713 19.1673 11.6089 23.4982 16.6429 23.4982C21.7519 23.4982 25.7874 19.1867 27.0494 14.498C27.5292 14.4439 27.9258 14.0778 27.9688 13.5785L28.1283 11.7258C28.1685 11.2432 27.8662 10.8299 27.4266 10.6774C27.4183 10.5664 27.4155 10.4541 27.403 10.3445C27.3087 6.09818 26.5709 2.67004 23.2288 1.25275C19.7008 -0.242211 16.5916 -0.263013 14.309 0.624531C14.1592 0.684163 13.7723 1.19866 13.6211 1.29158C13.47 1.38449 12.6698 1.121 12.3661 1.19173C7.35977 1.90731 5.7081 6.62377 6.07283 10.3015C6.06174 10.4042 6.0548 10.5082 6.04648 10.6122C5.56249 10.7328 5.21579 11.1724 5.26017 11.6855L5.41827 13.5383C5.46403 14.0625 5.89393 14.4425 6.40566 14.4661ZM7.4721 10.7966C9.66461 9.99367 13.8818 8.31427 14.3395 7.43227C16.2574 9.42508 23.0305 10.5442 26.0037 10.9173C26.0162 11.11 26.0329 11.2972 26.0329 11.4914C26.0329 16.3798 21.9307 22.0629 16.6429 22.0629C11.3745 22.0629 7.43743 16.4824 7.43743 11.4914C7.43604 11.257 7.45407 11.0282 7.4721 10.7966Z" fill="#F8F9FA"/>
<path d="M24.7098 21.8133C24.4463 21.7731 24.1884 21.8327 24.0192 21.9007L19.8019 27.6045L16.6026 25.0529L16.5832 25.0695V25.0875L16.579 25.0834L13.3797 27.6351L9.16251 21.9312C8.9947 21.8619 8.73538 21.8022 8.47189 21.8424C0.504791 22.9657 0 40.9607 0 40.9607L16.5985 40.9718V40.9427L33.1817 40.9316C33.1817 40.9316 32.6755 22.9366 24.7098 21.8133Z" fill="#F8F9FA"/>
<path d="M33.2789 14.2206C34.2773 18.0343 37.5002 21.5443 41.5816 21.5443C45.7253 21.5443 48.9995 18.0482 50.0229 14.2442C50.4112 14.1998 50.7344 13.9045 50.769 13.4995L50.898 11.9976C50.9313 11.6052 50.6844 11.2696 50.328 11.1461C50.3225 11.0588 50.3183 10.9658 50.3086 10.8785C50.2323 7.43509 49.6346 4.6518 46.9249 3.50354C44.0639 2.29149 41.5413 2.27346 39.69 2.99321C39.5693 3.04174 39.2559 3.45917 39.1339 3.53683C39.0091 3.6131 38.3614 3.39676 38.116 3.45501C34.0555 4.03468 32.7144 7.86083 33.0098 10.8438C33.0001 10.9284 32.996 11.0116 32.989 11.0962C32.5966 11.1947 32.3164 11.5511 32.3525 11.9657L32.4801 13.4676C32.5147 13.892 32.8642 14.2012 33.2789 14.2206ZM34.1428 11.2432C35.9207 10.5914 39.3433 9.22959 39.7136 8.51401C41.2709 10.1282 46.764 11.0352 49.1742 11.3417C49.1853 11.4942 49.1992 11.6495 49.1992 11.8062C49.1992 15.7697 45.8737 20.3807 41.5829 20.3807C37.3089 20.3807 34.1151 15.8543 34.1151 11.8062C34.1151 11.6176 34.1276 11.4304 34.1428 11.2432Z" fill="#F8F9FA"/>
<path d="M48.1256 20.181C47.9121 20.1477 47.7027 20.1962 47.5682 20.2503L44.1456 24.878L41.5509 22.8089L41.5356 22.8214V22.8367L41.5315 22.8339L38.9368 24.903L35.5142 20.2753C35.3783 20.2198 35.1675 20.174 34.9567 20.2059C32.8474 20.5027 31.3871 22.2611 30.3706 24.4897C30.9711 25.4175 31.817 26.8972 32.534 28.8442C33.2482 30.7788 33.7211 33.4137 34.029 35.7199L41.5481 35.7241V35.6991L55 35.6908C54.9986 35.6866 54.5881 21.0879 48.1256 20.181Z" fill="#F8F9FA"/>
</svg>
