<svg width="55" height="55" viewBox="0 0 55 55" fill="none" xmlns="http://www.w3.org/2000/svg">
<path d="M18.9156 3.4375L6.36248 42.468H15.2737L21.5502 3.4375H18.9156ZM23.6932 3.4375L22.2917 12.1531H26.4641V3.4375H23.6932ZM28.5359 3.4375V27.3105H35.0277L31.0821 3.4375H28.5359ZM33.2292 3.4375L41.1833 51.5625H43.2476L41.93 42.1272L45.5209 51.5625H51.5625L36.0846 3.4375H33.2292ZM21.743 15.5635L15.9542 51.5625H18.59L20.3457 37.0041L19.9405 51.5625H26.4641V15.5635H21.743ZM28.5359 30.721V51.5625H39.0361L35.5916 30.721H28.5359ZM5.26567 45.8784L3.4375 51.5625H13.8113L14.7255 45.8784H5.26567Z" fill="#F8F9FA"/>
</svg>
