<svg width="498" height="612" viewBox="0 0 498 612" fill="none" xmlns="http://www.w3.org/2000/svg">
<circle cx="249" cy="249" r="249" fill="#3B82F6"/>
<g clip-path="url(#clip0_210_3929)">
<path d="M169.332 331.452C170.328 330.33 169.83 331.016 171.138 330.33C175.249 328.275 176.744 330.642 179.485 331.202C181.042 331.514 182.35 332.51 182.599 334.255C185.963 356.18 181.167 362.783 180.419 359.544C179.859 357.052 180.232 354.249 179.111 351.945C177.429 353.066 179.485 363.219 175.561 365.399C170.765 368.202 164.66 373.683 163.352 367.454C162.542 363.468 163.165 361.226 167.089 337.182C167.214 336.435 169.892 331.95 169.27 331.514L169.332 331.452Z" fill="#F3A984"/>
<path d="M183.284 200.77C183.284 200.77 230.749 144.336 212.623 217.712C210.629 225.872 205.086 252.656 200.227 270.471C197.673 279.876 185.651 269.786 183.284 267.107C175.498 258.138 178.987 243.375 183.284 200.77Z" fill="#F3A984"/>
<path d="M208.761 234.842C210.442 227.305 211.813 221.014 212.623 217.712C230.749 144.336 190.323 161.528 183.285 200.77C181.354 211.483 179.485 222.197 178.675 229.921C187.084 235.776 198.67 235.776 208.823 234.842H208.761Z" fill="#F2F2F2"/>
<path d="M168.273 338.988C166.903 344.594 170.266 336.497 174.626 340.234C181.665 346.214 182.537 336.621 195.929 293.891C198.919 284.361 198.732 277.759 202.532 264.865C203.528 261.439 202.532 257.452 200.414 254.649C196.427 249.355 184.157 235.776 181.976 241.32C180.17 245.929 176.869 266.547 175.062 272.215C169.768 289.095 171.138 327.154 168.211 339.051L168.273 338.988Z" fill="#F3A984"/>
<path d="M167.214 334.753C167.837 333.569 168.522 332.51 169.332 331.514C172.384 331.264 180.108 340.857 169.955 348.269C168.958 349.017 167.962 351.072 167.837 352.256C167.588 354.124 168.148 356.74 166.716 358.298C166.093 358.921 164.723 359.543 163.913 358.983C163.103 358.422 161.359 345.965 167.214 334.753Z" fill="#FFBFA2"/>
<path d="M245.823 531.71C245.449 532.831 243.518 534.139 242.708 535.011C239.407 538.437 236.666 540.991 234.237 545.102C231.621 549.462 229.192 553.947 227.074 558.556C224.644 563.726 222.527 569.395 223.399 575.063C224.271 580.731 229.192 586.088 234.922 585.527C238.037 585.216 240.715 583.285 243.02 581.105C248.252 576.122 251.616 569.519 255.54 563.602C258.156 559.615 260.647 555.442 261.769 550.77C262.391 548.154 262.516 545.413 261.955 542.86C261.706 541.489 261.27 540.181 260.585 538.998C259.962 537.814 259.152 537.129 258.966 535.759C258.53 533.205 258.592 530.215 257.346 527.848C256.287 525.793 253.422 525.045 251.304 525.357C248.937 525.73 246.819 527.225 245.387 529.218C245.2 529.966 246.01 530.9 245.823 531.648C245.823 531.648 245.823 531.772 245.823 531.835V531.71Z" fill="#275EBE"/>
<path d="M205.21 505.424C203.092 506.795 201.099 508.476 199.044 509.909C196.988 511.342 194.808 512.401 192.752 513.895C188.205 517.134 183.534 520.124 178.737 522.865C175.125 524.921 171.387 526.914 167.961 529.343C165.283 531.274 162.854 533.516 160.923 536.257C159.864 537.752 159.428 538.624 159.802 540.493C160.113 542.112 160.861 543.669 161.67 545.102C163.165 547.843 164.909 550.646 167.588 552.078C170.204 553.449 173.381 553.262 176.184 552.39C180.419 551.082 185.091 548.341 188.143 545.04C191.444 541.489 195.119 538.749 199.667 537.316C203.279 536.195 207.266 535.883 210.567 533.89C213.495 532.084 215.488 528.969 216.173 525.543C216.983 521.557 215.737 517.446 216.298 513.397C216.671 510.843 217.606 508.04 217.17 505.362C216.796 503.12 214.304 501.438 212.249 501.002C209.944 500.566 207.515 501.313 205.584 502.683L205.273 505.362L205.21 505.424Z" fill="#275EBE"/>
<path d="M183.845 354.997C184.219 370.133 185.963 385.269 188.953 400.094C190.635 408.253 190.572 416.413 192.379 424.511C193.749 430.677 196.864 436.346 203.84 434.913C210.256 433.605 222.028 422.829 224.021 408.627C225.08 400.966 225.454 390.003 226.388 382.341C228.319 366.458 246.819 316.253 216.235 304.231C210.754 302.051 205.958 292.708 200.227 292.646C196.801 292.646 194.185 295.76 192.441 298.812C186.524 309.152 184.904 321.485 184.219 333.445C183.783 340.608 183.658 347.771 183.845 354.934V354.997Z" fill="#4B3D46"/>
<path d="M188.517 391.623C189.015 409.126 191.444 426.504 193.562 443.821C195.742 462.009 196.054 479.637 194.372 497.949C193.998 502.123 193.562 506.296 193.188 510.47C192.69 515.453 192.566 521.245 196.178 524.609C198.047 526.353 200.601 527.038 203.092 527.038C206.892 527.038 210.505 525.543 213.432 523.052C217.045 519.937 216.422 516.2 216.484 511.653C216.671 497.949 223.398 485.243 225.952 471.726C227.198 464.936 227.447 458.022 227.634 451.108C228.008 437.529 225.579 425.508 220.782 412.925C219.599 409.873 217.917 406.572 214.803 405.824L188.517 391.623Z" fill="#4B3D46"/>
<path d="M275.908 334.815C275.783 334.13 275.659 333.445 275.534 332.698C273.852 324.226 271.485 315.568 266.689 308.405C265.506 306.661 260.834 299.249 259.401 303.671C258.529 306.287 259.401 310.211 259.464 313.014C258.903 310.647 258.218 308.28 257.346 305.976C256.972 304.917 256.536 304.107 256.162 303.484C254.481 301.117 252.363 302.488 248.625 303.36C244.078 304.419 239.344 304.169 234.735 304.855C220.159 307.035 219.038 310.211 209.384 302.238C207.577 314.758 210.131 326.593 210.006 329.334C209.695 343.723 220.409 344.906 220.845 352.443C221.966 370.009 224.021 404.703 226.264 422.082C227.136 428.871 230.624 435.661 233.614 441.454C237.04 448.243 240.528 451.981 246.881 451.233C249.747 450.922 254.73 447.496 256.349 445.004C257.346 443.385 257.595 440.146 258.156 438.277C259.464 434.041 260.585 429.806 261.582 425.508C262.391 422.02 262.329 418.594 263.076 415.23C265.07 406.447 267.437 397.727 269.555 389.007C270.925 383.401 272.358 377.732 273.666 372.126C275.597 363.904 277.465 355.558 277.278 347.086C277.154 342.975 276.593 338.864 275.846 334.815H275.908Z" fill="#4B3D46"/>
<path d="M276.406 136.488C276.406 136.488 276.157 136.737 276.033 136.862C272.544 140.661 263.513 146.018 258.031 143.526C254.854 142.032 256.162 140.599 254.979 137.36C253.796 134.059 250.93 130.944 248.19 128.889C242.459 124.591 241.961 114.002 243.954 107.586C246.508 99.3637 257.221 94.6921 265.194 96.3739C274.413 98.3048 281.14 107.337 282.199 116.742C283.009 123.781 281.078 131.193 276.406 136.55V136.488Z" fill="#B56A3E"/>
<path d="M257.284 173.238C250.557 170.186 248.127 168.504 241.089 166.947C239.967 166.698 236.106 168.131 234.984 167.882C226.451 166.075 217.294 166.449 209.384 169.937C209.321 169.937 209.197 169.999 209.134 170.062V222.571H259.464L257.284 173.238Z" fill="#F3A984"/>
<path d="M281.826 198.029C281.327 201.953 262.454 239.576 259.526 250.788C257.035 260.193 257.782 268.976 260.087 277.447C263.263 289.158 269.43 300.307 274.289 311.706C285.314 337.556 266.316 338.49 263.699 339.549C256.412 342.414 248.065 341.356 240.653 339.674C228.818 336.933 190.884 285.856 191.32 281.434C194.185 254.276 180.108 236.586 181.416 217.339C182.226 205.877 188.392 195.662 194.434 185.883C199.978 176.913 202.345 166.573 219.91 166.075C223.212 166.013 224.831 166.013 221.966 172.615C209.197 201.517 240.964 203.137 257.346 173.3C258.779 174.173 260.398 175.231 262.205 176.477C264.571 178.097 267.125 180.028 269.679 182.083C274.351 185.883 278.96 190.243 282.324 194.603C284.379 197.282 282.012 197.095 281.888 198.091L281.826 198.029Z" fill="#D9D9D9"/>
<path d="M219.848 166.075C218.229 166.075 216.609 166.386 214.99 166.698C203.653 179.342 189.825 190.99 183.472 207.123C181.914 211.11 186.088 219.083 184.78 223.069L190.136 222.633C193.438 214.722 191.569 214.473 198.608 200.147C204.338 188.561 213.495 176.353 222.277 167.321C222.34 165.701 221.966 165.95 219.848 166.013V166.075Z" fill="#275EBE"/>
<path d="M260.087 277.51C254.232 275.579 248.127 269.35 243.767 263.682C235.545 251.348 232.057 245.119 234.86 224.44C227.821 226.62 190.697 219.893 183.471 207.061C175.062 232.288 194.683 249.417 191.258 281.434C190.759 285.856 228.755 336.933 240.59 339.674C248.003 341.418 260.274 278.506 260.024 277.51H260.087Z" fill="#275EBE"/>
<path d="M253.609 171.494C253.609 171.494 251.553 177.038 247.006 181.087C237.663 189.496 223.025 188.997 223.336 176.913C223.959 152.621 225.33 149.818 236.043 146.018C238.971 144.959 242.023 144.212 245.075 144.149C256.35 143.9 251.989 150.067 251.553 154.365C250.308 167.072 253.671 171.494 253.671 171.494H253.609Z" fill="#EE9C76"/>
<path d="M241.151 163.335C242.085 162.525 243.02 161.715 243.892 160.905C247.006 158.04 250.494 154.676 252.675 151.064C259.589 139.353 259.9 123.657 250.058 113.504C243.082 106.278 231.995 103.288 222.34 106.029C219.724 106.776 217.232 107.898 214.803 109.143C212.685 110.202 210.63 111.386 209.072 113.13C208.013 114.251 207.204 115.621 206.518 116.929C205.709 118.424 204.961 120.044 204.525 121.726C202.657 129.325 207.702 137.049 204.774 144.523C204.151 146.143 203.217 147.638 202.594 149.32C202.034 151.001 201.847 152.87 202.781 154.365C203.653 155.798 204.774 156.483 205.273 158.04C205.958 160.158 206.456 162.4 207.017 164.518C207.64 166.885 208.325 169.252 209.508 171.37C212.436 176.54 216.609 176.914 221.779 174.858C228.818 172.117 235.358 168.193 241.089 163.397L241.151 163.335Z" fill="#FFBFA2"/>
<path d="M264.385 127.768C263.886 113.005 259.526 110.514 253.92 105.842C248.501 101.295 241.151 99.2393 234.112 99.4262C226.887 99.6754 219.848 102.105 213.744 105.904C213.495 106.029 213.246 106.216 212.996 106.34C209.82 108.396 207.079 110.763 205.397 114.189C204.525 115.995 203.84 117.988 203.529 119.981C202.906 123.719 206.145 125.338 209.446 126.335C213.869 127.705 220.16 125.837 224.707 125.338C226.825 125.089 229.005 124.902 231.06 125.401C233.116 125.961 235.109 127.394 235.545 129.512C236.043 131.692 234.86 133.81 234.362 135.99C233.365 140.288 235.545 144.959 239.158 147.326C241.276 148.759 242.771 148.821 245.075 147.825C247.131 146.89 249.249 145.271 251.491 146.703C253.609 148.011 252.799 150.752 252.301 152.683C252.176 153.057 251.429 155.86 252.55 155.86C253.733 155.86 264.945 145.458 264.322 127.705L264.385 127.768Z" fill="#D08A62"/>
<path d="M226.513 416.351C227.759 433.792 234.611 446.437 237.414 463.691C240.403 481.755 241.462 499.382 240.59 517.695C240.403 521.557 240.341 525.419 240.03 529.219C239.781 532.271 239.095 536.382 240.154 539.372C241.213 542.362 244.265 544.043 247.193 544.978C249.373 545.663 251.615 546.099 253.92 545.85C256.038 545.663 258.156 544.791 259.838 543.358C261.395 541.988 261.769 539.559 262.205 537.565C263.077 533.33 262.703 529.094 263.201 524.858C263.637 521.308 264.509 517.571 265.381 514.082C267.25 506.109 269.928 498.261 271.112 490.101C272.108 483.249 271.984 476.335 271.859 469.421C271.672 455.842 267.188 437.156 261.831 424.76C260.523 421.77 260.149 425.321 257.097 424.76L226.638 416.289L226.513 416.351Z" fill="#4B3D46"/>
<path d="M250.37 141.222C255.415 140.91 256.661 147.139 253.235 151.935C252.238 153.368 250.432 154.614 249.124 155.735C240.092 163.396 237.85 155.112 240.715 152.496C247.38 146.454 244.079 141.658 250.37 141.222Z" fill="#FFBFA2"/>
<path d="M247.131 152.683C247.691 152.185 253.422 148.759 249.56 146.454C248.501 145.831 247.255 146.765 247.131 147.887C247.068 148.51 247.255 149.07 247.131 149.693C247.131 150.067 246.944 150.378 246.757 150.69C246.259 151.499 244.514 152.309 244.826 153.555C245.137 154.614 246.819 152.994 247.131 152.683Z" fill="#F3A984"/>
<path d="M191.32 281.434C190.759 283.24 183.97 313.139 183.783 316.689C182.599 339.487 179.921 362.409 177.554 385.207C177.367 387.075 177.18 389.069 177.803 390.813C178.488 392.744 180.108 394.176 181.665 395.422C197.486 407.942 219.038 409.499 239.158 410.558C244.888 410.87 251.242 410.932 255.602 407.257C258.779 404.579 260.274 400.405 261.519 396.419C267.375 377.981 271.797 358.983 272.482 339.611C273.167 319.243 269.305 295.698 260.087 277.447C247.006 294.577 204.027 303.11 191.32 281.371V281.434Z" fill="#275EBE"/>
<path d="M269.617 182.021C257.408 195.039 246.695 211.047 234.922 224.501C233.178 226.495 232.742 227.99 230.873 229.858C228.444 232.35 225.454 234.841 222.028 234.655C219.038 234.468 216.609 232.225 214.616 229.921L212 228.176C220.16 224.564 255.727 191.364 262.142 176.415C264.509 178.034 267.063 179.965 269.617 182.021Z" fill="#275EBE"/>
<path d="M148.34 605.211L168.397 593.562V600.352L148.278 612L148.34 605.211Z" fill="#261D22"/>
<path d="M45.9999 546.161L66.1192 534.513L168.397 593.562L148.34 605.21L45.9999 546.161Z" fill="#4B3D46"/>
<path d="M148.34 605.21L148.278 612L45.9998 552.95V546.161L148.34 605.21Z" fill="#32272D"/>
<path d="M139.744 465.995L100.752 565.159C100.316 566.28 100.627 567.65 101.686 569.021C103.928 571.824 108.6 573.692 112.15 573.132C113.957 572.883 115.078 572.073 115.514 570.952L154.507 471.788C154.071 472.909 152.887 473.719 151.143 473.968C147.593 474.466 142.921 472.66 140.679 469.857C139.558 468.487 139.308 467.116 139.744 465.995Z" fill="#FFAB00"/>
<mask id="mask0_210_3929" style="mask-type:luminance" maskUnits="userSpaceOnUse" x="100" y="465" width="55" height="109">
<path d="M139.744 465.995L100.752 565.159C100.316 566.28 100.627 567.65 101.686 569.021C103.928 571.824 108.6 573.692 112.15 573.132C113.957 572.883 115.078 572.073 115.514 570.952L154.507 471.788C154.071 472.909 152.887 473.719 151.143 473.968C147.593 474.466 142.921 472.66 140.679 469.857C139.558 468.487 139.308 467.116 139.744 465.995Z" fill="white"/>
</mask>
<g mask="url(#mask0_210_3929)">
<path d="M139.745 465.995L100.752 565.159C100.565 565.719 100.503 566.28 100.627 566.965L139.62 467.801C139.495 467.179 139.495 466.556 139.745 465.995Z" fill="#FFAB00"/>
<path d="M139.682 467.801L100.69 566.965C100.814 567.65 101.188 568.335 101.748 569.021C102.558 570.017 103.679 570.951 104.925 571.637L143.918 472.473C142.672 471.788 141.489 470.853 140.741 469.857C140.181 469.172 139.807 468.424 139.682 467.801Z" fill="#FFAB00"/>
<path d="M143.918 472.473L104.925 571.637C105.86 572.135 106.919 572.571 107.915 572.82L146.908 473.657C145.849 473.407 144.852 472.971 143.918 472.473Z" fill="#FFAB00"/>
<path d="M146.97 473.657L107.977 572.82C109.41 573.194 110.905 573.319 112.213 573.132C114.019 572.883 115.14 572.073 115.577 570.952L154.569 471.788C154.133 472.909 152.95 473.719 151.206 473.968C149.898 474.155 148.403 474.03 146.97 473.657Z" fill="#FFAB00"/>
</g>
<path d="M143.171 463.815C139.62 464.313 138.499 467.054 140.741 469.857C142.984 472.66 147.655 474.528 151.206 473.968C154.756 473.47 155.815 470.729 153.635 467.926C151.393 465.123 146.721 463.254 143.171 463.815Z" fill="#FFC040"/>
<path d="M193.375 334.628L141.489 466.556C141.177 467.428 141.364 468.486 142.236 469.608C143.98 471.788 147.655 473.283 150.458 472.847C151.891 472.66 152.763 471.975 153.137 471.103L205.023 339.175C204.712 340.047 203.777 340.67 202.345 340.919C199.542 341.355 195.867 339.86 194.123 337.68C193.251 336.559 193.064 335.5 193.375 334.628Z" fill="#4B3D46"/>
<mask id="mask1_210_3929" style="mask-type:luminance" maskUnits="userSpaceOnUse" x="141" y="334" width="65" height="139">
<path d="M193.375 334.628L141.489 466.556C141.177 467.428 141.364 468.486 142.236 469.608C143.98 471.788 147.655 473.283 150.458 472.847C151.891 472.66 152.763 471.975 153.137 471.103L205.023 339.175C204.712 340.047 203.777 340.67 202.345 340.919C199.542 341.355 195.867 339.86 194.123 337.68C193.251 336.559 193.064 335.5 193.375 334.628Z" fill="white"/>
</mask>
<g mask="url(#mask1_210_3929)">
<path d="M193.375 334.628L141.489 466.556C141.302 466.992 141.302 467.428 141.426 467.926L193.313 335.998C193.188 335.5 193.251 335.002 193.375 334.628Z" fill="#4B3D46"/>
<path d="M193.313 335.998L141.426 467.926C141.551 468.424 141.8 468.985 142.236 469.545C142.859 470.355 143.731 471.04 144.728 471.601L196.614 339.673C195.618 339.112 194.746 338.427 194.123 337.618C193.687 337.057 193.438 336.496 193.313 335.998Z" fill="#665861"/>
<path d="M196.614 339.673L144.728 471.601C145.475 471.975 146.285 472.348 147.095 472.535L198.981 340.608C198.171 340.359 197.362 340.047 196.614 339.673Z" fill="#665861"/>
<path d="M198.981 340.608L147.095 472.535C148.216 472.847 149.399 472.971 150.458 472.785C151.891 472.598 152.763 471.912 153.137 471.04L205.023 339.113C204.712 339.985 203.777 340.608 202.345 340.857C201.286 340.981 200.165 340.857 198.981 340.608Z" fill="#4B3D46"/>
</g>
<path d="M196.054 332.884C193.251 333.32 192.379 335.438 194.123 337.618C195.867 339.798 199.542 341.293 202.345 340.857C205.148 340.421 205.958 338.303 204.276 336.123C202.532 333.943 198.857 332.448 196.054 332.884Z" fill="#665861"/>
<path d="M386.035 541.364L377.626 536.443C376.131 535.571 374.013 535.696 371.708 537.004L380.117 541.925C382.422 540.617 384.54 540.492 386.035 541.364Z" fill="#D9D9D9"/>
<mask id="mask2_210_3929" style="mask-type:luminance" maskUnits="userSpaceOnUse" x="371" y="535" width="16" height="7">
<path d="M386.035 541.364L377.626 536.443C376.131 535.571 374.013 535.696 371.708 537.004L380.117 541.925C382.422 540.617 384.54 540.492 386.035 541.364Z" fill="white"/>
</mask>
<g mask="url(#mask2_210_3929)">
<path d="M386.035 541.364L377.626 536.443C376.878 536.007 376.006 535.82 375.072 535.883L383.481 540.804C384.415 540.741 385.287 540.928 386.035 541.364Z" fill="#D9D9D9"/>
<path d="M383.481 540.804L375.072 535.883C374.511 535.883 373.951 536.07 373.328 536.257L381.737 541.177C382.36 540.99 382.92 540.866 383.481 540.804Z" fill="#D9D9D9"/>
<path d="M381.737 541.177L373.328 536.256C372.83 536.443 372.269 536.692 371.708 537.004L380.117 541.925C380.678 541.613 381.176 541.364 381.737 541.177Z" fill="#D9D9D9"/>
</g>
<path d="M365.853 556.687L374.262 561.608C372.767 560.736 371.833 558.929 371.833 556.313C371.833 551.081 375.508 544.665 380.117 541.987L371.708 537.066C367.099 539.682 363.424 546.098 363.424 551.392C363.424 554.008 364.358 555.815 365.853 556.687Z" fill="#D9D9D9"/>
<mask id="mask3_210_3929" style="mask-type:luminance" maskUnits="userSpaceOnUse" x="363" y="537" width="18" height="25">
<path d="M365.853 556.687L374.262 561.608C372.767 560.736 371.833 558.929 371.833 556.313C371.833 551.081 375.508 544.665 380.117 541.987L371.708 537.066C367.099 539.682 363.424 546.098 363.424 551.392C363.424 554.008 364.358 555.815 365.853 556.687Z" fill="white"/>
</mask>
<g mask="url(#mask3_210_3929)">
<path d="M380.117 541.924L371.708 537.003C371.708 537.003 371.708 537.003 371.646 537.003L380.055 541.924C380.055 541.924 380.055 541.924 380.117 541.924Z" fill="#D9D9D9"/>
<path d="M380.055 541.987L371.646 537.066C371.023 537.44 370.4 537.876 369.777 538.374L378.186 543.295C378.809 542.796 379.37 542.36 380.055 541.987Z" fill="#D9D9D9"/>
<path d="M378.186 543.295L369.777 538.374C367.286 540.492 365.23 543.731 364.171 546.97L372.58 551.891C373.639 548.652 375.695 545.413 378.186 543.295Z" fill="#F2F2F2"/>
<path d="M372.58 551.891L364.171 546.97C363.922 547.779 363.735 548.527 363.611 549.337L372.02 554.257C372.144 553.51 372.331 552.7 372.58 551.891Z" fill="#D9D9D9"/>
<path d="M372.02 554.258L363.611 549.337C363.486 550.022 363.424 550.707 363.424 551.33L371.833 556.251C371.833 555.566 371.833 554.881 372.02 554.195V554.258Z" fill="#D9D9D9"/>
<path d="M371.833 556.251L363.424 551.33C363.424 552.078 363.486 552.7 363.611 553.323L372.02 558.244C371.895 557.621 371.833 556.998 371.833 556.251Z" fill="#D9D9D9"/>
<path d="M372.082 558.244L363.673 553.323C364.047 554.88 364.794 556.002 365.853 556.625L374.262 561.545C373.203 560.922 372.393 559.801 372.082 558.244Z" fill="#D9D9D9"/>
</g>
<path d="M380.117 541.925C375.508 544.541 371.833 550.957 371.833 556.251C371.833 561.484 375.57 563.664 380.179 560.985C384.789 558.369 388.464 551.953 388.464 546.659C388.464 541.427 384.727 539.246 380.117 541.925Z" fill="#10191B"/>
<path d="M372.954 556.251C372.954 557.746 373.266 558.867 373.826 559.739C374.449 560.611 375.321 561.047 376.442 561.047C377.377 561.047 378.498 560.736 379.619 560.051C383.917 557.559 387.343 551.579 387.343 546.659C387.343 544.042 386.346 542.361 384.664 541.987C384.415 541.925 384.104 541.862 383.855 541.862C382.92 541.862 381.799 542.174 380.678 542.859C376.38 545.35 372.954 551.33 372.954 556.251Z" fill="#F2F2F2"/>
<path d="M372.954 556.251C372.954 557.746 373.265 558.867 373.826 559.739C374.075 559.801 374.387 559.864 374.636 559.864C375.57 559.864 376.691 559.552 377.813 558.867C382.11 556.376 385.536 550.396 385.536 545.475C385.536 544.042 385.225 542.859 384.664 541.987C384.415 541.925 384.104 541.862 383.855 541.862C382.92 541.862 381.799 542.174 380.678 542.859C376.38 545.35 372.954 551.33 372.954 556.251Z" fill="#32272D"/>
<path d="M381.301 544.105L382.36 544.665C381.488 544.167 380.304 544.229 378.934 544.977L377.875 544.416C379.245 543.669 380.429 543.606 381.301 544.105Z" fill="#4B3D46"/>
<mask id="mask4_210_3929" style="mask-type:luminance" maskUnits="userSpaceOnUse" x="377" y="543" width="6" height="2">
<path d="M381.301 544.105L382.36 544.665C381.488 544.167 380.304 544.229 378.934 544.977L377.875 544.416C379.245 543.669 380.429 543.606 381.301 544.105Z" fill="white"/>
</mask>
<g mask="url(#mask4_210_3929)">
<path d="M378.934 545.039L377.875 544.479C378.373 544.167 378.871 543.98 379.37 543.918L380.429 544.479C379.993 544.541 379.494 544.79 378.934 545.039Z" fill="#4B3D46"/>
<path d="M380.428 544.416L379.37 543.856C380.055 543.731 380.74 543.793 381.238 544.043L382.297 544.603C381.799 544.354 381.114 544.229 380.428 544.416Z" fill="#4B3D46"/>
<path d="M382.297 544.665L381.238 544.104C381.238 544.104 381.238 544.104 381.3 544.104L382.36 544.665C382.36 544.665 382.36 544.665 382.297 544.665Z" fill="#4B3D46"/>
</g>
<path d="M375.508 556.376L374.449 555.815C373.577 555.317 373.079 554.258 373.079 552.701C373.079 549.648 375.259 545.973 377.937 544.479L378.996 545.039C376.318 546.534 374.138 550.271 374.138 553.261C374.138 554.756 374.636 555.815 375.508 556.376Z" fill="#4B3D46"/>
<mask id="mask5_210_3929" style="mask-type:luminance" maskUnits="userSpaceOnUse" x="373" y="544" width="6" height="13">
<path d="M375.508 556.376L374.449 555.815C373.577 555.317 373.079 554.258 373.079 552.701C373.079 549.648 375.259 545.973 377.937 544.479L378.996 545.039C376.318 546.534 374.138 550.271 374.138 553.261C374.138 554.756 374.636 555.815 375.508 556.376Z" fill="white"/>
</mask>
<g mask="url(#mask5_210_3929)">
<path d="M375.508 556.376L374.449 555.815C373.577 555.317 373.079 554.258 373.079 552.701C373.079 551.517 373.39 550.271 373.951 549.088L375.01 549.649C374.449 550.832 374.137 552.078 374.137 553.261C374.137 554.756 374.636 555.815 375.508 556.376Z" fill="#4B3D46"/>
<path d="M375.01 549.648L373.951 549.088C374.387 548.153 374.947 547.281 375.57 546.472L376.629 547.032C376.006 547.842 375.446 548.714 375.01 549.648Z" fill="#4B3D46"/>
<path d="M376.629 547.032L375.57 546.472C376.255 545.662 377.065 544.915 377.937 544.479L378.996 545.039C378.124 545.537 377.377 546.223 376.629 547.032Z" fill="#4B3D46"/>
</g>
<path d="M378.934 545.039C381.612 543.544 383.73 544.79 383.73 547.842C383.73 550.894 381.55 554.569 378.871 556.064C376.193 557.559 374.075 556.314 374.075 553.261C374.075 550.209 376.255 546.534 378.934 545.039Z" fill="#665861"/>
<path d="M380.117 541.925C384.727 539.309 388.402 541.427 388.464 546.659C388.464 551.891 384.789 558.307 380.179 560.985C375.57 563.601 371.895 561.484 371.833 556.251C371.833 551.019 375.508 544.603 380.117 541.925ZM373.826 559.677C374.449 560.549 375.321 560.985 376.442 560.985C377.376 560.985 378.498 560.674 379.619 559.989C383.917 557.497 387.343 551.517 387.343 546.597C387.343 543.98 386.346 542.299 384.664 541.925C384.415 541.863 384.104 541.8 383.854 541.8C382.92 541.8 381.799 542.112 380.678 542.797C376.38 545.289 372.954 551.268 372.954 556.189C372.954 557.684 373.265 558.805 373.826 559.677Z" fill="#CACACA"/>
<path d="M330.349 509.784L321.94 504.863C320.445 503.991 318.327 504.116 316.022 505.424L324.431 510.345C326.736 509.037 328.854 508.912 330.349 509.784Z" fill="#D9D9D9"/>
<mask id="mask6_210_3929" style="mask-type:luminance" maskUnits="userSpaceOnUse" x="316" y="504" width="15" height="7">
<path d="M330.349 509.784L321.94 504.863C320.445 503.991 318.327 504.116 316.022 505.424L324.431 510.345C326.736 509.037 328.854 508.912 330.349 509.784Z" fill="white"/>
</mask>
<g mask="url(#mask6_210_3929)">
<path d="M330.349 509.784L321.94 504.863C321.192 504.427 320.32 504.24 319.386 504.303L327.795 509.223C328.729 509.161 329.601 509.348 330.349 509.784Z" fill="#D9D9D9"/>
<path d="M327.795 509.286L319.386 504.365C318.825 504.365 318.264 504.552 317.642 504.739L326.051 509.659C326.673 509.472 327.234 509.348 327.795 509.286Z" fill="#D9D9D9"/>
<path d="M326.051 509.66L317.642 504.739C317.143 504.926 316.583 505.175 316.022 505.486L324.431 510.407C324.992 510.096 325.49 509.846 326.051 509.66Z" fill="#D9D9D9"/>
</g>
<path d="M310.167 525.107L318.576 530.028C317.081 529.156 316.147 527.349 316.147 524.733C316.147 519.501 319.822 513.085 324.431 510.407L316.022 505.486C311.413 508.102 307.738 514.518 307.738 519.812C307.738 522.428 308.672 524.235 310.167 525.107Z" fill="#D9D9D9"/>
<mask id="mask7_210_3929" style="mask-type:luminance" maskUnits="userSpaceOnUse" x="307" y="505" width="18" height="26">
<path d="M310.167 525.107L318.576 530.028C317.081 529.156 316.147 527.349 316.147 524.733C316.147 519.501 319.822 513.085 324.431 510.407L316.022 505.486C311.413 508.102 307.738 514.518 307.738 519.812C307.738 522.428 308.672 524.235 310.167 525.107Z" fill="white"/>
</mask>
<g mask="url(#mask7_210_3929)">
<path d="M324.431 510.407L316.022 505.486C316.022 505.486 316.022 505.486 315.96 505.486L324.369 510.407C324.369 510.407 324.369 510.407 324.431 510.407Z" fill="#D9D9D9"/>
<path d="M324.369 510.407L315.96 505.486C315.337 505.86 314.714 506.296 314.091 506.794L322.5 511.715C323.123 511.216 323.683 510.78 324.369 510.407Z" fill="#D9D9D9"/>
<path d="M322.5 511.777L314.091 506.856C311.6 508.974 309.544 512.213 308.485 515.452L316.894 520.373C317.953 517.134 320.009 513.895 322.5 511.777Z" fill="#F2F2F2"/>
<path d="M316.894 520.373L308.485 515.452C308.236 516.262 308.049 517.009 307.925 517.819L316.334 522.74C316.458 521.993 316.645 521.183 316.894 520.373Z" fill="#D9D9D9"/>
<path d="M316.333 522.678L307.925 517.757C307.8 518.442 307.738 519.127 307.738 519.75L316.147 524.671C316.147 523.986 316.147 523.301 316.333 522.615V522.678Z" fill="#D9D9D9"/>
<path d="M316.147 524.733L307.738 519.812C307.738 520.56 307.8 521.183 307.925 521.806L316.333 526.727C316.209 526.104 316.147 525.481 316.147 524.733Z" fill="#D9D9D9"/>
<path d="M316.396 526.726L307.987 521.806C308.361 523.363 309.108 524.484 310.167 525.107L318.576 530.028C317.517 529.405 316.707 528.284 316.396 526.726Z" fill="#D9D9D9"/>
</g>
<path d="M324.431 510.407C319.822 513.023 316.147 519.439 316.147 524.733C316.147 529.965 319.884 532.146 324.493 529.467C329.103 526.851 332.778 520.435 332.778 515.141C332.778 509.909 329.041 507.728 324.431 510.407Z" fill="#10191B"/>
<path d="M317.268 524.671C317.268 526.166 317.579 527.287 318.14 528.097C318.763 528.969 319.635 529.405 320.756 529.405C321.69 529.405 322.811 529.094 323.933 528.409C328.231 525.917 331.656 519.937 331.656 515.016C331.656 512.4 330.66 510.719 328.978 510.345C328.729 510.282 328.417 510.22 328.168 510.22C327.234 510.22 326.113 510.594 324.992 511.217C320.694 513.708 317.268 519.688 317.268 524.609V524.671Z" fill="#F2F2F2"/>
<path d="M317.268 524.671C317.268 526.166 317.579 527.287 318.14 528.097C318.389 528.159 318.701 528.222 318.95 528.222C319.884 528.222 321.005 527.91 322.127 527.225C326.424 524.734 329.85 518.754 329.85 513.833C329.85 512.4 329.539 511.217 328.978 510.345C328.729 510.282 328.418 510.22 328.169 510.22C327.234 510.22 326.113 510.594 324.992 511.217C320.694 513.708 317.268 519.688 317.268 524.609V524.671Z" fill="#32272D"/>
<mask id="mask8_210_3929" style="mask-type:luminance" maskUnits="userSpaceOnUse" x="322" y="512" width="5" height="2">
<path d="M325.677 512.587L326.736 513.148C325.864 512.649 324.68 512.712 323.31 513.459L322.251 512.899C323.621 512.151 324.805 512.089 325.677 512.587Z" fill="white"/>
</mask>
<g mask="url(#mask8_210_3929)">
<path d="M323.248 513.46L322.189 512.899C322.687 512.588 323.185 512.401 323.684 512.338L324.742 512.899C324.306 513.024 323.808 513.21 323.248 513.46Z" fill="#CACACA"/>
<path d="M324.743 512.899L323.684 512.338C324.369 512.214 325.054 512.276 325.552 512.525L326.611 513.086C326.113 512.836 325.428 512.712 324.743 512.899Z" fill="#CACACA"/>
<path d="M326.611 513.148L325.551 512.587C325.551 512.587 325.551 512.587 325.614 512.587L326.674 513.148C326.674 513.148 326.674 513.148 326.611 513.148Z" fill="#CACACA"/>
</g>
<mask id="mask9_210_3929" style="mask-type:luminance" maskUnits="userSpaceOnUse" x="317" y="512" width="7" height="13">
<path d="M319.822 524.796L318.763 524.235C317.891 523.737 317.393 522.678 317.393 521.121C317.393 518.068 319.573 514.393 322.251 512.898L323.31 513.459C320.632 514.954 318.452 518.691 318.452 521.681C318.452 523.176 318.95 524.235 319.822 524.796Z" fill="white"/>
</mask>
<g mask="url(#mask9_210_3929)">
<path d="M319.822 524.796L318.763 524.235C317.891 523.737 317.393 522.678 317.393 521.121C317.393 519.937 317.704 518.691 318.265 517.508L319.323 518.068C318.763 519.252 318.451 520.498 318.451 521.681C318.451 523.176 318.95 524.235 319.822 524.796Z" fill="#CACACA"/>
<path d="M319.324 518.131L318.265 517.57C318.701 516.636 319.261 515.764 319.884 514.954L320.943 515.515C320.32 516.324 319.76 517.196 319.324 518.131Z" fill="#CACACA"/>
<path d="M320.943 515.515L319.884 514.954C320.569 514.144 321.379 513.397 322.251 512.961L323.31 513.522C322.438 514.02 321.691 514.705 320.943 515.515Z" fill="#CACACA"/>
</g>
<path d="M323.248 513.459C325.926 511.964 328.044 513.21 328.044 516.262C328.044 519.314 325.864 522.989 323.185 524.484C320.507 525.979 318.389 524.733 318.389 521.681C318.389 518.629 320.569 514.954 323.248 513.459Z" fill="#F2F2F2"/>
<path d="M324.431 510.407C329.041 507.791 332.716 509.909 332.778 515.141C332.778 520.373 329.103 526.789 324.493 529.467C319.884 532.083 316.209 529.965 316.147 524.733C316.147 519.501 319.822 513.085 324.431 510.407ZM318.14 528.159C318.763 529.031 319.635 529.467 320.756 529.467C321.69 529.467 322.812 529.156 323.933 528.471C328.231 525.979 331.657 519.999 331.657 515.078C331.657 512.462 330.66 510.781 328.978 510.407C328.729 510.345 328.418 510.282 328.168 510.282C327.234 510.282 326.113 510.656 324.992 511.279C320.694 513.77 317.268 519.75 317.268 524.671C317.268 526.166 317.579 527.287 318.14 528.097V528.159Z" fill="#CACACA"/>
<path d="M464.519 488.045V502.558C464.519 505.859 462.338 509.099 458.041 511.59V497.077C462.338 494.585 464.456 491.284 464.519 488.045Z" fill="#32272D"/>
<mask id="mask10_210_3929" style="mask-type:luminance" maskUnits="userSpaceOnUse" x="458" y="488" width="7" height="24">
<path d="M464.519 488.045V502.558C464.519 505.859 462.338 509.099 458.041 511.59V497.077C462.338 494.585 464.456 491.284 464.519 488.045Z" fill="white"/>
</mask>
<g mask="url(#mask10_210_3929)">
<path d="M464.519 488.045V502.558C464.519 504.178 463.958 505.797 462.961 507.292V492.779C464.02 491.284 464.519 489.664 464.519 488.045Z" fill="#32272D"/>
<path d="M462.961 492.779V507.292C461.903 508.849 460.221 510.344 458.103 511.59V497.077C460.283 495.831 461.903 494.336 462.961 492.779Z" fill="#32272D"/>
</g>
<path d="M307.488 514.518V509.037C307.488 512.338 309.669 515.702 314.029 518.193V523.675C309.669 521.183 307.488 517.819 307.488 514.518Z" fill="#32272D"/>
<mask id="mask11_210_3929" style="mask-type:luminance" maskUnits="userSpaceOnUse" x="307" y="509" width="8" height="15">
<path d="M307.488 514.518V509.037C307.488 512.338 309.669 515.702 314.029 518.193V523.675C309.669 521.183 307.488 517.819 307.488 514.518Z" fill="white"/>
</mask>
<g mask="url(#mask11_210_3929)">
<path d="M314.091 518.193V523.675C309.731 521.183 307.551 517.819 307.551 514.518V509.037C307.551 512.338 309.731 515.702 314.091 518.193Z" fill="#32272D"/>
</g>
<path d="M458.103 497.077L458.04 511.653L383.792 545.787V540.306L458.103 497.077Z" fill="#32272D"/>
<path d="M352.336 540.305V545.787L314.029 523.674L314.091 518.193L352.336 540.305Z" fill="#32272D"/>
<path d="M383.792 540.305V545.787C375.134 550.77 360.995 550.77 352.336 545.787V540.305C361.057 545.288 375.196 545.288 383.792 540.305Z" fill="#32272D"/>
<mask id="mask12_210_3929" style="mask-type:luminance" maskUnits="userSpaceOnUse" x="352" y="540" width="32" height="10">
<path d="M383.792 540.305V545.787C375.134 550.77 360.995 550.77 352.336 545.787V540.305C361.057 545.288 375.196 545.288 383.792 540.305Z" fill="white"/>
</mask>
<g mask="url(#mask12_210_3929)">
<path d="M383.792 540.305V545.787C380.678 547.593 376.816 548.776 372.829 549.275V543.793C376.878 543.295 380.74 542.112 383.792 540.305Z" fill="#32272D"/>
<path d="M372.829 543.731V549.212C369.839 549.586 366.725 549.586 363.673 549.212V543.731C366.725 544.105 369.777 544.042 372.829 543.731Z" fill="#32272D"/>
<path d="M363.673 543.793V549.275C359.5 548.776 355.513 547.655 352.274 545.787V540.305C355.513 542.174 359.5 543.357 363.673 543.793Z" fill="#32272D"/>
</g>
<path d="M457.978 478.889C466.636 483.872 466.699 492.094 458.103 497.077L383.792 540.243C375.196 545.226 360.995 545.226 352.336 540.243L314.091 518.131C305.433 513.147 305.371 504.925 313.966 499.88L388.277 456.714C396.873 451.731 411.075 451.731 419.733 456.714L457.978 478.826V478.889Z" fill="#665861"/>
<path d="M421.539 502.31V507.542C421.539 515.266 416.432 523.052 406.216 528.969C385.723 540.866 352.399 540.866 331.781 528.969C321.379 522.989 316.209 515.141 316.271 507.23V501.998C316.271 509.846 321.441 517.695 331.843 523.737C352.461 535.634 385.785 535.634 406.279 523.737C416.432 517.819 421.539 510.096 421.602 502.31H421.539Z" fill="#4B3D46"/>
<mask id="mask13_210_3929" style="mask-type:luminance" maskUnits="userSpaceOnUse" x="316" y="501" width="106" height="37">
<path d="M421.539 502.31V507.542C421.539 515.266 416.432 523.052 406.216 528.969C385.723 540.866 352.399 540.866 331.781 528.969C321.379 522.989 316.209 515.141 316.271 507.23V501.998C316.271 509.846 321.441 517.695 331.843 523.737C352.461 535.634 385.785 535.634 406.279 523.737C416.432 517.819 421.539 510.096 421.602 502.31H421.539Z" fill="white"/>
</mask>
<g mask="url(#mask13_210_3929)">
<path d="M421.539 502.309V507.541C421.539 515.265 416.432 523.051 406.216 528.969C404.348 530.09 402.292 531.086 400.237 531.958V526.726C402.354 525.854 404.348 524.858 406.216 523.736C416.369 517.819 421.477 510.095 421.539 502.309Z" fill="#4B3D46"/>
<path d="M400.236 526.664V531.896C393.696 534.699 386.284 536.506 378.56 537.315V532.083C386.284 531.273 393.696 529.467 400.236 526.664Z" fill="#4B3D46"/>
<path d="M378.622 532.146V537.378C364.483 538.873 349.533 537.004 337.511 531.834V526.602C349.533 531.834 364.483 533.641 378.622 532.146Z" fill="#4B3D46"/>
<path d="M337.511 526.54V531.772C335.518 530.9 333.587 529.965 331.781 528.906C327.794 526.602 324.555 523.986 322.064 521.245V516.013C324.555 518.753 327.794 521.37 331.781 523.674C333.587 524.733 335.518 525.667 337.511 526.54Z" fill="#4B3D46"/>
<path d="M322.126 516.013V521.245C318.202 516.823 316.271 512.026 316.271 507.168V501.936C316.271 506.732 318.202 511.59 322.126 516.013Z" fill="#4B3D46"/>
</g>
<path d="M405.967 480.571C426.585 492.468 426.709 511.777 406.216 523.675C385.723 535.572 352.399 535.572 331.781 523.675C311.163 511.777 311.039 492.468 331.532 480.571C352.025 468.674 385.349 468.674 405.967 480.571Z" fill="#786C74"/>
<path d="M419.172 405.326L418.923 501.5C418.923 508.912 414.065 516.262 404.348 521.93C384.851 533.267 353.084 533.267 333.401 521.93C323.497 516.2 318.576 508.725 318.576 501.25L318.825 405.077C318.825 412.551 323.746 420.026 333.65 425.757C353.333 437.093 385.038 437.093 404.597 425.757C414.314 420.151 419.172 412.738 419.172 405.326Z" fill="#D9D9D9"/>
<mask id="mask14_210_3929" style="mask-type:luminance" maskUnits="userSpaceOnUse" x="318" y="405" width="102" height="126">
<path d="M419.172 405.326L418.923 501.5C418.923 508.912 414.065 516.262 404.348 521.93C384.851 533.267 353.084 533.267 333.401 521.93C323.497 516.2 318.576 508.725 318.576 501.25L318.825 405.077C318.825 412.551 323.746 420.026 333.65 425.757C353.333 437.093 385.038 437.093 404.597 425.757C414.314 420.151 419.172 412.738 419.172 405.326Z" fill="white"/>
</mask>
<g mask="url(#mask14_210_3929)">
<path d="M419.172 405.326L418.923 501.5C418.923 508.912 414.065 516.262 404.348 521.93C402.541 522.989 400.61 523.923 398.617 524.795L398.866 428.622C400.859 427.75 402.79 426.815 404.597 425.756C414.314 420.15 419.172 412.738 419.172 405.326Z" fill="#CACACA"/>
<path d="M398.866 428.56L398.617 524.733C392.388 527.412 385.287 529.156 377.999 529.903L378.249 433.73C385.536 432.982 392.637 431.238 398.866 428.56Z" fill="#CACACA"/>
<path d="M378.249 433.792L377.999 529.965C364.545 531.398 350.281 529.654 338.882 524.671L339.131 428.497C350.592 433.48 364.856 435.224 378.249 433.792Z" fill="#D9D9D9"/>
<path d="M359.687 433.729C352.399 432.92 345.36 431.175 339.131 428.497L338.882 524.671C345.173 527.412 352.336 529.156 359.749 529.965V433.792L359.687 433.729Z" fill="#F2F2F2"/>
<path d="M339.131 428.435L338.882 524.609C336.951 523.799 335.145 522.865 333.401 521.868C329.601 519.688 326.487 517.196 324.182 514.58L324.431 418.406C326.798 421.022 329.85 423.514 333.65 425.694C335.394 426.691 337.2 427.625 339.131 428.435Z" fill="#D9D9D9"/>
<path d="M324.431 418.406L324.182 514.58C320.445 510.407 318.576 505.797 318.576 501.188L318.825 405.014C318.825 409.624 320.694 414.233 324.431 418.406Z" fill="#CACACA"/>
</g>
<path d="M404.348 384.646C424.031 395.983 424.093 414.358 404.597 425.757C385.1 437.093 353.333 437.093 333.65 425.757C314.029 414.42 313.904 396.045 333.401 384.646C352.897 373.309 384.664 373.309 404.348 384.646Z" fill="#D9D9D9"/>
<path d="M424.093 393.553V407.319C424.031 415.479 418.674 423.576 408.023 429.743C386.533 442.263 351.589 442.263 329.912 429.743C319.012 423.452 313.593 415.229 313.593 406.945V393.179C313.593 401.401 319.074 409.686 329.912 415.977C351.527 428.497 386.533 428.435 408.023 415.977C418.674 409.748 424.031 401.65 424.093 393.491V393.553Z" fill="#32272D"/>
<mask id="mask15_210_3929" style="mask-type:luminance" maskUnits="userSpaceOnUse" x="313" y="393" width="112" height="47">
<path d="M424.093 393.553V407.319C424.031 415.479 418.674 423.576 408.023 429.743C386.533 442.263 351.589 442.263 329.912 429.743C319.012 423.452 313.593 415.229 313.593 406.945V393.179C313.593 401.401 319.074 409.686 329.912 415.977C351.527 428.497 386.533 428.435 408.023 415.977C418.674 409.748 424.031 401.65 424.093 393.491V393.553Z" fill="white"/>
</mask>
<g mask="url(#mask15_210_3929)">
<path d="M424.093 393.553V407.319C424.031 415.479 418.674 423.576 408.022 429.743C406.029 430.926 403.911 431.923 401.731 432.857V419.091C403.974 418.157 406.092 417.098 408.085 415.977C418.736 409.748 424.093 401.651 424.155 393.491L424.093 393.553Z" fill="#32272D"/>
<path d="M401.794 419.154V432.92C394.88 435.847 387.094 437.778 379.058 438.588V424.822C387.156 423.95 394.942 422.081 401.794 419.154Z" fill="#32272D"/>
<path d="M379.058 424.884V438.65C364.234 440.207 348.537 438.277 335.954 432.795V419.029C348.599 424.511 364.296 426.442 379.058 424.884Z" fill="#4B3D46"/>
<path d="M336.017 419.029V432.795C333.899 431.86 331.906 430.864 329.975 429.805C325.801 427.376 322.376 424.697 319.822 421.77V408.004C322.438 410.869 325.801 413.61 330.037 416.039C331.968 417.16 333.961 418.157 336.017 419.029Z" fill="#32272D"/>
<path d="M319.822 408.004V421.77C315.648 417.161 313.655 412.115 313.655 407.008V393.242C313.655 398.287 315.711 403.395 319.822 408.004Z" fill="#32272D"/>
</g>
<path d="M407.836 370.818C429.45 383.338 429.574 403.582 408.085 416.039C386.595 428.559 351.651 428.559 329.975 416.039C308.298 403.519 308.236 383.276 329.725 370.818C351.215 358.298 386.159 358.298 407.836 370.818Z" fill="#665861"/>
<path d="M418.176 382.466V393.429C418.176 400.654 413.38 407.942 403.849 413.486C384.664 424.635 353.52 424.635 334.21 413.486C324.493 407.88 319.635 400.53 319.697 393.18V382.217C319.697 389.567 324.556 396.917 334.273 402.523C353.582 413.673 384.727 413.673 403.912 402.523C413.442 396.979 418.176 389.754 418.238 382.466H418.176Z" fill="#FF8C00"/>
<mask id="mask16_210_3929" style="mask-type:luminance" maskUnits="userSpaceOnUse" x="319" y="382" width="100" height="40">
<path d="M418.176 382.466V393.429C418.176 400.654 413.38 407.942 403.849 413.486C384.664 424.635 353.52 424.635 334.21 413.486C324.493 407.88 319.635 400.53 319.697 393.18V382.217C319.697 389.567 324.556 396.917 334.273 402.523C353.582 413.673 384.727 413.673 403.912 402.523C413.442 396.979 418.176 389.754 418.238 382.466H418.176Z" fill="white"/>
</mask>
<g mask="url(#mask16_210_3929)">
<path d="M418.176 382.466V393.429C418.176 400.654 413.38 407.942 403.849 413.486C402.105 414.545 400.174 415.479 398.243 416.289V405.326C400.237 404.516 402.105 403.582 403.912 402.523C413.442 396.979 418.176 389.754 418.238 382.466H418.176Z" fill="#FF8C00"/>
<path d="M398.243 405.326V416.288C392.077 418.905 385.163 420.586 377.937 421.396V410.433C385.163 409.686 392.077 408.004 398.243 405.326Z" fill="#FF8C00"/>
<path d="M378 410.371V421.334C364.794 422.705 350.779 421.023 339.505 416.102V405.139C350.779 409.998 364.794 411.742 378 410.371Z" fill="#FFAB00"/>
<path d="M339.567 405.201V416.164C337.699 415.355 335.892 414.483 334.148 413.486C330.411 411.306 327.359 408.877 325.116 406.323V395.36C327.421 397.914 330.473 400.343 334.211 402.523C335.892 403.52 337.699 404.392 339.567 405.201Z" fill="#FF8C00"/>
<path d="M325.116 395.36V406.323C321.441 402.211 319.573 397.664 319.635 393.18V382.217C319.635 386.702 321.503 391.249 325.116 395.36Z" fill="#FF8C00"/>
</g>
<path d="M403.6 362.16C422.91 373.309 422.972 391.373 403.849 402.523C384.664 413.672 353.52 413.672 334.21 402.523C314.901 391.373 314.839 373.309 333.961 362.16C353.146 351.01 384.291 351.01 403.6 362.16Z" fill="#FFC040"/>
<path d="M403.538 351.135V362.16L334.086 402.461L334.148 391.498L403.538 351.135Z" fill="#FF8C00"/>
<path d="M319.573 382.155V371.192C319.573 378.542 324.431 385.892 334.148 391.498V402.461C324.431 396.855 319.573 389.505 319.573 382.155Z" fill="#FF8C00"/>
<mask id="mask17_210_3929" style="mask-type:luminance" maskUnits="userSpaceOnUse" x="319" y="371" width="16" height="32">
<path d="M319.573 382.155V371.192C319.573 378.542 324.431 385.892 334.148 391.498V402.461C324.431 396.855 319.573 389.505 319.573 382.155Z" fill="white"/>
</mask>
<g mask="url(#mask17_210_3929)">
<path d="M334.148 391.498V402.461C324.431 396.855 319.573 389.505 319.573 382.155V371.192C319.573 378.542 324.431 385.892 334.148 391.498Z" fill="#FF9D00"/>
</g>
<path d="M403.538 351.135L334.148 391.498C314.839 380.348 314.776 362.284 333.899 351.135C353.084 339.985 384.228 339.985 403.538 351.135Z" fill="#FFC040"/>
<path d="M323.061 440.394L327.795 437.653C329.663 436.594 332.279 436.719 335.145 438.401L330.411 441.142C327.546 439.46 324.929 439.335 323.061 440.394Z" fill="#4B3D46"/>
<mask id="mask18_210_3929" style="mask-type:luminance" maskUnits="userSpaceOnUse" x="323" y="436" width="13" height="6">
<path d="M323.061 440.394L327.795 437.653C329.663 436.594 332.279 436.719 335.145 438.401L330.411 441.142C327.546 439.46 324.929 439.335 323.061 440.394Z" fill="white"/>
</mask>
<g mask="url(#mask18_210_3929)">
<path d="M323.061 440.394L327.795 437.653C329.663 436.594 332.279 436.719 335.145 438.401L330.411 441.142C327.546 439.46 324.929 439.335 323.061 440.394Z" fill="#4B3D46"/>
</g>
<path d="M342.37 462.756L337.636 465.496C339.505 464.438 340.626 462.133 340.626 458.894C340.626 452.354 336.079 444.443 330.349 441.142L335.082 438.401C340.751 441.702 345.36 449.613 345.36 456.153C345.36 459.392 344.177 461.697 342.37 462.756Z" fill="#4B3D46"/>
<mask id="mask19_210_3929" style="mask-type:luminance" maskUnits="userSpaceOnUse" x="330" y="438" width="16" height="28">
<path d="M342.37 462.756L337.636 465.496C339.505 464.438 340.626 462.133 340.626 458.894C340.626 452.354 336.079 444.443 330.349 441.142L335.082 438.401C340.751 441.702 345.36 449.613 345.36 456.153C345.36 459.392 344.177 461.697 342.37 462.756Z" fill="white"/>
</mask>
<g mask="url(#mask19_210_3929)">
<path d="M330.411 441.142L335.145 438.401C336.266 439.024 337.325 439.896 338.384 440.83L333.65 443.571C332.653 442.574 331.532 441.764 330.411 441.142Z" fill="#4B3D46"/>
<path d="M333.588 443.571L338.321 440.83C341.498 443.882 343.99 448.305 344.924 452.603L340.19 455.343C339.256 451.045 336.764 446.623 333.588 443.571Z" fill="#4B3D46"/>
<path d="M340.253 455.343L344.987 452.603C345.236 453.786 345.423 455.032 345.36 456.153C345.36 459.392 344.177 461.697 342.37 462.756L337.636 465.496C339.505 464.437 340.626 462.133 340.626 458.894C340.626 457.772 340.502 456.527 340.253 455.343Z" fill="#4B3D46"/>
</g>
<path d="M330.411 441.141C336.079 444.443 340.688 452.353 340.688 458.894C340.688 465.434 336.079 468.05 330.349 464.749C324.68 461.447 320.071 453.537 320.071 446.996C320.071 440.456 324.68 437.84 330.411 441.141Z" fill="#32272D"/>
<path d="M330.348 446.685C333.338 448.429 335.768 452.603 335.768 456.091C335.768 459.517 333.338 460.949 330.286 459.205C327.296 457.461 324.867 453.288 324.867 449.8C324.867 446.374 327.296 444.941 330.348 446.685Z" fill="#261D22"/>
<path d="M464.83 484.37L458.975 480.695C455.736 478.826 451.313 479.075 446.393 481.941L452.248 485.616C457.169 482.813 461.591 482.501 464.83 484.37Z" fill="#D9D9D9"/>
<mask id="mask20_210_3929" style="mask-type:luminance" maskUnits="userSpaceOnUse" x="446" y="479" width="19" height="7">
<path d="M464.83 484.37L458.975 480.695C455.736 478.826 451.313 479.075 446.393 481.941L452.248 485.616C457.169 482.813 461.591 482.501 464.83 484.37Z" fill="white"/>
</mask>
<g mask="url(#mask20_210_3929)">
<path d="M464.83 484.37L458.975 480.695C457.418 479.823 455.611 479.387 453.556 479.512L459.411 483.187C461.466 483.062 463.273 483.436 464.83 484.37Z" fill="#D9D9D9"/>
<path d="M459.411 483.187L453.556 479.512C452.372 479.574 451.126 479.885 449.818 480.321L455.674 483.997C456.982 483.56 458.227 483.249 459.411 483.187Z" fill="#D9D9D9"/>
<path d="M455.736 483.996L449.881 480.321C448.759 480.695 447.638 481.256 446.455 481.941L452.31 485.616C453.493 484.931 454.615 484.432 455.736 483.996Z" fill="#D9D9D9"/>
</g>
<path d="M433.997 523.674L439.852 527.349C436.676 525.481 434.745 521.619 434.682 516.013C434.682 504.801 442.531 491.159 452.248 485.553L446.393 481.878C436.676 487.484 428.765 501.126 428.827 512.338C428.827 517.881 430.82 521.806 433.997 523.674Z" fill="#D9D9D9"/>
<mask id="mask21_210_3929" style="mask-type:luminance" maskUnits="userSpaceOnUse" x="428" y="481" width="25" height="47">
<path d="M433.997 523.674L439.852 527.349C436.676 525.481 434.745 521.619 434.682 516.013C434.682 504.801 442.531 491.159 452.248 485.553L446.393 481.878C436.676 487.484 428.765 501.126 428.827 512.338C428.827 517.881 430.82 521.806 433.997 523.674Z" fill="white"/>
</mask>
<g mask="url(#mask21_210_3929)">
<path d="M452.31 485.553L446.455 481.878C446.455 481.878 446.331 481.941 446.268 482.003L452.123 485.678C452.123 485.678 452.248 485.616 452.31 485.553Z" fill="#D9D9D9"/>
<path d="M452.123 485.678L446.268 482.003C444.898 482.813 443.59 483.747 442.344 484.806L448.199 488.481C449.445 487.422 450.753 486.488 452.123 485.678Z" fill="#D9D9D9"/>
<path d="M448.199 488.481L442.344 484.806C436.987 489.353 432.627 496.143 430.385 503.119L436.24 506.794C438.42 499.88 442.842 493.028 448.199 488.481Z" fill="#F2F2F2"/>
<path d="M436.24 506.794L430.385 503.119C429.824 504.8 429.45 506.482 429.201 508.102L435.056 511.777C435.305 510.157 435.741 508.475 436.24 506.794Z" fill="#D9D9D9"/>
<path d="M435.056 511.777L429.201 508.102C428.952 509.535 428.827 510.967 428.827 512.4L434.682 516.137C434.682 514.767 434.807 513.334 435.056 511.839V511.777Z" fill="#D9D9D9"/>
<path d="M434.682 516.137L428.827 512.462C428.827 514.02 429.014 515.452 429.263 516.698L435.118 520.373C434.807 519.065 434.682 517.695 434.682 516.137Z" fill="#D9D9D9"/>
<path d="M435.181 520.373L429.326 516.698C430.073 519.999 431.755 522.428 433.997 523.736L439.853 527.411C437.548 526.103 435.928 523.674 435.181 520.373Z" fill="#D9D9D9"/>
</g>
<path d="M452.31 485.553C442.531 491.159 434.682 504.801 434.745 516.013C434.745 527.224 442.717 531.709 452.435 526.103C462.152 520.497 470 506.856 470 495.706C470 484.494 462.027 480.01 452.31 485.616V485.553Z" fill="#10191B"/>
<path d="M437.049 516.075C437.049 519.189 437.734 521.681 438.98 523.425C440.226 525.231 442.157 526.228 444.524 526.228C446.579 526.228 448.884 525.481 451.251 524.11C460.345 518.878 467.695 506.109 467.695 495.644C467.695 490.101 465.577 486.55 462.027 485.678C461.466 485.554 460.906 485.491 460.283 485.491C458.227 485.491 455.923 486.239 453.556 487.609C444.462 492.841 437.112 505.61 437.112 516.075H437.049Z" fill="#F2F2F2"/>
<path d="M437.049 516.075C437.049 519.189 437.734 521.681 438.98 523.425C439.541 523.55 440.101 523.612 440.724 523.612C442.78 523.612 445.085 522.864 447.452 521.494C456.546 516.262 463.896 503.493 463.896 493.028C463.896 489.914 463.211 487.422 461.965 485.678C461.404 485.554 460.844 485.491 460.221 485.491C458.165 485.491 455.86 486.239 453.494 487.609C444.399 492.841 437.049 505.61 437.049 516.075Z" fill="#32272D"/>
<path d="M454.864 490.287L457.106 491.533C455.238 490.412 452.684 490.599 449.818 492.218L447.576 490.973C450.441 489.353 452.995 489.229 454.864 490.287Z" fill="#4B3D46"/>
<mask id="mask22_210_3929" style="mask-type:luminance" maskUnits="userSpaceOnUse" x="447" y="489" width="11" height="4">
<path d="M454.864 490.287L457.106 491.533C455.238 490.412 452.684 490.599 449.818 492.218L447.576 490.973C450.441 489.353 452.995 489.229 454.864 490.287Z" fill="white"/>
</mask>
<g mask="url(#mask22_210_3929)">
<path d="M449.818 492.156L447.576 490.91C448.635 490.287 449.694 489.914 450.69 489.665L452.933 490.91C451.936 491.097 450.877 491.533 449.818 492.156Z" fill="#4B3D46"/>
<path d="M452.933 490.972L450.691 489.727C452.185 489.415 453.556 489.602 454.677 490.163L456.919 491.408C455.798 490.786 454.428 490.661 452.933 490.972Z" fill="#4B3D46"/>
<path d="M456.919 491.408L454.677 490.163C454.677 490.163 454.802 490.225 454.864 490.287L457.106 491.533C457.106 491.533 456.982 491.471 456.919 491.408Z" fill="#4B3D46"/>
</g>
<path d="M442.406 516.324L440.164 515.078C438.357 514.019 437.236 511.715 437.236 508.476C437.236 501.998 441.908 494.149 447.576 490.91L449.818 492.156C444.15 495.395 439.541 503.243 439.478 509.721C439.478 512.96 440.6 515.203 442.406 516.324Z" fill="#4B3D46"/>
<mask id="mask23_210_3929" style="mask-type:luminance" maskUnits="userSpaceOnUse" x="437" y="490" width="13" height="27">
<path d="M442.406 516.324L440.164 515.078C438.357 514.019 437.236 511.715 437.236 508.476C437.236 501.998 441.908 494.149 447.576 490.91L449.818 492.156C444.15 495.395 439.541 503.243 439.478 509.721C439.478 512.96 440.6 515.203 442.406 516.324Z" fill="white"/>
</mask>
<g mask="url(#mask23_210_3929)">
<path d="M442.406 516.324L440.164 515.078C438.357 514.019 437.236 511.715 437.236 508.476C437.236 505.984 437.921 503.306 439.105 500.752L441.347 501.998C440.164 504.552 439.478 507.23 439.478 509.722C439.478 512.961 440.6 515.203 442.406 516.324Z" fill="#4B3D46"/>
<path d="M441.347 501.998L439.105 500.752C440.039 498.759 441.222 496.89 442.593 495.208L444.835 496.454C443.465 498.136 442.281 500.004 441.347 501.998Z" fill="#4B3D46"/>
<path d="M444.835 496.454L442.593 495.208C444.088 493.464 445.77 491.969 447.576 490.91L449.818 492.156C448.012 493.153 446.33 494.647 444.835 496.454Z" fill="#4B3D46"/>
</g>
<path d="M449.818 492.156C455.487 488.917 460.034 491.595 460.034 498.073C460.034 504.551 455.362 512.4 449.694 515.639C444.025 518.878 439.478 516.199 439.478 509.721C439.478 503.243 444.15 495.395 449.818 492.156Z" fill="#665861"/>
<path d="M452.31 485.554C462.027 479.948 470 484.495 470 495.707C470 506.919 462.152 520.56 452.435 526.166C442.655 531.772 434.745 527.287 434.745 516.075C434.745 504.863 442.593 491.222 452.31 485.616V485.554ZM438.98 523.363C440.226 525.169 442.157 526.166 444.524 526.166C446.579 526.166 448.884 525.418 451.251 524.048C460.345 518.816 467.695 506.047 467.695 495.582C467.695 490.038 465.577 486.488 462.027 485.616C461.466 485.491 460.906 485.429 460.283 485.429C458.227 485.429 455.923 486.176 453.556 487.547C444.462 492.779 437.112 505.548 437.112 516.013C437.112 519.127 437.797 521.619 439.042 523.363H438.98Z" fill="#CACACA"/>
<path d="M259.9 548.216C254.792 548.216 249.622 547.406 244.514 545.725C236.604 543.108 229.503 538.499 223.959 532.457C218.042 526.041 214.055 518.006 212.436 509.348C209.446 493.527 215.052 475.401 220.346 463.005C226.388 448.741 235.296 433.854 244.826 422.268C246.134 420.649 247.753 418.842 249.435 416.974C262.018 402.834 283.071 379.102 276.842 337.867C273.666 316.689 263.824 304.356 249.186 303.172C240.528 302.487 230.562 305.788 221.779 312.391C212.622 319.305 206.394 326.344 202.968 336.87C202.096 339.549 199.23 340.981 196.614 340.109C193.936 339.237 192.503 336.372 193.375 333.756C201.722 308.093 226.7 291.213 249.996 293.144C259.152 293.891 267.312 297.94 273.541 304.854C280.268 312.329 284.753 322.918 286.746 336.434C293.723 382.403 269.804 409.312 256.91 423.763C255.228 425.694 253.733 427.314 252.55 428.746C234.735 450.485 218.104 485.491 222.277 507.542C224.893 521.12 234.361 531.834 247.629 536.257C260.834 540.617 274.787 537.689 285.002 528.346C294.968 519.19 299.391 505.673 304 491.346C308.796 476.522 313.78 461.136 325.614 450.174C327.67 448.305 330.847 448.367 332.778 450.423C334.646 452.478 334.584 455.655 332.528 457.586C322.625 466.742 318.264 480.197 313.655 494.461C308.796 509.348 303.813 524.796 291.854 535.758C282.884 543.98 271.548 548.341 259.837 548.341L259.9 548.216Z" fill="#261D22"/>
<path d="M404.597 507.541C402.79 508.6 400.859 509.535 398.866 510.407C393.759 512.587 388.028 514.144 382.111 515.078V521.619C387.966 520.684 393.572 519.189 398.617 517.009C400.61 516.137 402.541 515.203 404.348 514.144C409.331 511.216 413.068 507.853 415.497 504.302V498.136C413.068 501.562 409.455 504.801 404.659 507.604L404.597 507.541Z" fill="#FFAB00"/>
<path d="M404.285 456.963L403.226 456.34C402.853 456.091 402.604 455.655 402.604 454.908L403.663 455.531C403.663 456.216 403.912 456.714 404.285 456.963Z" fill="#665861"/>
<mask id="mask24_210_3929" style="mask-type:luminance" maskUnits="userSpaceOnUse" x="402" y="454" width="3" height="3">
<path d="M404.285 456.963L403.226 456.34C402.853 456.091 402.604 455.655 402.604 454.908L403.663 455.531C403.663 456.216 403.912 456.714 404.285 456.963Z" fill="white"/>
</mask>
<g mask="url(#mask24_210_3929)">
<path d="M404.285 456.963L403.226 456.34C402.853 456.091 402.604 455.655 402.604 454.908L403.663 455.531C403.663 456.216 403.912 456.714 404.285 456.963Z" fill="#665861"/>
</g>
<path d="M412.009 434.913L413.068 435.536C412.694 435.287 412.134 435.349 411.511 435.66L410.452 435.037C411.075 434.664 411.635 434.664 412.009 434.913Z" fill="#665861"/>
<mask id="mask25_210_3929" style="mask-type:luminance" maskUnits="userSpaceOnUse" x="410" y="434" width="4" height="2">
<path d="M412.009 434.913L413.068 435.536C412.694 435.287 412.134 435.349 411.511 435.66L410.452 435.037C411.075 434.664 411.635 434.664 412.009 434.913Z" fill="white"/>
</mask>
<g mask="url(#mask25_210_3929)">
<path d="M411.511 435.723L410.452 435.1C411.075 434.726 411.635 434.726 412.009 434.975L413.068 435.598C412.694 435.349 412.134 435.411 411.511 435.723Z" fill="#665861"/>
</g>
<path d="M403.662 455.53L402.54 454.907V442.138L403.6 442.761L403.662 455.53Z" fill="#665861"/>
<path d="M405.78 439.024L404.721 438.401L410.452 435.038L411.511 435.723L405.78 439.024Z" fill="#665861"/>
<path d="M403.6 442.761L402.541 442.138C402.541 440.768 403.538 439.086 404.721 438.339L405.78 438.962C404.597 439.647 403.6 441.329 403.6 442.761Z" fill="#665861"/>
<mask id="mask26_210_3929" style="mask-type:luminance" maskUnits="userSpaceOnUse" x="402" y="438" width="4" height="5">
<path d="M403.6 442.761L402.541 442.138C402.541 440.768 403.538 439.086 404.721 438.339L405.78 438.962C404.597 439.647 403.6 441.329 403.6 442.761Z" fill="white"/>
</mask>
<g mask="url(#mask26_210_3929)">
<path d="M403.6 442.761L402.541 442.138C402.541 440.768 403.538 439.086 404.721 438.339L405.78 438.962C404.597 439.647 403.6 441.329 403.6 442.761Z" fill="#665861"/>
</g>
<path d="M411.511 435.723C412.694 435.037 413.691 435.598 413.691 436.968V449.738C413.691 451.108 412.757 452.852 411.573 453.537L405.843 456.838C404.659 457.524 403.662 456.963 403.662 455.593V442.824C403.662 441.453 404.597 439.771 405.78 439.024L411.511 435.723Z" fill="#4B3D46"/>
<mask id="mask27_210_3929" style="mask-type:luminance" maskUnits="userSpaceOnUse" x="323" y="346" width="73" height="41">
<path d="M334.646 386.639C327.732 382.154 323.933 376.611 323.933 370.88C323.933 364.713 328.355 358.796 336.328 354.124C345.049 349.079 356.697 346.276 369.154 346.276C378.871 346.276 388.09 347.958 395.814 351.072L334.646 386.639Z" fill="white"/>
</mask>
<g mask="url(#mask27_210_3929)">
<path d="M400.984 390.688C381.861 401.713 350.592 401.713 331.408 390.626C312.16 379.538 312.098 361.475 331.221 350.45C350.343 339.424 381.612 339.424 400.797 350.512C420.044 361.599 420.107 379.663 400.984 390.688Z" fill="#32272D"/>
<path d="M366.663 370.382L365.666 370.568C340.813 356.242 332.093 335.188 347.291 326.406L348.288 326.593C333.214 335.313 341.996 356.18 366.601 370.382H366.663Z" fill="#D9D9D9"/>
<path d="M365.791 370.631C335.394 360.478 317.455 341.418 328.231 330.642L329.352 330.766C318.7 341.418 336.515 360.291 366.663 370.382L365.853 370.631H365.791Z" fill="#D9D9D9"/>
<path d="M365.916 370.631C331.968 365.336 306.118 349.577 311.662 337.493H312.783C307.302 349.453 332.84 365.025 366.414 370.257L365.916 370.631Z" fill="#D9D9D9"/>
<path d="M366.165 370.693C349.097 370.693 331.843 367.953 318.825 363.219C306.118 358.609 298.83 352.567 298.768 346.774H299.952C299.952 352.505 307.177 358.422 319.697 362.97C332.466 367.641 349.409 370.32 366.165 370.32V370.693Z" fill="#D9D9D9"/>
<path d="M366.414 370.631C349.97 373.185 332.093 373.122 317.393 370.444C302.942 367.828 293.162 363.094 290.484 357.488H291.605C294.221 362.969 303.751 367.579 317.891 370.132C332.28 372.686 349.72 372.749 365.853 370.319L366.352 370.693L366.414 370.631Z" fill="#D9D9D9"/>
<path d="M349.035 375.178C336.826 377.483 324.182 378.355 313.094 377.483C300.886 376.486 291.792 373.559 287.431 369.261L288.553 369.136C292.788 373.372 301.633 376.175 313.406 377.109C329.663 378.417 349.284 375.926 365.853 370.382L366.663 370.631C361.057 372.5 355.139 373.995 349.097 375.178H349.035Z" fill="#D9D9D9"/>
<path d="M331.221 383.4C324.493 384.708 317.766 385.393 311.413 385.393C302.069 385.393 294.532 383.836 289.549 380.971L290.546 380.784C295.342 383.525 302.505 385.02 311.413 385.02C329.227 385.02 350.032 379.414 365.666 370.382L366.663 370.569C356.323 376.548 343.741 381.033 331.221 383.4Z" fill="#D9D9D9"/>
<path d="M323.123 392.557C320.32 393.117 317.517 393.491 314.776 393.678C307.987 394.176 301.82 393.678 297.024 391.996L297.834 391.747C302.443 393.304 308.049 393.802 314.527 393.304C332.84 391.871 353.395 382.653 365.666 370.382L366.787 370.506C356.261 381.096 339.505 389.442 323.185 392.557H323.123Z" fill="#D9D9D9"/>
<path d="M324.493 401.152C324.493 401.152 323.995 401.277 323.746 401.277C318.576 402.211 313.717 402.274 309.232 401.589L309.731 401.215C313.842 401.838 318.389 401.775 323.247 400.903C341.436 397.664 358.877 385.144 365.666 370.382H366.787C360.06 385.082 342.744 397.602 324.493 401.09V401.152Z" fill="#D9D9D9"/>
<path d="M332.715 408.44C330.286 408.939 327.795 409.125 325.303 409.125V408.752C335.02 408.752 345.111 404.641 352.959 397.477C360.994 390.065 365.604 380.223 365.604 370.506H366.787C366.787 380.286 362.178 390.19 354.08 397.602C347.976 403.208 340.501 406.945 332.715 408.44Z" fill="#D9D9D9"/>
<path d="M345.547 413.735C345.111 413.797 344.675 413.859 344.301 413.984L343.803 413.61C353.271 412.178 361.182 406.634 365.542 398.474C370.027 390.127 370.027 379.912 365.604 370.506H366.725C375.695 389.629 365.604 409.873 345.485 413.735H345.547Z" fill="#D9D9D9"/>
<path d="M364.607 415.79L363.798 415.541C382.235 409.437 383.107 387.947 365.666 370.568L366.787 370.444C384.353 388.009 383.356 409.623 364.67 415.852L364.607 415.79Z" fill="#D9D9D9"/>
<path d="M385.038 414.545L384.042 414.358C399.115 405.637 390.333 384.771 365.666 370.569L366.663 370.382C391.516 384.708 400.237 405.762 385.038 414.545Z" fill="#D9D9D9"/>
<path d="M404.161 410.371L403.039 410.247C413.691 399.595 395.876 380.722 365.728 370.631L366.538 370.382C396.935 380.535 414.874 399.595 404.098 410.371H404.161Z" fill="#D9D9D9"/>
<path d="M420.667 403.395H419.546C425.028 391.435 399.489 375.863 365.916 370.631L366.414 370.257C400.361 375.552 426.211 391.311 420.667 403.395Z" fill="#D9D9D9"/>
<path d="M433.561 394.238H432.378C432.378 381.967 400.735 370.693 366.165 370.693V370.319C401.358 370.319 433.499 381.78 433.561 394.3V394.238Z" fill="#D9D9D9"/>
<path d="M441.845 383.462H440.724C438.108 377.981 428.578 373.371 414.438 370.818C400.05 368.264 382.609 368.201 366.414 370.631L365.915 370.257C382.36 367.703 400.237 367.765 414.937 370.444C429.388 373.06 439.167 377.794 441.845 383.4V383.462Z" fill="#D9D9D9"/>
<path d="M445.022 371.752L443.901 371.877C439.665 367.641 430.82 364.838 419.048 363.904C402.79 362.596 383.169 365.087 366.601 370.631L365.791 370.382C382.671 364.776 402.666 362.222 419.359 363.53C431.568 364.527 440.662 367.454 445.022 371.752Z" fill="#D9D9D9"/>
<path d="M441.783 360.167C436.987 357.426 429.824 355.931 420.916 355.931C403.102 355.931 382.297 361.537 366.663 370.569L365.666 370.382C381.55 361.225 402.728 355.557 420.916 355.557C430.26 355.557 437.797 357.114 442.78 359.98L441.783 360.167Z" fill="#D9D9D9"/>
<path d="M366.725 370.568L365.604 370.444C377.999 358.048 398.866 348.705 417.553 347.272C424.342 346.774 430.509 347.272 435.305 348.954L434.495 349.203C429.886 347.646 424.28 347.148 417.802 347.646C399.489 349.079 378.934 358.298 366.663 370.568H366.725Z" fill="#D9D9D9"/>
<path d="M366.725 370.506H365.604C372.456 355.557 390.146 342.912 408.646 339.611C413.816 338.677 418.674 338.614 423.159 339.3L422.661 339.673C418.55 339.05 414.002 339.113 409.144 339.985C390.956 343.224 373.515 355.744 366.725 370.506Z" fill="#D9D9D9"/>
<path d="M366.725 370.506H365.542C365.542 360.727 370.151 350.823 378.249 343.411C386.284 336.061 396.748 331.887 406.964 331.887V332.261C397.247 332.261 387.156 336.372 379.308 343.535C371.272 350.948 366.663 360.789 366.663 370.506H366.725Z" fill="#D9D9D9"/>
<path d="M366.725 370.444H365.604C356.448 350.948 367.224 330.206 388.09 327.029L388.589 327.403C379.121 328.835 371.21 334.379 366.85 342.539C362.365 350.885 362.365 361.101 366.788 370.506L366.725 370.444Z" fill="#D9D9D9"/>
<path d="M366.725 370.444L365.604 370.569C348.038 353.003 349.035 331.389 367.722 325.16L368.531 325.409C350.094 331.514 349.222 353.003 366.663 370.382L366.725 370.444Z" fill="#D9D9D9"/>
<path d="M414.127 398.1C440.351 382.964 440.226 358.298 413.94 343.099C401.171 335.687 384.104 331.638 365.978 331.638C347.852 331.638 330.785 335.625 318.078 342.975C291.854 358.111 291.979 382.777 318.265 397.976C331.034 405.388 348.101 409.437 366.227 409.437C373.702 409.437 380.989 408.752 387.841 407.444C397.683 405.575 406.652 402.398 414.127 398.038V398.1ZM365.916 332.012C383.668 332.012 400.361 336.061 412.881 343.286C438.98 358.36 439.105 382.84 413.068 397.851C400.548 405.077 383.917 409.063 366.165 409.001C348.412 409.001 331.719 404.952 319.199 397.727C293.1 382.653 292.975 358.173 319.012 343.162C326.424 338.926 335.207 335.749 344.862 333.943C351.527 332.635 358.628 332.012 365.916 332.012Z" fill="#D9D9D9"/>
<path d="M418.799 400.841C447.576 384.21 447.451 357.114 418.549 340.421C404.534 332.323 385.785 327.839 365.853 327.776C345.921 327.776 327.234 332.199 313.281 340.234C284.504 356.865 284.628 383.961 313.53 400.654C327.545 408.752 346.294 413.237 366.227 413.237C374.449 413.237 382.422 412.489 389.959 411.056C400.735 409.001 410.576 405.513 418.799 400.779V400.841ZM365.853 328.212C385.349 328.212 403.725 332.635 417.553 340.608C446.268 357.177 446.392 384.085 417.802 400.592C404.036 408.565 385.723 412.925 366.227 412.863C346.73 412.863 328.355 408.44 314.527 400.467C285.812 383.899 285.687 356.99 314.278 340.483C322.375 335.812 332.092 332.323 342.682 330.33C350.032 328.898 357.818 328.212 365.853 328.212Z" fill="#D9D9D9"/>
<path d="M408.957 395.11C432.315 381.656 432.253 359.668 408.77 346.089C397.371 339.487 382.173 335.874 365.978 335.812C349.783 335.812 334.584 339.362 323.248 345.965C299.889 359.419 299.952 381.407 323.435 394.986C334.833 401.588 350.032 405.201 366.227 405.264C372.892 405.264 379.37 404.641 385.536 403.519C394.319 401.838 402.292 399.035 408.957 395.173V395.11ZM365.915 336.248C381.675 336.248 396.562 339.86 407.711 346.276C431.007 359.73 431.07 381.531 407.898 394.924C396.748 401.339 381.924 404.89 366.165 404.89C350.406 404.89 335.519 401.277 324.369 394.861C301.073 381.407 301.011 359.606 324.182 346.214C330.785 342.414 338.633 339.611 347.229 337.992C353.209 336.87 359.5 336.248 365.978 336.248H365.915Z" fill="#D9D9D9"/>
<path d="M403.787 392.121C424.28 380.286 424.218 360.976 403.6 349.079C393.572 343.286 380.179 340.11 365.978 340.047C351.713 340.047 338.384 343.162 328.417 348.955C307.924 360.79 307.987 380.099 328.604 391.996C338.633 397.789 352.025 400.966 366.227 401.028C372.082 401.028 377.812 400.53 383.232 399.471C390.955 397.976 397.994 395.484 403.849 392.121H403.787ZM365.978 340.421C379.806 340.421 392.824 343.598 402.603 349.204C423.034 360.976 423.096 380.161 402.79 391.872C393.011 397.54 380.055 400.592 366.227 400.592C352.399 400.592 339.38 397.415 329.601 391.747C309.17 379.974 309.108 360.79 329.414 349.079C335.207 345.778 342.059 343.286 349.596 341.854C354.828 340.857 360.309 340.359 365.978 340.359V340.421Z" fill="#D9D9D9"/>
<path d="M398.617 389.131C416.307 378.915 416.245 362.284 398.492 352.069C389.834 347.086 378.311 344.345 366.04 344.283C353.769 344.283 342.246 347.023 333.65 351.944C315.96 362.16 316.022 378.791 333.774 389.006C342.433 393.989 353.956 396.73 366.227 396.792C371.272 396.792 376.255 396.356 380.865 395.422C387.53 394.176 393.572 391.996 398.617 389.068V389.131ZM365.978 344.656C377.875 344.656 389.025 347.335 397.434 352.256C414.999 362.409 415.061 378.853 397.558 388.944C389.149 393.802 377.999 396.418 366.165 396.418C354.267 396.418 343.118 393.74 334.709 388.819C317.143 378.666 317.081 362.222 334.584 352.131C339.567 349.266 345.485 347.148 351.9 345.902C356.385 345.03 361.119 344.594 365.978 344.594V344.656Z" fill="#D9D9D9"/>
<path d="M393.385 386.141C408.21 377.607 408.147 363.592 393.26 354.996C385.972 350.823 376.318 348.456 365.978 348.456C355.638 348.456 345.983 350.761 338.695 354.934C323.871 363.468 323.933 377.483 338.82 386.078C346.108 390.252 355.762 392.619 366.102 392.619C370.338 392.619 374.511 392.245 378.436 391.498C384.042 390.439 389.087 388.632 393.385 386.203V386.141ZM365.978 348.892C375.882 348.892 385.225 351.134 392.264 355.246C406.964 363.717 407.026 377.545 392.388 385.954C385.35 390.003 376.069 392.245 366.102 392.245C356.198 392.245 346.855 390.003 339.816 385.892C325.116 377.42 325.054 363.592 339.692 355.183C343.865 352.816 348.786 351.01 354.205 350.013C357.943 349.328 361.929 348.954 365.978 348.954V348.892Z" fill="#D9D9D9"/>
<path d="M388.215 383.151C400.174 376.237 400.174 364.963 388.09 357.986C382.235 354.561 374.324 352.692 365.978 352.692C357.569 352.692 349.72 354.561 343.865 357.924C331.906 364.838 331.906 376.112 343.99 383.089C349.845 386.515 357.756 388.383 366.102 388.383C369.591 388.383 372.954 388.072 376.131 387.449C380.678 386.577 384.789 385.144 388.215 383.151ZM365.978 353.066C373.951 353.066 381.425 354.872 387.094 358.173C398.929 365.025 398.991 376.112 387.218 382.964C381.55 386.203 374.075 388.01 366.102 388.01C358.129 388.01 350.655 386.203 344.986 382.902C333.152 376.05 333.089 364.963 344.862 358.111C348.225 356.18 352.212 354.747 356.51 353.938C359.5 353.377 362.676 353.066 365.915 353.066H365.978Z" fill="#D9D9D9"/>
<path d="M383.045 380.161C392.201 374.866 392.139 366.271 382.983 360.976C378.498 358.36 372.456 356.927 366.04 356.927C359.624 356.927 353.582 358.36 349.097 360.914C339.941 366.208 340.003 374.804 349.16 380.099C353.645 382.715 359.687 384.147 366.102 384.147C368.781 384.147 371.335 383.898 373.764 383.462C377.252 382.777 380.366 381.656 383.045 380.161ZM365.978 357.301C371.957 357.301 377.626 358.671 381.924 361.163C390.956 366.333 390.956 374.804 381.986 379.974C377.688 382.466 372.082 383.774 366.04 383.774C360.06 383.774 354.33 382.403 350.094 379.912C341.124 374.742 341.062 366.271 350.032 361.101C352.586 359.668 355.575 358.547 358.877 357.924C361.119 357.488 363.548 357.239 365.978 357.301Z" fill="#D9D9D9"/>
<path d="M377.875 377.171C384.166 373.559 384.166 367.579 377.875 363.966C374.76 362.16 370.587 361.163 366.102 361.163C361.617 361.163 357.444 362.16 354.33 363.966C348.039 367.579 348.039 373.559 354.33 377.171C357.444 378.978 361.617 379.974 366.102 379.974C367.971 379.974 369.777 379.787 371.459 379.476C373.888 379.04 376.069 378.23 377.875 377.171ZM366.04 361.537C370.089 361.537 373.951 362.471 376.816 364.153C382.983 367.703 382.983 373.434 376.816 376.984C373.951 378.666 370.089 379.601 366.04 379.538C361.991 379.538 358.129 378.604 355.264 376.922C349.097 373.372 349.097 367.641 355.264 364.091C357.008 363.094 359.001 362.347 361.244 361.973C362.801 361.661 364.358 361.537 366.04 361.537Z" fill="#D9D9D9"/>
<path d="M372.144 367.018C368.781 365.087 363.299 365.025 359.873 367.018C356.51 368.949 356.51 372.126 359.873 374.057C363.237 375.988 368.718 376.05 372.144 374.057C375.508 372.126 375.508 368.949 372.144 367.018Z" fill="#D9D9D9"/>
</g>
<path d="M251.117 276.762C238.41 291.275 213.557 322.482 204.027 331.202C203.154 331.949 206.331 335.562 207.328 335.998C211.875 337.991 210.318 344.781 213.619 341.542C220.595 334.566 267.935 300.805 275.16 286.105C280.268 275.703 282.199 269.91 285.376 253.902C275.534 253.528 265.879 249.853 258.903 243.188C259.214 253.652 258.778 267.979 251.117 276.762Z" fill="#FFBFA2"/>
<path d="M256.848 243.998C263.824 250.663 277.278 253.404 287.12 253.84C288.428 247.175 291.231 236.586 292.103 225.062C295.093 185.135 254.356 163.957 256.848 243.998Z" fill="#F2F2F2"/>
<path d="M200.663 358.236C200.352 358.485 199.978 358.734 199.667 359.045C194.87 362.658 191.195 360.354 193.188 358.111C198.421 352.194 200.227 341.667 196.552 341.916C192.69 342.228 190.635 347.834 187.769 348.955C186.461 349.453 185.589 348.706 185.901 347.584C186.025 347.273 186.15 346.961 186.337 346.588C186.835 345.591 186.71 342.29 191.631 337.12C194.87 333.694 196.365 331.327 200.912 329.271C201.66 328.96 207.702 327.652 211.751 323.229C212.311 322.607 210.318 325.285 213.931 328.337C214.927 329.147 215.488 330.455 216.422 331.265C219.786 334.13 215.737 340.982 214.055 343.722C210.567 349.515 205.895 354.187 200.663 358.298V358.236Z" fill="#FFBFA2"/>
<mask id="mask28_210_3929" style="mask-type:luminance" maskUnits="userSpaceOnUse" x="381" y="393" width="8" height="5">
<path d="M381.301 393.118V394.924C381.301 395.485 381.674 396.045 382.422 396.481C383.917 397.353 386.284 397.353 387.716 396.481C388.464 396.045 388.838 395.485 388.838 394.924V393.118C388.838 393.678 388.464 394.239 387.716 394.675C386.222 395.547 383.855 395.547 382.422 394.675C381.674 394.239 381.301 393.678 381.301 393.118Z" fill="white"/>
</mask>
<g mask="url(#mask28_210_3929)">
<path d="M381.301 393.118V394.924C381.301 394.924 381.301 395.298 381.425 395.422V393.616C381.425 393.616 381.301 393.305 381.301 393.118Z" fill="#32272D"/>
<path d="M381.425 393.616V395.423C381.612 395.796 381.924 396.17 382.422 396.419C383.169 396.855 384.166 397.042 385.163 397.042V395.236C384.166 395.236 383.169 395.049 382.422 394.613C381.924 394.301 381.612 393.99 381.425 393.616Z" fill="#32272D"/>
<path d="M385.163 395.298V397.104C386.097 397.104 387.031 396.855 387.779 396.481C388.526 396.045 388.9 395.485 388.9 394.924V393.118C388.9 393.678 388.526 394.239 387.779 394.675C387.031 395.111 386.097 395.298 385.163 395.298Z" fill="#32272D"/>
</g>
<path d="M382.422 391.56C380.927 392.432 380.927 393.803 382.422 394.612C383.917 395.484 386.284 395.484 387.716 394.612C389.211 393.74 389.211 392.37 387.716 391.56C386.284 390.688 383.855 390.688 382.422 391.56Z" fill="#665861"/>
<mask id="mask29_210_3929" style="mask-type:luminance" maskUnits="userSpaceOnUse" x="373" y="397" width="8" height="5">
<path d="M373.203 397.79V399.596C373.203 400.157 373.577 400.717 374.324 401.153C375.819 402.025 378.186 402.025 379.619 401.153C380.366 400.717 380.74 400.157 380.74 399.596V397.79C380.74 398.35 380.366 398.911 379.619 399.347C378.124 400.219 375.757 400.219 374.324 399.347C373.577 398.911 373.203 398.35 373.203 397.79Z" fill="white"/>
</mask>
<g mask="url(#mask29_210_3929)">
<path d="M373.203 397.79V399.596C373.203 399.596 373.203 399.97 373.328 400.094V398.288C373.328 398.288 373.203 397.976 373.203 397.79Z" fill="#32272D"/>
<path d="M373.328 398.288V400.094C373.514 400.468 373.826 400.842 374.324 401.091C375.072 401.527 376.068 401.714 377.065 401.714V399.908C376.068 399.908 375.072 399.721 374.324 399.285C373.826 398.973 373.514 398.662 373.328 398.288Z" fill="#32272D"/>
<path d="M377.065 399.97V401.776C377.999 401.776 378.934 401.527 379.681 401.153C380.429 400.717 380.802 400.157 380.802 399.596V397.79C380.802 398.35 380.429 398.911 379.681 399.347C378.934 399.783 377.999 399.97 377.065 399.97Z" fill="#32272D"/>
</g>
<path d="M374.324 396.232C372.829 397.104 372.829 398.475 374.324 399.284C375.819 400.156 378.186 400.156 379.619 399.284C381.114 398.412 381.114 397.042 379.619 396.232C378.186 395.36 375.757 395.36 374.324 396.232Z" fill="#665861"/>
<mask id="mask30_210_3929" style="mask-type:luminance" maskUnits="userSpaceOnUse" x="365" y="402" width="8" height="5">
<path d="M365.106 402.461V404.267C365.106 404.828 365.479 405.389 366.227 405.825C367.722 406.697 370.089 406.697 371.521 405.825C372.269 405.389 372.643 404.828 372.643 404.267V402.461C372.643 403.022 372.269 403.582 371.521 404.018C370.026 404.89 367.659 404.89 366.227 404.018C365.479 403.582 365.106 403.022 365.106 402.461Z" fill="white"/>
</mask>
<g mask="url(#mask30_210_3929)">
<path d="M365.106 402.461V404.267C365.106 404.267 365.106 404.641 365.23 404.766V402.959C365.23 402.959 365.106 402.648 365.106 402.461Z" fill="#32272D"/>
<path d="M365.23 402.959V404.766C365.417 405.14 365.729 405.513 366.227 405.762C366.974 406.198 367.971 406.385 368.968 406.385V404.579C367.971 404.579 366.974 404.392 366.227 403.956C365.729 403.645 365.417 403.333 365.23 402.959Z" fill="#32272D"/>
<path d="M368.968 404.641V406.447C369.902 406.447 370.836 406.198 371.584 405.825C372.331 405.389 372.705 404.828 372.705 404.267V402.461C372.705 403.022 372.331 403.582 371.584 404.018C370.836 404.454 369.902 404.641 368.968 404.641Z" fill="#32272D"/>
</g>
<path d="M366.227 400.904C364.732 401.776 364.732 403.146 366.227 403.956C367.722 404.828 370.089 404.828 371.521 403.956C373.016 403.084 373.016 401.714 371.521 400.842C370.089 399.969 367.659 399.969 366.227 400.842V400.904Z" fill="#665861"/>
<mask id="mask31_210_3929" style="mask-type:luminance" maskUnits="userSpaceOnUse" x="357" y="407" width="8" height="5">
<path d="M357.008 407.132V408.939C357.008 409.499 357.382 410.06 358.129 410.496C359.624 411.368 361.991 411.368 363.424 410.496C364.171 410.06 364.545 409.499 364.545 408.939V407.132C364.545 407.693 364.171 408.254 363.424 408.69C361.929 409.562 359.562 409.562 358.129 408.69C357.382 408.254 357.008 407.693 357.008 407.132Z" fill="white"/>
</mask>
<g mask="url(#mask31_210_3929)">
<path d="M357.008 407.132V408.939C357.008 408.939 357.008 409.312 357.133 409.437V407.631C357.133 407.631 357.008 407.319 357.008 407.132Z" fill="#32272D"/>
<path d="M357.133 407.631V409.437C357.319 409.811 357.631 410.185 358.129 410.434C358.877 410.87 359.873 411.057 360.87 411.057V409.25C359.873 409.25 358.877 409.063 358.129 408.627C357.631 408.316 357.319 408.005 357.133 407.631Z" fill="#32272D"/>
<path d="M360.87 409.312V411.119C361.804 411.119 362.739 410.87 363.486 410.496C364.234 410.06 364.607 409.499 364.607 408.939V407.132C364.607 407.693 364.234 408.254 363.486 408.69C362.739 409.126 361.804 409.312 360.87 409.312Z" fill="#32272D"/>
</g>
<path d="M358.129 405.575C356.634 406.447 356.634 407.818 358.129 408.627C359.624 409.499 361.991 409.499 363.424 408.627C364.919 407.755 364.919 406.385 363.424 405.513C361.991 404.641 359.562 404.641 358.129 405.513V405.575Z" fill="#665861"/>
<path d="M343.678 413.486V415.292C343.678 416.227 344.301 417.099 345.485 417.784C347.914 419.154 351.776 419.154 354.205 417.784C355.451 417.099 356.011 416.165 356.011 415.23V413.424C356.011 414.358 355.389 415.292 354.205 415.978C351.776 417.348 347.852 417.348 345.485 415.978C344.301 415.292 343.678 414.358 343.678 413.486Z" fill="#32272D"/>
<mask id="mask32_210_3929" style="mask-type:luminance" maskUnits="userSpaceOnUse" x="343" y="413" width="14" height="6">
<path d="M343.678 413.486V415.292C343.678 416.227 344.301 417.099 345.485 417.784C347.914 419.154 351.776 419.154 354.205 417.784C355.451 417.099 356.011 416.165 356.011 415.23V413.424C356.011 414.358 355.389 415.292 354.205 415.978C351.776 417.348 347.852 417.348 345.485 415.978C344.301 415.292 343.678 414.358 343.678 413.486Z" fill="white"/>
</mask>
<g mask="url(#mask32_210_3929)">
<path d="M343.678 413.486V415.293C343.678 415.293 343.74 415.853 343.865 416.165V414.358C343.865 414.358 343.678 413.798 343.678 413.486Z" fill="#32272D"/>
<path d="M343.803 414.296V416.102C344.052 416.725 344.612 417.286 345.422 417.784C346.668 418.469 348.287 418.843 349.907 418.843V417.037C348.287 417.037 346.668 416.725 345.422 415.978C344.612 415.479 344.052 414.919 343.803 414.296Z" fill="#32272D"/>
<path d="M349.907 417.037V418.843C351.464 418.843 353.021 418.469 354.143 417.784C355.388 417.099 355.949 416.165 355.949 415.23V413.424C355.949 414.358 355.326 415.292 354.143 415.978C352.959 416.663 351.402 417.037 349.907 417.037Z" fill="#32272D"/>
</g>
<path d="M345.485 410.932C343.055 412.302 343.055 414.607 345.485 415.977C347.914 417.348 351.776 417.348 354.205 415.977C356.634 414.607 356.634 412.302 354.205 410.932C351.776 409.562 347.914 409.562 345.485 410.932Z" fill="#665861"/>
</g>
<defs>
<clipPath id="clip0_210_3929">
<rect width="424" height="516" fill="white" transform="matrix(-1 0 0 1 470 96)"/>
</clipPath>
</defs>
</svg>
