<svg width="498" height="612" viewBox="0 0 498 612" fill="none" xmlns="http://www.w3.org/2000/svg">
<circle cx="249" cy="249" r="249" fill="#D37272"/>
<g clip-path="url(#clip0_250_2468)">
<path d="M264.923 317.439C264.923 317.439 264.663 317.31 264.469 317.245C261.943 316.014 259.416 316.079 257.149 316.986C257.149 316.986 257.149 316.986 257.084 316.986C253.326 318.411 250.087 321.908 248.468 325.6C247.885 326.831 247.561 328.126 247.366 329.292C247.237 330.134 247.237 330.846 247.366 331.623C247.237 331.559 247.107 331.494 247.042 331.429C245.812 330.717 244.581 330.004 243.415 329.292C242.508 328.709 241.665 328.191 240.888 327.673L240.499 327.413L236.483 324.499L236.094 324.24C220.481 312.388 214.327 299.11 206.488 286.804C205.776 285.703 205.063 284.602 204.35 283.566C203.767 282.271 203.314 280.975 202.86 279.745C194.827 259.149 196.317 253.579 189.839 222.815C186.794 210.379 192.625 198.397 204.61 193.799C204.61 193.799 216.4 196.39 220.287 210.962C228.255 240.69 228.644 249.693 229.875 266.986L264.858 317.439H264.923Z" fill="#3A72CE"/>
<path opacity="0.15" d="M240.823 327.607L240.435 327.348L236.418 324.434L236.029 324.175C220.417 312.322 214.262 299.045 206.423 286.739C206.035 291.856 205.581 296.972 205.193 302.154L200.787 299.045L202.796 279.68L208.691 221.907L216.335 284.343L240.758 327.607H240.823Z" fill="#131313"/>
<path d="M211.282 385.121L203.897 385.574L186.794 386.61L177.789 387.128L168.331 387.711L164.379 387.97L159.521 388.229L147.017 389.007L137.429 389.59L127.906 390.172L116.958 390.82C116.569 389.978 116.181 389.071 115.857 388.1C111.711 376.442 113.201 351.183 117.088 334.149L122.594 333.825L168.072 331.105L175.457 330.651H177.142L182.454 330.198L185.563 330.004L187.377 329.874L192.301 329.615L194.05 329.486L197.419 329.291L201.824 329.032V329.291L202.536 334.084L203.249 338.877L204.35 346.908L207.849 371.455L210.31 381.299C210.44 381.817 210.57 382.271 210.634 382.789C210.699 383.178 210.829 383.631 210.958 384.02L211.282 385.25V385.121Z" fill="#3A72CE"/>
<path d="M164.638 385.638C164.574 386.416 164.444 387.193 164.315 387.97C164.315 388.229 164.25 388.553 164.185 388.812C163.537 393.475 162.954 398.009 162.306 402.413C158.484 431.235 155.504 456.04 148.119 477.284L143.26 476.895L124.991 475.6L110.285 474.564C106.01 439.266 110.091 409.861 115.792 388.1C119.226 384.343 122.983 381.752 126.999 380.133C136.263 376.377 147.082 377.931 158.678 382.853C159.521 383.242 160.298 383.566 161.14 383.955C162.306 384.473 163.472 385.056 164.638 385.638Z" fill="#3A72CE"/>
<path d="M148.184 477.284C143.649 509.214 142.612 544.188 136.976 575.406C136.263 579.422 135.745 585.834 134.903 589.72C122.983 591.987 110.739 587.129 98.6245 592.569C92.0166 556.17 94.3488 500.859 110.285 474.499C113.654 468.929 117.088 466.403 120.845 466.014C126.87 465.302 133.866 469.706 143.39 474.758C144.88 475.535 146.434 476.377 148.119 477.284H148.184Z" fill="#3A72CE"/>
<path d="M148.183 612H97.1992C96.4866 600.731 97.0696 595.873 99.7257 588.36C108.277 583.373 122.918 584.086 136.522 590.433L142.159 592.764C145.851 595.42 148.054 599.695 148.054 604.293V611.936L148.183 612Z" fill="#3C3C3B"/>
<path d="M206.488 286.739C206.099 291.856 205.646 296.972 205.257 302.154L203.767 319.382C203.508 322.685 203.184 325.988 202.925 329.226C202.796 330.845 202.666 332.4 202.536 334.019H117.023L114.561 302.154L109.702 239.006L106.463 197.036L107.37 196.777L138.855 187.904H173.773L204.609 193.733C207.006 201.246 208.237 210.897 208.756 221.972C209.598 240.43 208.367 263.034 206.488 286.739Z" fill="#3A72CE"/>
<path opacity="0.15" d="M201.046 317.763L192.495 329.292L192.301 329.615L188.932 334.084L185.175 333.113H184.98L182.842 332.53L180.834 332.012L179.927 331.818L175.392 330.652L167.942 328.709L121.558 316.727L122.594 333.825V334.149L122.724 335.833C121.687 346.455 123.501 366.403 127.064 380.134C127.777 382.919 128.554 385.445 129.396 387.582C128.878 388.424 128.36 389.266 127.906 390.173C115.792 411.935 113.913 444.512 120.91 466.08C122.076 469.577 123.436 472.816 125.056 475.665C126.935 478.904 129.072 481.624 131.469 483.761C100.503 484.539 101.54 547.363 98.6892 592.7C92.0813 556.301 94.4135 500.989 110.35 474.629C106.074 439.331 110.156 409.927 115.857 388.165C111.711 376.507 113.201 351.248 117.088 334.214L114.626 302.348C105.621 289.719 99.6609 273.009 94.4783 252.219L109.767 239.2L127.388 224.239L148.248 270.872L165.675 286.351L201.176 317.957L201.046 317.763Z" fill="#131313"/>
<path d="M223.785 342.569C221.647 342.504 219.898 340.885 218.603 339.201C217.307 337.517 216.141 335.639 214.262 334.537C213.161 333.89 211.8 333.501 210.958 332.53C210.116 331.558 209.987 330.133 210.31 328.903C210.634 327.672 211.412 326.571 212.254 325.6C215.104 327.284 218.667 327.931 220.87 330.457C222.943 332.854 223.267 336.351 225.016 339.006C225.534 339.784 226.182 340.755 225.794 341.597C225.47 342.31 224.563 342.633 223.785 342.633V342.569Z" fill="#FFC990"/>
<path d="M256.306 344.317C257.343 342.439 256.825 340.107 256.047 338.099C255.27 336.091 254.233 334.148 254.233 332.011C254.233 330.716 254.622 329.42 254.233 328.19C253.845 326.959 252.678 326.117 251.448 325.793C250.217 325.47 248.921 325.534 247.625 325.793C247.625 329.097 246.33 332.529 247.366 335.703C248.338 338.747 251.188 340.755 252.614 343.604C253.067 344.446 253.521 345.483 254.428 345.612C255.205 345.742 255.918 345.094 256.306 344.382V344.317Z" fill="#FFC990"/>
<path d="M338.062 534.474C336.313 534.474 334.629 533.502 333.787 531.883L232.401 336.286C231.17 333.955 232.077 331.04 234.474 329.81C236.871 328.579 239.722 329.486 240.953 331.882L342.403 527.479C343.634 529.811 342.727 532.725 340.33 533.956C339.617 534.344 338.84 534.474 338.127 534.474H338.062Z" fill="#878787"/>
<path d="M269.717 612H202.536C200.852 604.811 200.593 597.621 202.536 590.497C211.412 581.818 223.008 578.191 237.195 579.422C241.406 586.222 252.873 592.311 260.971 595.873C266.283 598.204 269.717 603.451 269.717 609.28V612Z" fill="#3C3C3B"/>
<path d="M225.923 462.841L219.963 464.654L198.002 471.455L189.645 474.046C189.126 473.074 188.608 472.103 188.09 471.131C176.299 448.398 167.294 422.88 162.371 402.413C161.27 397.815 160.363 393.411 159.715 389.395C159.65 389.006 159.585 388.618 159.52 388.229C159.261 386.804 159.067 385.379 158.873 384.019C158.873 383.631 158.743 383.177 158.678 382.789C163.407 370.483 175.392 368.799 189.515 369.641C189.968 369.641 190.422 369.641 190.94 369.706C193.661 369.9 196.382 370.159 199.168 370.418C202.018 370.677 204.933 371.066 207.849 371.325C207.849 371.325 207.913 371.325 207.978 371.325C208.756 374.693 209.533 377.931 210.31 381.105C210.44 381.623 210.569 382.076 210.634 382.594C210.699 382.983 210.829 383.436 210.958 383.825C211.088 384.214 211.152 384.602 211.217 385.056C218.214 413.683 224.692 438.165 225.793 460.833C225.793 461.481 225.858 462.129 225.858 462.776L225.923 462.841Z" fill="#3A72CE"/>
<path d="M237.195 579.357C226.182 584.021 213.485 582.596 202.925 590.173C202.796 590.238 202.666 590.303 202.536 590.433C202.148 589.526 201.759 588.554 201.435 587.583C200.075 584.15 198.779 580.394 197.548 576.378C197.419 575.989 197.354 575.666 197.224 575.277C193.855 564.396 190.875 551.961 188.543 539.461C188.543 539.331 188.543 539.202 188.478 539.072C183.231 510.186 181.806 481.3 188.09 471.067C189.968 467.828 191.847 465.238 193.726 463.23C193.791 463.165 193.92 463.036 193.92 462.971C200.01 456.688 206.683 456.365 218.02 458.955C220.417 459.473 223.008 460.121 225.794 460.898H225.858C228.45 497.233 237.584 544.448 237.131 579.293L237.195 579.357Z" fill="#3A72CE"/>
<path d="M138.66 165.884L138.92 187.905C140.345 203.125 173.384 201.7 173.838 187.905L174.226 166.92L138.725 165.949L138.66 165.884Z" fill="#EDBB86"/>
<path d="M188.09 146.064C187.248 149.821 185.369 154.938 183.296 155.65C180.769 156.557 180.057 155.002 179.862 154.938C178.761 160.378 178.308 165.235 176.364 168.15C174.032 171.583 172.283 174.109 170.663 176.052C166.906 180.456 163.861 181.557 156.67 181.557H156.605C149.479 181.557 146.369 180.521 142.547 176.246C140.863 174.303 139.049 171.777 136.717 168.409C134.773 165.559 134.19 160.702 133.024 155.261C132.895 155.261 132.117 156.881 129.591 155.974C127.453 155.261 125.574 150.21 124.667 146.453C123.825 143.215 124.667 140.559 126.222 139.588C126.74 139.199 127.323 139.005 127.971 139.005C128.554 139.005 129.267 139.199 129.915 139.588C129.461 137.386 129.202 135.313 129.008 133.111C128.684 129.031 129.008 125.339 129.915 122.036C131.016 118.02 132.959 114.588 135.486 111.803C139.956 107.01 146.369 104.16 153.56 103.642H153.625C154.338 103.642 155.115 103.577 155.893 103.577C168.46 103.577 179.02 110.054 182.324 122.101C183.166 125.274 183.555 128.836 183.296 132.787C183.166 134.989 182.907 137.062 182.454 139.264C183.166 138.875 183.814 138.681 184.397 138.681C185.175 138.681 185.822 138.94 186.405 139.393C187.831 140.494 188.543 143.02 187.831 146.129L188.09 146.064Z" fill="#FFC990"/>
<path d="M184.656 138.681C182.972 139.588 181.871 140.754 181.093 143.733C180.705 145.093 180.381 146.842 180.121 149.109C178.372 149.562 177.595 149.692 176.04 150.21C176.429 148.656 176.753 147.166 177.077 145.741C178.761 137.839 179.279 131.687 179.085 126.959C179.02 125.145 178.826 123.526 178.567 122.101C176.429 110.961 169.044 110.508 166.387 109.99C163.019 109.342 149.285 109.407 145.981 110.119C143.584 110.637 137.365 111.155 134.709 119.381C134.449 120.223 134.19 121.129 134.061 122.101C133.089 127.218 133.283 134.666 135.68 145.547C136.004 147.101 136.393 148.785 136.846 150.469C135.292 149.951 134.514 149.821 132.765 149.368C132.376 146.777 131.988 144.899 131.534 143.409C130.692 140.883 129.591 139.847 128.101 139.005C127.194 131.751 127.129 126.44 127.906 122.036C128.749 117.114 130.627 113.357 133.413 109.277C140.669 98.461 168.201 96.2589 179.15 108.953C182.518 112.839 184.462 116.79 185.239 122.036C185.887 126.44 185.693 131.751 184.786 138.617L184.656 138.681Z" fill="#3C3C3B"/>
<path d="M146.629 103.577C144.62 103.577 142.806 104.354 141.057 105.326C138.595 106.686 132.376 115.753 133.672 117.891C138.984 126.569 155.374 129.031 166.97 129.354C165.675 128.383 163.537 126.44 163.083 124.562C169.367 127.347 176.558 127.93 183.166 126.181C181.093 120.546 178.89 114.652 174.485 110.507C170.922 107.139 166.128 105.261 161.334 104.419C156.54 103.512 151.552 103.577 146.693 103.642L146.629 103.577Z" fill="#3C3C3B"/>
<path d="M355.23 512.712H333.592C326.79 512.712 321.284 518.217 321.284 525.018V550.277H367.539V525.018C367.539 518.217 362.032 512.712 355.23 512.712Z" fill="#575756"/>
<path d="M367.539 531.494H321.284V569.059H367.539V531.494Z" fill="#9D9D9C"/>
<path d="M405.372 581.236H283.385L303.339 563.295C305.606 561.288 308.457 560.187 311.501 560.187H377.256C380.236 560.187 383.151 561.288 385.419 563.295L405.372 581.236Z" fill="#C6C6C6"/>
<path d="M409 589.979H279.823V584.992C279.823 580.653 283.321 577.155 287.661 577.155H401.226C405.566 577.155 409.065 580.653 409.065 584.992V589.979H409Z" fill="#9D9D9C"/>
<path d="M327.762 552.09C327.762 552.673 327.308 553.062 326.79 553.062C326.207 553.062 325.818 552.608 325.818 552.09V536.676C325.818 536.093 326.272 535.704 326.79 535.704C327.373 535.704 327.762 536.157 327.762 536.676V552.09Z" fill="#575756"/>
<path d="M332.167 552.09C332.167 552.673 331.714 553.062 331.195 553.062C330.612 553.062 330.224 552.608 330.224 552.09V536.676C330.224 536.093 330.677 535.704 331.195 535.704C331.778 535.704 332.167 536.157 332.167 536.676V552.09Z" fill="#575756"/>
<path d="M336.572 552.09C336.572 552.673 336.119 553.062 335.601 553.062C335.018 553.062 334.629 552.608 334.629 552.09V536.676C334.629 536.093 335.082 535.704 335.601 535.704C336.184 535.704 336.572 536.157 336.572 536.676V552.09Z" fill="#575756"/>
<path d="M340.978 552.09C340.978 552.673 340.524 553.062 340.006 553.062C339.423 553.062 339.034 552.608 339.034 552.09V536.676C339.034 536.093 339.488 535.704 340.006 535.704C340.589 535.704 340.978 536.157 340.978 536.676V552.09Z" fill="#575756"/>
<path d="M345.383 552.09C345.383 552.673 344.929 553.062 344.411 553.062C343.828 553.062 343.439 552.608 343.439 552.09V536.676C343.439 536.093 343.893 535.704 344.411 535.704C344.994 535.704 345.383 536.157 345.383 536.676V552.09Z" fill="#575756"/>
<path d="M349.788 552.09C349.788 552.673 349.335 553.062 348.816 553.062C348.233 553.062 347.845 552.608 347.845 552.09V536.676C347.845 536.093 348.298 535.704 348.816 535.704C349.4 535.704 349.788 536.157 349.788 536.676V552.09Z" fill="#575756"/>
<path d="M354.193 552.09C354.193 552.673 353.74 553.062 353.221 553.062C352.638 553.062 352.25 552.608 352.25 552.09V536.676C352.25 536.093 352.703 535.704 353.221 535.704C353.805 535.704 354.193 536.157 354.193 536.676V552.09Z" fill="#575756"/>
<path d="M358.599 552.09C358.599 552.673 358.145 553.062 357.627 553.062C357.044 553.062 356.655 552.608 356.655 552.09V536.676C356.655 536.093 357.108 535.704 357.627 535.704C358.21 535.704 358.599 536.157 358.599 536.676V552.09Z" fill="#575756"/>
<path d="M363.004 552.09C363.004 552.673 362.55 553.062 362.032 553.062C361.449 553.062 361.06 552.608 361.06 552.09V536.676C361.06 536.093 361.514 535.704 362.032 535.704C362.615 535.704 363.004 536.157 363.004 536.676V552.09Z" fill="#575756"/>
<path d="M374.535 555.912H314.222V560.187H374.535V555.912Z" fill="#575756"/>
<path d="M404.4 589.979H284.422V593.153H404.4V589.979Z" fill="#575756"/>
<path d="M408.611 612H280.211L284.357 593.152H404.4L408.611 612Z" fill="#F9B233"/>
<path opacity="0.1" d="M286.171 596.197L287.337 612H281.053L286.171 596.197Z" fill="#1D1D1B"/>
<path opacity="0.1" d="M298.027 596.197L299.517 612H287.337L290.188 603.386L293.233 610.317L298.027 596.197Z" fill="#1D1D1B"/>
<path opacity="0.1" d="M309.623 594.771L312.797 612H307.809L309.623 594.771Z" fill="#1D1D1B"/>
<path opacity="0.1" d="M315.259 599.37L317.656 612H313.574L315.259 599.37Z" fill="#1D1D1B"/>
<path opacity="0.1" d="M338.969 599.176L341.431 612H328.669L332.167 594.771L335.536 610.316L338.969 599.176Z" fill="#1D1D1B"/>
<path opacity="0.1" d="M344.411 605.07L347.003 612H342.468L344.411 605.07Z" fill="#1D1D1B"/>
<path opacity="0.1" d="M352.185 593.995L356.979 612H348.233L352.185 593.995Z" fill="#1D1D1B"/>
<path opacity="0.1" d="M367.539 594.578L370.778 612H365.595L367.539 594.578Z" fill="#1D1D1B"/>
<path opacity="0.1" d="M372.657 595.031L376.738 612H371.167L372.657 595.031Z" fill="#1D1D1B"/>
<path opacity="0.1" d="M380.56 595.938L384.965 612H377.386L381.985 611.093L380.56 595.938Z" fill="#1D1D1B"/>
<path opacity="0.1" d="M394.748 601.896L397.922 612H389.695L388.917 595.16L394.748 611.935V601.896Z" fill="#1D1D1B"/>
<path opacity="0.1" d="M407.704 612H402.91L402.586 595.938L407.704 612Z" fill="#1D1D1B"/>
<path d="M284.616 338.877H189.645C186.988 338.877 184.851 336.739 184.851 334.084C184.851 331.428 186.988 329.291 189.645 329.291H284.616C287.273 329.291 289.41 331.428 289.41 334.084C289.41 336.739 287.273 338.877 284.616 338.877Z" fill="#878787"/>
<path d="M256.371 341.986C255.853 341.597 253.974 340.172 253.65 339.654C252.614 337.97 255.14 336.351 253.65 335.056C253.132 334.602 252.355 334.473 251.707 334.278C249.958 333.89 248.144 333.113 247.366 331.558C247.042 330.91 246.978 330.198 246.978 329.55C246.848 326.442 248.144 323.397 250.282 321.131C252.419 318.864 255.27 317.374 258.25 316.662C259.157 316.467 260.064 316.338 261.036 316.338C263.497 316.403 265.7 317.698 267.838 318.929C272.243 321.454 276.713 324.045 281.118 326.571C282.09 327.154 283.127 327.802 283.58 328.838C283.839 329.486 283.839 330.198 283.904 330.911C283.904 334.019 283.969 337.128 284.034 340.237C284.034 341.079 284.034 341.921 283.71 342.633C283.127 343.799 281.637 344.382 280.47 343.864C280.082 343.67 279.693 343.411 279.24 343.475C278.851 343.475 278.592 343.799 278.333 344.058C277.167 344.9 275.482 344.9 274.316 344.058C274.057 343.864 273.798 343.605 273.474 343.605C273.02 343.605 272.696 344.058 272.373 344.382C271.077 345.872 268.226 345.677 267.19 343.993C265.7 345.224 264.469 345.936 262.59 345.418C260.712 344.9 258.185 343.152 256.63 342.05L256.371 341.986Z" fill="#FFC990"/>
<path d="M258.768 338.877H239.398C236.742 338.877 234.604 336.739 234.604 334.084C234.604 331.428 236.742 329.291 239.398 329.291H258.768C261.424 329.291 263.562 331.428 263.562 334.084C263.562 336.739 261.424 338.877 258.768 338.877Z" fill="#878787"/>
<path opacity="0.1" d="M184.656 138.681C182.972 139.588 181.871 140.754 181.093 143.733C180.381 144.122 179.668 144.51 179.02 144.834C178.372 145.158 177.725 145.482 177.077 145.741C163.602 152.023 149.738 152.153 135.616 145.547C135.032 145.288 134.449 145.028 133.866 144.705C133.089 144.316 132.312 143.863 131.534 143.409C130.692 140.883 129.591 139.847 128.101 139.005C127.194 131.751 127.129 126.44 127.906 122.036H185.239C185.887 126.44 185.693 131.751 184.786 138.617L184.656 138.681Z" fill="#10100F"/>
<path d="M160.557 96H152.2C138.077 96 126.611 107.464 126.611 121.583L127.194 130.391C146.888 126.635 165.61 126.376 185.628 130.068L186.146 121.648C186.146 107.529 174.68 96.0648 160.557 96.0648V96Z" fill="#3A72CE"/>
<path d="M129.072 129.484C129.72 131.686 129.72 131.104 129.979 131.816C131.923 136.285 136.652 139.005 141.057 138.163C143.713 137.645 146.11 136.026 148.572 134.86C151.034 133.759 153.625 133.111 156.281 133.047C158.937 133.176 161.529 133.759 163.99 134.86C166.517 136.026 168.849 137.645 171.505 138.163C175.911 139.005 180.64 136.285 182.583 131.816C182.907 131.104 182.842 131.686 183.49 129.484C174.874 118.927 137.948 118.992 128.943 129.484H129.072Z" fill="#006D91"/>
<path d="M148.054 187.387C144.232 185.638 140.992 182.4 138.66 179.291L136.522 188.617C137.494 196.454 147.6 201.765 153.755 199.434L152.653 193.151C152.2 190.561 150.451 188.488 148.054 187.387Z" fill="#3A72CE"/>
<path d="M165.545 186.869C169.368 185.444 172.348 182.788 173.967 179.291L176.105 188.617C175.133 196.454 166.193 201.182 160.039 198.851L160.622 193.216C160.946 190.366 162.889 187.97 165.545 186.934V186.869Z" fill="#3A72CE"/>
<path opacity="0.3" d="M171.441 342.568H164.962C164.962 316.791 158.808 227.088 154.014 199.303L160.427 198.202C165.286 226.182 171.505 316.597 171.505 342.568H171.441Z" fill="#1D1D1B"/>
<path d="M191.847 343.475C191.329 343.086 189.45 341.597 189.126 341.014C188.09 339.265 190.616 337.516 189.126 336.156C188.608 335.638 187.831 335.509 187.183 335.379C185.434 334.991 183.62 334.149 182.842 332.465C182.518 331.817 182.454 331.04 182.454 330.327C182.324 327.089 183.62 323.851 185.758 321.454C187.895 319.058 190.746 317.503 193.726 316.726C194.633 316.532 195.54 316.338 196.512 316.402C198.973 316.467 201.176 317.827 203.314 319.123C207.719 321.843 212.189 324.498 216.594 327.218C217.566 327.801 218.603 328.514 219.056 329.615C219.315 330.263 219.315 331.04 219.38 331.752C219.38 335.055 219.445 338.294 219.51 341.597C219.51 342.439 219.51 343.346 219.186 344.123C218.603 345.353 217.113 345.936 215.947 345.418C215.558 345.224 215.169 344.965 214.716 345.029C214.327 345.029 214.068 345.418 213.809 345.612C212.643 346.519 210.958 346.519 209.792 345.612C209.533 345.418 209.274 345.094 208.95 345.094C208.497 345.094 208.173 345.548 207.849 345.936C206.553 347.555 203.703 347.296 202.666 345.548C201.176 346.843 199.945 347.62 198.066 347.037C196.188 346.454 193.661 344.641 192.042 343.475H191.847Z" fill="#FFC990"/>
<path d="M200.852 317.763C193.532 317.504 187.442 323.333 185.628 329.291C185.563 329.55 185.498 329.745 185.434 330.004C185.175 330.846 185.045 331.688 185.045 332.53C185.045 332.53 185.045 332.918 185.045 333.113C185.045 333.436 185.045 333.76 185.045 334.084L184.721 333.954L183.166 333.307L180.64 332.206L179.798 331.817L176.882 330.522L167.683 326.442L115.015 303.061C115.015 303.061 114.626 302.478 114.431 302.219C105.427 289.589 99.4666 272.879 94.2839 252.089C92.4052 244.641 90.6561 236.739 88.9069 228.254C85.8621 215.819 89.6196 202.931 101.669 198.332L106.334 197.037L107.241 196.778L114.691 194.705C119.355 204.55 123.566 214.459 127.129 224.045C134.19 243.086 138.725 260.703 139.632 273.851L165.804 292.633L200.852 317.763Z" fill="#3A72CE"/>
<path d="M192.625 338.877H185.175C182.518 338.877 180.381 336.739 180.381 334.084C180.381 331.428 182.518 329.291 185.175 329.291H192.625C195.281 329.291 197.419 331.428 197.419 334.084C197.419 336.739 195.281 338.877 192.625 338.877Z" fill="#878787"/>
<path d="M197.354 239.913L176.105 240.949L175.198 232.27L196.382 231.363L197.354 239.913Z" fill="white"/>
<path opacity="0.15" d="M202.925 590.238C202.925 590.756 202.796 590.821 202.536 590.497C201.241 588.489 199.492 583.502 197.483 576.507C197.354 576.119 197.289 575.795 197.159 575.406C194.633 566.209 191.653 553.709 188.479 539.59C188.479 539.46 188.479 539.331 188.414 539.201C183.166 510.315 181.741 481.429 188.025 471.196C176.235 448.462 167.23 422.944 162.306 402.478L146.953 389.071C151.552 389.654 155.763 389.783 159.65 389.46C161.205 389.33 162.76 389.136 164.185 388.812C165.61 388.553 166.971 388.164 168.266 387.776C176.688 385.055 183.425 379.226 189.515 369.77C190.422 368.345 191.394 366.791 192.301 365.172C191.847 366.726 191.394 368.345 190.94 369.835C189.256 375.729 187.896 381.299 186.729 386.675C180.51 416.208 182.713 438.294 193.92 463.1C195.151 465.885 196.512 468.67 198.002 471.52C187.442 503.061 203.379 583.567 202.925 590.303V590.238Z" fill="#131313"/>
</g>
<defs>
<clipPath id="clip0_250_2468">
<rect width="321" height="516" fill="white" transform="translate(88 96)"/>
</clipPath>
</defs>
</svg>
