<svg width="45" height="53" viewBox="0 0 45 53" fill="none" xmlns="http://www.w3.org/2000/svg">
<path d="M26.7006 0.730455C29.3063 0.867955 31.5647 2.2103 33.0445 3.75889L42.752 13.5059C44.3573 15.1387 44.9177 17.3267 44.8334 19.4494L44.8438 26.4533C44.8438 27.0428 44.7681 27.6994 44.4794 28.4212C44.1958 29.1259 43.7438 29.8065 43.1078 30.5061C41.8652 31.8708 39.7614 33.4744 36.3016 35.6331C35.3906 36.2003 34.3989 37.2023 33.3195 38.5601C32.2505 39.9008 31.1934 41.4614 30.1089 43.065L30.0917 43.0891C29.1911 44.4228 28.2664 45.7875 27.3486 46.9872C26.4342 48.1817 25.4528 49.3109 24.4113 50.1153C23.4436 50.8647 21.4464 51.834 19.2 52.1641C16.9141 52.4992 14.0695 52.2053 11.8334 49.9726C10.0734 48.2144 8.13297 46.0453 6.43141 44.1255L5.9261 43.5548C4.4136 41.8481 3.16922 40.4422 2.40094 39.6997C1.10672 38.4484 0.587659 36.7417 0.360784 35.5472C0.224218 34.816 0.155748 34.0738 0.156253 33.33V33.2956L0.164847 28.0036C0.155415 27.7287 0.155415 27.4535 0.164847 27.1786V27.1545C0.233597 25.3842 0.697659 23.803 1.24594 22.6892C2.63125 19.8705 5.15781 18.3305 7.95078 16.708C11.9761 14.3705 13.5402 12.1189 15.7006 9.01139C16.6901 7.56099 17.7277 6.14396 18.8116 4.76264C21.1903 1.76858 23.9884 0.58608 26.7006 0.730455ZM3.60063 27.9572C3.67116 29.6966 4.37539 31.3502 5.58063 32.6064C7.14102 34.2645 8.65189 35.9685 10.1113 37.7162L10.632 38.335C11.7338 39.6412 12.6602 40.7395 13.4628 41.5817L13.5384 41.659L13.602 41.7467C14.5302 43.0048 15.8588 43.5548 17.2767 43.6666C18.7394 43.7817 20.135 43.4087 20.8913 43.0048C21.5856 42.6336 22.6891 41.5851 24.0159 39.7908C25.2981 38.0548 26.6611 35.7964 27.9175 33.2423C29.045 30.9461 30.9116 29.1259 32.7025 27.8283C34.4831 26.5392 36.3531 25.6523 37.6559 25.3189C38.9966 24.9803 40.4059 23.4455 41.0677 21.2558C41.2533 20.6405 41.3616 20.0355 41.3959 19.4597V18.6519C41.322 17.5381 40.9491 16.5773 40.3045 15.919L40.3011 15.9173L30.5833 6.15827L30.5695 6.14452C29.552 5.07546 28.0688 4.24358 26.5202 4.1628C25.0678 4.08717 23.2889 4.65264 21.5031 6.90077C20.5734 8.09142 19.6832 9.3124 18.8339 10.5617C16.5136 13.9012 14.4047 16.9331 9.67813 19.6814C6.77344 21.3692 5.19219 22.452 4.3311 24.2051C3.89492 25.132 3.64721 26.1363 3.60235 27.1597L3.60063 27.9572Z" fill="#F8F9FA"/>
</svg>
