<svg width="27" height="55" viewBox="0 0 27 55" fill="none" xmlns="http://www.w3.org/2000/svg">
<path d="M22.7364 11.4623C22.376 11.4623 22.0838 11.1701 22.0838 10.8097V7.51224C22.0838 6.95996 22.5315 6.51224 23.0838 6.51224H23.1274C23.6797 6.51224 24.1274 6.06452 24.1274 5.51224V1.06348C24.1274 0.511192 23.6797 0.0634766 23.1274 0.0634766H3.25236C2.70008 0.0634766 2.25236 0.511192 2.25236 1.06348V5.51224C2.25236 6.06452 2.70008 6.51224 3.25236 6.51224H3.44732C4.21947 6.51224 4.7003 7.35016 4.31069 8.01681L3.69522 9.06995C3.41655 9.54677 3.57719 10.1592 4.05401 10.4379L7.89473 12.6826C8.37155 12.9612 8.984 12.8006 9.26267 12.3238L12.3696 7.00766C12.5489 6.70084 12.8776 6.51224 13.233 6.51224H14.6351C15.1873 6.51224 15.635 6.95996 15.635 7.51224V10.8099C15.635 11.1702 15.343 11.4623 14.9826 11.4623C13.0304 11.4623 11.4418 13.0506 11.4418 15.0031V20.644C11.4418 21.164 11.0417 21.5926 10.5286 21.6766C4.97515 22.5856 0.723145 27.415 0.723145 33.2215V51.6446C0.723145 53.53 2.25709 55.0635 4.14228 55.0635H22.8579C24.7433 55.0635 26.2768 53.5297 26.2768 51.6446V45.2235V33.2215V15.0031C26.277 13.0506 24.6887 11.4623 22.7364 11.4623Z" fill="#F8F9FA"/>
</svg>
