<svg width="55" height="55" viewBox="0 0 55 55" fill="none" xmlns="http://www.w3.org/2000/svg">
<path d="M38.9591 4.58398C40.7128 4.58389 42.4001 5.2539 43.676 6.45693C44.9519 7.65996 45.7198 9.30506 45.8227 11.0557L45.8341 11.459C47.6575 11.459 49.4062 12.1833 50.6955 13.4726C51.9848 14.7619 52.7091 16.5106 52.7091 18.334C52.7093 21.8915 51.3306 25.3106 48.8627 27.873C46.3948 30.4353 43.0298 31.9414 39.4748 32.0748L38.9591 32.084H29.7925L30.1362 32.0954C31.2275 32.1775 32.2533 32.6472 33.0284 33.4197C33.8034 34.1922 34.2765 35.2166 34.3621 36.3075L34.3758 36.6673V45.834C34.3762 46.9903 33.9395 48.104 33.1532 48.9519C32.367 49.7998 31.2893 50.3191 30.1362 50.4059L29.7925 50.4173H25.2091C24.0528 50.4177 22.9391 49.981 22.0912 49.1947C21.2434 48.4085 20.724 47.3308 20.6373 46.1777L20.6258 45.834V36.6673C20.6254 35.511 21.0622 34.3973 21.8484 33.5494C22.6347 32.7015 23.7123 32.1822 24.8654 32.0954L25.2091 32.084V29.7923C25.2092 29.231 25.4153 28.6893 25.7883 28.2698C26.1613 27.8503 26.6752 27.5824 27.2327 27.5167L27.5008 27.5007H38.9591C41.3903 27.5007 43.7219 26.5349 45.441 24.8158C47.16 23.0967 48.1258 20.7651 48.1258 18.334C48.1257 17.7727 47.9197 17.2309 47.5467 16.8115C47.1737 16.392 46.6597 16.124 46.1023 16.0584L45.8341 16.0423L45.8227 16.4457C45.724 18.1268 45.0117 19.7132 43.8209 20.904C42.6301 22.0948 41.0436 22.8072 39.3625 22.9059L38.9591 22.9173H16.0425C14.2889 22.9174 12.6015 22.2474 11.3256 21.0444C10.0498 19.8413 9.28182 18.1962 9.17894 16.4457L9.16748 16.0423V11.459C9.16738 9.70538 9.83739 8.01801 11.0404 6.74214C12.2435 5.46626 13.8886 4.69832 15.6391 4.59544L16.0425 4.58398H38.9591Z" fill="#F8F9FA"/>
</svg>
