<svg width="55" height="55" viewBox="0 0 55 55" fill="none" xmlns="http://www.w3.org/2000/svg">
<path d="M9.16748 28.6465V43.5423C9.16748 44.454 9.52964 45.3283 10.1743 45.973C10.819 46.6177 11.6933 46.9798 12.605 46.9798H42.3966C43.3083 46.9798 44.1827 46.6177 44.8273 45.973C45.472 45.3283 45.8341 44.454 45.8341 43.5423V28.6465" stroke="#F8F9FA" stroke-width="2" stroke-linecap="round" stroke-linejoin="round"/>
<path d="M5.72998 17.1882C5.72998 16.5804 5.97142 15.9975 6.40119 15.5677C6.83096 15.1379 7.41386 14.8965 8.02165 14.8965H46.98C47.5878 14.8965 48.1707 15.1379 48.6004 15.5677C49.0302 15.9975 49.2716 16.5804 49.2716 17.1882V26.3548C49.2716 26.9626 49.0302 27.5455 48.6004 27.9753C48.1707 28.405 47.5878 28.6465 46.98 28.6465H8.02165C7.41386 28.6465 6.83096 28.405 6.40119 27.9753C5.97142 27.5455 5.72998 26.9626 5.72998 26.3548V17.1882Z" fill="#F8F9FA" stroke="#F8F9FA" stroke-width="2" stroke-linejoin="round"/>
<path d="M35.5208 14.8965V10.3132C35.5208 9.70536 35.2794 9.12247 34.8496 8.6927C34.4198 8.26293 33.837 8.02148 33.2292 8.02148H21.7708C21.163 8.02148 20.5802 8.26293 20.1504 8.6927C19.7206 9.12247 19.4792 9.70536 19.4792 10.3132V14.8965M17.1875 26.3548V33.2298M37.8125 26.3548V33.2298" stroke="#F8F9FA" stroke-width="2" stroke-linecap="round" stroke-linejoin="round"/>
</svg>
