<svg width="498" height="612" viewBox="0 0 498 612" fill="none" xmlns="http://www.w3.org/2000/svg">
<circle cx="249" cy="249" r="249" fill="#CDFC93"/>
<g clip-path="url(#clip0_253_3688)">
<path opacity="0.2" d="M222.901 491.626C299.755 491.626 362.058 486.963 362.058 481.211C362.058 475.459 299.755 470.796 222.901 470.796C146.046 470.796 83.7427 475.459 83.7427 481.211C83.7427 486.963 146.046 491.626 222.901 491.626Z" fill="#171A43"/>
<path d="M98.6792 357.74L109.922 275.143L111.195 267.088V267.113C112.817 258.309 120.516 251.628 129.788 251.628H375.66C386.104 251.628 394.577 260.107 394.577 270.56V440.287C394.577 450.74 386.104 459.219 375.66 459.219H84.5538C74.1095 459.219 65.6367 450.74 65.6367 440.287V439.363L67.9826 383.828L98.6668 357.74H98.6792Z" fill="#3B82F6"/>
<path d="M376.196 261.469H231.249V367.319H376.196V261.469Z" fill="#3470D1"/>
<path d="M376.246 373.987H231.249V377.322H376.246V373.987Z" fill="#3470D1"/>
<path d="M376.246 385.09H231.249V388.424H376.246V385.09Z" fill="#3470D1"/>
<path d="M376.246 396.191H231.249V399.526H376.246V396.191Z" fill="#3470D1"/>
<path d="M376.246 407.294H231.249V410.628H376.246V407.294Z" fill="#3470D1"/>
<path d="M225.933 261.618H171.864V446.656H225.933V261.618Z" fill="#3470D1"/>
<path d="M219.469 359.164C219.469 360.825 218.121 362.174 216.462 362.174H203.572C201.912 362.174 200.564 360.825 200.564 359.164C200.564 357.503 201.912 356.154 203.572 356.154H216.462C218.121 356.154 219.469 357.503 219.469 359.164Z" fill="#3B82F6"/>
<path d="M219.843 269.323H178.578V352.445H219.843V269.323Z" fill="#00EFDD"/>
<path d="M219.843 269.323H178.578V352.445H219.843V269.323Z" fill="#00EFDD"/>
<g opacity="0.7">
<mask id="mask0_253_3688" style="mask-type:luminance" maskUnits="userSpaceOnUse" x="178" y="269" width="42" height="84">
<path d="M219.843 269.323H178.578V352.445H219.843V269.323Z" fill="white"/>
</mask>
<g mask="url(#mask0_253_3688)">
<path d="M202.698 213.859L58.8047 357.866L79.4516 378.53L223.345 234.522L202.698 213.859Z" fill="white"/>
<path d="M225.089 251.628L81.196 395.636L91.5283 405.976L235.422 261.969L225.089 251.628Z" fill="white"/>
</g>
</g>
<path d="M109.772 352.445H168.208V269.323H118.033L109.772 352.445Z" fill="#00EFDD"/>
<g opacity="0.7">
<mask id="mask1_253_3688" style="mask-type:luminance" maskUnits="userSpaceOnUse" x="109" y="269" width="60" height="84">
<path d="M109.772 352.445H168.208V269.323H118.033L109.772 352.445Z" fill="white"/>
</mask>
<g mask="url(#mask1_253_3688)">
<path d="M186.767 229.797L57.9971 358.669L78.644 379.332L207.414 250.46L186.767 229.797Z" fill="white"/>
<path d="M209.966 266.765L81.1958 395.637L91.5281 405.977L220.298 277.105L209.966 266.765Z" fill="white"/>
</g>
</g>
<path d="M66.7722 446.655C69.3927 453.961 76.3555 459.206 84.5663 459.206H375.66C383.871 459.206 390.833 453.973 393.454 446.655H66.7722Z" fill="#007E89"/>
<path d="M174.535 459.206C174.685 457.77 174.772 456.322 174.772 454.848C174.772 432.869 156.965 415.061 135.016 415.061C113.067 415.061 95.2603 432.881 95.2603 454.848C95.2603 456.322 95.3476 457.77 95.4973 459.206H174.535Z" fill="#007E89"/>
<path d="M342.081 459.206C342.23 457.77 342.318 456.322 342.318 454.848C342.318 432.869 324.524 415.061 302.562 415.061C280.6 415.061 262.806 432.881 262.806 454.848C262.806 456.322 262.894 457.77 263.043 459.206H342.081Z" fill="#007E89"/>
<path d="M352.924 432.457H398.408V446.144C398.408 446.144 399.805 452.938 392.793 452.938H352.425L352.924 432.457Z" fill="#00BFB5"/>
<path d="M104.619 454.848C104.619 471.657 118.233 485.269 135.028 485.269C151.824 485.269 165.426 471.644 165.426 454.848C165.426 438.051 151.812 424.414 135.028 424.414C118.245 424.414 104.619 438.039 104.619 454.848Z" fill="#171A43"/>
<path d="M121.527 454.847C121.527 462.303 127.566 468.347 135.016 468.347C142.465 468.347 148.505 462.303 148.505 454.847C148.505 447.392 142.465 441.348 135.016 441.348C127.566 441.348 121.527 447.392 121.527 454.847Z" fill="#00BFB5"/>
<path d="M127.379 454.848C127.379 459.069 130.798 462.503 135.029 462.503C139.259 462.503 142.678 459.081 142.678 454.848C142.678 450.614 139.259 447.192 135.029 447.192C130.798 447.192 127.379 450.614 127.379 454.848Z" fill="#007E89"/>
<path d="M272.152 454.848C272.152 471.657 285.766 485.269 302.549 485.269C319.333 485.269 332.959 471.644 332.959 454.848C332.959 438.051 319.345 424.414 302.549 424.414C285.754 424.414 272.152 438.039 272.152 454.848Z" fill="#171A43"/>
<path d="M289.061 454.847C289.061 462.303 295.1 468.347 302.55 468.347C309.999 468.347 316.039 462.303 316.039 454.847C316.039 447.392 309.999 441.348 302.55 441.348C295.1 441.348 289.061 447.392 289.061 454.847Z" fill="#00BFB5"/>
<path d="M294.913 454.848C294.913 459.069 298.332 462.503 302.562 462.503C306.792 462.503 310.211 459.081 310.211 454.848C310.211 450.614 306.792 447.192 302.562 447.192C298.332 447.192 294.913 450.614 294.913 454.848Z" fill="#007E89"/>
<path opacity="0.2" d="M353.998 612.012C404.809 612.012 446 607.175 446 601.21C446 595.244 404.809 590.407 353.998 590.407C303.186 590.407 261.995 595.244 261.995 601.21C261.995 607.175 303.186 612.012 353.998 612.012Z" fill="#171A43"/>
<path d="M329.864 542.016C329.864 542.016 322.677 600.911 318.734 601.91C315.789 602.659 222.526 604.158 305.831 588.348L310.96 531.751L329.864 542.016Z" fill="#171A43"/>
<path d="M383.134 538.582C383.134 538.582 381.15 597.876 384.894 599.475C387.689 600.674 479.604 616.571 399.73 588.073L403.399 531.364L383.134 538.582Z" fill="#171A43"/>
<path d="M320.755 351.909C320.755 351.909 303.036 527.168 301.127 578.62C301.127 578.62 321.716 582.953 325.722 582.778L356.967 392.783L367.05 393.994L380.314 583.578C380.314 583.578 392.955 585.351 404.871 582.404C404.871 582.404 406.119 475.53 409.775 348.974C413.432 222.419 320.743 351.921 320.743 351.921L320.755 351.909Z" fill="#007E89"/>
<g opacity="0.2">
<path d="M318.26 376.998C313.306 427.35 302.587 539.245 301.127 578.62C301.127 578.62 321.716 582.953 325.722 582.779L356.967 392.783C356.967 392.783 334.881 386.327 318.26 376.998Z" fill="#171A43"/>
<path d="M409.401 362.424C409.526 357.966 409.651 353.482 409.788 348.962C413.444 222.406 320.755 351.909 320.755 351.909C320.755 351.909 320.581 353.682 320.256 356.879C338.375 362.574 371.729 369.829 409.401 362.424Z" fill="#171A43"/>
</g>
<path d="M368.423 182.13C368.423 182.13 368.959 194.669 365.503 199.127C362.046 203.585 333.147 199.964 332.086 217.235C331.025 234.506 419.609 237.016 427.832 228.1C436.055 219.183 422.179 204.484 410.861 203.023C395.738 201.075 394.153 191.047 396.274 172.09C398.396 153.133 368.423 182.118 368.423 182.118V182.13Z" fill="#FFA099"/>
<path d="M364.005 200.151C375.336 196.492 386.292 191.834 395.538 184.253C395.476 180.707 395.775 176.66 396.287 172.102C398.408 153.158 368.435 182.13 368.435 182.13C368.435 182.13 368.972 194.668 365.515 199.127C365.203 199.526 364.692 199.864 364.005 200.151Z" fill="#DB8583"/>
<path d="M340.983 127.657C340.983 127.657 331.1 173.601 347.634 182.306C364.18 190.997 399.232 199.202 402.114 154.931C404.997 110.661 383.771 98.8094 362.92 103.942C342.069 109.075 340.983 127.657 340.983 127.657Z" fill="#FFA099"/>
<path d="M359.775 144.055C359.775 144.055 359.563 144.954 359.101 146.228C358.652 147.514 357.953 149.187 357.192 150.811C356.419 152.434 355.558 154.033 354.846 155.194C354.147 156.356 353.586 157.092 353.586 157.092C353.586 157.092 353.798 156.193 354.26 154.919C354.709 153.633 355.408 151.96 356.169 150.336C356.943 148.713 357.804 147.114 358.515 145.953C359.214 144.791 359.775 144.055 359.775 144.055Z" fill="#DB8583"/>
<path d="M390.784 156.805C390.784 156.805 366.788 150.586 357.342 149.986C350.217 149.537 341.257 152.971 337.289 154.682C336.316 168.357 339.81 181.707 347.097 185.853C357.629 191.847 374.799 195.331 387.015 185.853C391.595 173.102 390.796 156.805 390.796 156.805H390.784Z" fill="white"/>
<path d="M356.718 184.429C352.999 184.291 348.445 183.942 343.815 183.067C344.814 184.216 345.899 185.165 347.097 185.852C357.629 191.847 374.799 195.331 387.015 185.852C389.062 180.183 390.023 173.801 390.472 168.469C382.011 178.659 369.92 184.916 356.718 184.429Z" fill="#E5E5E5"/>
<path d="M382.96 156.506C382.96 156.506 394.29 158.579 399.144 153.546L402.114 161.851C402.114 161.851 395.376 176.075 385.393 180.82" stroke="#E5E5E5" stroke-width="0.91" stroke-miterlimit="10"/>
<path d="M382.96 156.506C382.96 156.506 394.29 158.579 399.144 153.546" stroke="white" stroke-width="0.91" stroke-miterlimit="10"/>
<path d="M399.955 146.127C399.955 146.127 405.171 138.497 409.488 145.527C413.818 152.558 408.216 163.835 400.841 162.287C395.912 161.25 399.955 146.127 399.955 146.127Z" fill="#FFA099"/>
<path d="M389.698 130.717C389.698 130.717 386.466 143.467 395.9 147.026L395.089 155.031L398.595 154.732C398.595 154.732 399.132 142.581 405.882 142.88L406.157 131.316L389.711 130.729L389.698 130.717Z" fill="#171A43"/>
<path d="M400.766 159.439C401.278 159.165 401.765 158.865 402.189 158.503C402.401 158.315 402.588 158.116 402.738 157.903C402.875 157.691 402.988 157.454 402.963 157.241C402.988 157.129 402.963 157.029 402.913 156.929C402.9 156.829 402.825 156.729 402.75 156.63C402.701 156.53 402.613 156.442 402.513 156.355C402.414 156.267 402.326 156.18 402.226 156.105C402.002 155.968 401.79 155.805 401.553 155.68L400.816 155.318L400.529 155.181L400.554 154.856C400.692 153.258 400.941 151.684 401.365 150.123C401.565 149.349 401.815 148.562 402.164 147.813C402.513 147.064 402.9 146.289 403.636 145.677C403.998 145.378 404.485 145.128 405.009 145.115C405.546 145.09 406.007 145.29 406.394 145.54L406.881 145.877L407.38 146.327C407.679 146.651 407.941 147.001 408.129 147.401C408.503 148.187 408.603 149.062 408.465 149.873C408.341 150.685 408.079 151.459 407.667 152.134C408.154 150.648 408.241 148.962 407.48 147.738C407.293 147.438 407.055 147.163 406.806 146.939L406.407 146.626L405.895 146.339C405.62 146.202 405.308 146.077 405.046 146.114C404.784 146.139 404.535 146.264 404.298 146.489C403.836 146.914 403.449 147.576 403.162 148.262C402.875 148.949 402.626 149.674 402.414 150.423C402.002 151.909 401.69 153.445 401.453 154.969L401.191 154.507L401.964 154.969C402.226 155.131 402.463 155.343 402.701 155.518C402.813 155.63 402.925 155.755 403.025 155.868C403.137 155.98 403.237 156.117 403.312 156.28C403.399 156.43 403.487 156.58 403.499 156.767C403.537 156.942 403.562 157.117 403.524 157.304C403.487 157.666 403.275 157.953 403.075 158.191C402.863 158.428 402.613 158.603 402.364 158.765C401.864 159.077 401.315 159.302 400.754 159.452L400.766 159.439Z" fill="#DB8583"/>
<path d="M358.69 96.4743C341.607 98.5723 340.097 123.823 339.972 128.794C262.744 132.665 407.193 137.261 407.193 137.261C411.223 99.1468 377.644 94.1515 358.69 96.4743Z" fill="#3B82F6"/>
<path d="M407.193 137.26C349.019 133.514 339.972 128.793 339.972 128.793C262.744 132.664 407.193 137.26 407.193 137.26Z" fill="#D65650"/>
<path d="M354.721 201.451C354.721 201.451 360.024 214.901 376.546 215.5C393.067 216.112 402.501 199.615 402.501 199.615C402.501 199.615 424.912 202.063 429.628 215.5C434.345 228.938 417.836 354.219 417.836 354.219C417.836 354.219 360.623 367.656 314.616 349.936C314.616 349.936 322.29 239.328 323.463 230.773C324.649 222.219 325.821 202.662 354.721 201.439V201.451Z" fill="#3B82F6"/>
<path d="M370.294 284.497C353.199 288.543 335.929 291.528 318.572 293.813C316.513 322.449 314.604 349.935 314.604 349.935C360.611 367.656 417.824 354.219 417.824 354.219C417.824 354.219 424.55 303.179 428.193 262.768C409.888 272.771 389.935 279.839 370.294 284.497Z" fill="#3470D1"/>
<path d="M376.059 218.61C392.705 219.234 403.586 205.697 407.18 200.439C404.385 199.815 402.488 199.615 402.488 199.615C402.488 199.615 393.054 216.112 376.533 215.5C360.012 214.888 354.709 201.451 354.709 201.451C352.8 201.526 351.015 201.701 349.343 201.926C351.302 205.822 358.752 217.96 376.059 218.61Z" fill="#D65650"/>
<path d="M260.802 235.479L252.015 337.843L372.474 348.199L381.261 245.836L260.802 235.479Z" fill="#68C7DC"/>
<path d="M260.804 235.475L252.018 337.839L331.573 344.679L340.36 242.315L260.804 235.475Z" fill="#97ECFF"/>
<path d="M355.94 243.67L354.179 264.188L366.189 265.22L367.95 244.703L355.94 243.67Z" fill="#3B82F6"/>
<path d="M254.608 307.851C254.608 307.851 250.59 307.327 251.813 299.809C251.813 299.809 249.891 292.466 253.56 290.018C253.56 290.018 251.913 286.184 256.804 285.772C261.683 285.36 274.71 289.843 257.615 289.843C257.615 289.843 291.456 295.263 257.203 294.326C257.203 294.326 289.709 298.934 256.792 298.397C256.792 298.397 281.324 303.305 255.569 302.069L254.595 307.851H254.608Z" fill="white"/>
<path d="M437.54 241.775L403.961 244.223L406.406 283.948L352.425 300.395C352.625 301.257 352.75 302.131 352.812 303.042C353.124 307.963 353.536 312.871 353.898 317.779C385.031 316.517 433.247 312.246 436.329 307.788C441.82 299.846 437.552 241.788 437.552 241.788L437.54 241.775Z" fill="#FFA099"/>
<path d="M357.928 298.709L352.413 300.382C352.612 301.244 352.737 302.118 352.8 303.03C353.112 307.95 353.523 312.858 353.885 317.766C356.119 317.679 358.452 317.566 360.836 317.454C359.837 311.21 358.839 304.966 357.916 298.709H357.928Z" fill="#DB8583"/>
<path d="M438.713 263.28C438.239 251.366 437.54 241.775 437.54 241.775L403.961 244.223L405.121 263.168C416.314 263.168 427.52 263.218 438.713 263.28Z" fill="#DB8583"/>
<path d="M355.121 298.398L349.842 300.009C326.658 290.293 344.052 300.658 344.052 300.658C304.122 300.658 340.184 304.542 340.184 304.542C302.837 304.542 339.535 309.075 339.535 309.075C295.749 311.672 340.82 313.608 340.82 313.608C312.27 318.054 329.453 318.841 357.08 317.579C356.493 311.173 355.832 304.779 355.108 298.385L355.121 298.398Z" fill="white"/>
<path d="M398.458 260.72L441.807 255.837C441.807 255.837 446.636 206.784 406.369 200.452L398.458 260.733V260.72Z" fill="#3B82F6"/>
</g>
<defs>
<clipPath id="clip0_253_3688">
<rect width="388" height="516" fill="white" transform="translate(58 96)"/>
</clipPath>
</defs>
</svg>
