<svg width="516" height="612" viewBox="0 0 516 612" fill="none" xmlns="http://www.w3.org/2000/svg">
<circle cx="267" cy="249" r="249" fill="#81EDE8"/>
<g style="mix-blend-mode:multiply">
<path d="M177.739 532.534C177.739 536.106 156.372 539 130.013 539C103.654 539 82.2849 536.106 82.2849 532.534C82.2849 528.962 103.658 526.072 130.013 526.072C156.369 526.072 177.739 528.966 177.739 532.534Z" fill="#C3C5CA"/>
</g>
<g style="mix-blend-mode:multiply">
<path d="M52.8308 527.307C26.471 527.307 5.10228 520.185 5.10228 511.4C5.10228 502.614 26.471 495.492 52.8308 495.492C79.1905 495.492 100.559 502.614 100.559 511.4C100.559 520.185 79.1905 527.307 52.8308 527.307Z" fill="#C3C5CA"/>
</g>
<path d="M76.5735 484.674H31.0969L35.3676 481.557H72.2996L76.5735 484.674Z" fill="#E35163"/>
<path d="M31.0969 484.676H76.5735V488.344H31.0969V484.676Z" fill="#C94757"/>
<path d="M57.8171 323.562C57.8171 325.764 56.0315 327.546 53.8371 327.546C51.6426 327.546 49.857 325.76 49.857 323.562C49.857 321.363 51.6394 319.57 53.8371 319.57C56.0347 319.57 57.8171 321.36 57.8171 323.562ZM56.335 323.562C56.335 322.176 55.217 321.052 53.8371 321.052C52.4572 321.052 51.336 322.176 51.336 323.562C51.336 324.947 52.454 326.065 53.8371 326.065C55.2202 326.065 56.335 324.944 56.335 323.562Z" fill="#792027"/>
<path d="M50.6333 326.16H57.0378V476.061H50.6333V326.16Z" fill="#C1C1C4"/>
<path d="M55.1564 326.16H57.0378V476.061H55.1564V326.16Z" fill="#F9F9F9"/>
<path d="M50.6334 326.16H52.6011V476.061H50.6334V326.16Z" fill="#979597"/>
<path d="M59.8936 481.23H47.7714C46.4202 481.23 45.3278 482.328 45.3278 483.679H62.334C62.334 482.328 61.2384 481.23 59.8904 481.23H59.8936Z" fill="#B22E3C"/>
<path d="M48.672 475.674H58.999V481.557H48.672V475.674Z" fill="#B22E3C"/>
<path d="M49.2853 326.16H58.3826V328.938H49.2853V326.16Z" fill="#B22E3C"/>
<path d="M92.1838 514.99L77.3721 485.492H30.2984L15.4866 514.99L33.4575 497.207H74.0309L92.1838 514.99Z" fill="#E35163"/>
<path d="M74.7432 497.024H32.9272L30.2984 485.492H77.3721L74.7432 497.024Z" fill="#B22E3C"/>
<path d="M92.1838 514.989H15.4866L32.9272 497.023H74.7432L92.1838 514.989Z" fill="#C94757"/>
<path d="M175.283 96.6679C162.346 91.4284 153.511 118.737 153.511 118.737C153.511 118.737 187.101 102.669 175.283 96.6679Z" fill="#2D4A6A"/>
<path d="M170.054 101.03C163.237 98.2676 153.511 118.736 153.511 118.736C153.511 118.736 176.282 104.189 170.054 101.03Z" fill="#223B56"/>
<path d="M127.056 96.6679C139.993 91.4284 148.828 118.737 148.828 118.737C148.828 118.737 115.237 102.669 127.056 96.6679Z" fill="#2D4A6A"/>
<path d="M132.282 101.03C139.101 98.2676 148.825 118.736 148.825 118.736C148.825 118.736 126.05 104.189 132.282 101.03Z" fill="#223B56"/>
<path d="M157.059 117.754C157.059 121.502 154.025 124.546 150.278 124.546C146.531 124.546 143.5 121.502 143.5 117.754C143.5 114.006 146.534 110.959 150.278 110.959C154.022 110.959 157.059 114 157.059 117.754Z" fill="#223B56"/>
<path d="M114.799 165.61C115.62 165.822 103.447 97.0931 152.274 119.095C126.519 132.461 115.62 165.822 115.62 165.822" fill="#2D4A6A"/>
<path d="M185.063 165.61C184.242 165.822 198.984 97.0931 150.16 119.095C175.915 132.461 184.242 165.822 184.242 165.822" fill="#2D4A6A"/>
<path d="M116.933 165.609C116.933 165.609 122.756 203.675 104.175 208.275C107.248 212.013 129.518 222.306 150.281 210.262L116.933 165.609Z" fill="#1B0900"/>
<path d="M180.352 165.609C180.352 165.609 174.529 203.675 193.11 208.275C190.034 212.013 167.766 222.306 147.004 210.262L180.352 165.609Z" fill="#1B0900"/>
<path d="M118.805 524.711L97.3074 529.285V534.435H129.486V524.711H118.805Z" fill="#DBDBDB"/>
<path d="M107.104 375.062L112.816 445.11L118.805 523.965C118.805 523.965 123.59 530.446 129.579 523.965L136.431 477.072L133.86 445.11L148.767 375.062H107.101H107.104Z" fill="#1A828F"/>
<g style="mix-blend-mode:multiply">
<path d="M127.937 375.808L120.163 445.57L124.964 527.383C126.538 527.188 129.579 524.71 129.579 524.71L136.431 477.817L133.86 445.855L148.767 375.805H127.937V375.808Z" fill="#D8DADE"/>
</g>
<path d="M160.467 524.713H152.993L147.569 529.287V534.437H166.124V529.287L160.467 524.713Z" fill="#DBDBDB"/>
<path d="M172.5 375.811L170.504 445.717L160.799 524.713C160.799 524.713 155.852 528.736 153.277 524.377L146.425 477.484L148.997 445.522L136.44 375.811H172.497H172.5Z" fill="#1A828F"/>
<g style="mix-blend-mode:multiply">
<path d="M159.649 527.93C154.133 527.93 149.661 528.65 149.661 529.54H164.032C164.032 528.65 165.166 527.93 159.649 527.93Z" fill="#D8DADE"/>
</g>
<path d="M118.639 233.434C118.779 233.718 101.214 251.844 96.742 306.665L94.2664 363.724" stroke="#FDBBB5" stroke-width="12.88" stroke-miterlimit="10"/>
<path d="M89.7052 272.226C90.8455 227.048 125.733 213.18 125.733 213.18L132.796 245.923C117.09 251.073 113.962 272.229 113.962 272.229H89.7052V272.226Z" fill="white"/>
<path d="M191.861 233.433C191.861 233.433 163.167 274.251 177.803 334.974C157.947 351.349 107.104 292.693 107.104 256.689C107.104 220.684 126.037 215.515 134.977 212.465H181.575C188.807 215 191.861 222.864 191.861 233.433Z" fill="white"/>
<g style="mix-blend-mode:multiply">
<path d="M130.18 212.465C117.91 219.01 111.247 234.578 111.247 249.062H120.475C121.657 228.475 123.181 217.8 137.45 212.465H130.176H130.18Z" fill="#D8DADE"/>
</g>
<g style="mix-blend-mode:multiply">
<path d="M174.305 212.466C162.036 219.012 155.372 234.58 155.372 249.063L159.531 254.606C165.926 232.16 167.306 217.798 181.575 212.463H174.305V212.466Z" fill="#D8DADE"/>
</g>
<path d="M181.575 380.091C174.641 417.773 177.209 442.3 177.209 442.3C136.744 451.502 98.2947 440.357 98.2947 440.357L109.35 315.408L107.104 249.065C115.531 238.89 149.556 240.848 159.899 249.065C154.172 309.077 178.633 329.255 178.633 329.255C178.633 329.255 188.513 356.601 181.575 380.094V380.091Z" fill="#27425F"/>
<path d="M111.247 277.875C112.627 277.875 116.636 298.251 116.636 322.589C116.636 346.927 112.103 366.653 110.727 366.653C109.35 366.653 111.647 346.92 111.647 322.589C111.647 298.257 109.874 277.875 111.247 277.875Z" fill="#2D4A6A"/>
<path d="M126.037 212.465C113.765 219.01 107.105 234.578 107.105 249.062H116.333C117.757 225.901 124.13 217.8 138.402 212.465H126.037Z" fill="#27425F"/>
<path d="M129.937 212.465C131.317 212.455 114.065 222.233 114.141 238.768L111.391 269.46C108.487 269.472 108.903 271.924 108.753 240.186C108.676 223.648 128.554 212.471 129.937 212.465Z" fill="#2D4A6A"/>
<path d="M169.21 212.465C152.006 217.8 150.281 234.578 150.281 249.062H159.902C159.33 227.521 165.85 218.879 181.578 212.465H169.213H169.21Z" fill="#27425F"/>
<path d="M173.312 212.465C174.692 212.455 157.44 222.233 157.519 238.768L154.766 260.005C151.862 260.017 152.131 253.635 152.131 240.186C152.131 223.648 171.932 212.471 173.309 212.465H173.312Z" fill="#2D4A6A"/>
<g style="mix-blend-mode:multiply">
<path d="M153.526 274.948C153.526 288.237 144.71 299.011 133.834 299.011C122.957 299.011 114.138 288.237 114.138 274.948C114.138 261.658 122.957 264.693 133.834 264.693C144.71 264.693 153.526 261.658 153.526 274.948Z" fill="#D8DADE"/>
</g>
<g style="mix-blend-mode:multiply">
<path d="M153.52 275.185C153.52 275.105 153.526 275.028 153.526 274.952C153.526 261.662 144.71 264.697 133.834 264.697C122.957 264.697 114.138 261.662 114.138 274.952C114.138 275.028 114.147 275.105 114.151 275.185H153.52Z" fill="#D8DADE"/>
</g>
<path d="M182.144 237.557C182.08 237.87 189.366 262.701 152.274 303.251L89.951 279.505" stroke="#FDBBB5" stroke-width="12.88" stroke-miterlimit="10"/>
<path d="M92.7015 261.616C92.7015 261.616 104.935 268.869 99.2146 275.901C93.4905 282.933 91.1331 272.105 91.1331 272.105L92.7015 261.613V261.616Z" fill="#FAC52F"/>
<path d="M95.5763 272.758C96.0171 272.08 99.2944 271.219 99.2944 271.219C99.2944 271.219 97.7835 265.39 92.7015 261.613C95.11 265.39 95.1994 271.046 95.5763 272.758Z" fill="#B89021"/>
<path d="M222.532 140.373L265.044 211.589L294 203.817L280.172 180.657L276.786 180.42L278.313 177.54L260.591 147.85L260.588 147.847L256.119 145.792L258.585 144.486L243.058 118.48L222.532 140.373Z" fill="#F4D9A6"/>
<path d="M263.818 209.528L292.773 201.763L291.946 200.377L262.99 208.145L263.818 209.528Z" fill="#C3AD84"/>
<path d="M261.757 206.076L290.713 198.308L289.886 196.922L260.927 204.687L261.757 206.076Z" fill="#C3AD84"/>
<path d="M259.694 202.627L288.653 194.859L287.826 193.477L258.866 201.241L259.694 202.627Z" fill="#C3AD84"/>
<path d="M257.633 199.174L286.593 191.405L285.762 190.02L256.806 197.788L257.633 199.174Z" fill="#C3AD84"/>
<path d="M255.573 195.722L284.529 187.951L283.705 186.568L254.743 194.336L255.573 195.722Z" fill="#C3AD84"/>
<path d="M253.513 192.27L282.469 184.502L281.641 183.113L252.686 190.885L253.513 192.27Z" fill="#C3AD84"/>
<path d="M251.453 188.82L280.408 181.052L280.172 180.659L276.786 180.422L250.625 187.435L251.453 188.82Z" fill="#C3AD84"/>
<path d="M249.392 185.365L278.351 177.597L277.521 176.211L248.565 183.982L249.392 185.365Z" fill="#C3AD84"/>
<path d="M224.017 142.863L244.543 120.971L245.371 122.357L224.844 144.246L224.017 142.863Z" fill="#C3AD84"/>
<path d="M226.077 146.313L246.604 124.424L247.434 125.81L226.908 147.699L226.077 146.313Z" fill="#C3AD84"/>
<path d="M228.138 149.766L248.667 127.877L249.498 129.263L228.965 151.152L228.138 149.766Z" fill="#C3AD84"/>
<path d="M230.198 153.218L250.727 131.328L251.555 132.714L231.025 154.604L230.198 153.218Z" fill="#C3AD84"/>
<path d="M232.258 156.668L252.784 134.781L253.615 136.167L233.089 158.057L232.258 156.668Z" fill="#C3AD84"/>
<path d="M234.322 160.122L254.848 138.232L255.678 139.615L235.149 161.508L234.322 160.122Z" fill="#C3AD84"/>
<path d="M236.382 163.571L256.912 141.682L257.672 142.962L237.209 164.96L236.382 163.571Z" fill="#C3AD84"/>
<path d="M240.535 170.53L261.24 148.941L262.003 150.222L241.362 171.916L240.535 170.53Z" fill="#C3AD84"/>
<path d="M241.544 172.22L263.016 151.912L263.779 153.192L242.371 173.606L241.544 172.22Z" fill="#C3AD84"/>
<path d="M247.77 182.651L276.55 174.582L275.786 173.305L246.945 181.265L247.77 182.651Z" fill="#C3AD84"/>
<path d="M246.147 179.934L274.164 170.585L273.397 169.305L245.32 178.545L246.147 179.934Z" fill="#C3AD84"/>
<path d="M244.997 178.006L271.343 165.862L270.58 164.582L244.17 176.617L244.997 178.006Z" fill="#C3AD84"/>
<path d="M242.461 173.749L265.597 156.234L266.36 157.515L243.285 175.138L242.461 173.749Z" fill="#C3AD84"/>
<path d="M244.099 176.499L268.912 161.789L268.149 160.512L243.269 175.116L244.099 176.499Z" fill="#C3AD84"/>
<path d="M238.442 167.025L257.681 146.512L259.167 147.193L239.27 168.411L238.442 167.025Z" fill="#C3AD84"/>
<g style="mix-blend-mode:multiply">
<path d="M251.261 178.858C225.17 133.639 243.058 118.48 243.058 118.48L222.532 140.373L265.044 211.589L276.052 208.634C266.325 203.651 259.346 192.397 251.261 178.855V178.858Z" fill="#C3AD84"/>
</g>
<path d="M2.36473 315.008C4.66459 313.628 7.64806 314.377 9.02478 316.685C10.4015 318.993 9.65085 321.979 7.3478 323.358C5.04474 324.738 2.06766 323.986 0.687746 321.681C-0.685782 319.373 0.0616732 316.384 2.36473 315.008ZM3.29427 316.56C1.84727 317.427 1.3777 319.303 2.24015 320.753C3.10579 322.2 4.98085 322.673 6.42465 321.809C7.87165 320.945 8.34118 319.066 7.47554 317.616C6.60989 316.166 4.73807 315.696 3.29427 316.563V316.56Z" fill="#792027"/>
<path d="M226.393 181.842L230.404 188.561L9.57297 320.939L5.56177 314.221L226.393 181.842Z" fill="#C1C1C4"/>
<path d="M226.425 181.826L227.604 183.801L6.74987 316.141L5.57112 314.165L226.425 181.826Z" fill="#F9F9F9"/>
<path d="M229.174 186.5L230.406 188.562L9.57468 320.941L8.34311 318.878L229.174 186.5Z" fill="#979597"/>
<path d="M268.021 210.863L263.408 213.632L251.954 204.936L222.19 155.078L219.963 140.855L224.579 138.086L268.021 210.863Z" fill="#C94757"/>
<path d="M268.021 210.863L265.51 212.368L222.065 139.593L224.579 138.086L268.021 210.863Z" fill="#B22E3C"/>
<path d="M223.327 155.827C224.1 155.363 229.153 158.72 240.662 177.998C252.171 197.279 252.098 203.418 251.325 203.879C250.552 204.346 249.089 199.987 237.577 180.706C226.068 161.428 222.551 156.294 223.324 155.83L223.327 155.827Z" fill="#E35163"/>
<path d="M234.312 166.656L247.501 188.754L240.413 193.001L227.224 170.907L234.312 166.656Z" fill="#E35163"/>
<path d="M234.312 166.656L247.501 188.754L243.665 191.052L230.476 168.958L234.312 166.656Z" fill="#C94757"/>
<path d="M230.026 175.6L237.615 188.313C238.462 189.728 240.292 190.189 241.704 189.341L231.054 171.5C229.642 172.345 229.182 174.182 230.029 175.597L230.026 175.6Z" fill="#B22E3C"/>
<path d="M230.592 176.52L237.061 187.359L231.255 190.839L224.786 179.999L230.592 176.52Z" fill="#B22E3C"/>
<path d="M7.60754 311.077L13.3079 320.621L10.4053 322.362L4.70494 312.818L7.60754 311.077Z" fill="#B22E3C"/>
<path d="M106.219 298.578L84.4984 286.665L95.6049 272.336L120.705 279.893L106.219 298.578Z" fill="#FAC52F"/>
<path d="M95.6049 272.335C95.6049 272.335 98.4158 264.894 91.0019 259.347C83.5913 253.803 70.974 270.418 71.1688 274.554C71.3637 278.686 74.0181 285.247 84.4985 286.662C94.9788 288.08 95.6049 272.332 95.6049 272.332V272.335Z" fill="#FAC52F"/>
<path d="M180.029 285.03C206.787 248.651 188.513 218.219 188.513 218.219L164.387 236.732C173.637 250.453 160.873 270.124 160.873 270.124C160.873 270.124 178.902 284.156 180.026 285.03H180.029Z" fill="white"/>
<path d="M139.018 213.676C137.5 214.931 136.464 215.998 135.907 216.883C135.332 217.796 135.341 218.375 135.62 218.782C135.947 219.26 136.768 219.717 138.339 220.038C139.878 220.353 142.018 220.515 144.812 220.515C152.326 220.515 155.317 219.859 157.233 218.643C158.196 218.032 158.911 217.265 159.818 216.278C160.516 215.519 161.313 214.649 162.392 213.676H139.018Z" fill="#FDBBB5" stroke="#FDBBB5"/>
<path d="M127.235 171.433C127.235 176.039 124.13 179.774 120.297 179.774C116.464 179.774 113.359 176.039 113.359 171.433C113.359 166.827 116.467 163.092 120.297 163.092C124.127 163.092 127.235 166.824 127.235 171.433Z" fill="#FDBBB5"/>
<path d="M188.513 171.433C188.513 176.039 185.408 179.774 181.575 179.774C177.742 179.774 174.641 176.039 174.641 171.433C174.641 166.827 177.745 163.092 181.575 163.092C185.405 163.092 188.513 166.824 188.513 171.433Z" fill="#FDBBB5"/>
<path d="M142.552 198.694C142.577 205.594 142.589 213.192 142.563 215.337L156.389 216.246C156.416 215.187 156.443 211.702 156.389 198.64L142.552 198.694Z" fill="#FDBBB5" stroke="#FDBBB5"/>
<g style="mix-blend-mode:multiply">
<path d="M154.619 211.606C154.619 211.606 141.35 214.893 142.049 198.198L156.887 198.141C156.887 198.141 157.618 211.609 154.619 211.609V211.606Z" fill="#D8DADE"/>
</g>
<path d="M150.278 126.418C140.798 126.418 132.307 127.932 126.197 132.176C120.122 136.395 116.319 143.37 116.319 154.5C116.319 165.66 120.146 178.812 126.34 189.167C132.55 199.548 141.035 206.959 150.278 206.959C159.521 206.959 168.005 199.548 174.215 189.167C180.409 178.812 184.238 165.66 184.238 154.5C184.238 143.372 180.434 136.396 174.36 132.177C168.249 127.932 159.758 126.418 150.278 126.418Z" fill="#FDBBB5" stroke="#FDBBB5"/>
<path d="M174.736 149.293C177.557 159.42 182.824 164.208 178.518 181.902C178.582 182.58 184.281 168.737 185.801 149.293H174.736Z" fill="#1B0900"/>
<path d="M122.047 181.927C121.929 183.214 86.0446 113.074 178.662 118C173.206 122.574 181.575 137.681 187.542 140.449C191.861 150.394 173.941 169.569 150.278 139.08C150.278 139.08 149.492 152.99 122.753 159.212C120.495 164.471 121.948 172.642 122.044 181.924L122.047 181.927Z" fill="#1B0900"/>
<path d="M107.539 376.158C107.539 376.158 109.257 363.551 100.249 362.648C91.2415 361.736 99.8053 369.165 99.8053 369.165C99.8053 369.165 102.811 379.624 105.405 379.97C106.488 380.114 107.542 376.158 107.542 376.158H107.539Z" fill="#FAC52F"/>
<path d="M82.8631 341.387L82.2466 365.475L100.208 367.719L106.296 344.312L82.8631 341.387Z" fill="#FAC52F"/>
<path d="M100.208 367.719C100.208 367.719 102.064 377.679 100.741 386.855C99.4189 396.029 85.1917 390.405 82.4095 387.345C79.6241 384.292 75.8421 373.912 82.2466 365.478C88.6479 357.044 100.208 367.722 100.208 367.722V367.719Z" fill="#FAC52F"/>
<g style="mix-blend-mode:multiply">
<path d="M254.736 529.415C254.736 531.438 237.59 533.083 216.434 533.083C195.279 533.083 178.132 531.438 178.132 529.415C178.132 527.392 195.279 525.75 216.434 525.75C237.59 525.75 254.736 527.392 254.736 529.415Z" fill="#C3C5CA"/>
</g>
<path d="M240.292 479.748V469.858L235.385 462.852L225.656 464.686C225.656 464.686 217.178 466.555 217.146 474.409C217.146 477.476 218.334 481.195 220.273 484.239L218.149 525.451C218.149 528.254 220.417 530.524 223.212 530.524H234.232C237.03 530.524 239.292 528.254 239.292 525.451L237.168 484.239C239.215 483.893 240.292 481.672 240.292 479.748Z" fill="#E96F4C"/>
<path opacity="0.1" d="M239.081 479.115C237.765 464.705 218.718 477.857 221.982 483.189L220.283 524.389C220.283 526.623 222.091 528.434 224.324 528.434H233.117C235.347 528.434 237.155 526.623 237.155 524.389L235.462 483.189C237.436 483.308 239.084 481.56 239.084 479.115H239.081Z" fill="white"/>
<path opacity="0.1" d="M219.583 479.397C221.005 481.196 222.56 475.621 226.93 472.993C231.3 470.362 237.864 470.128 236.443 468.329C235.024 466.534 226.112 464.713 221.739 467.34C217.37 469.971 218.168 477.599 219.586 479.397H219.583Z" fill="white"/>
<path opacity="0.3" d="M228.566 466.778C228.847 467.21 225.588 467.345 222.944 469.063C220.302 470.782 219.273 473.435 218.996 473.007C218.714 472.574 219.567 469.748 222.212 468.026C224.857 466.308 228.288 466.346 228.566 466.778Z" fill="white"/>
<path opacity="0.3" d="M231.971 473.939C232.552 474.313 228.479 476.509 226.007 480.334C223.534 484.162 223.605 488.179 223.023 487.801C222.445 487.423 222.065 483.298 224.534 479.47C227.007 475.642 231.389 473.561 231.967 473.936L231.971 473.939Z" fill="white"/>
<path opacity="0.3" d="M228.681 468.82C228.892 469.525 228.489 470.261 227.79 470.472C227.087 470.68 226.352 470.277 226.141 469.576C225.934 468.872 226.336 468.132 227.036 467.924C227.738 467.716 228.473 468.116 228.681 468.82Z" fill="white"/>
<path d="M235.995 520.492H221.446L222.468 495.047H234.973L235.995 520.492Z" fill="#F6C08E"/>
<path d="M233.194 508.599C233.194 511.077 231.191 513.084 228.722 513.084C226.25 513.084 224.247 511.077 224.247 508.599V501.34C224.247 498.863 226.25 496.859 228.722 496.859C231.191 496.859 233.194 498.866 233.194 501.34V508.599Z" fill="#BD916C"/>
<path d="M231.785 508.331C231.785 510.028 230.412 511.397 228.722 511.397C227.029 511.397 225.659 510.024 225.659 508.331V501.61C225.659 499.913 227.029 498.537 228.722 498.537C230.415 498.537 231.785 499.913 231.785 501.61V508.331Z" fill="#957253"/>
<path d="M224.474 513.662H232.97V514.84H224.474V513.662Z" fill="#957253"/>
<path d="M224.474 515.824H232.97V517.002H224.474V515.824Z" fill="#957253"/>
<path d="M224.474 517.982H232.97V519.16H224.474V517.982Z" fill="#957253"/>
<path d="M241.458 467.243C240.439 468.044 238.966 467.858 238.171 466.834L237.158 465.534C236.366 464.51 236.548 463.034 237.567 462.241L239.8 460.496C240.822 459.699 242.294 459.882 243.09 460.903L244.099 462.202C244.895 463.226 244.712 464.702 243.69 465.499L241.458 467.24V467.243Z" fill="#2D4A6A"/>
<path d="M238.298 461.667L237.564 462.24C236.541 463.034 236.363 464.509 237.155 465.534L238.167 466.833C238.963 467.857 240.435 468.04 241.454 467.243L242.007 466.814L238.298 461.664V461.667Z" fill="#182F46"/>
<path d="M240.359 469.205C240.087 469.416 239.701 469.368 239.49 469.096L235.293 463.697C235.082 463.428 235.13 463.037 235.401 462.829L237.037 461.555C237.305 461.344 237.695 461.392 237.902 461.664L242.1 467.064C242.307 467.333 242.259 467.726 241.991 467.934L240.359 469.208V469.205Z" fill="#2D4A6A"/>
<path d="M242.173 467.192L240.164 468.76C239.924 468.946 239.582 468.904 239.397 468.667L235.689 463.895C235.503 463.655 235.545 463.312 235.784 463.123L237.794 461.555C237.573 461.382 237.26 461.373 237.033 461.555L235.398 462.829C235.13 463.037 235.082 463.428 235.289 463.696L239.487 469.096C239.697 469.368 240.084 469.416 240.355 469.205L241.988 467.931C242.218 467.752 242.285 467.444 242.17 467.188L242.173 467.192Z" fill="#182F46"/>
<path d="M238.12 462.562C238.056 462.482 237.944 462.463 237.864 462.527L235.775 464.156L236.002 464.447L238.088 462.821C238.167 462.76 238.183 462.642 238.12 462.562Z" fill="#182F46"/>
<path d="M238.736 463.353C238.672 463.273 238.557 463.257 238.474 463.318L236.388 464.947L236.615 465.239L238.704 463.609C238.784 463.549 238.8 463.433 238.736 463.353Z" fill="#182F46"/>
<path d="M239.353 464.147C239.289 464.064 239.177 464.051 239.094 464.115L237.005 465.744L237.232 466.035L239.321 464.406C239.4 464.342 239.413 464.227 239.353 464.147Z" fill="#182F46"/>
<path d="M239.969 464.937C239.905 464.857 239.793 464.845 239.714 464.905L237.625 466.534L237.851 466.826L239.94 465.197C240.02 465.133 240.036 465.017 239.972 464.937H239.969Z" fill="#182F46"/>
<path d="M240.586 465.735C240.522 465.652 240.407 465.639 240.327 465.7L238.238 467.329L238.465 467.62L240.554 465.991C240.633 465.93 240.649 465.815 240.586 465.735Z" fill="#182F46"/>
<path d="M241.202 466.53C241.138 466.446 241.026 466.434 240.946 466.498L238.857 468.127L239.084 468.418L241.173 466.789C241.253 466.725 241.269 466.61 241.205 466.533L241.202 466.53Z" fill="#182F46"/>
<path d="M236.398 464.555L236.254 464.372L238.474 462.641L238.615 462.823L236.398 464.555Z" fill="#406F95"/>
<path d="M237.014 465.352L236.871 465.166L239.091 463.438L239.234 463.617L237.014 465.352Z" fill="#406F95"/>
<path d="M237.634 466.138L237.49 465.959L239.71 464.23L239.848 464.41L237.634 466.138Z" fill="#406F95"/>
<path d="M238.247 466.934L238.107 466.752L240.327 465.023L240.464 465.203L238.247 466.934Z" fill="#406F95"/>
<path d="M238.864 467.731L238.723 467.549L240.943 465.82L241.084 466L238.864 467.731Z" fill="#406F95"/>
<path d="M239.483 468.523L239.34 468.341L241.556 466.609L241.7 466.792L239.483 468.523Z" fill="#406F95"/>
<path d="M235.781 463.76L235.813 463.444L237.857 461.85L237.998 462.029L235.781 463.76Z" fill="#406F95"/>
<path d="M243.744 463.348C243.345 463.902 242.221 463.777 241.231 463.067C240.24 462.356 239.758 461.329 240.154 460.775C240.55 460.218 241.678 460.346 242.668 461.053C243.658 461.764 244.144 462.791 243.744 463.345V463.348Z" fill="#406F95"/>
<path d="M243.652 463.07C243.55 463.207 243.109 462.206 242.25 461.588C241.39 460.97 240.435 460.976 240.534 460.836C240.636 460.695 241.624 460.615 242.48 461.232C243.342 461.847 243.751 462.929 243.649 463.07H243.652Z" fill="#708AAB"/>
<path d="M243.026 463.354C242.831 463.504 242.553 463.469 242.403 463.277C242.253 463.082 242.288 462.803 242.479 462.653C242.674 462.503 242.952 462.535 243.105 462.73C243.256 462.925 243.22 463.204 243.026 463.354Z" fill="#708AAB"/>
<path d="M210.598 457.318H214.814V461.278H210.598V457.318Z" fill="#E96F4C"/>
<path d="M213.102 457.318H214.744V461.278H213.102V457.318Z" fill="#B65738"/>
<path opacity="0.1" d="M210.671 457.318H211.489V461.278H210.671V457.318Z" fill="white"/>
<path d="M217.628 464.926C217.667 464.705 217.696 464.475 217.696 464.235V463.534C217.696 461.492 216.041 459.834 214.006 459.834H211.412C209.375 459.834 207.72 461.492 207.72 463.534V464.235C207.72 464.472 207.745 464.702 207.784 464.926H217.628Z" fill="#2D4A6A"/>
<path d="M217.628 464.925C217.667 464.704 217.696 464.474 217.696 464.234V463.149L207.72 462.797V464.234C207.72 464.471 207.745 464.701 207.784 464.925H217.628Z" fill="#182F46"/>
<path d="M215.46 460.537C215.763 461.014 214.517 461.606 212.677 461.859C210.838 462.112 209.097 461.929 208.79 461.452C208.487 460.975 209.732 460.383 211.572 460.134C213.412 459.881 215.153 460.063 215.46 460.537Z" fill="#406F95"/>
<path d="M215.022 460.469C215.098 460.587 213.425 460.395 211.827 460.61C210.234 460.831 209.31 461.381 209.234 461.26C209.157 461.141 210.016 460.536 211.613 460.318C213.214 460.098 214.945 460.347 215.025 460.469H215.022Z" fill="#708AAB"/>
<path d="M214.489 460.953C214.489 461.129 214.303 461.277 214.076 461.277C213.85 461.277 213.661 461.129 213.661 460.953C213.661 460.777 213.843 460.627 214.076 460.627C214.31 460.627 214.489 460.771 214.489 460.953Z" fill="#708AAB"/>
<path d="M219.012 466.61C219.012 467.013 218.686 467.34 218.287 467.34H207.123C206.717 467.34 206.394 467.013 206.394 466.61V464.171C206.394 463.768 206.72 463.441 207.123 463.441H218.287C218.686 463.441 219.012 463.768 219.012 464.171V466.61Z" fill="#2D4A6A"/>
<path d="M218.459 463.465V466.467C218.459 466.822 218.172 467.11 217.817 467.11H207.592C207.238 467.11 206.95 466.819 206.95 466.467V463.465C206.634 463.545 206.398 463.83 206.398 464.172V466.611C206.398 467.014 206.723 467.341 207.126 467.341H218.29C218.689 467.341 219.015 467.014 219.015 466.611V464.172C219.015 463.83 218.779 463.545 218.462 463.465H218.459Z" fill="#182F46"/>
<path d="M208.112 463.891C207.991 463.891 207.895 463.987 207.895 464.108V467.226H208.327V464.108C208.327 463.99 208.231 463.891 208.109 463.891H208.112Z" fill="#182F46"/>
<path d="M209.298 463.891C209.176 463.891 209.077 463.987 209.077 464.108V467.226H209.512V464.108C209.512 463.99 209.413 463.891 209.294 463.891H209.298Z" fill="#182F46"/>
<path d="M210.476 463.891C210.355 463.891 210.259 463.987 210.259 464.108V467.226H210.694V464.108C210.694 463.99 210.595 463.891 210.476 463.891Z" fill="#182F46"/>
<path d="M211.655 463.891C211.533 463.891 211.437 463.987 211.437 464.108V467.226H211.872V464.108C211.872 463.99 211.776 463.891 211.655 463.891Z" fill="#182F46"/>
<path d="M212.837 463.891C212.715 463.891 212.619 463.987 212.619 464.108V467.226H213.054V464.108C213.054 463.99 212.958 463.891 212.837 463.891Z" fill="#182F46"/>
<path d="M214.018 463.891C213.9 463.891 213.801 463.987 213.801 464.108V467.226H214.236V464.108C214.236 463.99 214.14 463.891 214.018 463.891Z" fill="#182F46"/>
<path d="M208.448 463.619H208.717V466.935H208.448V463.619Z" fill="#406F95"/>
<path d="M209.633 463.619H209.902V466.935H209.633V463.619Z" fill="#406F95"/>
<path d="M210.808 463.619H211.077V466.935H210.808V463.619Z" fill="#406F95"/>
<path d="M211.99 463.619H212.259V466.935H211.99V463.619Z" fill="#406F95"/>
<path d="M213.172 463.619H213.441V466.935H213.172V463.619Z" fill="#406F95"/>
<path d="M214.351 463.619H214.623V466.935H214.351V463.619Z" fill="#406F95"/>
<path d="M207.538 466.932L207.269 466.673V463.619H207.538V466.932Z" fill="#406F95"/>
<path d="M215.2 463.891C215.079 463.891 214.98 463.987 214.98 464.108V467.226H215.415V464.108C215.415 463.99 215.319 463.891 215.2 463.891Z" fill="#182F46"/>
<path d="M216.379 463.891C216.257 463.891 216.161 463.987 216.161 464.108V467.226H216.597V464.108C216.597 463.99 216.501 463.891 216.379 463.891Z" fill="#182F46"/>
<path d="M217.561 463.891C217.439 463.891 217.343 463.987 217.343 464.108V467.226H217.779V464.108C217.779 463.99 217.679 463.891 217.561 463.891Z" fill="#182F46"/>
<path d="M215.536 463.619H215.805V466.935H215.536V463.619Z" fill="#406F95"/>
<path d="M216.715 463.619H216.983V466.935H216.715V463.619Z" fill="#406F95"/>
<path d="M217.893 463.619H218.165V466.935H217.893V463.619Z" fill="#406F95"/>
<path d="M214.552 456.977C214.552 457.166 214.399 457.319 214.211 457.319H211.199C211.01 457.319 210.857 457.166 210.857 456.977C210.857 456.791 211.01 456.641 211.199 456.641H214.211C214.399 456.641 214.552 456.794 214.552 456.977Z" fill="#B65738"/>
<path d="M224.276 474.41C224.276 468.008 219.098 466.895 212.703 466.895C206.308 466.895 201.13 468.008 201.13 474.41C201.13 477.476 202.322 481.195 204.257 484.239L202.13 525.451C202.13 528.255 204.395 530.524 207.193 530.524H218.213C221.008 530.524 223.273 528.255 223.273 525.451L221.152 484.239C223.088 481.192 224.276 477.476 224.276 474.41Z" fill="#7CC5D0"/>
<path d="M221.938 475.349C221.599 467.347 202.702 477.858 205.966 483.19L204.27 524.39C204.27 526.624 206.078 528.435 208.308 528.435H217.102C219.331 528.435 221.139 526.624 221.139 524.39L219.443 483.19C220.989 480.761 221.935 477.794 221.935 475.349H221.938Z" fill="#A7D7E0"/>
<path d="M203.427 479.445C204.666 481.02 206.024 476.145 209.847 473.844C213.668 471.546 219.408 471.341 218.165 469.77C216.923 468.198 209.132 466.607 205.312 468.909C201.488 471.207 202.188 477.877 203.427 479.448V479.445Z" fill="#A7D7E0"/>
<path d="M211.282 468.409C211.528 468.787 208.675 468.905 206.366 470.406C204.056 471.91 203.159 474.231 202.913 473.85C202.667 473.476 203.414 471.001 205.724 469.5C208.036 467.996 211.036 468.031 211.282 468.409Z" fill="#C7E6EB"/>
<path d="M215.955 473.941C216.536 474.315 212.46 476.511 209.988 480.336C207.519 484.164 207.586 488.181 207.005 487.803C206.423 487.425 206.05 483.3 208.519 479.472C210.988 475.644 215.374 473.563 215.955 473.938V473.941Z" fill="#C7E6EB"/>
<path d="M211.381 470.196C211.563 470.814 211.211 471.457 210.601 471.636C209.985 471.822 209.343 471.47 209.161 470.859C208.979 470.244 209.33 469.601 209.943 469.415C210.557 469.233 211.202 469.588 211.384 470.199L211.381 470.196Z" fill="#C7E6EB"/>
<path d="M220.765 521.125H204.644L205.605 494.418H219.462L220.765 521.125Z" fill="white"/>
<path d="M219.979 520.494H205.433L206.452 495.049H218.957L219.979 520.494Z" fill="#E96F4C"/>
<path d="M217.182 508.599C217.182 511.077 215.179 513.084 212.703 513.084C210.234 513.084 208.231 511.077 208.231 508.599V501.34C208.231 498.863 210.234 496.859 212.703 496.859C215.176 496.859 217.182 498.866 217.182 501.34V508.599Z" fill="#C05C3C"/>
<path d="M215.77 508.331C215.77 510.028 214.396 511.397 212.706 511.397C211.014 511.397 209.643 510.024 209.643 508.331V501.61C209.643 499.913 211.014 498.537 212.706 498.537C214.399 498.537 215.77 499.913 215.77 501.61V508.331Z" fill="#843F25"/>
<path d="M208.458 513.664H216.955V514.842H208.458V513.664Z" fill="#843F25"/>
<path d="M208.458 515.824H216.955V517.002H208.458V515.824Z" fill="#843F25"/>
<path d="M208.458 517.984H216.955V519.162H208.458V517.984Z" fill="#843F25"/>
<path d="M205.535 482.014V476.08L195.713 481.16C199.227 487.487 198.003 483.563 200.019 482.872L203.216 481.784C203.2 488.22 210.691 489.481 210.691 487.487C205.328 486.402 205.535 482.017 205.535 482.017V482.014Z" fill="#2D4A6A"/>
<path d="M202.462 481.81L199.265 482.898C198.419 483.19 198.141 484.051 197.844 484.483C198.773 485.369 198.623 483.346 200.016 482.869L203.213 481.781L202.462 481.81Z" fill="#182F46"/>
<path d="M205.535 482.014V476.08L204.785 476.471V482.043C204.785 482.043 204.571 486.428 209.937 487.513C209.937 487.964 209.551 488.246 208.96 488.342C209.963 488.412 210.691 488.108 210.691 487.487C205.328 486.402 205.535 482.017 205.535 482.017V482.014Z" fill="#182F46"/>
<path d="M209.758 473.83H213.294V477.613H209.758V473.83Z" fill="#2D4A6A"/>
<path d="M209.758 476.076H213.294V477.549H209.758V476.076Z" fill="#182F46"/>
<path d="M209.758 474.262H213.294V474.998H209.758V474.262Z" fill="#406F95"/>
<path d="M191.056 473.568L184.239 481.01L186.625 485.667H195.71L197.224 482.873L207.19 477.803H210.205V473.568H191.056Z" fill="#E96F4C"/>
<path opacity="0.1" d="M186.373 482.614L193.192 475.175H210.205V473.568H191.056L184.239 481.01L186.625 485.667L186.373 482.614Z" fill="white"/>
<path opacity="0.3" d="M208.4 474.224C208.4 474.483 204.893 474.694 200.571 474.694C196.249 474.694 192.745 474.483 192.745 474.224C192.745 473.964 196.249 473.75 200.571 473.75C204.893 473.75 208.4 473.964 208.4 474.224Z" fill="white"/>
<path opacity="0.3" d="M190.04 475.794C189.193 476.715 188.663 477.599 188.852 477.778C189.04 477.951 189.877 477.343 190.723 476.424C191.57 475.505 192.103 474.619 191.912 474.44C191.723 474.267 190.886 474.872 190.04 475.794Z" fill="white"/>
<path d="M206.171 509.631H206.174C206.174 509.631 197.237 503.578 196.211 488.73H185.721L178.4 530.525H200.258C206.481 530.525 211.524 525.471 211.524 519.236C211.524 515.175 209.381 511.619 206.168 509.628L206.171 509.631Z" fill="#7CC5D0"/>
<path d="M204.526 509.63C204.526 509.63 195.54 504.185 194.617 490.832H186.836L180.259 528.421H199.204C204.801 528.421 209.34 523.876 209.34 518.268C209.34 514.616 207.413 511.419 204.523 509.63H204.526Z" fill="#A7D7E0"/>
<path d="M193.688 491.993C194.362 491.666 194.109 496.288 196.419 501.128C198.731 505.973 202.612 508.464 201.938 508.79C201.261 509.113 197.102 506.854 194.79 502.011C192.474 497.168 193.01 492.316 193.688 491.993Z" fill="#C7E6EB"/>
<path d="M192.458 492.478C192.637 493.089 192.289 493.736 191.675 493.918C191.062 494.101 190.42 493.749 190.238 493.134C190.056 492.52 190.404 491.873 191.021 491.691C191.631 491.508 192.279 491.86 192.461 492.475L192.458 492.478Z" fill="#C7E6EB"/>
<path d="M201.495 512.311C200.853 512.001 198.141 510.573 196.157 507.715H188.188L185.102 525.347H197.777C201.655 525.347 204.814 522.182 204.814 518.296C204.814 515.845 203.571 513.607 201.495 512.308V512.311Z" fill="#E96F4C"/>
<path d="M205.535 518.3C205.535 522.596 202.063 526.075 197.777 526.075H184.239L187.58 506.992H196.544C198.642 510.238 201.849 511.678 201.849 511.678C204.063 513.048 205.535 515.5 205.535 518.3ZM204.813 518.3C204.813 515.848 203.571 513.611 201.495 512.312C200.853 512.001 198.141 510.574 196.157 507.716H188.187L185.102 525.348H197.777C201.654 525.348 204.813 522.183 204.813 518.297V518.3Z" fill="white"/>
<path d="M196.093 516.606C196.093 518.261 194.758 519.602 193.103 519.602C191.455 519.602 190.117 518.264 190.117 516.606V511.76C190.117 510.109 191.452 508.768 193.103 508.768C194.755 508.768 196.093 510.109 196.093 511.76V516.606Z" fill="#C05C3C"/>
<path d="M195.151 516.426C195.151 517.559 194.231 518.478 193.103 518.478C191.973 518.478 191.056 517.559 191.056 516.426V511.939C191.056 510.806 191.973 509.891 193.103 509.891C194.234 509.891 195.151 510.809 195.151 511.939V516.426Z" fill="#843F25"/>
<path d="M187.003 519.986H199.358V520.774H187.003V519.986Z" fill="#843F25"/>
<path d="M187.003 521.43H199.358V522.217H187.003V521.43Z" fill="#843F25"/>
<path d="M187.003 522.873H199.358V523.66H187.003V522.873Z" fill="#843F25"/>
<path d="M197.738 488.169C197.738 488.573 197.412 488.899 197.013 488.899H185.849C185.447 488.899 185.124 488.573 185.124 488.169V485.73C185.124 485.33 185.447 485.004 185.849 485.004H197.013C197.415 485.004 197.738 485.33 197.738 485.73V488.169Z" fill="#2D4A6A"/>
<path d="M197.189 485.027V488.03C197.189 488.385 196.901 488.673 196.543 488.673H186.319C185.964 488.673 185.677 488.385 185.677 488.03V485.027C185.357 485.104 185.124 485.389 185.124 485.731V488.17C185.124 488.574 185.447 488.9 185.849 488.9H197.013C197.415 488.9 197.738 488.574 197.738 488.17V485.731C197.738 485.389 197.502 485.107 197.185 485.027H197.189Z" fill="#182F46"/>
<path d="M186.839 485.445C186.717 485.445 186.621 485.541 186.621 485.663V488.784H187.056V485.663C187.056 485.541 186.957 485.445 186.839 485.445Z" fill="#182F46"/>
<path d="M188.017 485.445C187.902 485.445 187.803 485.541 187.803 485.663V488.784H188.241V485.663C188.241 485.541 188.142 485.445 188.017 485.445Z" fill="#182F46"/>
<path d="M189.203 485.445C189.081 485.445 188.985 485.541 188.985 485.663V488.784H189.42V485.663C189.42 485.541 189.321 485.445 189.203 485.445Z" fill="#182F46"/>
<path d="M190.381 485.445C190.26 485.445 190.164 485.541 190.164 485.663V488.784H190.596V485.663C190.596 485.541 190.5 485.445 190.378 485.445H190.381Z" fill="#182F46"/>
<path d="M191.563 485.445C191.441 485.445 191.345 485.541 191.345 485.663V488.784H191.781V485.663C191.781 485.541 191.685 485.445 191.563 485.445Z" fill="#182F46"/>
<path d="M192.745 485.445C192.623 485.445 192.527 485.541 192.527 485.663V488.784H192.963V485.663C192.963 485.541 192.863 485.445 192.745 485.445Z" fill="#182F46"/>
<path d="M187.171 485.176H187.443V488.488H187.171V485.176Z" fill="#406F95"/>
<path d="M188.356 485.176H188.625V488.488H188.356V485.176Z" fill="#406F95"/>
<path d="M189.535 485.176H189.807V488.488H189.535V485.176Z" fill="#406F95"/>
<path d="M190.717 485.176H190.986V488.488H190.717V485.176Z" fill="#406F95"/>
<path d="M191.895 485.176H192.167V488.488H191.895V485.176Z" fill="#406F95"/>
<path d="M193.077 485.176H193.349V488.488H193.077V485.176Z" fill="#406F95"/>
<path d="M186.264 488.492L185.989 488.229V485.176H186.264V488.492Z" fill="#406F95"/>
<path d="M193.921 485.445C193.805 485.445 193.709 485.541 193.709 485.663V488.784H194.141V485.663C194.141 485.541 194.045 485.445 193.924 485.445H193.921Z" fill="#182F46"/>
<path d="M195.106 485.445C194.984 485.445 194.888 485.541 194.888 485.663V488.784H195.323V485.663C195.323 485.541 195.227 485.445 195.106 485.445Z" fill="#182F46"/>
<path d="M196.284 485.445C196.166 485.445 196.07 485.541 196.07 485.663V488.784H196.502V485.663C196.502 485.541 196.406 485.445 196.284 485.445Z" fill="#182F46"/>
<path d="M194.262 485.176H194.531V488.488H194.262V485.176Z" fill="#406F95"/>
<path d="M195.438 485.176H195.71V488.488H195.438V485.176Z" fill="#406F95"/>
<path d="M196.62 485.176H196.892V488.488H196.62V485.176Z" fill="#406F95"/>
<g clip-path="url(#clip0_258_5623)">
<path d="M404.489 308.892C405.126 307.742 404.06 301.349 399.309 294.416C399.309 294.416 401.317 296.246 404.295 299.477C405.486 300.767 405.985 303.013 407.772 304.192C410.279 305.828 410.099 299.588 406.941 295.705C403.783 291.823 395.639 287.191 389.808 284.016C389.171 283.669 388.381 283.281 387.522 282.865L380.209 278.705L371.954 285.403C374.627 287.261 377.73 292.28 379.101 294.319C381.317 297.577 385.763 298.243 386.567 299.754C388.741 303.817 389.545 312.498 392.19 312.123C394.822 311.749 392.758 302.445 392.758 302.445C392.758 302.445 396.193 312.123 398.644 311.707C402.038 311.139 401.484 309.974 401.484 309.974C401.484 309.974 403.464 310.778 404.489 308.92V308.892Z" fill="#FDBBB5"/>
<path d="M401.622 309.918C401.041 307.103 400.417 304.288 399.115 301.709C397.606 298.7 395.265 296.218 392.772 293.985C392.273 293.541 391.539 294.276 392.038 294.72C394.462 296.897 396.733 299.296 398.215 302.236C399.462 304.732 400.057 307.477 400.611 310.195C400.75 310.847 401.747 310.569 401.608 309.918H401.622Z" fill="#A24E3F"/>
<path d="M393.256 302.486C392.619 301.21 392.038 299.865 391.276 298.659C390.583 297.55 389.669 296.621 388.45 296.107C388.187 295.997 387.882 296.218 387.813 296.468C387.73 296.773 387.91 296.995 388.173 297.106C389.226 297.55 389.988 298.506 390.556 299.463C391.22 300.6 391.774 301.82 392.356 303.013C392.647 303.609 393.547 303.082 393.256 302.486Z" fill="#A24E3F"/>
<path d="M344.572 185.355C344.572 185.355 349.669 187.158 350.666 194.993C351.663 202.841 346.165 242.388 347.827 247.061C349.489 251.734 380.126 277.166 380.168 277.928C380.209 278.691 372.841 288.938 370.001 288.106C367.162 287.274 333.27 272.423 330.209 264.408C327.162 256.394 333.491 188.988 333.491 188.988L343.796 185.466" fill="#263238"/>
<path d="M221.385 544.621L213.656 584.418L226.316 586.54L240.485 551.499L221.385 544.621Z" fill="#FDBBB5"/>
<path d="M211.08 605.759L222.147 605.675C222.147 605.675 224.377 604.469 225.693 604.622C227.008 604.774 231.565 605.606 231.565 605.606L260.167 605.523C259.917 604.289 260 603.096 259.668 602.126C259.252 600.947 259.197 599.893 258.671 599.047C256.829 596.08 256.441 595.692 251.122 593.986C246.939 592.641 234.501 586.124 234.501 586.124C234.501 586.124 231.233 585.832 230.942 580.827C230.831 578.955 228.047 576.681 226.731 576.5C224.044 576.126 222.562 577.845 222.188 580.535L222.05 582.435L218.809 581.52C218.809 581.52 212.465 578.386 212.798 581.478C212.992 583.239 209.39 590.977 210.097 597.203C210.263 598.659 210.415 600.032 210.554 601.238C210.859 603.914 211.066 605.745 211.066 605.745L211.08 605.759Z" fill="#407BFF"/>
<g opacity="0.2">
<path d="M260.153 605.523L231.551 605.606C231.551 605.606 226.981 604.774 225.679 604.622C224.363 604.469 222.133 605.675 222.133 605.675L211.066 605.759C211.066 605.759 210.859 603.914 210.554 601.252L259.654 602.139C259.987 603.11 259.903 604.303 260.153 605.537V605.523Z" fill="#263238"/>
</g>
<path d="M240.956 589.286C240.817 589.147 240.61 589.147 240.443 589.244C239.723 589.729 239.114 590.423 238.698 591.282C238.477 591.74 239.141 592.17 239.363 591.712C239.723 590.95 240.263 590.34 240.887 589.91C241.094 589.771 241.136 589.466 240.942 589.286H240.956Z" fill="#263238"/>
<path d="M238.601 587.926C238.463 587.788 238.255 587.788 238.089 587.885C237.369 588.37 236.759 589.063 236.344 589.923C236.122 590.381 236.787 590.811 237.008 590.353C237.369 589.59 237.909 588.98 238.532 588.55C238.74 588.412 238.781 588.107 238.587 587.926H238.601Z" fill="#263238"/>
<path d="M236.191 586.651C236.053 586.512 235.845 586.512 235.693 586.609C234.972 587.095 234.363 587.788 233.947 588.648C233.726 589.105 234.391 589.535 234.612 589.078C234.972 588.315 235.513 587.705 236.136 587.275C236.344 587.136 236.385 586.831 236.191 586.651Z" fill="#263238"/>
<path d="M367.093 604.499L378.159 604.416C378.159 604.416 380.389 603.209 381.705 603.362C383.021 603.514 387.578 604.346 387.578 604.346L416.179 604.263C415.93 603.029 416.013 601.836 415.68 600.866C415.265 599.687 415.196 598.633 414.683 597.787C412.841 594.82 412.453 594.432 407.135 592.726C402.952 591.381 390.514 584.864 390.514 584.864C390.514 584.864 387.259 584.573 386.954 579.567C386.844 577.695 384.06 575.421 382.744 575.24C380.057 574.866 378.575 576.586 378.201 579.276L378.062 581.175L374.835 580.26C374.835 580.26 368.492 577.126 368.824 580.219C369.018 581.98 365.417 589.717 366.123 595.943C366.289 597.399 366.442 598.772 366.58 599.978C366.885 602.655 367.093 604.485 367.093 604.485V604.499Z" fill="#407BFF"/>
<g opacity="0.2">
<path d="M416.179 604.263L387.578 604.346C387.578 604.346 383.007 603.514 381.705 603.362C380.389 603.209 378.159 604.416 378.159 604.416L367.093 604.499C367.093 604.499 366.885 602.655 366.58 599.992L415.68 600.88C416.013 601.85 415.93 603.043 416.179 604.277V604.263Z" fill="#263238"/>
</g>
<path d="M396.982 588.012C396.844 587.874 396.636 587.874 396.484 587.971C395.763 588.456 395.154 589.149 394.738 590.009C394.517 590.467 395.182 590.896 395.403 590.439C395.763 589.676 396.304 589.066 396.927 588.636C397.135 588.498 397.176 588.192 396.982 588.012Z" fill="#263238"/>
<path d="M394.628 586.653C394.489 586.514 394.281 586.514 394.129 586.611C393.409 587.097 392.799 587.79 392.384 588.65C392.162 589.107 392.827 589.537 393.049 589.079C393.409 588.317 393.949 587.707 394.572 587.277C394.78 587.138 394.822 586.833 394.628 586.653Z" fill="#263238"/>
<path d="M392.204 585.391C392.065 585.252 391.857 585.238 391.705 585.349C390.985 585.835 390.375 586.528 389.96 587.388C389.738 587.845 390.403 588.275 390.625 587.818C390.985 587.055 391.525 586.445 392.148 586.015C392.356 585.876 392.398 585.571 392.204 585.391Z" fill="#263238"/>
<path d="M390.334 579.247L364.018 585.432C364.018 585.432 355.375 501.262 341.151 456.293C333.339 431.638 319.599 392.271 307.494 358.576C301.594 341.881 296.067 326.586 291.912 315.132C287.369 302.527 284.488 294.582 284.488 294.582L330.818 273.297C330.818 273.297 368.783 395.461 379.24 437.545C390.708 483.652 390.348 579.261 390.348 579.261L390.334 579.247Z" fill="#263238"/>
<path opacity="0.3" d="M307.563 358.588C301.663 341.893 296.137 326.598 291.981 315.145C295.167 315.242 298.228 316.379 300.707 318.389C306.497 330.952 308.865 344.819 307.563 358.588Z" fill="black"/>
<path d="M312.259 279.815C312.259 279.815 294.973 406.569 286.455 449.111C277.272 495.716 236.455 582.132 236.455 582.132L210 576.572C210 576.572 237.812 496.687 243.962 449.901C250.845 397.611 261.164 279.357 261.164 279.357L312.245 279.829L312.259 279.815Z" fill="#263238"/>
<g opacity="0.4">
<path d="M343.093 232.169C343.009 232.169 342.925 232.141 342.841 232.127L343.079 232.155L343.093 232.169Z" fill="black"/>
</g>
<g opacity="0.3">
<path d="M288.283 297.079C281.815 299.173 274.89 299.395 268.297 297.731C267.646 297.564 267.369 298.563 268.02 298.729C274.779 300.449 281.912 300.227 288.56 298.078C289.197 297.87 288.92 296.871 288.283 297.079Z" fill="black"/>
</g>
<path d="M279.945 175.303C279.945 175.303 269.557 180.142 268.172 184.149C266.787 188.157 261.136 269.151 261.136 269.151L340.154 273.38L343.81 185.564C337.19 182.513 330.112 179.088 326.843 178.617L300.056 172.807L279.959 175.303H279.945Z" fill="#263238"/>
<path d="M277.203 175.69C277.203 175.69 287.785 177.202 287.563 189.529C287.341 201.843 282.106 237.646 275.61 241.931C269.128 246.215 261.87 245.203 261.87 245.203C261.87 245.203 253.56 299.338 254.239 302.028C254.917 304.718 288.699 310.764 309.059 310.32C329.419 309.877 340.403 304.718 340.403 304.718C340.403 304.718 340.929 278.705 341.552 270.995C342.176 263.299 344.586 185.439 344.586 185.439L330.694 179.726L318.602 218.996L297.217 172.973C297.217 172.973 285.776 173.777 277.231 175.663L277.203 175.69Z" fill="#407BFF"/>
<path opacity="0.5" d="M277.203 175.69C277.203 175.69 287.785 177.202 287.563 189.529C287.341 201.843 282.106 237.646 275.61 241.931C269.128 246.215 261.87 245.203 261.87 245.203C261.87 245.203 253.56 299.338 254.239 302.028C254.917 304.718 288.699 310.764 309.059 310.32C329.419 309.877 340.403 304.718 340.403 304.718C340.403 304.718 340.929 278.705 341.552 270.995C342.176 263.299 344.586 185.439 344.586 185.439L330.694 179.726L318.602 218.996L297.217 172.973C297.217 172.973 285.776 173.777 277.231 175.663L277.203 175.69Z" fill="#FAFAFA"/>
<path opacity="0.5" d="M257.161 277.332C257.161 277.332 288.242 285.167 312.425 285.167C336.608 285.167 341.012 282.172 341.012 282.172L341.497 271.73C341.497 271.73 324.96 274.074 307.508 274.074C286.649 274.074 258.892 265.352 258.892 265.352L257.161 277.332Z" fill="white"/>
<path opacity="0.5" d="M254.682 295.857C254.682 295.857 286.233 302.125 311.081 302.125C335.929 302.125 340.514 298.991 340.514 298.991L340.791 288.702C340.791 288.702 323.962 291.032 306.026 291.032C284.585 291.032 256.386 282.643 256.386 282.643L254.682 295.857Z" fill="white"/>
<path d="M318.062 219.009C316.968 242.499 315.001 265.919 313.519 289.381C313.089 296.301 312.688 303.22 312.369 310.14C312.341 310.805 313.38 310.805 313.408 310.14C314.502 286.65 316.469 263.229 317.937 239.767C318.366 232.848 318.768 225.928 319.087 219.009C319.114 218.343 318.076 218.343 318.048 219.009H318.062Z" fill="#263238"/>
<path d="M290.416 131.013C290.416 131.013 292.577 137.46 294.17 140.511C295.763 143.562 297.079 151.646 305.929 156.735L341.096 131.817C341.096 131.817 342.952 126.825 342.342 121.126C341.747 115.427 326.317 109.242 325.832 109.242C325.347 109.242 296.677 112.639 293.159 123.525C289.641 134.41 290.403 130.999 290.403 130.999L290.416 131.013Z" fill="#263238"/>
<path d="M334.087 133.12C342.439 135.547 341.511 123.968 338.824 118.699C334.239 109.561 325.735 130.693 334.087 133.12Z" fill="#263238"/>
<path d="M316.691 185.465C310.167 184.772 303.934 181.277 299.682 172.763C302.12 171.418 302.674 170.767 304.087 168.368C307.314 162.863 309.558 156.845 310.749 150.563C311.525 146.958 312.12 143.325 312.522 139.664L319.184 150.341L326.58 162.017C325.472 163.778 324.489 165.622 323.672 167.536C321.455 172.916 323.381 177.825 326.816 178.518C327.702 182.525 323.672 186.769 316.677 185.465H316.691Z" fill="#FDBBB5"/>
<path opacity="0.2" d="M307.702 160.979C307.702 160.979 311.081 172.543 322.841 170.033L323.685 167.551L307.702 160.992V160.979Z" fill="black"/>
<path d="M301.067 123.996C304.655 113.541 316.04 107.981 326.483 111.572C340.888 116.55 343.824 137.932 341.289 151.092C338.464 165.735 320.915 173.32 309.447 162.753C301.801 155.723 301.649 147.195 300.112 132.788C299.779 129.82 300.112 126.825 301.067 124.01V123.996Z" fill="#FDBBB5"/>
<path d="M299.433 113.693C299.793 112.75 300.195 111.807 300.887 111.072C301.608 110.296 302.591 109.838 303.574 109.45C308.076 107.689 313.048 107.356 317.84 108.022C322.619 108.687 327.231 110.337 331.594 112.417C334.226 113.665 336.816 115.107 338.866 117.173C340.915 119.239 342.397 122.027 342.356 124.939C342.356 125.174 342.328 125.424 342.19 125.618C341.927 125.979 341.386 125.923 340.943 125.812C338.007 125.05 328.976 125.41 328.395 119.17C327.993 119.808 328.325 118.421 328.395 119.17C323.159 120.155 322.674 119.489 317.453 118.394C318.478 119.711 318.228 121.763 317.065 122.956C315.901 124.148 314.032 124.495 312.439 124.037C312.439 126.173 312.342 128.433 311.165 130.222C310.375 131.414 308.768 132.329 307.536 131.595C307.702 132.953 307.799 134.312 307.827 135.671C307.854 136.989 307.785 138.375 307.079 139.485C306.317 140.677 304.959 141.315 303.671 141.897L296.123 131.608C296.095 125.507 297.217 119.392 299.405 113.693H299.433Z" fill="#263238"/>
<path d="M292.3 144.864C293.81 148.553 296.718 151.492 300.389 153.045C305.264 155.056 308.325 150.841 307.508 145.904C306.732 141.522 303.311 135.061 298.145 135.185C292.992 135.324 290.513 140.316 292.3 144.864Z" fill="#FDBBB5"/>
<g opacity="0.3">
<path d="M296.815 140.428C297.134 139.956 297.812 139.845 298.339 139.998C299.059 140.192 299.613 140.733 300.098 141.274C301.081 142.397 301.718 143.853 301.898 145.323C301.926 145.6 302.106 145.85 302.425 145.85C302.674 145.85 302.979 145.614 302.951 145.323C302.716 143.423 301.912 141.62 300.569 140.234C299.918 139.554 299.101 138.986 298.145 138.902C297.286 138.819 296.427 139.18 295.943 139.901C295.569 140.455 296.469 140.969 296.843 140.428H296.815Z" fill="black"/>
</g>
<g opacity="0.3">
<path d="M312.688 123.343C311.372 123.01 310.306 122.331 309.419 121.305C309.17 121.013 308.63 121.166 308.547 121.54C308.117 123.704 306.164 125.478 303.893 125.409C301.621 125.34 299.655 123.371 299.447 121.124C299.405 120.667 298.713 120.334 298.477 120.861C297.328 123.496 294.364 124.979 291.566 124.23C290.915 124.064 290.638 125.062 291.289 125.229C294.502 126.089 298.034 124.438 299.378 121.374L298.408 121.111C298.657 123.828 300.818 126.2 303.588 126.421C306.358 126.643 308.99 124.508 309.544 121.804L308.671 122.04C309.655 123.19 310.915 123.967 312.397 124.341C313.048 124.508 313.325 123.509 312.674 123.343H312.688Z" fill="black"/>
</g>
<path d="M349.004 120.625C336.733 130.845 310.791 118.407 300.084 123.676C289.378 128.931 289.876 135.241 289.876 135.352C282.826 136.295 288.131 126.727 288.131 126.727C284.267 105.913 299.281 96.4422 319.904 97.0939C339.212 97.7595 341.566 115.938 341.566 115.938L349.004 120.625Z" fill="#407BFF"/>
<path opacity="0.2" d="M341.58 115.938C336.178 122.22 310.763 116.673 300.389 118.781C290.832 120.722 288.159 126.727 288.159 126.727C284.281 105.913 299.294 96.4422 319.918 97.0939C339.198 97.7595 341.58 115.938 341.58 115.938Z" fill="black"/>
<path d="M305.139 99.6884C313.644 98.1631 321.635 105.679 324.419 110.685C327.203 115.704 334.807 115.066 335.791 110.061C335.971 108.896 335.874 107.703 335.514 106.566C333.727 101.394 329.142 97.65 323.741 96.9567C314.267 95.3343 297.757 94.4053 292.743 105.887C292.729 105.887 296.4 101.255 305.139 99.6884Z" fill="#407BFF"/>
<g opacity="0.3">
<path d="M289.488 112.639C293.131 111.114 296.968 110.06 300.832 109.255C302.827 108.839 304.863 108.423 306.899 108.215C308.048 108.105 309.295 108.091 310.278 108.77C311.345 109.505 311.677 110.725 310.915 111.821C309.655 113.609 307.092 113.346 305.167 113.651C303.242 113.956 301.469 114.289 299.641 114.719C295.901 115.592 292.3 116.868 288.727 118.269C288.117 118.504 288.38 119.517 289.004 119.267C292.3 117.977 295.624 116.785 299.059 115.925C300.777 115.495 302.508 115.149 304.239 114.857C305.971 114.566 308.048 114.622 309.738 113.97C312.203 112.999 313.408 109.949 311.095 108.104C309.779 107.051 308.062 107.037 306.455 107.231C304.738 107.439 303.02 107.758 301.317 108.091C297.189 108.909 293.076 109.99 289.184 111.627C288.574 111.876 288.837 112.888 289.461 112.625L289.488 112.639Z" fill="black"/>
</g>
<path d="M375.708 302.639C382.384 302.639 389.074 302.639 395.75 302.639C397.966 302.639 400.182 302.639 402.398 302.639C403.354 302.639 404.337 302.597 405.293 302.667C404.656 302.611 405.847 302.791 406.041 302.833C406.235 302.875 406.442 302.944 406.636 303.013C407.827 303.388 406.345 302.833 406.996 303.138C408.686 303.942 409.836 304.982 410.75 306.383C411.927 308.172 412.55 309.78 412.869 312.054C413.007 312.983 412.966 314.564 412.966 315.798V546.551C412.966 550.461 412.883 554.385 412.966 558.295C412.966 558.462 412.966 558.628 412.966 558.795C412.966 564.147 421.276 564.161 421.276 558.795V324.007C421.276 320.707 421.304 317.421 421.276 314.12C421.207 306.036 417.01 297.786 409.032 295.04C404.946 293.626 399.988 294.291 395.736 294.291C391.484 294.291 386.899 294.291 382.481 294.291C380.223 294.291 377.952 294.291 375.694 294.291C370.348 294.291 370.334 302.611 375.694 302.611L375.708 302.639Z" fill="#263238"/>
<g opacity="0.3">
<path d="M375.708 302.639C382.384 302.639 389.074 302.639 395.75 302.639C397.966 302.639 400.182 302.639 402.398 302.639C403.354 302.639 404.337 302.597 405.293 302.667C404.656 302.611 405.847 302.791 406.041 302.833C406.235 302.875 406.442 302.944 406.636 303.013C407.827 303.388 406.345 302.833 406.996 303.138C408.686 303.942 409.836 304.982 410.75 306.383C411.927 308.172 412.55 309.78 412.869 312.054C413.007 312.983 412.966 314.564 412.966 315.798V546.551C412.966 550.461 412.883 554.385 412.966 558.295C412.966 558.462 412.966 558.628 412.966 558.795C412.966 564.147 421.276 564.161 421.276 558.795V324.007C421.276 320.707 421.304 317.421 421.276 314.12C421.207 306.036 417.01 297.786 409.032 295.04C404.946 293.626 399.988 294.291 395.736 294.291C391.484 294.291 386.899 294.291 382.481 294.291C380.223 294.291 377.952 294.291 375.694 294.291C370.348 294.291 370.334 302.611 375.694 302.611L375.708 302.639Z" fill="white"/>
</g>
<path d="M508.382 573.409C508.382 593.612 499.102 610.003 487.662 610.003C483.368 610.003 467.662 610.003 465.224 609.739C456.706 608.824 466.942 586.041 466.942 573.409C466.942 559.612 458.174 543.457 464.573 537.231C467.537 534.333 484.033 536.829 487.662 536.829C499.102 536.829 508.382 553.206 508.382 573.423V573.409Z" fill="#263238"/>
<path d="M467.662 610.004C479.105 610.004 488.382 593.62 488.382 573.41C488.382 553.2 479.105 536.816 467.662 536.816C456.218 536.816 446.941 553.2 446.941 573.41C446.941 593.62 456.218 610.004 467.662 610.004Z" fill="#263238"/>
<path opacity="0.3" d="M467.662 610.004C479.105 610.004 488.382 593.62 488.382 573.41C488.382 553.2 479.105 536.816 467.662 536.816C456.218 536.816 446.941 553.2 446.941 573.41C446.941 593.62 456.218 610.004 467.662 610.004Z" fill="black"/>
<path opacity="0.3" d="M467.662 595.694C474.783 595.694 480.557 585.494 480.557 572.912C480.557 560.329 474.783 550.129 467.662 550.129C460.54 550.129 454.767 560.329 454.767 572.912C454.767 585.494 460.54 595.694 467.662 595.694Z" fill="#FAFAFA"/>
<path d="M500.695 471.824H360.625V568.696H500.695V471.824Z" fill="#407BFF"/>
<path opacity="0.3" d="M444.822 471.824H360.625V568.696H444.822V471.824Z" fill="black"/>
<path d="M444.296 471.823V566.49C444.296 567.156 445.335 567.156 445.335 566.49V471.823C445.335 471.158 444.296 471.158 444.296 471.823Z" fill="#263238"/>
<path opacity="0.5" d="M409.406 471.824H394.642V500.667H409.406V471.824Z" fill="#FAFAFA"/>
<path d="M489.144 347.055H360.625V435.939H489.144V347.055Z" fill="#407BFF"/>
<path opacity="0.5" d="M489.144 347.055H360.625V435.939H489.144V347.055Z" fill="#FAFAFA"/>
<path opacity="0.3" d="M437.883 347.055H360.625V435.939H437.883V347.055Z" fill="black"/>
<path d="M437.357 347.054V433.914C437.357 434.579 438.395 434.579 438.395 433.914V347.054C438.395 346.388 437.357 346.388 437.357 347.054Z" fill="#263238"/>
<path opacity="0.5" d="M405.39 347.055H391.844V373.526H405.39V347.055Z" fill="#FAFAFA"/>
<path d="M507.482 434.344H350.929V471.825H507.482V434.344Z" fill="#263238"/>
<path opacity="0.3" d="M445.03 434.344H350.929V471.825H445.03V434.344Z" fill="black"/>
<path d="M444.518 434.343V470.978C444.518 471.644 445.556 471.644 445.556 470.978V434.343C445.556 433.677 444.518 433.677 444.518 434.343Z" fill="#263238"/>
<path opacity="0.5" d="M487.344 434.344H472.579V463.186H487.344V434.344Z" fill="#FAFAFA"/>
<path opacity="0.3" d="M500.695 471.824H360.625V477.232H500.695V471.824Z" fill="black"/>
<path d="M516 568.709H374.018V581.133H516V568.709Z" fill="#263238"/>
<path d="M309.502 302.639C316.178 302.639 322.868 302.639 329.544 302.639C331.76 302.639 333.976 302.639 336.192 302.639C337.148 302.639 338.131 302.597 339.087 302.667C338.45 302.611 339.641 302.791 339.835 302.833C340.029 302.875 340.237 302.944 340.431 303.013C341.622 303.388 340.14 302.833 340.791 303.138C342.481 303.942 343.63 304.982 344.544 306.383C345.722 308.172 346.345 309.78 346.663 312.054C346.802 312.983 346.76 314.564 346.76 315.798V546.551C346.76 550.461 346.677 554.385 346.76 558.295C346.76 558.462 346.76 558.628 346.76 558.795C346.76 564.147 355.071 564.161 355.071 558.795V324.007C355.071 320.707 355.098 317.421 355.071 314.12C355.001 306.036 350.805 297.786 342.827 295.04C338.741 293.626 333.782 294.291 329.53 294.291C325.278 294.291 320.694 294.291 316.275 294.291C314.018 294.291 311.746 294.291 309.489 294.291C304.142 294.291 304.128 302.611 309.489 302.611L309.502 302.639Z" fill="#263238"/>
<g opacity="0.3">
<path d="M309.502 302.639C316.178 302.639 322.868 302.639 329.544 302.639C331.76 302.639 333.976 302.639 336.192 302.639C337.148 302.639 338.131 302.597 339.087 302.667C338.45 302.611 339.641 302.791 339.835 302.833C340.029 302.875 340.237 302.944 340.431 303.013C341.622 303.388 340.14 302.833 340.791 303.138C342.481 303.942 343.63 304.982 344.544 306.383C345.722 308.172 346.345 309.78 346.663 312.054C346.802 312.983 346.76 314.564 346.76 315.798V546.551C346.76 550.461 346.677 554.385 346.76 558.295C346.76 558.462 346.76 558.628 346.76 558.795C346.76 564.147 355.071 564.161 355.071 558.795V324.007C355.071 320.707 355.098 317.421 355.071 314.12C355.001 306.036 350.805 297.786 342.827 295.04C338.741 293.626 333.782 294.291 329.53 294.291C325.278 294.291 320.694 294.291 316.275 294.291C314.018 294.291 311.746 294.291 309.489 294.291C304.142 294.291 304.128 302.611 309.489 302.611L309.502 302.639Z" fill="white"/>
</g>
<path d="M361.192 435.118H507.482C508.147 435.118 508.147 434.078 507.482 434.078H361.192C360.528 434.078 360.528 435.118 361.192 435.118Z" fill="#263238"/>
<path d="M377.093 575.407C377.093 595.611 367.813 612.001 356.373 612.001C352.079 612.001 336.373 612.001 333.935 611.737C325.417 610.822 335.652 588.039 335.652 575.407C335.652 561.61 326.885 545.455 333.284 539.229C336.248 536.331 352.744 538.827 356.373 538.827C367.813 538.827 377.093 555.204 377.093 575.421V575.407Z" fill="#263238"/>
<path d="M336.386 612C347.83 612 357.107 595.616 357.107 575.406C357.107 555.196 347.83 538.812 336.386 538.812C324.943 538.812 315.666 555.196 315.666 575.406C315.666 595.616 324.943 612 336.386 612Z" fill="#263238"/>
<path opacity="0.3" d="M336.386 612C347.83 612 357.107 595.616 357.107 575.406C357.107 555.196 347.83 538.812 336.386 538.812C324.943 538.812 315.666 555.196 315.666 575.406C315.666 595.616 324.943 612 336.386 612Z" fill="black"/>
<path opacity="0.3" d="M336.387 597.704C343.508 597.704 349.281 587.504 349.281 574.921C349.281 562.339 343.508 552.139 336.387 552.139C329.265 552.139 323.492 562.339 323.492 574.921C323.492 587.504 329.265 597.704 336.387 597.704Z" fill="#FAFAFA"/>
<path d="M336.248 296.107H319.239C318.069 296.107 317.12 297.057 317.12 298.229V298.728C317.12 299.9 318.069 300.85 319.239 300.85H336.248C337.418 300.85 338.367 299.9 338.367 298.728V298.229C338.367 297.057 337.418 296.107 336.248 296.107Z" fill="#263238"/>
<path d="M335.001 308.89C335.638 307.74 334.572 301.347 329.821 294.414C329.821 294.414 331.829 296.244 334.807 299.475C335.998 300.765 336.497 303.011 338.284 304.19C340.791 305.826 340.611 299.586 337.453 295.703C334.295 291.821 326.151 287.189 320.32 284.014C319.683 283.667 318.893 283.279 318.034 282.863L310.721 278.703L302.466 285.401C305.139 287.259 308.242 292.278 309.613 294.317C311.829 297.575 316.275 298.241 317.079 299.752C319.253 303.815 320.056 312.496 322.702 312.121C325.334 311.747 323.27 302.443 323.27 302.443C323.27 302.443 326.705 312.121 329.156 311.705C332.55 311.137 331.996 309.972 331.996 309.972C331.996 309.972 333.976 310.776 335.001 308.918V308.89Z" fill="#FDBBB5"/>
<path d="M332.134 309.918C331.553 307.103 330.929 304.288 329.627 301.709C328.118 298.7 325.777 296.218 323.284 293.985C322.785 293.541 322.051 294.276 322.55 294.72C324.973 296.897 327.245 299.296 328.727 302.236C329.974 304.732 330.569 307.477 331.123 310.195C331.262 310.847 332.259 310.569 332.12 309.918H332.134Z" fill="#A24E3F"/>
<path d="M323.768 302.486C323.131 301.21 322.55 299.865 321.788 298.659C321.095 297.55 320.181 296.621 318.962 296.107C318.699 295.997 318.394 296.218 318.325 296.468C318.242 296.773 318.422 296.995 318.685 297.106C319.738 297.55 320.5 298.506 321.068 299.463C321.732 300.6 322.286 301.82 322.868 303.013C323.159 303.609 324.059 303.082 323.768 302.486Z" fill="#A24E3F"/>
<path d="M279.322 175.926C274.017 174.664 267.992 177.937 261.081 189.446C255.416 198.889 244.848 245.577 243.657 250.209C241.842 257.253 247.383 265.254 252.84 268.11C270.984 277.567 302.452 289.368 302.452 289.368L312.245 277.235C312.245 277.235 272.12 247.422 270.471 247.297L282.203 203.659L279.322 175.926Z" fill="#263238"/>
<g opacity="0.3">
<path d="M263.311 255.187C264.086 253.496 265.139 251.998 266.496 250.722C267.715 249.571 269.114 248.85 270.458 247.907C271.053 247.491 271.053 247.214 271.233 246.521L273.505 237.882L280.222 212.284C280.804 210.093 281.372 207.903 281.953 205.698C282.12 205.046 281.122 204.769 280.956 205.42C277.452 218.802 273.934 232.169 270.43 245.55C270.333 245.938 270.277 246.451 270.097 246.798C269.848 247.297 270.167 246.854 269.64 247.172C266.552 249.003 263.948 251.346 262.438 254.66C262.161 255.271 263.061 255.797 263.338 255.187H263.311Z" fill="black"/>
</g>
<path d="M382.605 288.411C383.561 291.185 386.151 293.32 389.06 293.722C389.808 293.833 390.597 293.833 391.262 294.194C392.55 294.915 392.786 296.607 393.118 298.035C393.478 299.588 394.115 301.085 394.988 302.431C395.376 303.041 395.944 303.678 396.664 303.637C397.218 303.609 397.703 303.165 397.91 302.639C398.118 302.125 398.132 301.543 398.104 300.975C397.938 296.204 396.331 291.49 393.52 287.621" fill="#FDBBB5"/>
<path d="M382.107 288.55C382.966 290.921 384.794 292.821 387.135 293.75C387.702 293.972 388.298 294.138 388.907 294.221C389.628 294.332 390.445 294.304 391.082 294.707C392.232 295.428 392.356 297.119 392.647 298.312C393.007 299.768 393.589 301.182 394.378 302.458C394.932 303.345 395.805 304.413 396.996 304.122C398.27 303.803 398.631 302.416 398.631 301.279C398.631 299.768 398.423 298.243 398.104 296.759C397.398 293.389 395.971 290.186 393.977 287.385C393.589 286.844 392.689 287.371 393.076 287.912C394.628 290.089 395.833 292.474 396.595 295.039C396.982 296.357 397.273 297.716 397.439 299.075C397.55 300.059 398.049 302.416 396.982 303.013C395.819 303.664 394.766 301.071 394.42 300.309C393.88 299.102 393.644 297.84 393.312 296.565C393.076 295.65 392.716 294.693 391.982 294.069C391.082 293.306 389.946 293.362 388.852 293.154C386.248 292.668 384.004 290.755 383.104 288.259C382.882 287.635 381.871 287.898 382.107 288.536V288.55Z" fill="#A24E3F"/>
</g>
<defs>
<clipPath id="clip0_258_5623">
<rect width="306" height="516" fill="white" transform="translate(210 96)"/>
</clipPath>
</defs>
</svg>
