<svg width="498" height="612" viewBox="0 0 498 612" fill="none" xmlns="http://www.w3.org/2000/svg">
<circle cx="249" cy="249" r="249" transform="matrix(-1 0 0 1 498 0)" fill="#77B7F3"/>
<g clip-path="url(#clip0_252_3548)">
<g style="mix-blend-mode:multiply" opacity="0.3">
<path d="M398 568.144L224.344 468.02L151.404 510.343C148.232 511.441 144.959 512.335 141.429 512.82C136.161 513.561 132.171 513.97 127.491 517.392C120.867 522.296 110.125 535.68 108.054 543.828C105.291 554.709 116.928 556.446 124.345 560.89C134.933 567.225 136.468 574.836 150.406 575.551C160.79 576.062 171.045 574.07 181.199 573.585C190.329 573.151 198.027 576.803 206.902 576.216C216.672 575.577 227.157 567.736 221.275 557.8C219.101 554.122 215.597 551.031 211.735 548.222L322.374 612.025L397.949 568.17L398 568.144Z" fill="#DB982E"/>
</g>
<g style="mix-blend-mode:multiply" opacity="0.3">
<path d="M214.523 605.973C212.784 604.9 211.275 603.674 210.022 602.346C206.8 599 205.291 594.939 205.725 590.929C206.237 586.254 209.357 581.912 214.498 578.694C225.853 571.542 244.344 571.542 255.725 578.694C260.866 581.912 263.986 586.254 264.523 590.929C264.983 594.939 263.449 599 260.252 602.346C259.024 603.648 257.515 604.875 255.751 605.973C250.073 609.549 242.605 611.337 235.137 611.337C227.669 611.337 220.201 609.549 214.523 605.973Z" fill="#DB982E"/>
</g>
<path d="M250.508 175.359L306.083 143.125L305.188 519.691L249.613 551.951L250.508 175.359Z" fill="#4AA2CB"/>
<path d="M168.795 128.26L224.37 96L306.083 143.125L250.508 175.359L168.795 128.26Z" fill="#D6EAF3"/>
<path d="M250.508 175.359L249.613 551.951L167.9 504.826L168.795 128.26L250.508 175.359Z" fill="#3A9AC7"/>
<path d="M332.246 222.484L387.795 190.25L386.9 566.816L331.351 599.05L332.246 222.484Z" fill="#75B8D8"/>
<path d="M250.508 175.359L306.083 143.125L387.795 190.25L332.246 222.484L250.508 175.359Z" fill="#D6EAF3"/>
<path d="M332.246 222.484L331.351 599.05L249.613 551.951L250.508 175.359L332.246 222.484Z" fill="#54A7CE"/>
<path d="M240.712 181.055L250.508 175.359L249.612 551.951L239.817 557.621L240.712 181.055Z" fill="#4AA2CB"/>
<path d="M158.999 133.93L168.795 128.26L250.507 175.359L240.712 181.055L158.999 133.93Z" fill="#3A9AC7"/>
<path d="M240.712 181.055L239.817 557.621L158.104 510.521L158.999 133.93L240.712 181.055Z" fill="#ACD5E7"/>
<path d="M322.425 228.18L332.246 222.484L331.351 599.05L321.53 604.746L322.425 228.18Z" fill="#3A9AC7"/>
<path d="M240.712 181.055L250.507 175.359L332.246 222.484L322.425 228.18L240.712 181.055Z" fill="#3A9AC7"/>
<path d="M322.425 228.18L321.53 604.746L239.817 557.621L240.712 181.055L322.425 228.18Z" fill="#ACD5E7"/>
<path d="M238.768 179.957L238.513 556.881L241.3 558.49L242.554 182.128L238.768 179.957Z" fill="#3A9AC7"/>
<path d="M223.04 325.802L219.229 323.631L223.909 320.949L227.694 323.146L223.04 325.802Z" fill="#3A9AC7"/>
<path d="M223.04 401.279L219.229 399.082V323.631L223.04 325.802V401.279Z" fill="white"/>
<path d="M223.04 325.801L227.694 323.145V398.596L223.04 401.278V325.801Z" fill="#3A9AC7"/>
<path d="M254.318 344.779L250.508 342.582L255.188 339.926L258.999 342.097L254.318 344.779Z" fill="#3A9AC7"/>
<path d="M254.318 420.23L250.508 418.059V342.582L254.318 344.779V420.23Z" fill="white"/>
<path d="M254.318 344.78L258.999 342.098V417.549L254.318 420.231V344.78Z" fill="#3A9AC7"/>
<path d="M204.012 244.783C196.493 241.539 188.078 246.954 187.925 255.127L187.03 303.504C187.03 304.602 187.644 305.649 188.641 306.135L188.897 306.262C190.764 307.182 192.963 305.879 193.04 303.81L193.193 300.004C193.27 297.936 195.47 296.607 197.337 297.552C198.308 298.038 198.922 299.034 198.922 300.107V342.992C198.973 345.163 200.099 347.181 201.94 348.33C203.73 349.428 206.032 348.151 206.058 346.057L206.186 329.454C206.186 327.922 207.822 326.951 209.178 327.615C210.866 328.458 212.835 327.232 212.81 325.342L212.937 296.429C212.937 295.79 213.27 295.228 213.807 294.896C214.344 294.564 215.009 294.564 215.572 294.845C216.058 295.1 216.646 295.1 217.132 294.819C217.618 294.538 217.899 294.028 217.925 293.491L218.743 267.924C219.05 257.911 213.219 248.716 204.012 244.757V244.783Z" fill="#D6EAF3"/>
<path d="M263.423 526.741L254.728 521.275L255.572 519.666L264.267 525.132C264.727 525.413 265.06 525.745 265.469 526.052L265.137 528.044C264.6 527.584 264.063 527.124 263.423 526.716V526.741Z" fill="#4D4D4D"/>
<path d="M205.649 540.023H264.6L259.126 590.98C258.717 594.505 256.416 597.953 252.144 600.635C242.758 606.535 227.516 606.535 218.129 600.635C213.858 597.953 211.531 594.479 211.173 590.98L205.674 540.023H205.649Z" fill="#ED8E00"/>
<path d="M209.766 548.299C210.994 549.602 212.477 550.802 214.216 551.901C225.751 559.155 244.446 559.155 255.981 551.901C257.72 550.802 259.229 549.602 260.431 548.299C267.234 541.173 265.75 531.774 255.981 525.644C244.446 518.39 225.725 518.39 214.216 525.644C204.421 531.799 202.938 541.173 209.766 548.299Z" fill="#ED8E00"/>
<path d="M209.766 548.299C210.994 549.602 212.477 550.802 214.216 551.901C225.751 559.155 244.446 559.155 255.981 551.901C257.72 550.802 259.229 549.602 260.431 548.299C259.178 545.847 257.004 543.548 253.909 541.607C243.5 535.068 226.646 535.068 216.262 541.607C213.168 543.548 210.994 545.847 209.741 548.299H209.766Z" fill="#CFEDFA"/>
<path d="M213.654 552.973C211.838 551.849 210.278 550.572 208.973 549.193C205.623 545.694 204.037 541.479 204.498 537.316C205.035 532.463 208.283 527.942 213.654 524.57C225.469 517.138 244.728 517.112 256.569 524.57C261.914 527.916 265.162 532.437 265.725 537.29C266.185 541.454 264.6 545.694 261.275 549.193C259.996 550.547 258.41 551.824 256.595 552.973C250.687 556.702 242.912 558.541 235.137 558.541C227.362 558.541 219.587 556.677 213.679 552.973H213.654ZM214.805 526.716C210.073 529.679 207.234 533.561 206.774 537.597C206.39 541.02 207.695 544.391 210.559 547.38C211.736 548.606 213.142 549.755 214.805 550.802C226.007 557.852 244.242 557.852 255.444 550.802C257.106 549.755 258.538 548.606 259.689 547.38C262.554 544.391 263.858 540.994 263.474 537.571C263.014 533.51 260.175 529.653 255.444 526.69C249.843 523.166 242.477 521.403 235.111 521.403C227.746 521.403 220.406 523.166 214.805 526.69V526.716Z" fill="#FFE03B"/>
<path d="M260.482 528.964C258.206 527.073 256.16 524.902 253.372 524.494V520.637C253.372 518.491 254.958 517.776 256.927 519.002C258.896 520.228 260.482 522.961 260.482 525.107V528.964Z" fill="#FFE03B"/>
<path d="M217.976 554.02C215.239 552.999 212.759 551.645 210.866 549.55V545.694C210.866 543.548 212.452 542.833 214.421 544.059C216.39 545.285 217.976 548.018 217.976 550.163V554.02Z" fill="#FFE03B"/>
<path d="M213.347 547.915L220.661 552.512C228.359 557.34 241.863 556.727 250.789 551.108L261.198 544.569C265.75 541.708 268.359 537.979 268.359 534.352C268.359 532.002 267.208 529.831 265.137 528.018L265.469 526.025C268.385 528.273 270.047 531.159 270.047 534.352C270.047 538.669 267.132 542.96 262.042 546.178L251.633 552.717C242.247 558.617 227.976 559.256 219.792 554.122L212.861 549.754C211.633 549.243 212.196 547.455 213.321 547.915H213.347Z" fill="#4D4D4D"/>
<path d="M243.219 550.316L264.395 538.848C267.49 538.669 270.277 544.85 267.797 546.28L246.62 557.774C243.602 558.643 239.945 553.126 243.219 550.341V550.316Z" fill="#333333"/>
<path d="M142.299 285.572L145.624 262.737L123.168 247.719L118.36 272.06L142.299 285.572Z" fill="#FFB294"/>
<path d="M141.25 271.395L146.442 269.148C150.074 267.59 152.81 264.499 153.91 260.693C155.905 253.874 158.104 242.763 154.421 234.692C148.769 222.253 141.071 219.469 128.821 223.887C116.57 228.306 111.966 237.552 115.726 251.09C119.486 264.627 122.913 262.762 122.913 262.762L141.225 271.37L141.25 271.395Z" fill="#FFB294"/>
<path d="M155.777 238.777L150.074 246.67L149.153 252.442L144.601 256.299L142.861 261.407C142.12 264.881 140.611 267.895 137.056 267.767C132.734 267.614 126.749 266.439 120.892 262.174C120.892 262.174 115.394 258.802 114.447 245.546C113.578 233.056 119.153 227.156 122.478 225.317C125.803 223.478 143.45 214.946 152.861 223.094C163.296 232.111 155.751 238.803 155.751 238.803L155.777 238.777Z" fill="black"/>
<path d="M144.089 232.827C138.565 229.634 132.222 227.412 126.059 226.263C126.238 226.161 126.417 226.033 126.596 225.931C136.928 219.98 150.253 213.773 163.782 221.589C178.59 230.12 166.544 237.067 156.237 243.018C156.007 243.146 155.777 243.248 155.572 243.376C153.603 239.775 149.716 236.071 144.115 232.827H144.089Z" fill="#0D315F"/>
<path d="M137.414 252.597C145.854 250.656 152.375 246.365 156.237 243.019C156.237 243.019 160.201 223.862 145.317 219.724C128.949 215.178 120.176 221.768 116.391 228.817C112.606 235.867 113.757 243.376 113.757 243.376C115.598 251.524 126.314 255.151 137.414 252.597Z" fill="#205687"/>
<path d="M143.91 248.74C143.271 248.868 142.733 249.276 142.427 249.787C142.094 250.273 141.966 250.86 141.864 251.396C141.506 253.542 141.762 255.764 142.631 257.782C142.861 258.318 143.117 258.829 143.577 259.238C144.012 259.646 144.677 259.902 145.317 259.8C145.93 259.698 146.467 259.289 146.749 258.804C147.056 258.318 147.158 257.782 147.26 257.22C147.567 255.381 148.411 247.897 143.936 248.714L143.91 248.74Z" fill="#FFB294"/>
<path d="M202.298 276.428L202.554 274.103C201.326 272.494 200.227 270.349 199.383 267.718C196.518 258.906 197.439 248.153 201.429 243.708C201.557 243.581 201.659 243.478 201.787 243.376L201.403 240.873L206.186 241.895C209.101 242.533 212.042 245.981 213.884 251.626C216.748 260.438 215.827 271.191 211.838 275.636C210.38 277.245 208.743 277.807 207.081 277.449L202.298 276.453V276.428Z" fill="#29150A"/>
<path d="M194.6 266.696C197.464 275.508 203.065 279.059 207.055 274.589C211.07 270.144 211.991 259.391 209.101 250.579C206.211 241.767 200.636 238.217 196.646 242.687C192.656 247.157 191.71 257.884 194.6 266.696Z" fill="#998675"/>
<path d="M183.654 282.738L189.459 289.889L194.958 285.522C202.579 281.077 204.984 273.032 205.828 263.913L206.186 260.235L206.799 253.824L206.851 253.543L206.723 250.785C206.569 248.997 205.009 249.405 203.986 250.861L203.602 252.726C203.602 252.726 203.5 253.032 203.347 253.492C202.963 254.616 202.145 256.761 201.25 258.038C201.096 258.268 199.741 258.422 199.741 258.422L195.623 253.799L194.932 249.916L196.979 248.23L198.539 246.749C201.352 244.425 199.562 242.815 195.47 244.22L191.326 246.391C190.406 246.442 190.124 248.665 189.792 249.507L189.28 250.81L188.411 251.704C188.129 251.985 187.925 252.368 187.848 252.726L187.311 254.258L187.362 256.404L187.49 261.665L188.181 263.785L191.736 274.794L183.654 282.738Z" fill="#5FA081"/>
<path d="M191.736 274.792C191.736 274.792 195.495 280.258 193.807 287.921L163.015 305.468L103.859 300.487L105.573 272.953L155.981 280.692L191.71 274.792H191.736Z" fill="#FFC800"/>
<path d="M137.081 515.96C146.033 517.825 147.465 524.772 144.063 530.826L133.987 545.053C130.202 551.617 125.138 554.682 118.488 553.584C112.529 551.132 111.711 547.198 113.373 542.575L115.854 534.989L119.716 514.402L137.056 515.96H137.081Z" fill="black"/>
<path d="M111.762 533.713C114.626 543.47 133.501 543.112 134.754 530.086L139.895 484.391L140.969 469.194L151.864 409.502L154.114 396.271L151.276 358.878L112.631 357.09C112.631 357.09 115.598 453.358 115.649 456.474C110.253 473.536 110.534 511.44 111.762 533.738V533.713Z" fill="#0D315F"/>
<path d="M142.938 549.293C139.383 555.27 141.02 565.283 143.117 569.804C149.306 572.128 154.498 572.588 158.13 570.136C169.843 569.446 176.416 571.004 182.426 569.293C188.845 567.479 193.219 565.538 196.492 559.153C197.771 556.292 196.032 550.954 190.789 550.162C181.045 549.753 172.298 548.961 167.541 546.586L159.229 531.414L144.14 543.291L142.938 549.319V549.293Z" fill="black"/>
<path d="M112.657 357.064C112.657 357.933 112.657 358.827 112.708 359.695C113.22 378.571 120.253 388.634 141.301 399.004C145.393 400.026 146.544 428.454 146.928 433.92C147.49 442.145 150.534 460.101 150.201 466.435C143.884 498.158 141.864 526.612 142.427 551.005C149.025 561.554 167.644 555.577 169.332 545.743L171.582 523.854L173.066 509.371C173.066 509.371 173.091 509.142 173.117 508.809L173.27 507.737L174.779 496.115L179.28 467.61C182.503 443.243 178.795 381.508 177.465 361.509C176.237 361.228 163.961 356.375 150.406 352.722C132.657 347.844 112.708 345.008 112.683 357.039L112.657 357.064Z" fill="#205687"/>
<path d="M101.097 299.185C101.506 300.513 101.967 301.893 102.478 303.297C116.033 332.186 111.123 338.724 112.708 359.694C112.708 359.873 112.708 360.077 112.708 360.231C124.933 372.108 143.578 380.971 159.485 376.986C161.224 376.578 162.938 376.016 164.575 375.224C170.252 372.695 174.805 368.276 177.388 361.508C177.49 350.678 176.339 340.742 174.421 330.781C173.986 328.38 173.449 325.953 172.912 323.552C171.838 318.801 169.46 310.424 168.027 306.337C165.956 300.386 163.322 295.558 160.483 291.752C159.741 290.731 158.974 289.786 158.207 288.943C156.391 286.976 154.447 285.188 152.401 283.502C151.941 283.119 151.48 282.736 150.994 282.353C150.994 282.353 150.892 282.302 150.764 282.149C141.557 274.895 130.432 269.812 117.414 265.878C116.724 265.649 115.982 265.444 115.266 265.214C113.45 264.729 111.685 264.703 110.048 265.087C101.123 267.156 95.7519 281.28 101.046 299.16L101.097 299.185Z" fill="#205687"/>
<path d="M110.918 312.314C112.887 315.66 130.918 325.622 130.918 325.622C125.905 295.482 136.314 284.499 143.475 282.992C146.979 282.251 150.15 282.788 152.478 283.503C152.017 283.12 151.557 282.737 151.071 282.354C151.071 282.354 150.969 282.302 150.841 282.149C141.634 274.895 130.509 269.812 117.491 265.879C104.678 269.991 103.91 300.412 110.918 312.263V312.314Z" fill="#FFC800"/>
<path d="M174.472 330.831C170.994 333.155 167.004 335.684 163.475 337.574C157.439 340.792 150.355 340.205 145.291 339.081C141.327 338.187 138.59 336.961 138.59 336.961C130.099 304.369 137.465 293.131 145.598 289.504C150.969 287.103 157.056 289.734 160.56 291.777C163.398 295.583 166.033 300.41 168.104 306.361C169.332 309.861 171.25 316.476 172.452 321.278C172.657 322.121 172.836 322.887 172.989 323.577C173.526 326.003 174.038 328.43 174.472 330.831Z" fill="#FFC800"/>
<g style="mix-blend-mode:multiply" opacity="0.5">
<path d="M179.255 467.661L174.754 496.14L173.245 507.762L173.117 508.834C173.091 509.166 173.04 509.396 173.04 509.396L171.582 523.828L172.989 452.591C175.751 405.032 166.339 388.761 158.616 380.767C153.731 375.633 150.278 368.328 149.076 361.431C147.797 353.999 146.519 346.515 145.291 339.082C150.355 340.206 157.439 340.793 163.475 337.575C167.004 335.685 170.994 333.156 174.472 330.832C174.038 328.431 173.526 326.005 172.989 323.578C172.836 322.888 172.657 322.122 172.452 321.279L173.27 321.535C176.084 333.974 177.567 348.098 177.439 361.559C178.769 381.558 182.503 443.294 179.255 467.661Z" fill="#2E6F99"/>
</g>
<g style="mix-blend-mode:multiply" opacity="0.5">
<path d="M174.472 330.832C170.994 333.156 167.004 335.685 163.475 337.575C157.439 340.793 150.355 340.206 145.291 339.082C143.757 329.708 142.299 320.436 140.994 311.42L172.452 321.279C172.657 322.122 172.836 322.888 172.989 323.578C173.526 326.004 174.038 328.431 174.472 330.832Z" fill="#ED8E00"/>
</g>
<path d="M203.526 376.092C203.961 376.016 213.884 384.496 213.884 384.496L223.475 389.527L233.065 399.744L235.137 404.521L235.879 408.761C236.39 411.621 233.884 411.647 233.295 409.68L233.628 415.172C233.705 417.496 231.684 417.854 230.994 415.708L228.922 409.45L228.717 417.726C228.487 419.897 226.032 419.769 225.879 417.828L225.93 412.924L222.503 408.199L223.858 413.307L223.398 417.087C222.886 419.335 220.891 418.467 220.815 415.989V412.796L215.649 407.688C214.216 406.257 213.065 404.597 212.273 402.733L210.38 398.314L206.62 393.435L200.687 382.325L203.577 376.169L203.526 376.092Z" fill="#5FA081"/>
<path d="M168.999 307.257L180.252 343.859C190.483 357.473 205.163 371.215 217.234 386.003L208.692 396.399C193.986 389.196 177.362 375.25 160.432 360.334L142.913 317.653C130.79 291.345 161.941 287.743 168.974 307.257H168.999Z" fill="#FFC800"/>
<path d="M188.181 263.783C192.452 259.569 200.431 259.467 206.211 260.233C208.334 260.514 210.15 260.897 211.377 261.255L213.142 255.074C212.861 254.997 210.354 254.307 206.825 253.848C205.751 253.72 204.6 253.592 203.372 253.541C200.968 253.388 198.309 253.388 195.649 253.771C192.784 254.18 189.92 254.997 187.362 256.453L187.49 261.714L188.181 263.834V263.783Z" fill="#29150A"/>
<path d="M101.097 299.184C98.5397 277.167 106.212 268.176 110.1 265.111C101.174 267.18 95.8031 281.305 101.097 299.184Z" fill="white"/>
</g>
<defs>
<clipPath id="clip0_252_3548">
<rect width="299" height="516" fill="white" transform="translate(99 96)"/>
</clipPath>
</defs>
</svg>
