<svg width="51" height="49" viewBox="0 0 51 49" fill="none" xmlns="http://www.w3.org/2000/svg">
<path d="M49.7084 43.8337C50.2607 43.8337 50.7084 44.2814 50.7084 44.8337V47.417C50.7084 47.9693 50.2607 48.417 49.7084 48.417H35.6668C35.1145 48.417 34.6668 47.9693 34.6668 47.417V44.8337C34.6668 44.2814 35.1145 43.8337 35.6668 43.8337H38.8C39.5147 43.8337 39.9987 43.1056 39.722 42.4466L25.5001 8.56491C25.0647 7.48783 24.3543 6.61699 23.3459 5.92949C22.3376 5.24199 21.2376 4.87533 20.023 4.87533C18.3959 4.87533 16.9751 5.49408 15.7834 6.68574C14.5918 7.87741 14.0417 9.27532 14.0417 10.9253V17.6253C14.0417 18.1776 14.4895 18.6253 15.0417 18.6253H16.3334C21.398 18.6253 25.5001 22.7274 25.5001 27.792V47.417C25.5001 47.9693 25.0524 48.417 24.5001 48.417H18.2955C17.4785 48.417 16.9875 47.4742 17.3582 46.7462C18.1529 45.1853 18.6251 43.4242 18.6251 41.542C18.6251 35.217 13.4917 30.0837 7.16675 30.0837C6.08024 30.0837 5.02439 30.2369 4.02649 30.523C3.33149 30.7223 2.58342 30.233 2.58342 29.51V19.6253C2.58342 19.073 3.03113 18.6253 3.58342 18.6253H8.45842C9.0107 18.6253 9.45842 18.1776 9.45842 17.6253V10.9253C9.45842 9.00032 9.9855 7.16699 10.9022 5.60866C11.8418 4.00449 13.1022 2.72116 14.7293 1.73574C16.3334 0.773242 18.098 0.291992 20.023 0.291992C22.1772 0.291992 24.1251 0.887825 25.8668 2.05658C27.6084 3.22533 28.9376 4.80658 29.7855 6.73158L45.0887 43.2204C45.2445 43.5919 45.6081 43.8337 46.0109 43.8337H49.7084ZM14.0417 41.542C14.0417 45.3462 10.9709 48.417 7.16675 48.417C3.36258 48.417 0.291748 45.3462 0.291748 41.542C0.291748 37.7378 3.36258 34.667 7.16675 34.667C10.9709 34.667 14.0417 37.7378 14.0417 41.542ZM9.45842 41.542C9.45842 40.2816 8.42717 39.2503 7.16675 39.2503C5.90633 39.2503 4.87508 40.2816 4.87508 41.542C4.87508 42.8024 5.90633 43.8337 7.16675 43.8337C8.42717 43.8337 9.45842 42.8024 9.45842 41.542Z" fill="#F8F9FA"/>
</svg>
