<svg width="55" height="55" viewBox="0 0 55 55" fill="none" xmlns="http://www.w3.org/2000/svg">
<path d="M49.8438 12.0312V18.9062C49.8438 19.1342 49.7532 19.3528 49.592 19.5139C49.4309 19.6751 49.2123 19.7656 48.9844 19.7656H29.2188V11.1719C29.2188 10.944 29.3093 10.7254 29.4705 10.5642C29.6316 10.403 29.8502 10.3125 30.0781 10.3125H48.125C48.5808 10.3125 49.018 10.4936 49.3403 10.8159C49.6627 11.1382 49.8438 11.5754 49.8438 12.0312ZM48.9844 23.2031H39.5312V32.6562H48.9844C49.2123 32.6562 49.4309 32.5657 49.592 32.4045C49.7532 32.2434 49.8438 32.0248 49.8438 31.7969V24.0625C49.8438 23.8346 49.7532 23.616 49.592 23.4548C49.4309 23.2937 49.2123 23.2031 48.9844 23.2031ZM18.9062 32.6562H36.0938V23.2031H18.9062V32.6562ZM6.01562 32.6562H15.4688V23.2031H6.01562C5.7877 23.2031 5.56912 23.2937 5.40796 23.4548C5.24679 23.616 5.15625 23.8346 5.15625 24.0625V31.7969C5.15625 32.0248 5.24679 32.2434 5.40796 32.4045C5.56912 32.5657 5.7877 32.6562 6.01562 32.6562ZM48.9844 36.0938H29.2188V43.8281C29.2188 44.056 29.3093 44.2746 29.4705 44.4358C29.6316 44.597 29.8502 44.6875 30.0781 44.6875H48.125C48.5808 44.6875 49.018 44.5064 49.3403 44.1841C49.6627 43.8618 49.8438 43.4246 49.8438 42.9688V36.9531C49.8438 36.7252 49.7532 36.5066 49.592 36.3455C49.4309 36.1843 49.2123 36.0938 48.9844 36.0938ZM6.01562 19.7656H25.7812V11.1719C25.7812 10.944 25.6907 10.7254 25.5295 10.5642C25.3684 10.403 25.1498 10.3125 24.9219 10.3125H6.875C6.41916 10.3125 5.98199 10.4936 5.65966 10.8159C5.33733 11.1382 5.15625 11.5754 5.15625 12.0312V18.9062C5.15625 19.1342 5.24679 19.3528 5.40796 19.5139C5.56912 19.6751 5.7877 19.7656 6.01562 19.7656ZM5.15625 36.9531V42.9688C5.15625 43.4246 5.33733 43.8618 5.65966 44.1841C5.98199 44.5064 6.41916 44.6875 6.875 44.6875H24.9219C25.1498 44.6875 25.3684 44.597 25.5295 44.4358C25.6907 44.2746 25.7812 44.056 25.7812 43.8281V36.0938H6.01562C5.7877 36.0938 5.56912 36.1843 5.40796 36.3455C5.24679 36.5066 5.15625 36.7252 5.15625 36.9531Z" fill="#F8F9FA"/>
</svg>
