<svg width="55" height="55" viewBox="0 0 55 55" fill="none" xmlns="http://www.w3.org/2000/svg">
<path d="M36.0938 43.8397C34.1917 43.8397 32.6563 41.9147 32.6563 39.5314C32.6563 37.171 34.1917 35.246 36.0938 35.246C37.9959 35.246 39.5313 37.171 39.5313 39.5314C39.5313 41.9147 37.9959 43.8397 36.0938 43.8397ZM27.5 25.7814C24.6584 25.7814 22.3438 23.8564 22.3438 21.496C22.3438 19.1126 24.6584 17.1876 27.5 17.1876C30.3417 17.1876 32.6563 19.1126 32.6563 21.496C32.6563 23.8564 30.3417 25.7814 27.5 25.7814ZM18.9063 43.8397C17.0042 43.8397 15.4688 41.9147 15.4688 39.5314C15.4688 37.171 17.0042 35.246 18.9063 35.246C20.8084 35.246 22.3438 37.171 22.3438 39.5314C22.3438 41.9147 20.8084 43.8397 18.9063 43.8397ZM27.5 18.9064C28.4396 18.9064 29.2188 19.6855 29.2188 20.6251C29.2188 21.5647 28.4396 22.3439 27.5 22.3439C26.5604 22.3439 25.7813 21.5647 25.7813 20.6251C25.7813 19.6855 26.5604 18.9064 27.5 18.9064ZM42.9688 27.5001C42.2354 27.5001 41.525 27.6605 40.8834 27.9585C39.7834 26.5605 38.2938 25.3689 36.5063 24.4522C37.8125 22.6189 38.5917 20.396 38.5917 17.9897V17.8522C41.0896 17.3251 42.9688 15.1022 42.9688 12.421C42.9688 9.37304 40.4709 6.87512 37.4229 6.87512C35.8417 6.87512 34.375 7.53971 33.4125 8.59387C31.6451 7.47059 29.5942 6.87402 27.5 6.87402C25.4058 6.87402 23.355 7.47059 21.5875 8.59387C20.625 7.53971 19.1584 6.87512 17.5771 6.87512C14.5292 6.87512 12.0313 9.37304 12.0313 12.421C12.0313 15.0793 13.9104 17.3022 16.3854 17.8522V17.9897C16.3854 20.396 17.1875 22.6418 18.4709 24.4522C16.7063 25.3689 15.2167 26.5605 14.1167 27.9585C13.3336 27.6057 12.4744 27.455 11.618 27.5204C10.7615 27.5857 9.93515 27.8649 9.21456 28.3323C8.49398 28.7998 7.90221 29.4406 7.49347 30.1961C7.08474 30.9515 6.87209 31.7974 6.87503 32.6564C6.87503 35.521 9.1667 37.8126 12.0313 37.8126H12.1688C12.0771 38.3626 12.0313 38.9585 12.0313 39.5314C12.0313 44.2751 15.1021 48.1251 18.9063 48.1251C21.2209 48.1251 23.2604 46.6814 24.5209 44.4814C25.4834 44.6189 26.4688 44.6876 27.5 44.6876C28.5313 44.6876 29.5167 44.6189 30.4792 44.4814C31.7396 46.6814 33.7792 48.1251 36.0938 48.1251C39.8979 48.1251 42.9688 44.2751 42.9688 39.5314C42.9688 38.9585 42.923 38.3626 42.8313 37.8126H42.9688C45.8334 37.8126 48.125 35.521 48.125 32.6564C48.125 29.7918 45.8334 27.5001 42.9688 27.5001Z" fill="#F8F9FA"/>
</svg>
