<svg width="47" height="47" viewBox="0 0 47 47" fill="none" xmlns="http://www.w3.org/2000/svg">
<path d="M41.8332 0.583008H12.0416C5.72346 0.583008 0.583252 5.72322 0.583252 12.0413V34.958C0.583252 41.2761 5.72346 46.4163 12.0416 46.4163H39.5416C43.332 46.4163 46.4166 43.3318 46.4166 39.5413C46.4166 35.7509 43.332 32.6663 39.5416 32.6663H9.74992V37.2497H39.5416C40.1494 37.2497 40.7323 37.4911 41.162 37.9209C41.5918 38.3507 41.8332 38.9336 41.8332 39.5413C41.8332 40.1491 41.5918 40.732 41.162 41.1618C40.7323 41.5916 40.1494 41.833 39.5416 41.833H12.0416C8.25117 41.833 5.16658 38.7484 5.16658 34.958C5.16658 31.1676 8.25117 28.083 12.0416 28.083H41.8332C44.361 28.083 46.4166 26.0274 46.4166 23.4997V5.16634C46.4166 2.63863 44.361 0.583008 41.8332 0.583008ZM5.16658 25.7913H5.17346L5.16658 25.7959V25.7913Z" fill="#F8F9FA"/>
</svg>
