<svg width="55" height="55" viewBox="0 0 55 55" fill="none" xmlns="http://www.w3.org/2000/svg">
<path d="M48.6002 25.8443L43.9367 21.1807L40.694 17.938L29.1555 6.39948C28.7257 5.96986 28.1429 5.72852 27.5352 5.72852C26.9276 5.72852 26.3448 5.96986 25.915 6.39948L14.0969 18.2153L10.8542 21.4557C10.2159 22.0944 9.70967 22.8527 9.36443 23.687C9.0192 24.5214 8.84171 25.4157 8.84212 26.3187C8.84212 28.1566 9.55941 29.8845 10.8565 31.1793L12.4767 32.7995L7.61379 37.6624C6.97419 38.2929 6.46757 39.0453 6.12393 39.8751C5.78029 40.7049 5.60661 41.5951 5.61316 42.4932C5.60266 43.5002 5.81572 44.4969 6.23697 45.4115C6.65823 46.3261 7.27718 47.1359 8.04921 47.7824C9.26052 48.7965 10.7915 49.3493 12.3713 49.343C14.2825 49.343 16.1617 48.5616 17.5275 47.1957L22.2002 42.523L23.8205 44.1409C26.4169 46.7374 30.9407 46.7397 33.5417 44.1432L35.1642 42.523L36.4682 41.2191L36.7844 40.9028L48.6002 29.0847C49.0299 28.6549 49.2712 28.0722 49.2712 27.4645C49.2712 26.8568 49.0299 26.274 48.6002 25.8443ZM31.9238 39.2849L30.3013 40.9028C29.8658 41.3216 29.2852 41.5554 28.6811 41.5554C28.077 41.5554 27.4963 41.3216 27.0609 40.9028L23.8205 37.6647C23.3907 37.2351 22.8079 36.9937 22.2002 36.9937C21.5926 36.9937 21.0098 37.2351 20.58 37.6647L14.2871 43.9553C13.7786 44.4645 13.0908 44.7541 12.3713 44.762C11.8742 44.7727 11.3899 44.6034 11.0077 44.2853C10.7454 44.0677 10.536 43.7933 10.3955 43.4828C10.2549 43.1723 10.1869 42.8339 10.1965 42.4932C10.1942 42.1983 10.2513 41.9059 10.3643 41.6335C10.4773 41.3611 10.6439 41.1142 10.8542 40.9074L17.3373 34.4243C17.767 33.9945 18.0083 33.4117 18.0083 32.8041C18.0083 32.1964 17.767 31.6136 17.3373 31.1839L14.0969 27.9412C13.6638 27.5103 13.4255 26.9374 13.4255 26.3232C13.4255 25.7091 13.6638 25.1339 14.0969 24.7007L15.7171 23.0805L23.8205 31.1839L31.9238 39.2849Z" fill="#F8F9FA"/>
</svg>
