<svg width="55" height="55" viewBox="0 0 55 55" fill="none" xmlns="http://www.w3.org/2000/svg">
<path d="M38.6719 24.0625C36.2656 24.0625 34.0312 23.0312 32.6562 21.1406C32.1406 20.4531 32.1406 19.25 33 18.7344C33.6875 18.2188 34.8906 18.2188 35.4062 19.0781C36.2656 20.1094 37.4688 20.7969 38.8438 20.7969C40.5625 20.7969 41.9375 19.7656 42.7969 18.3906C43.1406 17.875 43.1406 17.1875 43.1406 16.5C42.9688 13.9219 41.0781 12.0312 38.6719 12.0312C37.9844 12.0312 37.2969 12.2031 36.6094 12.5469C36.0937 12.8906 35.5781 12.8906 35.0625 12.7188C34.5469 12.5469 34.2031 12.0312 34.0312 11.5156C33 7.73437 29.7344 5.15625 25.7812 5.15625C21.8281 5.15625 18.5625 7.73437 17.5312 11.5156C17.3594 12.0312 17.0156 12.375 16.6719 12.5469C14.7812 13.4062 13.75 15.2969 13.75 17.1875C13.75 17.7031 13.75 18.0469 13.9219 18.5625C14.0938 19.4219 13.5781 20.4531 12.7188 20.625C11.8594 20.7969 10.8281 20.2812 10.6562 19.4219C10.4844 18.5625 10.3125 17.875 10.3125 17.1875C10.3125 14.2656 11.8594 11.5156 14.4375 9.96875C15.9844 4.98438 20.625 1.71875 25.7812 1.71875C30.5938 1.71875 34.8906 4.64062 36.7812 8.76562C37.4688 8.59375 37.9844 8.59375 38.6719 8.59375C42.9688 8.59375 46.4062 12.0312 46.4062 16.3281C46.4062 17.5312 46.2344 18.5625 45.7188 19.5938C44.3438 22.3438 41.5938 24.0625 38.6719 24.0625Z" fill="#F8F9FA"/>
<path d="M28.3594 34.2031C37.125 34.2031 44.6875 29.0469 48.125 20.9687V20.7969C48.125 20.2813 48.125 19.7656 47.7812 19.4219C47.4375 19.0781 46.9219 18.9062 46.4062 18.9062H44.3438C43.6562 20.9688 41.7656 22.3438 39.5312 22.3438C37.2969 22.3438 35.4063 20.9688 34.7188 18.9062H10.3125C9.79688 18.9062 9.28125 19.0781 8.9375 19.5937C8.59375 19.9375 8.59375 20.4531 8.59375 20.9687V21.1406C12.0312 29.0469 19.5938 34.2031 28.3594 34.2031Z" fill="#F8F9FA"/>
<path d="M28.3594 37.6406C21.1406 37.6406 14.6094 34.7188 10.1406 29.5625L13.75 51.9062C13.9219 52.5938 14.6094 53.2812 15.4688 53.2812H41.25C42.1094 53.2812 42.7969 52.5938 42.9688 51.9062L46.75 29.7344C42.1094 34.7187 35.5781 37.6406 28.3594 37.6406Z" fill="#F8F9FA"/>
</svg>
