<svg width="192" height="138" viewBox="0 0 192 138" fill="none" xmlns="http://www.w3.org/2000/svg">
<path fill-rule="evenodd" clip-rule="evenodd" d="M187.584 3.2639C192.997 7.98898 193.503 16.163 188.719 21.5434L88.3332 133.635C87.1738 134.93 85.7635 135.982 84.1855 136.729C82.6076 137.476 80.894 137.903 79.146 137.985C77.398 138.067 75.6511 137.802 74.0086 137.206C72.366 136.61 70.8611 135.695 69.5828 134.514L4.11358 74.1573C1.59497 71.8128 0.118473 68.5788 0.00682331 65.1621C-0.104826 61.7455 1.15746 58.4241 3.51775 55.924C5.87805 53.424 9.14437 51.9486 12.6027 51.8204C16.0611 51.6921 19.4302 52.9215 21.9736 55.2398L77.666 106.457L169.148 4.36757C170.289 3.09308 171.673 2.05334 173.221 1.30792C174.769 0.5625 176.451 0.12603 178.17 0.0235106C179.889 -0.0790091 181.611 0.154437 183.239 0.710474C184.866 1.26651 186.367 2.13422 187.654 3.2639H187.584Z" fill="#FBFBFB"/>
</svg>
