<svg width="55" height="55" viewBox="0 0 55 55" fill="none" xmlns="http://www.w3.org/2000/svg">
<path d="M32.0833 32.0833L35.5208 35.5208L32.0833 32.0833ZM42.0452 35.6927L46.8119 40.4571C47.6543 41.2998 48.1274 42.4426 48.1272 43.6341C48.127 44.8257 47.6534 45.9683 46.8107 46.8107C45.968 47.6531 44.8252 48.1263 43.6337 48.126C42.4421 48.1258 41.2995 47.6523 40.4571 46.8096L35.6904 42.0452C34.848 41.2025 34.3749 40.0597 34.3751 38.8681C34.3753 37.6766 34.8489 36.534 35.6916 35.6916C36.5343 34.8492 37.6771 34.376 38.8686 34.3763C40.0602 34.3765 41.2028 34.85 42.0452 35.6927ZM6.875 13.75L13.75 6.875L30.7404 23.8654C31.6 24.7248 32.0831 25.8904 32.0833 27.1058V32.0833H27.1058C25.8904 32.0831 24.7248 31.6 23.8654 30.7404L6.875 13.75Z" fill="#F8F9FA"/>
</svg>
