<svg width="28" height="20" viewBox="0 0 28 20" fill="none" xmlns="http://www.w3.org/2000/svg">
<path fill-rule="evenodd" clip-rule="evenodd" d="M23.9999 20C24.884 20 25.7318 19.6488 26.3569 19.0237C26.9821 18.3986 27.3333 17.5507 27.3333 16.6667L27.3333 11.6667C27.3333 10.7826 26.9821 9.93476 26.3569 9.30964C25.7318 8.68452 24.884 8.33333 23.9999 8.33333L18.9999 8.33333C18.9999 7.00725 19.5267 5.73548 20.4644 4.7978C21.4021 3.86012 22.6738 3.33333 23.9999 3.33333L25.6666 3.33333C26.1086 3.33333 26.5325 3.15774 26.8451 2.84518C27.1577 2.53262 27.3333 2.10869 27.3333 1.66666C27.3333 1.22464 27.1577 0.800713 26.8451 0.488152C26.5325 0.175591 26.1086 -1.80029e-06 25.6666 -1.76164e-06L23.9999 -1.61594e-06C21.7898 -1.42272e-06 19.6702 0.877972 18.1074 2.44078C16.5446 4.00358 15.6666 6.1232 15.6666 8.33333L15.6666 16.6667C15.6666 17.5507 16.0178 18.3986 16.6429 19.0237C17.268 19.6488 18.1159 20 18.9999 20L23.9999 20ZM8.99992 20C9.88398 20 10.7318 19.6488 11.3569 19.0237C11.9821 18.3986 12.3333 17.5507 12.3333 16.6667L12.3333 11.6667C12.3333 10.7826 11.9821 9.93477 11.3569 9.30965C10.7318 8.68452 9.88397 8.33333 8.99992 8.33333L3.99992 8.33333C3.99992 7.00725 4.5267 5.73548 5.46438 4.7978C6.40207 3.86012 7.67384 3.33333 8.99992 3.33333L10.6666 3.33333C11.1086 3.33333 11.5325 3.15774 11.8451 2.84518C12.1577 2.53262 12.3333 2.10869 12.3333 1.66667C12.3333 1.22464 12.1577 0.800714 11.8451 0.488153C11.5325 0.175592 11.1086 -4.88946e-07 10.6666 -4.50303e-07L8.99992 -3.04598e-07C6.78978 -1.11382e-07 4.67017 0.877974 3.10736 2.44078C1.54456 4.00358 0.666587 6.1232 0.666587 8.33333L0.666588 16.6667C0.666588 17.5507 1.01778 18.3986 1.6429 19.0237C2.26802 19.6488 3.11587 20 3.99992 20L8.99992 20Z" fill="#3B82F6"/>
</svg>
