<svg width="55" height="55" viewBox="0 0 55 55" fill="none" xmlns="http://www.w3.org/2000/svg">
<path d="M38.9575 4.58398H16.0409C13.52 4.58398 11.4575 6.64648 11.4575 9.16732V43.5423C11.4575 44.7579 11.9404 45.9237 12.7999 46.7832C13.6595 47.6428 14.8253 48.1257 16.0409 48.1257V50.4173H20.6242V48.1257H34.3742V50.4173H38.9575V48.1257C41.5013 48.1257 43.5409 46.0861 43.5409 43.5423V9.16732C43.5409 7.95174 43.058 6.78595 42.1984 5.92641C41.3389 5.06687 40.1731 4.58398 38.9575 4.58398ZM22.9159 41.2507H18.3325V34.3757H22.9159V41.2507ZM36.6659 41.2507H32.0825V34.3757H36.6659V41.2507ZM38.9575 27.5007H16.0409V20.6257H38.9575V27.5007ZM38.9575 16.0423H16.0409V9.16732H38.9575V16.0423Z" fill="#F8F9FA"/>
</svg>
