<svg width="55" height="55" viewBox="0 0 55 55" fill="none" xmlns="http://www.w3.org/2000/svg">
<path d="M13.7492 22.9167H27.4992V19.4792H13.7492V22.9167ZM13.7492 17.1875H27.4992V13.75H13.7492V17.1875ZM38.9575 25.2083V11.4583H43.5409L45.8325 13.75V16.0417H52.7075V20.625H45.8325V22.9167L43.5409 25.2083H38.9575ZM13.7492 35.5208V29.7917C11.2284 29.7917 9.07037 28.8941 7.27523 27.099C5.48009 25.3038 4.58252 23.1458 4.58252 20.625V16.0417C4.58252 13.5208 5.48009 11.3628 7.27523 9.56771C9.07037 7.77257 11.2284 6.875 13.7492 6.875H36.6659V29.7917H27.4992V35.5208H13.7492ZM9.16585 48.125V37.8125H32.0825V48.125H9.16585Z" fill="#F8F9FA"/>
</svg>
