<svg width="55" height="55" viewBox="0 0 55 55" fill="none" xmlns="http://www.w3.org/2000/svg">
<path d="M27.4999 50.4167C40.1563 50.4167 50.4166 40.1565 50.4166 27.5C50.4166 14.8435 40.1563 4.58337 27.4999 4.58337C14.8434 4.58337 4.58325 14.8435 4.58325 27.5C4.58325 40.1565 14.8434 50.4167 27.4999 50.4167Z" stroke="#F8F9FA" stroke-width="4" stroke-linecap="round" stroke-linejoin="round"/>
<path d="M36.6679 18.3333C34.7525 16.8943 32.3717 16.0416 29.7917 16.0416C23.4635 16.0416 18.3334 21.1717 18.3334 27.5C18.3334 33.8282 23.4635 38.9583 29.7917 38.9583C32.3717 38.9583 34.7525 38.1056 36.6679 36.6666M16.0417 24.0625H27.5001M27.5001 30.9375H16.0417" stroke="#F8F9FA" stroke-width="4" stroke-linecap="round" stroke-linejoin="round"/>
</svg>
