<svg width="55" height="55" viewBox="0 0 55 55" fill="none" xmlns="http://www.w3.org/2000/svg">
<path d="M23.9443 34.2585C28.2429 27.6878 20.6185 22.1259 15.8799 29.312C9.50851 22.1448 0.3407 26.1701 5.66367 35.3328C0.168825 39.0435 1.53179 49.4678 10.1805 47.914C10.8646 56.3875 26.1013 52.5271 23.1296 45.8756C32.3627 42.6581 29.104 36.5806 23.946 34.2568L23.9443 34.2585ZM15.9848 43.8251C13.3121 43.8251 11.1465 41.6595 11.1465 38.9868C11.1465 36.3142 13.3138 34.1485 15.9848 34.1485C18.6557 34.1485 20.823 36.3142 20.823 38.9868C20.823 41.6595 18.6557 43.8251 15.9848 43.8251ZM47.0323 23.3204V23.3221C49.8149 14.9415 42.3848 9.48276 37.5293 17.9476C32.0413 15.2732 24.3568 19.0321 29.5766 27.3423C24.3241 34.5095 32.1548 39.7362 37.1615 36.7301C40.9359 43.2975 49.4523 37.2904 46.8019 32.0293C54.0207 32.4315 54.9437 23.7896 47.0323 23.3204ZM41.589 31.7337C39.4577 32.9643 36.7335 32.2339 35.5029 30.1026C34.2723 27.9714 35.0027 25.2454 37.134 24.0148C39.2652 22.7842 41.9894 23.5146 43.2201 25.6459C44.4507 27.7771 43.7202 30.5031 41.589 31.7337ZM21.3352 10.6876C24.826 4.68401 20.0548 -0.623491 14.1973 4.35745C9.71476 -0.18521 2.36367 2.63526 5.02773 10.7203C-1.65821 13.1042 4.74586 24.5596 9.46726 20.7234C14.0563 27.4764 18.2535 23.5335 19.0132 18.8689C25.2402 20.9142 28.1552 12.9564 21.3352 10.6876ZM14.8246 16.5984C12.6693 17.1759 10.4555 15.8971 9.87804 13.7418C9.30054 11.5865 10.5793 9.37104 12.7346 8.79182C14.8899 8.21432 17.1037 9.49307 17.6812 11.6484C18.2587 13.8037 16.9799 16.0192 14.8246 16.5984ZM38.7255 45.3342C41.063 42.1321 36.2419 38.7514 35.3499 43.9918C32.7873 40.7021 29.1109 44.4851 33.1482 46.869C28.0487 49.4798 33.4335 52.9757 35.5012 49.8149C35.9566 55.1207 42.0169 51.764 38.6241 48.6548C42.9296 49.3612 42.921 45.207 38.7255 45.3342ZM36.3571 48.2354C35.6851 48.2354 35.1402 47.6906 35.1402 47.0185C35.1402 46.3465 35.6851 45.8017 36.3571 45.8017C37.0291 45.8017 37.574 46.3465 37.574 47.0185C37.574 47.6906 37.0291 48.2354 36.3571 48.2354ZM35.6352 8.10432C40.1641 7.11948 36.4344 1.77245 33.5109 5.53823C33.4988 1.83088 27.8459 2.40323 29.9995 6.91323C26.3334 6.8376 27.7152 11.9406 30.4669 10.5071C29.0318 14.9398 34.836 15.6359 34.0626 11.0331C37.5241 13.2142 39.0899 9.7337 35.6352 8.10432ZM32.4865 9.73885C31.8144 9.73885 31.2696 9.19401 31.2696 8.52198C31.2696 7.84995 31.8144 7.3051 32.4865 7.3051C33.1585 7.3051 33.7034 7.84995 33.7034 8.52198C33.7034 9.19401 33.1585 9.73885 32.4865 9.73885Z" fill="#F8F9FA"/>
</svg>
