<svg width="55" height="55" viewBox="0 0 55 55" fill="none" xmlns="http://www.w3.org/2000/svg">
<path d="M17.5311 29.3906C22.8593 34.7188 25.7811 41.9375 25.7811 49.5V50.3594C25.7811 51.7344 27.1561 52.5938 28.3593 51.9062C28.8749 51.7344 29.3905 51.7344 29.9061 51.9062L31.7968 52.7656C32.3124 52.9375 32.828 52.9375 33.3436 52.7656L35.2343 51.9062C35.7499 51.7344 36.2655 51.7344 36.7811 51.9062L38.6718 52.7656C39.1874 52.9375 39.703 52.9375 40.2186 52.7656L42.1093 51.9062C42.6249 51.7344 43.1405 51.7344 43.6561 51.9062C44.8593 52.5938 46.2343 51.5625 46.2343 50.3594V30.0781V25.7812V14.6094C46.4061 13.2344 45.203 12.0312 43.828 12.0312C42.453 12.0312 41.2499 13.2344 41.2499 14.6094V12.8906C41.2499 11.5156 40.0468 10.3125 38.6718 10.3125C37.2968 10.3125 36.0936 11.5156 36.0936 12.8906V11.1719C36.0936 9.79688 34.8905 8.59375 33.5155 8.59375C32.1405 8.59375 30.9374 9.79688 30.9374 11.1719V12.8906C30.9374 11.5156 29.7343 10.3125 28.3593 10.3125C26.9843 10.3125 25.7811 11.5156 25.7811 12.8906V25.7812V29.9062L21.4843 25.6094C20.453 24.5781 18.9061 24.4062 17.8749 25.2656C16.328 26.2969 16.328 28.1875 17.5311 29.3906Z" fill="#F8F9FA"/>
<path d="M22.3438 45.5469C22.3438 41.4219 20.7969 37.4688 17.875 34.5469L15.125 31.7969C13.75 30.4219 13.2344 28.7031 13.4063 26.9844C13.5781 25.0938 14.4375 23.5469 15.9844 22.5156C17.875 21.1406 20.4531 20.9688 22.5156 22.1719V13.4062C22.5156 9.96875 25.2656 7.04688 28.7031 7.04688C29.0469 7.04688 29.2188 7.04688 29.5625 7.04688C30.0781 6.53125 30.5938 6.1875 31.2813 5.84375C30.7656 4.46875 29.7344 3.4375 28.3594 3.4375C26.9844 3.4375 25.7812 4.64062 25.7812 6.01562V4.29688C25.7812 2.92188 24.5781 1.71875 23.2031 1.71875C21.8281 1.71875 20.625 2.92188 20.625 4.29688V6.01562C20.625 4.64062 19.4219 3.4375 18.0469 3.4375C16.6719 3.4375 15.4688 4.64062 15.4688 6.01562V7.73438C15.4688 6.35938 14.2656 5.15625 12.8906 5.15625C11.5156 5.15625 10.3125 6.35938 10.3125 7.73438V18.9062V23.2031V43.4844C10.3125 44.8594 11.6875 45.7188 12.8906 45.2031C13.4062 45.0312 13.9219 44.8594 14.4375 45.2031L16.3281 46.2344C16.8438 46.4062 17.3594 46.4062 17.875 46.2344L19.7656 45.375C20.2812 45.2031 20.7969 45.2031 21.3125 45.375L22.3438 45.5469Z" fill="#F8F9FA"/>
</svg>
