<svg width="55" height="55" viewBox="0 0 55 55" fill="none" xmlns="http://www.w3.org/2000/svg">
<path d="M34.3758 22.9158H20.6258V19.2331C20.6258 18.6253 20.8673 18.0424 21.297 17.6126C21.7268 17.1828 22.3097 16.9414 22.9175 16.9414H25.2091V5.48307C25.2091 4.87529 25.4506 4.29239 25.8804 3.86262C26.3101 3.43285 26.893 3.19141 27.5008 3.19141C28.1086 3.19141 28.6915 3.43285 29.1213 3.86262C29.551 4.29239 29.7925 4.87529 29.7925 5.48307V16.9414H32.0841C32.6919 16.9414 33.2748 17.1828 33.7046 17.6126C34.1344 18.0424 34.3758 18.6253 34.3758 19.2331V22.9158ZM36.2298 25.2074C37.0777 25.8484 37.7654 26.6771 38.239 27.6286C38.7126 28.5802 38.9591 29.6285 38.9591 30.6914V46.7331C38.9591 47.9487 38.4763 49.1144 37.6167 49.974C36.7572 50.8335 35.5914 51.3164 34.3758 51.3164H20.6258C19.4102 51.3164 18.2444 50.8335 17.3849 49.974C16.5254 49.1144 16.0425 47.9487 16.0425 46.7331V30.6914C16.0425 28.4524 17.1127 26.4633 18.7719 25.2074H36.2298Z" fill="#F8F9FA"/>
</svg>
