<svg width="35" height="45" viewBox="0 0 35 45" fill="none" xmlns="http://www.w3.org/2000/svg">
<path fill-rule="evenodd" clip-rule="evenodd" d="M2.74919 0.875C2.1414 0.875 1.5585 1.11644 1.12873 1.54621C0.698963 1.97598 0.45752 2.55888 0.45752 3.16667V12.3333C0.45752 12.9411 0.698963 13.524 1.12873 13.9538C1.5585 14.3836 2.1414 14.625 2.74919 14.625H11.9159V42.125C11.9159 42.7328 12.1573 43.3157 12.5871 43.7455C13.0168 44.1752 13.5997 44.4167 14.2075 44.4167H21.0825C21.6903 44.4167 22.2732 44.1752 22.703 43.7455C23.1327 43.3157 23.3742 42.7328 23.3742 42.125V14.625H32.5409C33.1486 14.625 33.7315 14.3836 34.1613 13.9538C34.5911 13.524 34.8325 12.9411 34.8325 12.3333V10.0417C34.8324 9.43393 34.5909 8.85113 34.1611 8.42146L32.6554 6.91583C30.7402 5.00063 28.4665 3.48141 25.9642 2.44493C23.4618 1.40844 20.7798 0.874977 18.0713 0.875H2.74919Z" fill="#F8F9FA"/>
</svg>
