<svg width="55" height="55" viewBox="0 0 55 55" fill="none" xmlns="http://www.w3.org/2000/svg">
<g clip-path="url(#clip0_440_1489)">
<path d="M54.9801 27.4463C54.9801 29.3799 53.5479 30.8945 51.9246 30.8945H48.869L48.9359 48.1035C48.955 51.917 46.2145 55.0107 42.8248 55.0107H31.1659L27.4992 48.125L35.2145 40.8955C35.9593 40.1973 35.9402 38.8975 35.1763 38.2207L23.9281 28.2734C22.534 27.0381 20.7006 29.0254 21.751 30.6367L27.4992 39.5312L19.3352 47.1797C18.7527 47.7168 18.619 48.6621 19.001 49.3818L21.9992 55H12.231C8.86035 55 6.1199 51.917 6.1199 48.125V30.8945H3.06434C1.34559 30.8945 0.00878906 29.3906 0.00878906 27.4463C0.00878906 26.4795 0.295247 25.6201 0.96365 24.8682L25.4367 0.859375C26.1051 0.107422 26.869 0 27.5374 0C28.2058 0 28.9697 0.214844 29.5426 0.751953L39.7215 10.8174V6.875C39.7215 4.97363 41.0869 3.4375 42.777 3.4375H45.8326C47.5227 3.4375 48.8881 4.97363 48.8881 6.875V19.873L53.9298 24.8574C54.6937 25.6094 55.0756 26.4688 54.9801 27.4355V27.4463Z" fill="#F8F9FA"/>
</g>
<defs>
<clipPath id="clip0_440_1489">
<rect width="55" height="55" fill="white"/>
</clipPath>
</defs>
</svg>
