<svg width="14" height="10" viewBox="0 0 14 10" fill="none" xmlns="http://www.w3.org/2000/svg">
<path d="M1.54733 0H12.4527C13.4815 0 14 0.491667 14 1.49167V8.50833C14 9.5 13.4815 10 12.4527 10H1.54733C0.518518 10 0 9.5 0 8.50833V1.49167C0 0.491667 0.518518 0 1.54733 0ZM6.99588 7.16667L12.5432 2.55833C12.7407 2.39167 12.8971 2.00833 12.6502 1.66667C12.4115 1.325 11.9753 1.31667 11.6872 1.525L6.99588 4.74167L2.31276 1.525C2.02469 1.31667 1.58848 1.325 1.34979 1.66667C1.10288 2.00833 1.25926 2.39167 1.45679 2.55833L6.99588 7.16667Z" fill="#ECEFF4"/>
</svg>
