<svg width="55" height="55" viewBox="0 0 55 55" fill="none" xmlns="http://www.w3.org/2000/svg">
<path fill-rule="evenodd" clip-rule="evenodd" d="M54.2981 43.8093H0.701866C0.316161 43.8093 0.00366211 43.4967 0.00366211 43.1111V39.4625H54.9963V43.111C54.9963 43.4967 54.6838 43.8093 54.2981 43.8093ZM0.00383613 38.0662V33.7693H54.9964V38.0662H0.00383613ZM0.00383613 32.373V28.7244C0.00383613 28.3389 0.316334 28.0264 0.70204 28.0264H54.2983C54.684 28.0264 54.9965 28.3389 54.9965 28.7244V32.373H0.00383613Z" fill="#F8F9FA"/>
<path fill-rule="evenodd" clip-rule="evenodd" d="M1.23842 26.63L1.8879 25.6377C2.89479 25.3741 3.63067 25.1706 3.73205 25.1312C3.81807 25.098 3.91361 25.0603 4.01866 25.019C6.66569 23.9768 14.7211 20.8053 26.4541 24.2614C30.6017 25.4832 34.7538 26.0983 38.8345 26.0983C39.756 26.0983 40.6746 26.067 41.5884 26.0039C46.594 25.6592 49.7202 24.4851 50.8319 23.9963C50.8933 23.9693 51.2003 23.8734 51.6638 23.7317L53.6872 26.63L1.23842 26.63ZM3.02332 23.903L5.94897 19.4329C6.78953 19.3675 7.36935 19.3151 7.45639 19.2977C14.0416 17.9853 20.2008 19.1234 26.1572 20.224C30.1947 20.9701 34.3114 21.7308 38.5837 21.7308C41.6758 21.7308 44.8496 21.3323 48.1328 20.2412C48.1989 20.2192 48.5361 20.1221 49.0422 19.9765L50.8505 22.5666C50.5275 22.6427 50.3187 22.6967 50.2699 22.7182C46.677 24.2978 37.7011 26.1185 26.8488 22.9219C21.6609 21.3938 16.5302 20.9442 11.5994 21.5854C7.60989 22.1043 4.83888 23.1955 3.5072 23.7197C3.40481 23.76 3.31156 23.7967 3.22769 23.8292C3.2008 23.8396 3.12989 23.8651 3.02332 23.903ZM6.9046 17.9729L8.44692 15.6165C9.30841 15.5504 9.90283 15.5014 9.99177 15.4934C12.29 15.2895 19.2833 14.6692 26.4099 15.7783C31.3864 16.5527 35.4115 16.9367 38.7439 16.9367C41.293 16.9365 43.4372 16.7118 45.2895 16.2655L46.2875 16.0308L48.2164 18.7937C47.9266 18.8571 47.7395 18.9006 47.6925 18.9162C40.2132 21.4014 33.5089 20.1626 26.4109 18.8511C20.3247 17.7265 14.0315 16.5636 7.18334 17.9282C7.15162 17.9345 7.05419 17.9499 6.9046 17.9729ZM9.39672 14.1653L11.1365 11.5072C11.2655 11.31 11.4851 11.1914 11.7206 11.1914H42.5449C42.773 11.1914 42.9868 11.3028 43.1174 11.4898L45.4404 14.8173C45.1716 14.8663 45.0024 14.8985 44.9622 14.9081C40.8747 15.8933 35.2189 15.7363 26.6244 14.3987C19.3295 13.2634 12.2085 13.895 9.86829 14.1026C9.82452 14.1065 9.65707 14.1287 9.39672 14.1653Z" fill="#F8F9FA"/>
</svg>
