<svg width="25" height="24" viewBox="0 0 25 24" fill="none" xmlns="http://www.w3.org/2000/svg">
<g clip-path="url(#clip0_232_938)">
<path fill-rule="evenodd" clip-rule="evenodd" d="M17.75 21C21.485 21 24.5 19.5 24.5 17.25V3C24.5 1.5 21.5 0 17.75 0C14 0 11 1.5 11 3V8.25C12.755 8.985 14.255 10.215 15.32 11.775C16.055 11.919 16.865 11.9985 17.75 11.9985C19.715 11.9985 21.35 11.607 22.52 10.9695C22.6861 10.8782 22.8478 10.7791 23.0045 10.6725V12.7425C23.0045 13.095 22.724 13.6425 21.8015 14.1465C20.9075 14.634 19.5365 14.9925 17.7515 14.9925C17.3945 14.9925 17.0545 14.979 16.7315 14.952C16.8515 15.445 16.9315 15.95 16.9715 16.467C17.2245 16.481 17.4845 16.488 17.7515 16.488C19.7165 16.488 21.3515 16.0965 22.5215 15.459C22.6876 15.3677 22.8493 15.2686 23.006 15.162V17.232C23.006 17.586 22.7825 18.111 21.8195 18.63C20.8715 19.14 19.4495 19.482 17.7545 19.482C17.4095 19.482 17.0755 19.468 16.7525 19.44C16.6372 19.9386 16.4822 20.4271 16.289 20.901C16.761 20.954 17.249 20.9805 17.753 20.9805L17.75 21ZM21.8 9.66C22.7225 9.156 23.003 8.6085 23.003 8.256V6.186C22.848 6.292 22.6865 6.391 22.5185 6.483C21.3515 7.1205 19.7135 7.512 17.7485 7.512C15.7835 7.512 14.1485 7.1205 12.9785 6.483C12.8124 6.39171 12.6507 6.2926 12.494 6.186V8.256C12.494 8.6085 12.7745 9.156 13.697 9.6585C14.591 10.146 15.962 10.5045 17.747 10.5045C19.532 10.5045 20.897 10.146 21.797 9.6585L21.8 9.66ZM12.5 3.75C12.5 3.318 12.6875 2.9025 13.037 2.649C13.2275 2.511 13.4345 2.373 13.598 2.298C14.0075 2.109 16.058 1.4985 17.753 1.4985C19.448 1.4985 20.918 1.839 21.908 2.298C22.094 2.3835 22.2995 2.517 22.481 2.649C22.8275 2.8995 23.006 3.312 23.006 3.7395V3.7485C23.006 4.101 22.7255 4.6485 21.803 5.1525C20.909 5.64 19.538 5.9985 17.753 5.9985C15.968 5.9985 14.603 5.6385 13.703 5.1525C12.7805 4.65 12.5 4.101 12.5 3.75Z" fill="#3B82F6"/>
<path fill-rule="evenodd" clip-rule="evenodd" d="M14 17.25C14 20.985 10.985 24 7.25 24C3.515 24 0.5 20.985 0.5 17.25C0.5 13.515 3.515 10.5 7.25 10.5C10.985 10.5 14 13.515 14 17.25ZM12.5 17.25C12.5 20.145 10.145 22.5 7.25 22.5C4.355 22.5 2 20.145 2 17.25C2 14.355 4.355 12 7.25 12C10.145 12 12.5 14.355 12.5 17.25Z" fill="#3B82F6"/>
</g>
<defs>
<clipPath id="clip0_232_938">
<rect width="24" height="24" fill="white" transform="translate(0.5)"/>
</clipPath>
</defs>
</svg>
