<svg width="55" height="55" viewBox="0 0 55 55" fill="none" xmlns="http://www.w3.org/2000/svg">
<path d="M44.6875 6.875H10.3125C8.41402 6.875 6.875 8.41402 6.875 10.3125V44.6875C6.875 46.586 8.41402 48.125 10.3125 48.125H44.6875C46.586 48.125 48.125 46.586 48.125 44.6875V10.3125C48.125 8.41402 46.586 6.875 44.6875 6.875Z" fill="#F8F9FA" stroke="#3B82F6" stroke-linejoin="round"/>
<path d="M32.0833 6.875L6.875 32.0833L32.0833 6.875Z" fill="#F8F9FA"/>
<path d="M32.0833 6.875L6.875 32.0833" stroke="#3B82F6" stroke-linecap="round" stroke-linejoin="round"/>
<path d="M48.1258 22.916L22.9175 48.1243L48.1258 22.916Z" fill="#F8F9FA"/>
<path d="M48.1258 22.916L22.9175 48.1243" stroke="#3B82F6" stroke-linecap="round" stroke-linejoin="round"/>
<path d="M45.8341 9.16602L9.16748 45.8327L45.8341 9.16602Z" fill="#F8F9FA"/>
<path d="M45.8341 9.16602L9.16748 45.8327" stroke="#3B82F6" stroke-linecap="round" stroke-linejoin="round"/>
<path d="M13.75 25.209L21.7708 33.2298L13.75 25.209Z" fill="#F8F9FA"/>
<path d="M13.75 25.209L21.7708 33.2298" stroke="#3B82F6" stroke-linecap="round" stroke-linejoin="round"/>
<path d="M33.23 21.7715L41.2508 29.7923L33.23 21.7715Z" fill="#F8F9FA"/>
<path d="M33.23 21.7715L41.2508 29.7923" stroke="#3B82F6" stroke-linecap="round" stroke-linejoin="round"/>
</svg>
