<svg width="51" height="43" viewBox="0 0 51 43" fill="none" xmlns="http://www.w3.org/2000/svg">
<path d="M44.5984 0.402406C43.6381 0.407455 42.3797 0.732943 40.8423 1.4633C29.7108 0.687074 16.2766 2.30914 7.32282 5.12177C0.833784 2.12331 -0.240112 5.07601 2.70905 9.00894C-0.899898 19.7224 0.682212 30.6095 4.5204 38.3984C3.33768 43.5152 6.34281 43.2859 8.94317 41.2399C27.2876 42.2174 39.2179 39.4653 46.5279 33.8637C49.1071 35.9294 51.0031 33.2185 49.9513 29.9045C51.2319 22.1906 48.9769 11.9318 46.0741 4.79145C47.5094 2.26994 46.9358 0.389838 44.5984 0.402406ZM6.20735 8.77702C11.8631 15.3346 11.9665 30.3022 8.54356 39.2207C9.30045 29.455 8.81265 15.1934 6.20735 8.77702Z" fill="#F8F9FA"/>
</svg>
