<svg width="498" height="612" viewBox="0 0 498 612" fill="none" xmlns="http://www.w3.org/2000/svg">
<circle cx="249" cy="249" r="249" fill="#F6B53B"/>
<g clip-path="url(#clip0_214_7075)">
<path d="M403.056 96H127.392V470.609H403.056V96Z" fill="#DADADA"/>
<path d="M384.179 111.196H142.917V447.135H384.179V111.196Z" fill="#878787"/>
<path d="M384.179 115.335H148.446V451.274H384.179V115.335Z" fill="#D6FAFF"/>
<path d="M240.483 118.385H223.394L381.052 279.002V262.663L240.483 118.385Z" fill="white"/>
<path d="M154.031 118.385L381.052 355.58V291.202L213.788 118.385H154.031Z" fill="white"/>
<g opacity="0.2">
<path d="M153.696 373.063L149.005 367.344V386.515C150.345 387.55 151.183 388.204 151.183 388.204L159.727 380.252L153.752 373.008L153.696 373.063Z" fill="#FFC990"/>
<path d="M174.806 225.354L161.906 220.016L152.076 197.631C172.182 192.348 188.712 209.396 174.806 225.354Z" fill="#16191E"/>
<path d="M148.949 273.283L169.724 270.233L166.876 256.453C158.555 248.665 153.808 245.56 148.949 244.798V273.283Z" fill="#EDBB86"/>
<path d="M183.072 233.197L177.375 224.809C177.375 224.809 174.192 196.814 148.949 200.082V246.214C157.661 262.336 172.126 260.157 172.126 260.157C177.934 258.85 181.62 255.419 181.564 249.863C181.564 249.863 181.452 244.253 180.503 240.985C180.168 239.842 180.559 238.643 181.508 237.881C182.849 236.792 184.468 234.994 183.072 233.197Z" fill="#FFC990"/>
<path d="M148.949 266.856C155.371 263.261 152.802 255.854 148.949 249.209V266.856Z" fill="#16191E"/>
<path d="M148.949 197.958V232.816C159.002 224.809 151.518 210.158 170.785 207.871C169.78 202.915 165.089 195.507 148.949 197.904V197.958Z" fill="#16191E"/>
<path d="M155.092 219.036C155.092 215.06 157.326 211.52 160.174 209.232C163.023 206.945 166.429 205.746 169.78 204.548C170.339 204.33 170.897 204.167 171.456 204.167C172.014 204.167 172.628 204.494 172.963 205.038C173.354 205.801 173.075 206.727 172.74 207.435C170.004 213.154 167.49 216.476 161.906 219.907C159.448 221.378 158.052 225.898 158.499 228.894C156.712 225.844 155.036 222.467 155.092 218.927V219.036Z" fill="#16191E"/>
<path d="M257.74 274.699C257.07 274.1 256.623 273.174 255.786 273.011C255.004 272.847 254.278 273.392 253.663 273.828C251.541 275.516 249.419 277.204 247.297 278.838C246.682 279.329 246.068 279.928 246.068 280.636C246.068 281.289 246.682 281.779 247.241 282.215C247.911 282.705 248.637 283.25 249.475 283.25C250.201 283.25 250.815 282.923 251.485 282.542C253.943 281.18 256.456 279.764 258.801 278.13C259.248 277.858 259.695 277.477 259.807 276.987C259.918 276.442 259.583 275.897 259.136 275.57C258.69 275.189 258.187 274.971 257.796 274.59L257.74 274.699Z" fill="#EDBB86"/>
<path d="M315.934 222.739C315.04 221.814 313.588 221.814 312.638 222.631L215.408 313.532L197.313 330.416L190.555 336.734L163.916 361.625L158.946 366.254L148.893 375.677V381.995L166.15 365.819L171.232 361.135L189.271 344.251L196.81 337.225L215.854 319.36L315.878 225.953C316.771 225.081 316.771 223.665 315.878 222.739H315.934Z" fill="#575756"/>
<path d="M250.201 284.557C252.491 284.775 252.882 284.557 254.334 283.304C256.847 281.071 257.461 280.69 259.974 278.185C260.421 280.2 261.873 281.071 261.482 283.141C261.091 285.211 259.807 287.062 258.578 288.805C257.182 290.766 255.786 292.781 253.887 294.306C251.709 296.049 249.028 297.03 246.347 298.01C245.901 298.173 245.342 298.337 244.895 298.228C244.337 298.119 243.946 297.683 243.667 297.193C241.935 294.742 241.6 291.638 241.712 288.642C241.768 286.954 241.991 285.211 242.941 283.74C245.007 280.418 249.698 278.784 252.156 275.734C252.602 275.189 253.049 274.481 253.775 274.372C254.445 274.263 255.06 274.753 255.283 275.353C255.506 275.952 255.395 276.605 255.115 277.204C254.557 278.457 253.496 279.383 252.546 280.363C251.597 281.344 250.201 283.141 250.201 284.503V284.557Z" fill="#FFC990"/>
<path d="M301.629 200.171L294.566 206.916L329.108 241.315L336.171 234.57L301.629 200.171Z" fill="#575756"/>
<path d="M301.593 200.179L299.518 202.161L334.06 236.56L336.135 234.579L301.593 200.179Z" fill="#3C3C3B"/>
<path d="M148.949 451.547H218.703C213.565 421.482 205.634 387.006 193.962 359.446C195.303 352.529 196.252 344.959 196.866 337.225C197.146 334.992 197.257 332.759 197.369 330.417C197.481 329.436 197.536 328.402 197.592 327.421C200.105 324.807 201.613 321.212 201.613 317.236C201.613 313.587 200.217 310.265 198.095 307.759C198.095 304.927 198.095 302.149 197.927 299.426C197.704 289.84 197.09 281.126 196.308 274.1C194.353 272.956 189.215 271.595 183.184 270.342C178.66 269.416 173.41 270.832 168.998 270.07C161.291 269.743 153.808 270.887 149.005 271.867V451.547H148.949Z" fill="#3B82F6"/>
<path d="M169.668 269.034C162.017 268.708 154.031 269.634 148.893 270.505V284.285L174.583 282.215C174.583 277.368 178.213 272.738 183.072 270.396C178.548 269.47 174.025 269.851 169.613 269.034H169.668Z" fill="#EDEDED"/>
<path d="M193.906 359.446L185.753 360.045L171.232 361.134L163.916 361.625L148.893 362.768V366.908L158.946 366.254L166.15 365.818L187.651 364.457L191.617 364.185L193.85 378.999L204.797 451.492H221.272C214.123 415 205.578 384.282 193.795 359.392L193.906 359.446Z" fill="#EDEDED"/>
<path opacity="0.1" d="M193.962 379.053C202.618 400.295 210.381 424.64 217.418 451.546H221.439C214.291 415.055 205.746 384.336 193.962 359.446C195.302 352.529 196.252 344.958 196.866 337.224L215.91 319.36L215.463 313.532L197.369 330.416C197.481 329.436 197.536 328.401 197.592 327.421C200.105 324.806 201.613 321.212 201.613 317.236C201.613 313.587 200.217 310.264 198.095 307.759C198.095 304.927 198.095 302.149 197.927 299.426L189.941 296.321C192.733 309.175 192.622 322.737 190.611 336.68C190.276 339.185 189.829 341.691 189.327 344.141C188.377 349.37 187.205 354.599 185.808 359.936C185.808 359.936 185.808 360.045 185.808 360.1C186.479 361.516 187.149 362.932 187.819 364.402C189.941 369.086 192.063 373.934 194.074 378.944L193.962 379.053Z" fill="#131313"/>
<path d="M247.52 297.574C242.047 313.587 235.401 322.029 226.521 332.486C221.551 332.105 211.778 324.371 205.188 318.053C204.797 317.726 204.35 317.291 203.959 316.909L206.36 314.622L219.094 302.367C219.094 302.367 219.317 302.64 219.373 302.803C220.49 304.328 223.897 309.393 223.897 309.393L241.712 291.855C245.398 293.108 245.007 294.524 247.464 297.629L247.52 297.574Z" fill="#FFC990"/>
<path d="M219.82 303.456C215.966 308.031 212.448 312.225 208.092 315.82C207.198 316.637 206.193 317.399 205.187 318.053C204.797 318.38 204.35 318.652 203.959 318.924C200.496 315.548 195.805 309.175 192.007 303.293C191.896 303.184 191.84 303.075 191.784 303.021C188.824 298.5 186.479 294.306 185.808 292.237C181.396 279.219 190.946 272.139 196.252 274.154C205.69 281.888 213.9 294.197 219.094 302.313C219.205 302.476 219.317 302.585 219.373 302.748C219.54 302.966 219.652 303.184 219.764 303.402L219.82 303.456Z" fill="#EDEDED"/>
<path opacity="0.1" d="M148.949 313.097C151.518 326.822 155.874 341.691 160.789 356.941C155.818 332.868 151.63 310.047 151.686 293.381C151.686 290.004 150.289 288.86 148.949 289.132V313.151V313.097Z" fill="#131313"/>
<path opacity="0.1" d="M247.52 297.574C242.047 313.587 235.401 322.029 226.521 332.486C221.551 332.105 211.778 324.371 205.188 318.053C204.797 318.38 204.35 318.652 203.959 318.924C200.496 315.548 195.805 309.175 192.008 303.293C191.896 303.184 191.84 303.075 191.784 303.021C196.531 307.214 201.502 311.082 206.36 314.567C206.919 315.003 207.477 315.439 208.092 315.765C214.514 320.341 220.657 324.153 225.74 326.822C234.173 322.138 239.813 309.992 247.52 297.574Z" fill="#131313"/>
</g>
<path d="M151.63 377.256L143.085 385.208C143.085 385.208 112.09 361.734 98.5186 345.994C96.173 343.325 94.33 338.641 95.2236 334.719C95.2236 334.556 95.2236 334.447 95.2236 334.338C95.6145 332.976 96.3405 331.724 97.5133 330.689L97.7367 330.526C101.702 327.094 107.566 326.931 111.754 329.817C112.425 330.253 113.095 330.852 113.653 331.506L116.166 334.556L145.542 370.013L151.518 377.311L151.63 377.256Z" fill="#FFC990"/>
<path d="M120.02 325.896L116.166 334.502L112.424 342.998L110.358 347.682L95.2234 334.665L95.3351 334.284L99.7471 318.326C103.936 321.594 108.962 323.609 114.044 324.861C114.938 325.079 115.831 325.243 116.781 325.406C117.004 325.406 117.116 325.406 117.339 325.515C118.177 325.678 118.456 325.733 119.126 325.842C119.405 325.842 119.796 325.842 120.076 325.951L120.02 325.896Z" fill="#FFC990"/>
<path d="M128.229 298.119C128.229 304.219 127.448 310.482 125.605 316.147L122.812 323.227L121.695 326.005C121.137 326.005 120.634 325.896 120.076 325.842C119.796 325.842 119.405 325.733 119.126 325.733C118.512 325.624 117.953 325.515 117.339 325.406C117.116 325.406 117.004 325.406 116.781 325.297C115.887 325.134 114.938 324.97 114.044 324.752C108.906 323.5 103.936 321.484 99.7471 318.216L109.129 288.261C111.866 280.418 118.177 276.551 124.097 273.828C126.722 280.363 128.341 289.078 128.285 298.01L128.229 298.119Z" fill="#EDEDED"/>
<path opacity="0.1" d="M145.598 370.013C133.479 359.065 121.863 348.88 112.48 343.052C110.358 341.745 108.459 340.71 106.616 339.839C108.571 336.571 110.302 333.249 111.81 329.817C112.648 328.238 113.318 326.55 113.988 324.861C117.507 316.256 120.02 307.106 121.528 297.465L128.229 298.173C128.229 304.273 127.447 310.537 125.604 316.201L122.812 323.282L121.695 326.059C121.137 326.059 120.634 325.95 120.076 325.896L116.222 334.501L145.598 369.958V370.013Z" fill="#131313"/>
<path d="M166.764 222.304L153.864 216.966L144.034 194.581C164.14 189.298 180.615 206.346 166.764 222.304Z" fill="#16191E"/>
<path d="M161.626 267.183L158.778 253.403C144.76 240.277 140.907 240.386 129.57 242.783L136.998 270.778L161.571 267.183H161.626Z" fill="#EDBB86"/>
<path d="M122.533 248.12C118.791 243.164 115.943 237.064 114.156 231.073C107.957 203.405 128.062 199.864 138.505 197.305C165.982 191.858 169.333 221.759 169.333 221.759L175.03 230.147C176.37 231.944 174.806 233.742 173.466 234.831C172.517 235.593 172.126 236.792 172.461 237.935C173.354 241.149 173.522 246.813 173.522 246.813C173.634 252.314 169.892 255.8 164.084 257.107C164.084 257.107 149.507 259.34 140.795 243.055C136.216 243.654 125.214 251.878 122.477 248.229L122.533 248.12Z" fill="#FFC990"/>
<path d="M128.174 265.985C164.14 266.638 130.128 234.341 133.367 233.415C154.701 227.533 139.957 207.544 162.743 204.821C161.571 199.047 155.427 189.952 132.139 196.869C116.613 201.444 107.622 212.01 108.571 226.171C109.52 239.951 104.606 263.425 128.174 265.985Z" fill="#16191E"/>
<path d="M130.631 236.029C131.748 240.332 136.774 244.362 139.678 243.654C142.582 242.946 141.354 239.515 140.237 235.212C139.511 232.38 139.176 228.132 135.825 228.023C132.865 227.914 129.011 229.711 130.687 236.029H130.631Z" fill="#FFC990"/>
<path d="M147.05 215.986C147.05 212.01 149.284 208.47 152.132 206.182C154.981 203.895 158.387 202.697 161.738 201.498C162.297 201.281 162.855 201.117 163.414 201.117C163.972 201.117 164.586 201.444 164.921 201.989C165.312 202.751 165.033 203.677 164.698 204.385C161.962 210.104 159.448 213.426 153.864 216.858C151.406 218.328 150.01 222.849 150.457 225.844C148.67 222.794 146.994 219.417 147.05 215.877V215.986Z" fill="#16191E"/>
<path d="M307.5 549.529H304.54C304.54 532.59 290.858 518.756 273.992 518.756C257.126 518.756 243.443 532.536 243.443 549.529H240.483C240.483 530.956 255.506 515.87 273.992 515.87C292.477 515.87 307.5 530.956 307.5 549.529Z" fill="#3C3C3B"/>
<path d="M308.506 546.642L298.23 612H249.81L239.534 546.642H308.506Z" fill="#C44217"/>
<path d="M290.858 546.642L280.582 612H249.81L239.534 546.642H290.858Z" fill="#E94E1B"/>
<path opacity="0.1" d="M298.23 612C270.697 603.068 252.323 579.321 239.478 546.588L249.754 612H298.23Z" fill="#050504"/>
<path d="M249.754 271.649C249.084 271.05 248.637 270.124 247.799 269.961C247.017 269.797 246.291 270.342 245.677 270.778C243.555 272.466 241.433 274.155 239.31 275.789C238.696 276.279 238.082 276.878 238.082 277.586C238.082 278.239 238.696 278.73 239.255 279.165C239.925 279.656 240.651 280.2 241.488 280.2C242.215 280.2 242.829 279.873 243.499 279.492C245.956 278.131 248.469 276.714 250.815 275.081C251.262 274.808 251.709 274.427 251.82 273.937C251.932 273.392 251.597 272.847 251.15 272.521C250.703 272.139 250.201 271.922 249.81 271.54L249.754 271.649Z" fill="#EDBB86"/>
<path d="M307.892 222.903L207.868 316.31L188.824 334.175L181.285 341.201L163.246 358.085L158.164 362.769L133.088 386.189C132.753 386.516 132.251 386.733 131.804 386.788C131.078 386.897 130.296 386.624 129.793 386.08C128.9 385.208 128.9 383.738 129.793 382.866L150.848 363.15L155.818 358.521L182.458 333.63L189.215 327.312L207.31 310.428L304.541 219.526C305.434 218.655 306.886 218.655 307.836 219.635C308.729 220.507 308.729 221.977 307.836 222.849L307.892 222.903Z" fill="#575756"/>
<path d="M242.159 281.508C244.448 281.725 244.839 281.508 246.291 280.255C248.804 278.022 249.419 277.641 251.932 275.135C252.379 277.15 253.831 278.022 253.44 280.091C253.049 282.161 251.764 284.013 250.536 285.756C249.14 287.717 247.743 289.732 245.845 291.257C243.667 293 240.986 293.98 238.305 294.96C237.858 295.124 237.3 295.287 236.853 295.178C236.295 295.069 235.904 294.634 235.624 294.198C233.893 291.747 233.558 288.642 233.67 285.647C233.726 283.958 233.949 282.216 234.898 280.745C236.965 277.423 241.712 275.789 244.113 272.739C244.56 272.194 245.007 271.486 245.733 271.377C246.403 271.268 247.017 271.758 247.241 272.357C247.464 272.957 247.352 273.61 247.073 274.209C246.515 275.462 245.454 276.388 244.504 277.368C243.555 278.349 242.159 280.146 242.159 281.508Z" fill="#FFC990"/>
<path d="M293.583 197.161L286.52 203.906L321.062 238.305L328.125 231.56L293.583 197.161Z" fill="#575756"/>
<path d="M293.561 197.153L291.486 199.134L326.022 233.54L328.097 231.559L293.561 197.153Z" fill="#3C3C3B"/>
<path d="M232.05 608.678C233 612.327 218.144 612 216.581 612L188.042 611.346C179.721 609.603 185.25 595.878 185.585 595.17C186.311 593.591 187.372 592.338 188.936 591.848C190.276 591.358 194.018 591.14 201.893 594.353C201.893 594.353 202.116 594.408 202.284 594.517C210.326 597.785 216.134 599.527 223.45 602.414C227.471 603.994 230.654 605.9 231.939 608.623L232.05 608.678Z" fill="#3C3C3B"/>
<path d="M129.626 470.391C130.24 475.402 130.966 480.031 131.915 484.606C131.915 484.77 131.915 484.879 131.971 485.042C131.971 485.097 131.915 485.151 131.859 485.26C125.269 495.118 122.98 504.813 122.7 516.577C122.7 517.993 122.7 519.464 122.7 520.934C122.756 531.664 124.152 544.191 125.214 559.986C125.828 569.299 126.331 579.757 126.442 591.684V592.175C126.442 593.155 126.442 594.19 126.442 595.225L133.144 591.739L141.074 587.545C143.197 575.29 147.776 548.984 152.076 525.836C152.244 525.019 152.411 524.202 152.579 523.385C152.97 521.098 153.417 518.81 153.863 516.632C154.143 515.052 154.478 513.582 154.757 512.057C156.656 502.035 158.499 493.539 159.839 488.256C160.23 484.171 160.565 480.358 160.844 476.655C161.012 474.53 161.124 472.515 161.291 470.5H129.514L129.626 470.391Z" fill="#FFC990"/>
<path d="M200.217 587.654L204.406 522.405L204.517 520.445L204.741 516.578L205.187 509.606L204.741 488.746C205.299 483.517 205.355 476.927 205.243 470.337H174.806C176.37 476.11 178.045 481.448 179.777 485.805C175.197 494.737 173.913 502.743 174.415 512.384C174.471 513.745 174.583 515.107 174.75 516.523C174.974 518.538 175.197 520.608 175.532 522.841C176.929 532.863 179.386 544.954 181.676 561.021C183.072 570.77 184.412 582.044 185.529 595.17C185.529 595.225 185.529 595.334 185.529 595.388C185.585 595.334 191.058 595.987 195.638 598.656C204.629 603.939 213.285 605.246 219.484 600.889C214.402 598.874 208.818 595.17 203.624 593.155C201.334 592.229 199.882 589.942 200.161 587.6L200.217 587.654Z" fill="#FFC990"/>
<path d="M156.377 608.187C157.326 611.836 142.471 611.509 140.907 611.509L128.955 611.346C120.634 609.603 126.163 595.878 126.498 595.17C127.224 593.591 128.285 592.338 129.849 591.848C131.189 591.357 139.957 599.8 147.888 601.924C152.076 603.067 155.092 605.409 156.377 608.133V608.187Z" fill="#3C3C3B"/>
<path d="M140.851 591.358L142.303 575.182H128.285C129.011 581.336 125.884 587.981 126.442 595.225C126.442 595.279 126.442 595.388 126.442 595.443C126.498 595.388 127.838 595.443 133.144 596.314C139.231 597.294 146.882 607.588 147.385 601.815C142.303 599.854 140.572 593.7 140.795 591.303L140.851 591.358Z" fill="#FFC990"/>
<path opacity="0.1" d="M122.756 516.578H153.975C153.361 519.573 152.802 522.678 152.188 525.837C138.617 527.58 130.352 534.605 125.214 560.041C123.985 542.067 122.365 528.288 122.7 516.578H122.756Z" fill="#131313"/>
<path opacity="0.1" d="M204.797 516.578L204.406 522.405C193.683 523.876 184.245 536.239 181.732 561.075C178.883 541.468 175.868 527.797 174.806 516.578H204.797Z" fill="#131313"/>
<path d="M219.596 517.994C215.687 518.865 210.493 519.682 204.573 520.39C196.028 521.479 186.032 522.296 175.644 522.841C167.993 523.222 160.118 523.44 152.691 523.277C141.13 523.277 130.519 522.46 122.756 520.88C119.35 520.172 116.39 519.355 114.267 518.211C114.044 496.48 114.882 466.633 117.674 438.039V437.767C120.578 408.737 125.437 380.96 133.2 364.348L135.322 360.1C130.966 348.444 123.762 329.926 118.679 312.062C116.669 305.199 114.993 298.337 113.877 292.019C112.704 285.211 115.943 278.348 122.03 274.971C122.812 274.536 123.594 274.1 124.432 273.719C129.793 270.941 136.16 269.906 136.83 269.743C140.292 268.871 150.401 266.584 160.844 267.074C165.312 267.891 170.506 266.42 175.03 267.346C181.061 268.599 186.199 269.961 188.154 271.104C188.992 278.13 189.606 286.845 189.774 296.431C189.885 299.099 189.941 301.931 189.941 304.764C192.063 307.269 193.459 310.591 193.459 314.241C193.459 318.216 191.952 321.811 189.438 324.425C189.438 325.406 189.327 326.441 189.215 327.421C189.103 329.709 188.936 331.942 188.712 334.229C188.098 341.963 187.149 349.534 185.808 356.451C199.379 388.313 207.812 429.434 212.783 462.276C215.966 482.755 217.809 499.966 218.703 509.715C219.149 514.508 219.429 517.503 219.485 518.102L219.596 517.994Z" fill="#3B82F6"/>
<path d="M175.086 267.401C170.227 269.743 166.597 274.373 166.597 279.22L123.538 282.706C122.142 280.636 122.812 276.878 124.432 273.773C129.793 270.996 135.713 268.599 136.383 268.381C139.846 267.51 151.071 265.549 161.57 266.039C165.982 266.856 170.45 266.475 175.03 267.401H175.086Z" fill="#EDEDED"/>
<path d="M223.561 509.334L222.668 509.497C221.328 509.715 220.043 509.715 218.759 509.66C211.387 508.952 205.132 503.451 204.015 496.044L185.864 376.058L183.63 361.244L179.665 361.516L158.164 362.878L150.959 363.313L133.144 364.457L135.266 360.209L155.874 358.684L163.19 358.194L177.711 357.104L185.864 356.505C203.736 394.141 214.123 445.229 223.561 509.443V509.334Z" fill="#EDEDED"/>
<path opacity="0.1" d="M223.561 509.334C220.211 492.995 216.636 477.2 212.894 462.222C204.908 429.87 196.084 400.786 185.976 376.004C183.965 370.993 181.899 366.146 179.721 361.462C179.051 359.991 178.381 358.575 177.71 357.159C177.71 357.159 177.71 357.05 177.71 356.996C179.107 351.658 180.279 346.43 181.229 341.201C181.731 338.696 182.122 336.19 182.513 333.739C184.524 319.796 184.636 306.235 181.843 293.381L189.829 296.485C189.941 299.154 189.997 301.986 189.997 304.818C192.119 307.324 193.515 310.646 193.515 314.295C193.515 318.271 192.007 321.866 189.494 324.48C189.494 325.461 189.383 326.495 189.271 327.476L207.366 310.592L207.812 316.419L188.768 334.284C188.154 342.018 187.205 349.589 185.864 356.506C203.735 394.141 214.123 445.229 223.561 509.443V509.334Z" fill="#131313"/>
<path d="M239.534 294.579C234.061 310.591 227.415 319.033 218.535 329.491C213.565 329.109 203.791 321.375 197.201 315.057C196.81 314.731 196.364 314.295 195.973 313.914L198.374 311.626L211.107 299.372C211.107 299.372 211.331 299.644 211.387 299.807C212.504 301.332 215.91 306.398 215.91 306.398L233.726 288.86C237.412 290.113 237.021 291.529 239.478 294.633L239.534 294.579Z" fill="#FFC990"/>
<path d="M211.778 300.407C207.924 304.982 204.406 309.176 200.05 312.77C199.156 313.587 198.151 314.35 197.146 315.003C196.755 315.33 196.308 315.602 195.917 315.875C192.454 312.498 187.763 306.126 183.965 300.243C183.854 300.134 183.798 300.026 183.742 299.917C180.782 295.396 178.437 291.202 177.766 289.133C173.354 276.115 182.904 269.035 188.21 271.05C197.648 278.784 205.858 291.093 211.052 299.209C211.163 299.372 211.275 299.481 211.331 299.644C211.498 299.862 211.61 300.08 211.722 300.298L211.778 300.407Z" fill="#EDEDED"/>
<path opacity="0.1" d="M141.465 359.719C130.296 375.296 123.65 408.356 117.618 438.475V437.822C120.522 408.792 125.381 381.015 133.144 364.403L135.266 360.155C130.91 348.499 123.706 329.981 118.624 312.117C126.386 332.432 132.753 355.253 141.354 359.719H141.465Z" fill="#131313"/>
<path opacity="0.1" d="M152.746 353.891C145.319 330.744 139.064 308.304 138.449 289.677C138.449 285.538 143.643 283.74 143.643 290.276C143.643 306.942 147.776 329.818 152.746 353.837V353.891Z" fill="#131313"/>
<path opacity="0.1" d="M239.534 294.579C234.061 310.592 227.415 319.034 218.535 329.491C213.565 329.11 203.791 321.376 197.201 315.058C196.81 315.384 196.364 315.657 195.973 315.929C192.51 312.552 187.819 306.18 184.021 300.298C183.91 300.189 183.854 300.08 183.798 299.971C188.545 304.165 193.515 308.032 198.374 311.517C198.933 311.953 199.491 312.389 200.105 312.716C206.528 317.291 212.671 321.103 217.753 323.772C226.186 319.088 231.827 306.942 239.534 294.524V294.579Z" fill="#131313"/>
</g>
<defs>
<clipPath id="clip0_214_7075">
<rect width="308" height="516" fill="white" transform="translate(95 96)"/>
</clipPath>
</defs>
</svg>
