<svg width="649" height="710" viewBox="0 0 649 710" fill="none" xmlns="http://www.w3.org/2000/svg">
<g style="mix-blend-mode:multiply" opacity="0.2">
<path d="M473.004 709.984C375.804 709.984 297.008 694.546 297.008 675.502C297.008 656.458 375.804 641.02 473.004 641.02C570.204 641.02 649 656.458 649 675.502C649 694.546 570.204 709.984 473.004 709.984Z" fill="#C8BCA4"/>
</g>
<g style="mix-blend-mode:multiply" opacity="0.2">
<path d="M238.812 654.003C141.612 654.003 62.816 638.565 62.816 619.521C62.816 600.477 141.612 585.039 238.812 585.039C336.012 585.039 414.808 600.477 414.808 619.521C414.808 638.565 336.012 654.003 238.812 654.003Z" fill="#C8BCA4"/>
</g>
<path d="M476.171 301.391C534.012 357.233 568.618 390.293 560.399 433.879C552.289 476.893 440.144 467.928 366.575 428.578C293.007 389.211 228.862 338.964 167.823 336.924C106.784 334.884 74.4335 362.689 146.874 396.321C219.315 429.953 260.023 445.564 260.023 445.564L266.048 441.499C266.048 441.499 149.485 390.324 127.439 375.007C105.393 359.675 125.076 335.919 193.561 349.629C262.062 363.338 319.904 422.225 390.429 449.629C460.954 477.048 548.117 484.837 566.996 443.029C587.296 398.099 528.945 329.938 476.681 289.783L476.171 301.406V301.391Z" fill="#434D72"/>
<g style="mix-blend-mode:multiply" opacity="0.52">
<path d="M489.257 314.034C485.039 309.938 480.682 305.734 476.171 301.391L476.681 289.768C480.852 292.967 485.054 296.352 489.272 299.892C489.226 304.59 489.21 309.304 489.272 314.034H489.257Z" fill="#434D72"/>
</g>
<g style="mix-blend-mode:multiply" opacity="0.52">
<path d="M256.161 368.083C256.686 367.45 257.165 366.816 257.613 366.151C291.941 384.266 327.953 407.913 366.576 428.578C414.947 454.467 480.003 467.202 521.19 460.664C523.013 463.771 524.944 466.801 526.968 469.737C490.353 477.187 436.792 467.651 390.429 449.629C340.976 430.402 297.765 395.734 252.731 371.994C253.89 370.742 255.033 369.443 256.161 368.099V368.083Z" fill="#434D72"/>
</g>
<g style="mix-blend-mode:multiply" opacity="0.52">
<path d="M167.143 396.151C208.979 416.445 266.048 441.499 266.048 441.499L260.023 445.564C260.023 445.564 219.315 429.954 146.874 396.321C141.915 394.019 137.45 391.746 133.449 389.505C144.557 392.257 155.819 394.683 167.143 396.151Z" fill="#434D72"/>
</g>
<path d="M276.249 604.057C271.992 586.196 283.014 568.265 300.867 564.007C318.719 559.749 336.642 570.776 340.899 588.636C345.155 606.497 334.133 624.428 316.281 628.686C298.428 632.944 280.505 621.917 276.249 604.057Z" fill="#4F61A4"/>
<path d="M313.585 591.004V581.236C313.585 575.842 319.78 572.705 324.06 575.997C330.131 580.649 334.04 587.975 334.04 596.228C334.04 596.878 334.009 597.511 333.963 598.145C333.561 603.446 327.119 605.904 323.133 602.395L315.794 595.935C314.389 594.698 313.585 592.905 313.585 591.02V591.004Z" fill="#E2D7C0"/>
<path d="M300.948 595.672L293.471 601.298C289.284 604.451 283.12 601.577 283.104 596.337C283.104 596.291 283.104 596.26 283.104 596.213C283.104 587.975 287.013 580.634 293.084 575.982C297.364 572.705 303.559 575.827 303.559 581.221V590.433C303.559 592.489 302.586 594.421 300.948 595.657V595.672Z" fill="#E2D7C0"/>
<path d="M312.318 606.214L316.505 609.908C320.475 613.416 318.9 620.109 313.709 621.175C312.056 621.515 310.341 621.701 308.58 621.701C306.201 621.701 303.914 621.376 301.736 620.758C296.545 619.305 295.309 612.473 299.619 609.228L304.069 605.874C306.54 604.003 310.001 604.143 312.318 606.198V606.214Z" fill="#E2D7C0"/>
<path d="M270.683 283.879H279.813V461.746H270.683V283.879Z" fill="#E2D7C0"/>
<path d="M308.58 629.567H165.66C165.66 629.567 159.064 514.59 165.66 479.567C172.257 444.544 180.368 436.414 213.352 430.834C246.335 425.255 288.449 429.814 300.623 446.569C312.797 463.323 308.58 629.567 308.58 629.567Z" fill="#C8BCA4"/>
<g style="mix-blend-mode:multiply" opacity="0.45">
<path d="M165.645 479.567C165.722 479.135 165.799 478.733 165.892 478.315C167.283 488.424 169.476 498.377 172.597 508.037C186.069 549.799 215.422 587.264 260.533 596.322C270.884 598.393 279.628 598.516 289.299 594.034C298.121 589.954 304.115 581.546 307.467 572.72C308.116 571.005 308.564 569.15 308.873 567.249C309.012 567.203 309.151 567.156 309.275 567.11C309.275 601.422 308.564 629.583 308.564 629.583H165.645C165.645 629.583 159.048 514.606 165.645 479.583V479.567Z" fill="#C8BCA4"/>
</g>
<path d="M219.315 429.954C195.075 449.629 205.225 629.583 205.225 629.583" stroke="#4F61A4" stroke-width="0.5" stroke-linecap="round" stroke-linejoin="round"/>
<path d="M242.164 462.968L238.812 608.748C238.75 611.159 240.697 613.153 243.107 613.153H288.959C291.354 613.153 293.285 611.19 293.254 608.795L291.261 463.014C291.23 460.665 289.315 458.764 286.967 458.764H246.444C244.111 458.764 242.195 460.634 242.149 462.968H242.164Z" fill="#4F61A4"/>
<path d="M270.297 565.997L275.333 481.468H287.044L290.087 565.997H270.297Z" fill="#6F84CF"/>
<path d="M280.54 487.187L280.2 563.076" stroke="#4F61A4" stroke-width="0.5" stroke-linecap="round" stroke-linejoin="round"/>
<path d="M280.54 493.323C271.444 493.323 264.071 484.715 264.071 474.096C264.071 463.477 271.444 454.869 280.54 454.869C289.635 454.869 297.008 463.477 297.008 474.096C297.008 484.715 289.635 493.323 280.54 493.323Z" fill="#E2D7C0"/>
<path d="M280.54 593.88C271.444 593.88 264.071 585.271 264.071 574.653C264.071 564.034 271.444 555.425 280.54 555.425C289.635 555.425 297.008 564.034 297.008 574.653C297.008 585.271 289.635 593.88 280.54 593.88Z" fill="#E2D7C0"/>
<path d="M167.823 632.488C145.511 632.488 127.424 614.393 127.424 592.071C127.424 569.749 145.511 551.654 167.823 551.654C190.135 551.654 208.222 569.749 208.222 592.071C208.222 614.393 190.135 632.488 167.823 632.488Z" fill="#4F61A4"/>
<path d="M173.926 585.595V573.725C173.926 567.172 181.465 563.354 186.656 567.357C194.04 573.014 198.799 581.932 198.799 591.947C198.799 592.736 198.768 593.508 198.706 594.266C198.227 600.726 190.379 603.709 185.528 599.428L176.614 591.577C174.899 590.062 173.926 587.898 173.926 585.611V585.595Z" fill="#E2D7C0"/>
<path d="M158.569 591.283L149.485 598.114C144.387 601.948 136.91 598.454 136.879 592.087C136.879 592.04 136.879 591.994 136.879 591.948C136.879 581.932 141.637 573.014 149.022 567.357C154.228 563.369 161.752 567.172 161.752 573.725V584.931C161.752 587.434 160.578 589.784 158.585 591.283H158.569Z" fill="#E2D7C0"/>
<path d="M172.381 604.08L177.479 608.578C182.315 612.844 180.383 620.974 174.065 622.287C172.056 622.705 169.971 622.921 167.823 622.921C164.934 622.921 162.154 622.519 159.496 621.777C153.178 620 151.694 611.715 156.932 607.759L162.339 603.694C165.351 601.422 169.538 601.592 172.381 604.08Z" fill="#E2D7C0"/>
<path d="M186.965 283.879V461.746C186.965 466.213 196.095 466.213 196.095 461.746V283.879H186.965Z" fill="#E2D7C0"/>
<path d="M236 276.26C254.693 275.951 266.373 288.702 280.833 286.661C295.293 284.637 284.124 270.232 267.253 263.122C251.464 256.461 227.395 254.683 203.124 264.838C178.854 274.992 168.951 288.702 190.271 289.706C211.575 290.726 220.86 276.507 236.015 276.26H236Z" fill="#4F61A4"/>
<g style="mix-blend-mode:multiply" opacity="0.53">
<path d="M214.047 273.076C234.579 264.637 256.13 267.465 269.88 271.932C278.747 274.807 285.808 279.475 287.229 283.014C286.549 284.822 284.541 286.167 280.833 286.677C266.373 288.702 254.693 275.951 236 276.275C222.93 276.492 214.201 287.094 198.366 289.336C186.007 287.373 200.112 278.81 214.047 273.076Z" fill="#4F61A4"/>
</g>
<g style="mix-blend-mode:screen">
<path d="M189.745 287.821C214.742 287.821 227.92 270.309 242.705 268.284C264.056 265.348 276.569 276.863 284 282.179" stroke="#4F61A4" stroke-width="0.5" stroke-linecap="round" stroke-linejoin="round"/>
</g>
<path d="M304.764 461.747L306.092 471.777C306.092 471.777 335.291 485.332 330.811 526.77C326.315 568.207 284 589.83 253.566 589.335C245.455 588.64 243.802 599.722 247.479 599.722C247.479 599.722 312.396 604.668 334.055 552.288C359.732 490.17 304.779 461.762 304.779 461.762L304.764 461.747Z" fill="#434D72"/>
<g style="mix-blend-mode:multiply" opacity="0.52">
<path d="M333.406 491.314C331.892 494.235 330.286 497.094 328.586 499.892C322.098 479.227 306.108 471.777 306.108 471.777L304.779 461.747C304.779 461.747 323.009 471.175 333.561 491.036C333.514 491.128 333.453 491.206 333.406 491.298V491.314Z" fill="#434D72"/>
</g>
<path d="M328.015 172.967C328.015 172.967 312.797 232.859 312.797 246.569C312.797 260.278 328.015 300.881 328.015 300.881L302.137 321.7C302.137 321.7 267.887 281.592 270.297 253.678C272.707 225.765 290.087 146.059 290.087 146.059L328.015 172.967Z" fill="#E8A78C"/>
<g style="mix-blend-mode:multiply" opacity="0.57">
<path d="M316.474 310.17C310.588 297.913 300.515 273.725 299.094 249.227C297.07 214.327 309.754 201.391 296.993 170.17L322.654 169.165L327.999 172.952C327.999 172.952 312.782 232.844 312.782 246.553C312.782 260.262 327.999 300.865 327.999 300.865L316.459 310.154L316.474 310.17Z" fill="#E8A78C"/>
</g>
<path d="M504.582 129.304C504.582 129.304 552.783 159.768 555.07 181.082C557.356 202.395 495.961 211.035 495.961 211.035L478.21 192.766L499.02 182.102L474.163 153.678L504.613 129.32L504.582 129.304Z" fill="#E8A78C"/>
<g style="mix-blend-mode:multiply" opacity="0.57">
<path d="M504.582 129.304C504.582 129.304 541.243 161.793 543.529 183.106C545.816 204.42 495.961 211.02 495.961 211.02L478.21 192.751L499.02 182.086L474.163 153.663L504.613 129.304H504.582Z" fill="#E8A78C"/>
</g>
<path d="M328.015 189.845C293.517 184.899 277.527 173.091 277.527 173.091C277.527 173.091 293.888 106.847 314.064 97.7124C334.24 88.578 349.458 99.2426 383.322 93.9103C417.187 88.578 437.734 82.4883 466.284 90.479C494.818 98.4698 524.125 138.238 524.125 138.238C515.474 155.41 501.384 166.491 480.744 170.185L459.44 148.733C459.44 148.733 454.867 258.763 462.097 281.221C469.327 303.678 343.371 283.879 343.371 283.879L331.568 261.793L338.257 158.624L328.015 189.845Z" fill="#3B82F6"/>
<g style="mix-blend-mode:multiply" opacity="0.58">
<path d="M315.439 187.589C322.098 152.627 335.755 146.059 335.755 146.059C335.755 146.059 414.143 151.391 435.463 141.113L456.767 130.834C456.767 130.834 476.233 154.76 487.604 168.593C485.394 169.212 483.123 169.753 480.744 170.17L459.44 148.717C459.44 148.717 456.18 227.326 459.533 265.208H333.406L331.583 261.777L338.273 158.609L328.03 189.83C323.519 189.181 319.332 188.423 315.455 187.573L315.439 187.589Z" fill="#3B82F6"/>
</g>
<g style="mix-blend-mode:multiply">
<path d="M419.581 91.9937C415.503 115.842 396.624 120.263 385.995 116.522C377.59 113.57 375.551 103.122 376.463 98.1297" stroke="#3B82F6" stroke-width="0.5" stroke-linecap="round" stroke-linejoin="round"/>
</g>
<g style="mix-blend-mode:multiply">
<path d="M519.552 135.147C504.582 162.056 479.214 164.838 479.214 164.838" stroke="#3B82F6" stroke-width="0.5" stroke-linecap="round" stroke-linejoin="round"/>
</g>
<g style="mix-blend-mode:multiply">
<path d="M327.906 183.122C296.05 180.077 279.813 167.62 279.813 167.62" stroke="#3B82F6" stroke-width="0.5" stroke-linecap="round" stroke-linejoin="round"/>
</g>
<path d="M403.159 39.3505C430.705 44.3891 430.705 19.7987 411.671 16.8621C392.638 13.9254 369.727 23.2608 369.727 23.2608L403.159 39.3505Z" fill="#D8A646"/>
<g style="mix-blend-mode:multiply">
<path d="M403.159 39.3505C430.705 44.3891 430.705 19.7987 411.671 16.8621C392.638 13.9254 369.727 23.2608 369.727 23.2608L403.159 39.3505Z" fill="#D8A646"/>
</g>
<path d="M403.159 37.1714C430.705 41.7463 430.705 19.4743 411.671 16.8004C392.638 14.142 369.727 22.5964 369.727 22.5964L403.159 37.1714Z" fill="#D8A646"/>
<path d="M382.565 99.6133C384.079 125.116 415.085 109.134 416.97 88.3614L411.331 89.2114C411.331 89.2114 404.626 75.8111 405.198 64.9611C405.198 64.9611 414.514 58.485 413.386 50.1079C412.243 41.7308 405.97 39.8297 402.726 42.3026C402.726 42.3026 402.912 29.5515 399.683 23.6473C396.454 17.7431 351.806 16.9549 348.315 35.6411C343.989 58.6859 359.345 108.361 382.565 99.5978V99.6133Z" fill="#E8A78C"/>
<g style="mix-blend-mode:multiply">
<path d="M407.006 45.27C399.868 50.5096 399.297 56.9702 399.297 56.9702" stroke="#E8A78C" stroke-width="0.5" stroke-linecap="round" stroke-linejoin="round"/>
</g>
<g style="mix-blend-mode:multiply">
<path d="M365.2 53.168C371.287 61.4214 363.161 76.1355 373.049 78.3148" stroke="#E8A78C" stroke-width="0.5" stroke-linecap="round" stroke-linejoin="round"/>
</g>
<path d="M356.178 60.4943C357.136 60.3089 358.14 61.128 358.805 62.4573C358.65 62.4263 358.48 62.4109 358.31 62.4418C357.522 62.5964 357.028 63.4464 357.198 64.3738C357.368 65.2857 358.156 65.9039 358.944 65.7494C359.191 65.703 359.392 65.5639 359.577 65.3939C359.67 67.3413 358.99 68.9333 357.831 69.1497C356.472 69.4124 355.004 67.6814 354.556 65.3011C354.093 62.9055 354.819 60.7726 356.178 60.5098V60.4943Z" fill="#22283A"/>
<path d="M377.93 57.7277C378.888 57.5423 379.892 58.3614 380.557 59.6907C380.402 59.6597 380.232 59.6443 380.062 59.6752C379.275 59.8298 378.78 60.6798 378.95 61.6072C379.12 62.5191 379.908 63.1373 380.696 62.9828C380.943 62.9364 381.144 62.7973 381.329 62.6273C381.422 64.5747 380.742 66.1667 379.583 66.3831C378.224 66.6458 376.756 64.9148 376.308 62.5345C375.845 60.1389 376.571 58.006 377.93 57.7432V57.7277Z" fill="#22283A"/>
<g style="mix-blend-mode:multiply">
<path d="M387.509 74.0181C383.986 86.6765 374.284 84.389 374.284 84.389" stroke="#E8A78C" stroke-width="0.5" stroke-linecap="round" stroke-linejoin="round"/>
</g>
<g style="mix-blend-mode:multiply" opacity="0.47">
<path d="M397.922 75.0537C397.922 75.0537 405.198 94.08 396.284 112.395C389.363 113.879 383.229 110.618 382.565 99.6132C392.329 94.4046 396.516 86.6148 397.922 75.0537Z" fill="#E8A78C"/>
<path d="M382.472 43.0908C384.527 50.927 377.05 65.6565 352.424 72.5035C348.562 60.927 346.847 48.0367 347.897 38.5159C365.108 38.0985 381.36 38.8559 382.472 43.0908Z" fill="#E8A78C"/>
</g>
<path d="M346.785 30.1389C349.103 28.7479 375.969 35.9504 385.918 38.6861C385.053 28.5161 393.75 24.8839 399.636 23.6011C399.636 23.6165 399.667 23.6474 399.683 23.6629C402.912 29.5671 402.726 42.3182 402.726 42.3182C397.026 45.9349 396.068 50.5099 396.068 57.1714C396.068 63.4465 390.166 58.4079 386.783 43.4929C382.936 47.5269 375.675 52.1328 365.201 50.309C350.972 47.836 348.485 55.8576 341.085 52.0246C329.668 46.1204 343.943 31.8391 346.785 30.1389Z" fill="#434D72"/>
<path d="M448.517 84.5436C436.081 102.658 428.727 146.058 428.727 146.058H438.615L442.678 250H463.225C463.225 250 476.156 333.369 492.146 392.766C508.135 452.163 527.91 529.072 527.91 529.072L467.211 552.457C452.704 526.707 428.171 466.677 403.143 404.945L422.13 543.524L354.402 541.993C354.402 541.993 343.804 507.944 338.273 458.748C332.742 409.536 327.999 300.371 327.999 273.724C327.999 247.078 335.739 146.058 335.739 146.058H341.069C341.069 146.058 343.603 111.978 347.573 92.9516L362.126 93.8945C362.126 93.8945 358.187 121.128 360.674 146.058H410.327C412.351 127.805 418.036 107.48 426.873 85.3319C435.293 84.5282 442.477 84.2809 448.502 84.5436H448.517Z" fill="#6F84CF"/>
<path d="M409.586 132.859H434.181L437.734 120.046H412.49L409.586 132.859Z" stroke="#D8A646" stroke-linecap="round" stroke-linejoin="round"/>
<path d="M339.648 132.859H362.312L362.59 120.046H340.621L339.648 132.859Z" stroke="#D8A646" stroke-linecap="round" stroke-linejoin="round"/>
<g style="mix-blend-mode:multiply" opacity="0.62">
<path d="M428.727 146.058H410.343" stroke="#39665D" stroke-width="0.5" stroke-linecap="round" stroke-linejoin="round"/>
<path d="M360.674 146.058H341.084" stroke="#39665D" stroke-width="0.5" stroke-linecap="round" stroke-linejoin="round"/>
</g>
<path d="M425.946 171.947L347.604 173.477L351.126 254.559H422.517L425.946 171.947Z" fill="#4F61A4"/>
<path d="M421.188 177.094L418.098 177.156" stroke="#6F84CF" stroke-width="0.5" stroke-linecap="round" stroke-linejoin="round"/>
<path d="M412.382 177.279L358.063 178.485" stroke="#6F84CF" stroke-width="0.5" stroke-linecap="round" stroke-linejoin="round"/>
<path d="M355.205 178.546L352.115 178.608" stroke="#6F84CF" stroke-width="0.5" stroke-linecap="round" stroke-linejoin="round"/>
<path d="M418.515 249.242H354.973" stroke="#6F84CF" stroke-width="0.5" stroke-linecap="round" stroke-linejoin="round"/>
<g style="mix-blend-mode:multiply" opacity="0.35">
<path d="M382.565 497.078C384.898 451.576 378.765 341.746 378.765 341.746C378.765 341.746 392.082 378.299 403.174 404.945L422.161 543.524L382.859 542.643C382.071 529.783 381.716 514.157 382.581 497.078H382.565Z" fill="#5A8F84"/>
</g>
<path d="M474.75 315.193C445.474 320.942 403.36 326.785 403.36 326.785L405.894 336.939C405.894 336.939 464.77 328.918 476.681 325.054L474.735 315.193H474.75Z" fill="#4F61A4"/>
<path d="M425.946 381.02C425.946 381.02 459.44 462.813 463.24 464.714C467.041 466.615 503.578 463.276 510.808 454.853C518.038 446.429 495.205 366.491 495.205 366.491C495.205 366.491 434.891 376.198 431.276 376.955C427.661 377.712 425.946 381.02 425.946 381.02Z" fill="#4F61A4"/>
<g style="mix-blend-mode:multiply" opacity="0.46">
<path d="M431.276 376.97C432.064 376.8 435.587 376.213 440.592 375.378C440.978 376.955 441.395 378.531 441.828 380.123C448.425 404.266 456.366 427.681 472.695 447.094C481.022 457.001 493.567 460.371 505.463 458.47C492.887 464.204 466.469 466.337 463.256 464.729C459.455 462.828 425.962 381.035 425.962 381.035C425.962 381.035 427.677 377.743 431.292 376.97H431.276Z" fill="#4F61A4"/>
</g>
<g style="mix-blend-mode:multiply" opacity="0.65">
<path d="M472.572 465.1C463.24 464.714 429.562 377.558 429.562 377.558C438.136 378.717 443.435 399.814 448.193 401.144C452.951 402.473 496.147 395.626 498.233 390.865C500.318 386.105 495.189 366.507 495.189 366.507" stroke="#39665D" stroke-width="0.5" stroke-linecap="round" stroke-linejoin="round"/>
</g>
<path d="M367.595 419.922L334.936 421.082L335.569 429.335L367.595 427.403V419.922Z" fill="#4F61A4"/>
<path d="M491.466 679.892C522.673 688.269 580.514 659.335 580.514 659.335L529.903 511.236C503.779 516.26 479.385 527.326 456.072 542.071L518.285 650.572C503.779 659.598 494.849 669.366 491.45 679.892H491.466Z" fill="#D8A646"/>
<g style="mix-blend-mode:multiply" opacity="0.49">
<path d="M518.656 678.964C534.831 666.63 543.714 648.083 546.372 628.268C548.952 609.041 544.92 587.48 539.342 569.041C533.626 550.139 525.994 531.916 517.451 514.142C521.561 513.029 525.716 512.055 529.903 511.251L580.514 659.35C580.514 659.35 546.526 676.336 516.601 680.51C517.297 680.015 517.976 679.505 518.656 678.995V678.964Z" fill="#D8A646"/>
</g>
<path d="M491.466 679.892C491.775 678.933 492.146 677.99 492.532 677.048C514.794 678.902 553.988 668.346 578.738 654.173L580.499 659.335C580.499 659.335 522.657 688.269 491.45 679.892H491.466Z" fill="#434D72"/>
<path d="M425.946 530.803C391.31 524.884 348.315 530.803 348.315 530.803L384.466 649.381C384.466 649.381 362.018 656.228 358.202 672.983H448.765L425.931 530.803H425.946Z" fill="#D8A646"/>
<g style="mix-blend-mode:multiply" opacity="0.49">
<path d="M419.35 626.909C416.569 611.205 412.382 595.75 407.732 580.51C402.402 563.06 396.763 545.348 390.058 528.161C401.66 528.161 414.282 528.794 425.946 530.788L448.78 672.967H422.007C424.293 657.867 422.007 641.808 419.35 626.909Z" fill="#D8A646"/>
</g>
<path d="M448.085 668.64L448.78 672.967H358.218C358.557 671.437 359.067 670 359.685 668.64H448.085Z" fill="#434D72"/>
<path d="M257.999 481.468L133.681 675.502H41.8359C2.76517 675.502 -1.7923 656.6 9.60913 642.89C9.60913 642.89 -1.80777 630.835 0.216064 624.745C2.2399 618.655 11.6329 622.921 11.6329 622.921C11.6329 622.921 5.7932 613.972 8.58948 612.504C11.3858 611.035 17.9825 615.348 17.9825 615.348C17.9825 615.348 12.1428 594.528 21.783 581.345C31.4232 568.145 52.7275 562.303 58.8298 584.899C58.8298 584.899 71.2663 536.491 96.8809 535.95C122.511 535.409 138.748 577.419 157.256 578.501C175.779 579.583 250.491 474.096 250.491 474.096L257.968 481.484L257.999 481.468Z" fill="#6F84CF"/>
<path d="M56.8679 551.515C64.7006 554.142 57.3005 568.377 52.2796 566.399C47.2741 564.42 50.1012 549.258 56.8679 551.515Z" fill="#6F84CF"/>
<path d="M70.0923 518.902C79.578 521.345 69.0263 550.958 60.6993 545.038C55.4775 541.329 61.1164 516.584 70.0923 518.902Z" fill="#6F84CF"/>
<path d="M36.5833 511.962C60.1586 515.795 45.5284 565.255 24.9038 560.973C4.27933 556.692 17.581 508.871 36.5833 511.962Z" fill="#6F84CF"/>
<path d="M105.378 482.998C123.592 489.011 98.673 524.497 90.5005 521.453C82.3279 518.408 91.5355 478.439 105.378 482.998Z" fill="#6F84CF"/>
<path d="M79.6397 490.232C86.4837 493.06 82.4978 506.6 75.2677 503.941C68.0375 501.283 71.838 487.001 79.6397 490.232Z" fill="#6F84CF"/>
<path d="M21.613 493.276C29.4148 495.178 26.1859 508.13 19.1412 506.414C12.0964 504.698 13.8112 491.375 21.613 493.276Z" fill="#6F84CF"/>
<g style="mix-blend-mode:screen">
<path d="M56.8679 551.515C64.7006 554.142 57.3005 568.377 52.2796 566.399C47.2741 564.42 50.1012 549.258 56.8679 551.515Z" fill="#6F84CF"/>
<path d="M70.0923 518.902C79.578 521.345 69.0263 550.958 60.6993 545.038C55.4775 541.329 61.1164 516.584 70.0923 518.902Z" fill="#6F84CF"/>
<path d="M36.5833 511.962C60.1586 515.795 45.5284 565.255 24.9038 560.973C4.27933 556.692 17.581 508.871 36.5833 511.962Z" fill="#6F84CF"/>
<path d="M105.378 482.998C123.592 489.011 98.673 524.497 90.5005 521.453C82.3279 518.408 91.5355 478.439 105.378 482.998Z" fill="#6F84CF"/>
<path d="M79.6397 490.232C86.4837 493.06 82.4978 506.6 75.2677 503.941C68.0375 501.283 71.838 487.001 79.6397 490.232Z" fill="#6F84CF"/>
<path d="M21.613 493.276C29.4148 495.178 26.1859 508.13 19.1412 506.414C12.0964 504.698 13.8112 491.375 21.613 493.276Z" fill="#6F84CF"/>
</g>
<g style="mix-blend-mode:screen" opacity="0.72">
<path d="M125.307 661.546L253.179 481.468L136.863 632.488" stroke="#6F84CF" stroke-width="0.5" stroke-linecap="round" stroke-linejoin="round"/>
</g>
<g style="mix-blend-mode:screen" opacity="0.76">
<path d="M0.231461 624.745C2.25529 618.655 11.6483 622.921 11.6483 622.921C11.6483 622.921 5.80859 613.972 8.60487 612.504C11.4012 611.036 17.9979 615.348 17.9979 615.348C17.9979 615.348 12.1581 594.529 21.7983 581.345C31.4386 568.145 52.7429 562.303 58.8452 584.9C58.8452 584.9 71.2817 536.492 96.8963 535.951C109.178 535.688 119.313 545.224 128.567 555.317C102.643 532.658 80.4121 599.706 80.4121 599.706C80.4121 599.706 68.7481 579.057 52.0013 596.322C35.2545 613.57 34.2349 645.363 34.2349 645.363C34.2349 645.363 24.5947 634.637 9.62452 642.89C9.62452 642.89 -1.79237 630.835 0.231461 624.745Z" fill="#6F84CF"/>
</g>
<path d="M259.637 461.746L341.084 350.51L351.265 359.057L270.173 468.145L259.637 461.746Z" fill="#434D72"/>
<path d="M344.128 359.057L266.048 463.014" stroke="#6F84CF" stroke-width="0.5" stroke-linecap="round" stroke-linejoin="round"/>
<path d="M261.167 454.868C267.671 455.734 272.552 459.969 276.26 466.63L256.733 487.187C251.727 486.259 247.602 483.663 244.93 478.299L261.167 454.868Z" fill="#3B82F6"/>
<g style="mix-blend-mode:multiply">
<path d="M262.665 470.664C266.157 467.944 269.277 464.466 272.213 460.942C273.68 462.565 275.04 464.451 276.245 466.615L256.717 487.171C252.438 486.383 248.823 484.358 246.196 480.448C251.99 478.114 257.412 474.745 262.665 470.649V470.664Z" fill="#3B82F6"/>
</g>
<path d="M402.155 254.559C410.343 239.134 413.386 207.542 416.043 199.922C418.7 192.303 456.952 195.672 484.344 211.02C501.276 220.51 502.805 234.59 501.508 243.972C500.689 249.922 496.039 254.636 490.122 255.61C485.487 256.383 479.307 257.125 472.371 257.202C457.339 257.388 442.878 253.771 442.878 253.771L484.745 291.082L477.515 306.507L433.748 275.1L350.725 365.332L333.607 353.91C333.607 353.91 393.982 269.969 402.17 254.544L402.155 254.559ZM434.876 244.853C434.876 244.853 451.622 247.326 460.985 247.898C470.347 248.469 496.718 251.128 490.06 236.089C483.401 221.051 446.493 215.533 436.776 220.293C427.074 225.054 434.876 244.853 434.876 244.853Z" fill="#3B82F6"/>
<g style="mix-blend-mode:multiply">
<path d="M442.878 253.802L484.73 291.112L483.108 294.59L433.748 252.148L442.878 253.802Z" fill="#3B82F6"/>
</g>
<g style="mix-blend-mode:multiply">
<path d="M424.046 268.083L433.748 275.131L350.724 365.347L333.591 353.925L350.168 330.726L370.19 335.842L424.046 268.083Z" fill="#3B82F6"/>
</g>
<g style="mix-blend-mode:multiply">
<path d="M422.13 219.165C418.515 259.273 418.515 257.681 344.112 355.966" stroke="#3B82F6" stroke-width="0.5" stroke-linecap="round" stroke-linejoin="round"/>
</g>
<path d="M448.873 198.191C456.86 187.558 494.818 169.675 512.322 167.759C529.826 165.858 546.186 182.411 547.716 200.494C531.154 207.388 511.828 212.102 491.126 215.703C491.126 215.703 486.059 231.453 482.011 235.255C477.948 239.057 473.251 235.255 473.251 235.255C470.779 237.635 467.118 236.661 464.847 234.837C461.247 235.718 458.158 235.131 457.076 232.318C457.076 232.318 450.232 230.417 449.97 227.125C449.892 226.105 449.97 218.671 449.97 218.671L453.245 218.918C454.481 213.122 455.114 206.646 455.346 199.691L448.873 198.161V198.191Z" fill="#D8A646"/>
<g style="mix-blend-mode:multiply" opacity="0.49">
<path d="M540.084 181.205C544.317 186.754 547.129 193.508 547.716 200.494C531.154 207.388 511.828 212.102 491.126 215.703L493.289 203.91C493.289 203.91 514.717 199.49 540.084 181.19V181.205Z" fill="#D8A646"/>
</g>
<g style="mix-blend-mode:multiply">
<path d="M473.251 235.27C476.357 230.479 477.314 227.434 477.314 227.434" stroke="#D8A646" stroke-width="0.5" stroke-linecap="round" stroke-linejoin="round"/>
<path d="M469.698 225.533C468.369 229.721 464.847 234.853 464.847 234.853" stroke="#D8A646" stroke-width="0.5" stroke-linecap="round" stroke-linejoin="round"/>
<path d="M461.047 223.446C459.517 228.207 457.076 232.349 457.076 232.349" stroke="#D8A646" stroke-width="0.5" stroke-linecap="round" stroke-linejoin="round"/>
</g>
<path d="M329.915 292.828L345.008 324.111C347.99 325.162 350.447 326.336 352.192 327.712L347.836 334.605C347.836 334.605 368.506 360.108 358.526 363.632C361.245 368.454 359.299 370.525 355.931 371.622C356.147 373.786 354.216 375.857 348.515 374.095C348.515 374.095 347.944 378.284 344.9 377.527C341.857 376.769 324.739 363.338 321.974 360.293C319.208 357.248 320.738 353.245 320.738 353.245L294.583 318.438C303.837 304.683 312.921 295.811 329.946 292.812L329.915 292.828Z" fill="#D8A646"/>
<g style="mix-blend-mode:multiply" opacity="0.49">
<path d="M295.587 316.955L327.149 340.664C324.786 344.111 321.974 348.423 320.336 352.781L294.536 318.454C294.876 317.944 295.232 317.449 295.572 316.955H295.587Z" fill="#D8A646"/>
</g>
<g style="mix-blend-mode:multiply">
<path d="M320.722 353.261C322.808 342.627 333.592 334.126 333.592 334.126" stroke="#D8A646" stroke-width="0.5" stroke-linecap="round" stroke-linejoin="round"/>
</g>
<g style="mix-blend-mode:multiply">
<path d="M344.128 346.893L358.526 363.647" stroke="#D8A646" stroke-width="0.5" stroke-linecap="round" stroke-linejoin="round"/>
<path d="M355.916 371.638L338.829 353.585" stroke="#D8A646" stroke-width="0.5" stroke-linecap="round" stroke-linejoin="round"/>
<path d="M348.5 374.111L332.526 359.551" stroke="#D8A646" stroke-width="0.5" stroke-linecap="round" stroke-linejoin="round"/>
</g>
<path d="M382.565 44.2193C370.005 46.5067 351.111 43.4619 342.598 34.5129C342.598 34.5129 340.034 1.66902 371.334 0.061603C404.626 -1.65401 403.159 34.5129 403.159 34.5129C396.794 40.1543 390.012 43.8019 382.565 44.2193Z" fill="#3B82F6"/>
<path d="M368.29 40.0308C355.73 38.9798 347.171 34.1266 342.027 29.6908C341.672 26.5223 341.981 23.462 343.077 20.5254C350.771 25.6413 361.276 29.5517 368.29 30.2781V40.0308Z" fill="#D8A646"/>
</svg>
