<svg width="498" height="612" viewBox="0 0 498 612" fill="none" xmlns="http://www.w3.org/2000/svg">
<circle cx="249" cy="249" r="249" fill="#B998DC"/>
<g clip-path="url(#clip0_241_574)">
<path d="M160.09 296.183C161.752 301.85 165.939 306.086 170.469 303.968C173.852 302.365 175.802 298.015 178.783 295.725C188.532 288.34 185.435 287.825 188.36 285.306C189.908 283.933 196.789 282.616 197.821 280.67C197.936 280.498 197.936 280.326 197.936 280.154C198.051 270.423 198.223 269.278 197.133 268.706C195.929 268.133 185.32 269.679 184.002 269.851C180.217 270.423 173.393 270.537 169.895 272.14C167.315 273.285 165.365 276.09 163.817 278.38C161.58 281.7 160.434 285.02 159.459 288.913C159 290.916 158.885 291.546 160.204 296.126L160.09 296.183Z" fill="#F4BDA2"/>
<path d="M162.785 278.151C162.269 279.067 162.211 279.525 161.982 280.613C161.58 282.502 161.408 287.54 163.358 287.711C168.863 288.169 162.555 279.296 174.655 278.495C180.618 278.094 180.16 269.565 171.558 270.08C166.397 270.424 164.104 275.69 162.785 278.151Z" fill="#F8D1BF"/>
<path d="M201.95 246.61C202.179 245.522 203.211 244.663 203.899 243.633C212.1 231.497 215.081 223.827 220.93 217.587C220.93 217.587 235.897 227.032 237.331 232.986C239.28 240.885 231.998 250.044 231.654 250.96C231.539 251.304 231.252 251.59 231.023 251.876C220.529 263.44 220.185 265.443 217.203 265.901C213.476 266.474 207.741 264.584 205.677 261.436C203.727 258.517 201.663 247.755 201.95 246.667V246.61Z" fill="#F4BDA2"/>
<path d="M262.562 177.001C252.584 177.23 240.14 184.843 234.922 190.568C230.793 195.147 215.311 217.988 214.623 223.827C214.623 223.827 215.999 234.989 237.904 238.653C261.988 232.528 261.587 177.001 262.562 177.001Z" fill="#EFF1F7"/>
<path d="M323.861 126.225C327.589 132.522 325.811 141.166 322.084 147.062C320.65 149.295 318.872 151.413 316.349 152.729C313.826 154.046 310.558 154.447 307.863 153.302C305.225 152.157 303.505 149.752 302.816 147.234C302.128 144.772 302.3 142.196 302.472 139.677C302.816 134.697 303.218 129.774 303.562 124.794C303.677 123.592 303.447 122.275 303.734 121.13C303.963 120.214 305.34 120.043 306.257 119.814C312.278 118.154 318.987 119.699 322.886 124.794C323.231 125.252 323.575 125.71 323.861 126.168V126.225Z" fill="#2E2E37"/>
<path d="M301.899 554.183C301.899 555.042 301.727 555.9 301.44 556.702C300.81 558.476 299.663 560.022 298.86 561.682C296.681 566.147 293.699 570.154 291.061 574.333C287.965 579.084 284.868 583.778 281.829 588.529C279.593 591.964 278.274 595.342 276.783 599.062C276.209 600.494 275.808 602.096 276.267 603.528C276.554 604.443 277.184 605.245 277.872 605.989C281.084 609.366 286.359 610.969 290.889 611.427C293.412 611.713 295.935 612.343 298.401 611.427C300.81 610.454 302.415 608.222 304.193 606.504C308.436 602.383 310.386 596.83 312.565 591.506C313.368 589.56 314.801 587.957 316.292 586.583C319.274 583.95 322.772 582.29 324.607 578.683C326.671 574.619 327.933 569.295 326.327 564.888C324.55 560.022 324.148 554.297 323.288 549.145C323.059 547.714 322.772 546.226 321.855 545.081C320.249 543.135 318.013 542.162 315.547 541.875C313.482 541.589 311.361 541.761 309.239 541.875C307.461 541.99 305.626 542.162 304.193 543.249C302.071 544.852 301.784 547.886 301.899 550.519C301.899 551.664 302.014 552.924 301.899 554.068V554.183Z" fill="#D2D5E8"/>
<path d="M262.447 533.575C260.268 535.178 258.319 537.067 256.139 538.727C254.018 540.33 251.781 541.646 249.717 543.364C245.13 547.085 240.37 550.576 235.439 553.782C231.711 556.244 227.869 558.591 224.429 561.396C221.734 563.628 219.268 566.147 217.433 569.124C216.401 570.784 216.057 571.7 216.573 573.589C217.031 575.249 218.006 576.794 218.924 578.225C220.759 580.973 222.88 583.721 225.92 584.98C228.844 586.182 232.227 585.724 235.209 584.58C239.682 582.919 244.441 579.599 247.423 575.936C250.692 571.986 254.419 568.837 259.236 567.006C263.078 565.517 267.321 564.945 270.647 562.598C273.629 560.537 275.521 557.102 275.98 553.496C276.496 549.317 274.833 545.138 275.063 540.902C275.235 538.212 271.909 528.652 269.672 528.423C267.149 528.194 264.626 529.167 262.619 530.713L262.505 533.518L262.447 533.575Z" fill="#D2D5E8"/>
<path d="M228.385 373.006C228.442 374.38 228.557 375.696 228.672 377.07C230.105 394.873 234.005 412.104 237.732 429.506C239.452 437.577 239.796 458.357 253.731 454.579C260.555 452.747 272.425 440.726 273.457 425.842C274.03 417.828 273.571 406.436 273.973 398.422C274.833 381.821 265.658 326.867 265.658 326.867C265.658 326.867 234.808 316.277 233.431 319.482C230.794 325.722 230.392 332.248 229.532 337.915C227.869 349.536 227.582 361.328 228.328 373.006H228.385Z" fill="#74D1E5"/>
<path d="M235.094 410.442C236.643 428.589 240.313 446.449 243.581 464.309C246.964 483.028 248.341 501.346 247.653 520.409C247.481 524.759 247.251 529.11 247.079 533.46C246.85 538.67 247.079 544.68 251.151 547.943C256.139 551.893 263.537 550.29 268.984 548.401C271.049 547.657 274.776 546.684 276.037 544.795C277.758 542.161 276.726 537.067 276.496 534.147C274.948 512.452 281.37 491.558 280.797 469.919C280.395 455.78 277.07 443.472 271.163 430.707C269.73 427.616 267.665 424.295 264.339 423.723L235.152 410.5L235.094 410.442Z" fill="#74D1E5"/>
<path d="M325.066 348.046C323.173 335.51 319.905 321.371 312.852 314.101C312.852 314.101 279.879 334.709 253.559 326.923C250.749 326.065 253.846 329.728 254.648 332.591C256.426 339.059 258.204 345.528 260.039 352.054C263.938 366.193 269.73 380.962 271.737 395.445C273.916 411.015 275.865 426.528 278.962 441.927C280.395 448.854 284.582 455.666 288.194 461.505C292.38 468.259 296.337 471.923 303.161 470.721C306.257 470.149 311.361 466.313 312.909 463.565C313.999 461.619 314.343 458.986 314.916 456.868C317.668 445.591 318.701 434.371 319.79 422.922C320.937 410.901 321.568 398.822 322.543 386.744C323.575 374.093 327.015 360.526 325.123 347.989L325.066 348.046Z" fill="#99E1EE"/>
<path d="M278.79 435.974C279.134 436.031 280.969 446.449 281.313 447.537C282.402 451.258 283.664 454.979 285.04 458.585C287.793 465.912 291.176 473.354 292.954 481.025C296.796 497.912 298.172 516.058 297.426 533.403C297.254 537.239 297.025 541.017 296.624 544.852C296.165 549.203 295.591 553.725 296.796 557.904C298.516 564.029 304.078 566.548 309.87 567.922C312.278 568.494 314.744 568.78 317.152 568.38C320.306 567.864 324.55 566.834 326.385 564.029C327.531 562.312 327.99 560.251 328.334 558.19C329.424 551.836 329.424 545.367 329.137 538.956C328.908 533.174 329.768 527.622 330.284 521.783C331.373 509.075 332.119 496.195 330.685 483.486C329.08 469.404 323.976 454.807 317.382 442.328C315.776 439.294 315.604 443.015 312.221 442.671L278.79 436.088V435.974Z" fill="#99E1EE"/>
<path d="M321.969 243.747C313.024 258.287 307.633 273.457 311.189 290.573C312.565 297.156 314.744 303.568 316.923 309.979H229.991C230.622 304.827 231.482 299.732 232.686 294.695C234.865 285.421 236.471 275.346 233.89 265.901C230.048 251.762 222.938 240.885 227.869 225.83C229.36 221.193 232.514 216.843 234.406 212.206C237.56 204.535 238.42 196.006 242.033 188.564C246.334 179.691 254.247 177.802 263.307 176.485C270.188 175.512 278.102 177.115 284.811 178.546C292.265 180.149 290.201 179.691 297.369 182.095C303.906 184.271 323.632 196.521 330.055 203.333C334.699 208.313 333.208 220.163 332.52 223.311C331.66 227.032 329.883 230.352 327.875 233.558C325.754 236.935 324.034 240.427 321.912 243.805L321.969 243.747Z" fill="#E1E3F3"/>
<path d="M237.961 226.116H227.812C227.812 226.116 227.812 225.945 227.926 225.83C229.417 221.193 232.571 216.843 234.463 212.206C237.617 204.535 238.477 196.006 242.09 188.564C245.588 181.351 251.437 178.775 258.375 177.344C259.981 177.001 240.026 214.839 238.019 232.413V226.173L237.961 226.116Z" fill="#3B82F6"/>
<path d="M261.415 248.957C277.356 230.066 289.742 210.145 307.175 187.362C307.232 187.248 307.289 187.133 307.347 187.019C309.984 188.507 312.737 190.281 315.489 192.056C294.788 215.183 283.377 242.603 264.855 268.649L261.415 249.014V248.957Z" fill="#3B82F6"/>
<path d="M233.89 265.845C230.048 251.705 222.938 240.829 227.869 225.774C229.36 221.137 234.406 212.149 234.406 212.149C238.707 230.353 281.6 232.528 281.6 232.528C281.6 232.528 276.095 274.431 310.271 284.105C310.558 290.689 313.654 297.1 314.744 300.077C318.127 309.236 316.808 309.178 319.733 318.509C324.722 334.595 325.811 334.652 315.375 341.521C297.426 353.371 267.264 354.115 245.531 348.505C239.854 347.017 234.234 344.956 229.819 341.064C226.665 338.259 228.443 331.962 228.443 328.069C228.443 295.783 238.535 282.617 233.947 265.845H233.89Z" fill="#3B82F6"/>
<path d="M298.516 181.122C298.745 181.694 298.917 182.324 298.917 183.068C298.917 184.843 298.401 186.56 297.484 188.048C296.165 190.338 294.1 192.17 291.921 193.716C287.965 196.578 283.492 198.696 278.847 200.07C275.062 201.157 269.73 202.76 266.232 200.127C264.569 198.868 263.881 196.52 263.881 194.345C263.881 192.113 264.569 189.995 265.142 187.877C266.117 184.213 266.232 180.378 266.174 176.542C266.174 171.562 265.83 166.524 266.461 161.544C267.378 154.789 271.106 150.496 277.069 148.321C282.345 146.374 288.653 145.459 294.158 145.115C295.763 145.001 300.408 144.772 300.752 147.119C300.924 148.206 299.777 149.466 299.261 150.267C298.286 151.641 297.426 153.015 296.853 154.618C295.075 159.77 294.674 165.437 295.477 170.761C295.821 173.394 296.566 175.855 297.369 178.317C297.713 179.347 298.229 180.149 298.573 181.065L298.516 181.122Z" fill="#F4BDA2"/>
<path d="M288.251 167.728C288.939 167.327 289.627 166.869 290.316 166.354C291.864 165.152 293.527 163.492 294.272 161.545C294.96 159.656 296.222 158.111 297.139 156.336C297.713 155.306 298.516 154.562 299.146 153.531C306.429 141.395 307.117 124.68 297.311 113.346C290.316 105.274 279.076 101.553 269.156 104.015C266.461 104.702 263.88 105.732 261.415 106.934C259.236 107.965 257.114 109.167 255.451 110.941C254.361 112.086 253.501 113.46 252.756 114.891C251.896 116.494 251.093 118.097 250.634 119.871C248.857 126.684 252.01 133.667 251.322 140.594C250.978 143.914 249.659 146.948 249.545 150.383C249.373 155.535 251.093 160.629 252.297 165.61C252.928 168.128 253.559 170.704 254.706 172.994C255.566 174.654 256.655 176.2 258.261 177.23C259.866 178.261 261.357 178.203 263.135 177.974C267.264 177.459 271.163 175.971 274.948 174.425C277.7 173.28 280.395 172.078 282.976 170.59C284.753 169.56 286.588 168.701 288.309 167.67L288.251 167.728Z" fill="#F9D5C3"/>
<path d="M315.719 128.915C315.088 107.22 303.333 103.9 303.333 103.9C303.333 103.9 300.064 96.744 282.23 95.9998C274.088 95.6564 264.454 99.4917 258.49 105.445C254.075 109.91 251.265 115.062 250.176 121.245C249.66 124.336 249.774 127.885 250.52 130.919C250.978 128.4 252.355 125.996 254.419 124.45C256.082 123.191 260.727 120.958 262.447 123.076C264.569 125.767 266.69 127.828 269.558 129.717C272.482 131.663 275.636 133.438 278.159 135.842C280.797 138.361 282.689 141.452 284.467 144.6C285.786 146.89 287.105 149.638 289.226 151.241C290.43 152.156 296.279 148.722 298.229 148.207C298.803 148.035 299.491 148.092 299.892 148.607C300.867 149.981 296.681 152.042 295.821 152.557C295.649 152.672 296.337 155.763 295.706 159.14C295.018 162.689 295.133 166.124 295.133 166.124C295.133 166.124 316.407 150.325 315.719 128.801V128.915Z" fill="#3A3D51"/>
<path d="M296.738 144.543C301.956 144.257 303.161 150.726 299.548 155.649C298.516 157.08 296.853 158.683 295.247 159.484C287.047 163.72 283.607 158.683 286.588 156.049C293.527 149.867 290.201 144.944 296.738 144.601V144.543Z" fill="#F9D5C3"/>
<path d="M293.929 156.277C294.559 155.762 300.523 152.328 296.509 149.923C295.419 149.236 294.158 150.209 293.986 151.412C293.871 152.041 294.101 152.671 293.986 153.243C293.929 153.587 293.757 153.93 293.584 154.274C293.068 155.132 291.233 155.934 291.577 157.193C291.864 158.281 293.642 156.678 293.986 156.335L293.929 156.277Z" fill="#F4BDA2"/>
<path d="M229.188 312.899C228.615 314.902 220.472 385.599 228.041 404.604C237.159 427.559 306.372 424.124 310.386 411.531C316.866 391.266 324.894 379.245 325.639 357.95C326.385 335.567 321.166 311.697 311.017 291.661C296.566 310.495 243.237 336.827 229.245 312.956L229.188 312.899Z" fill="#3B82F6"/>
<path d="M211.24 271.911C213.591 270.824 213.877 271.11 214.279 271.224C215.368 271.568 219.612 274.258 270.246 303.281C269.73 302.995 268.64 303.167 267.78 303.396C265.085 304.083 258.892 308.319 229.761 325.263L171.787 291.832C177.407 287.654 188.646 282.044 211.297 271.911H211.24Z" fill="#E6E8F4"/>
<path d="M171.73 291.89L229.704 325.32C228.729 325.893 227.697 326.465 226.722 327.095C222.192 329.843 220.128 336.254 221.848 338.887C222.077 339.231 222.249 339.574 222.651 339.746C167.028 308.033 165.824 307.117 165.939 303.224C166.111 298.816 165.996 296.126 171.73 291.947V291.89Z" fill="#E1E3F3"/>
<path d="M226.321 327.037C221.561 329.842 220.07 336.253 221.791 338.887C222.594 340.146 224.142 340.547 226.436 339.23C242.148 330.644 256.025 322.458 266.576 315.874C269.5 314.157 271.851 310.036 271.851 306.715C271.851 303.338 269.443 302.021 266.518 303.681C255.853 309.12 241.517 317.42 226.378 327.037H226.321Z" fill="#D2D5E8"/>
<path d="M224.027 337.742C223.396 337.742 223.282 336.769 223.282 336.196C223.282 333.62 225.174 330.243 227.468 328.926L267.608 305.628C268.239 305.227 268.698 305.17 268.87 305.17C269.5 305.17 269.615 306.143 269.615 306.716C269.615 309.292 267.665 312.669 265.429 313.986L225.289 337.341C224.658 337.742 224.199 337.799 224.027 337.799V337.742Z" fill="#BEC3E4"/>
<path d="M211.24 257.199C213.591 256.112 213.877 256.398 214.279 256.513C215.368 256.856 219.612 259.546 270.246 288.569C269.73 288.283 268.64 288.455 267.78 288.684C265.085 289.371 258.892 293.607 229.761 310.551L171.787 277.12C177.407 272.942 188.646 267.332 211.297 257.199H211.24Z" fill="#EFF1F7"/>
<path d="M171.73 277.178L229.704 310.608C228.729 311.181 227.697 311.753 226.722 312.383C222.192 315.131 220.128 321.542 221.848 324.175C222.077 324.519 222.249 324.862 222.651 325.034C167.028 293.321 165.824 292.405 165.939 288.512C166.111 284.104 165.996 281.414 171.73 277.235V277.178Z" fill="#E6E8F4"/>
<path d="M226.321 312.269C221.561 315.074 220.07 321.485 221.791 324.118C222.594 325.377 224.142 325.778 226.436 324.462C242.148 315.875 256.025 307.689 266.576 301.106C269.5 299.389 271.851 295.267 271.851 291.947C271.851 288.569 269.443 287.253 266.518 288.913C255.853 294.351 241.517 302.652 226.378 312.269H226.321Z" fill="#D2D5E8"/>
<path d="M224.027 323.03C223.396 323.03 223.282 322.057 223.282 321.484C223.282 318.908 225.174 315.531 227.468 314.214L267.608 290.916C268.239 290.515 268.698 290.458 268.87 290.458C269.5 290.458 269.615 291.431 269.615 292.004C269.615 294.58 267.665 297.957 265.429 299.274L225.289 322.629C224.658 323.03 224.199 323.087 224.027 323.087V323.03Z" fill="#BEC3E4"/>
<path d="M211.24 239.626C213.591 238.539 213.877 238.825 214.279 238.939C215.368 239.283 219.612 241.973 270.246 270.996C269.73 270.71 268.64 270.882 267.78 271.111C265.085 271.798 258.892 276.034 229.761 292.978L171.787 259.547C177.407 255.368 188.646 249.758 211.297 239.626H211.24Z" fill="#2E90DB"/>
<path d="M171.73 259.604L229.704 293.035C228.729 293.608 227.697 294.18 226.722 294.81C222.192 297.557 220.128 303.969 221.848 306.602C222.077 306.946 222.249 307.289 222.651 307.461C167.028 275.747 165.824 274.831 165.939 270.939C166.111 266.531 165.996 263.841 171.73 259.662V259.604Z" fill="#1B76BB"/>
<path d="M226.321 294.752C221.561 297.557 220.07 303.968 221.791 306.602C222.594 307.861 224.142 308.262 226.436 306.945C242.148 298.358 256.025 290.172 266.576 283.589C269.5 281.872 271.851 277.75 271.851 274.43C271.851 271.053 269.443 269.736 266.518 271.396C255.853 276.834 241.517 285.135 226.378 294.752H226.321Z" fill="#0268B3"/>
<path d="M224.027 305.457C223.396 305.457 223.282 304.484 223.282 303.911C223.282 301.335 225.174 297.958 227.468 296.641L267.608 273.343C268.239 272.942 268.698 272.885 268.87 272.885C269.5 272.885 269.615 273.858 269.615 274.43C269.615 277.006 267.665 280.384 265.429 281.7L225.289 305.056C224.658 305.457 224.199 305.514 224.027 305.514V305.457Z" fill="#3B82F6"/>
<path d="M296.738 297.099C298.688 281.185 302.816 258.23 307.805 239.568C308.092 238.538 320.535 237.908 321.969 237.966C327.359 238.137 330.743 238.767 334.412 245.865C336.821 250.559 333.61 257.142 332.348 262.008C327.073 282.273 324.435 293.263 321.969 298.931C319.618 304.254 317.382 304.827 314.457 306.372C305.741 311.009 295.591 307.002 296.795 297.213L296.738 297.099Z" fill="#F8D1BF"/>
<path d="M236.241 322.631C236.987 318.108 230.736 318.223 226.264 318.853C224.486 319.082 222.135 319.768 220.415 319.082C216.802 317.593 225.403 312.842 228.156 311.64C230.966 310.438 234.062 310.094 236.872 309.064C243.352 306.66 253.96 309.522 256.942 309.178C257.974 309.064 265.314 306.717 272.941 302.194C278.102 299.161 295.075 288.341 300.351 286.166C305.225 284.163 314.4 281.529 318.471 284.849C327.646 292.348 320.937 303.969 313.597 308.835C311.762 310.037 309.468 310.781 307.404 311.583C303.505 313.071 299.605 314.445 295.591 315.761C275.062 322.516 266.174 322.516 261.358 324.691C250.978 329.385 252.125 331.446 244.155 339.06C240.657 342.437 238.592 343.01 235.094 342.952C231.138 342.952 221.045 341.808 221.103 337.858C221.103 336.255 223.282 335.167 224.371 334.366C227.181 332.305 229.073 329.843 232.055 327.725C232.285 327.554 235.61 326.065 236.184 322.516L236.241 322.631Z" fill="#F8D1BF"/>
<path d="M317.783 203.963C301.268 224.17 299.548 257.716 301.039 259.433C305.397 264.642 326.327 266.646 335.158 263.268C336.821 262.639 338.599 251.648 338.713 245.065C338.943 235.104 340.376 216.958 335.273 208.886C330.284 200.929 322.199 198.582 317.783 203.963Z" fill="#EFF1F7"/>
</g>
<defs>
<clipPath id="clip0_241_574">
<rect width="180" height="516" fill="white" transform="matrix(-1 0 0 1 339 96)"/>
</clipPath>
</defs>
</svg>
