<svg width="498" height="612" viewBox="0 0 498 612" fill="none" xmlns="http://www.w3.org/2000/svg">
<circle cx="249" cy="249" r="249" fill="#53C4DC"/>
<g clip-path="url(#clip0_212_4413)">
<path d="M208.8 294.955C210.617 306.305 204.076 304.717 200.131 305.599C190.371 307.775 138.925 313.068 126.466 315.244C120.392 316.303 123.714 289.309 132.436 284.133C141.78 278.605 187.879 283.016 198.054 284.839C202.674 285.663 207.502 286.721 208.852 294.955H208.8Z" fill="#CACACA"/>
<path d="M225.932 281.428C221.727 278.546 212.901 281.957 208.541 284.545C205.53 286.309 200.027 285.192 198.054 284.78C193.278 283.898 178.379 281.369 165.193 280.722C167.373 289.779 171.423 300.541 171.007 309.598C184.141 308.01 195.978 306.54 200.131 305.599C201.844 305.246 206.724 304.776 207.087 304.893C211.344 305.952 224.789 307.599 227.229 304.952C228.423 303.658 224.218 298.777 223.855 297.248C223.595 296.248 224.27 294.778 225.309 294.954C226.399 295.131 228.371 298.13 229.15 299.012C233.822 304.011 241.038 291.896 225.88 281.428H225.932Z" fill="#3574E0"/>
<mask id="mask0_212_4413" style="mask-type:luminance" maskUnits="userSpaceOnUse" x="267" y="236" width="4" height="11">
<path d="M267.047 236.556V241.673C267.047 243.378 268.033 245.142 270.058 246.436V241.32C268.085 240.026 267.047 238.32 267.047 236.556Z" fill="white"/>
</mask>
<g mask="url(#mask0_212_4413)">
<path d="M267.047 236.556V241.673C267.047 243.378 268.033 245.142 270.058 246.436V241.32C268.085 240.026 267.047 238.32 267.047 236.556Z" fill="#A7A7A7"/>
</g>
<path d="M270.058 241.32V246.436L295.599 263.256V258.14L270.058 241.32Z" fill="#ABABAB"/>
<mask id="mask1_212_4413" style="mask-type:luminance" maskUnits="userSpaceOnUse" x="295" y="253" width="19" height="13">
<path d="M313.198 258.434V253.317C313.198 255.082 312.159 256.787 310.135 258.14C306.137 260.786 299.544 260.786 295.547 258.14V263.256C299.544 265.903 306.137 265.903 310.135 263.256C312.159 261.904 313.198 260.198 313.198 258.434Z" fill="white"/>
</mask>
<g mask="url(#mask1_212_4413)">
<path d="M295.599 258.14V263.256C299.596 265.903 306.189 265.903 310.187 263.256C312.211 261.904 313.25 260.198 313.25 258.434V253.317C313.25 255.082 312.211 256.787 310.187 258.14C306.189 260.786 299.596 260.786 295.599 258.14Z" fill="#A7A7A7"/>
</g>
<path d="M270.11 231.734C266.112 234.38 266.06 238.673 270.11 241.32L295.651 258.14C299.648 260.786 306.241 260.786 310.238 258.14C314.288 255.493 314.288 251.2 310.238 248.554L284.697 231.734C280.7 229.087 274.159 229.087 270.11 231.734Z" fill="#BFBFBF"/>
<path d="M330.381 344.12L330.64 203.623C330.64 210.386 334.534 217.149 342.373 222.265L342.113 362.763C334.274 357.646 330.381 350.883 330.381 344.12Z" fill="#D9D9D9"/>
<mask id="mask2_212_4413" style="mask-type:luminance" maskUnits="userSpaceOnUse" x="330" y="203" width="13" height="160">
<path d="M330.381 344.12L330.64 203.623C330.64 210.386 334.534 217.149 342.373 222.265L342.113 362.763C334.274 357.646 330.381 350.883 330.381 344.12Z" fill="white"/>
</mask>
<g mask="url(#mask2_212_4413)">
<path d="M342.373 222.207L342.113 362.704C334.274 357.588 330.381 350.824 330.381 344.061L330.64 203.564C330.64 210.327 334.534 217.09 342.373 222.207Z" fill="#D9D9D9"/>
</g>
<path d="M384.994 250.141L384.734 390.639L342.113 362.763L342.373 222.207L384.994 250.141Z" fill="#CACACA"/>
<path d="M453 231.734L452.74 372.231C452.74 378.877 448.899 385.581 441.164 390.639C425.694 400.813 400.308 400.813 384.734 390.639L384.994 250.141C400.568 260.316 426.005 260.316 441.423 250.141C449.158 245.084 453 238.379 453 231.734Z" fill="#CACACA"/>
<mask id="mask3_212_4413" style="mask-type:luminance" maskUnits="userSpaceOnUse" x="384" y="231" width="69" height="168">
<path d="M453 231.734L452.74 372.231C452.74 378.877 448.899 385.581 441.164 390.639C425.694 400.813 400.308 400.813 384.734 390.639L384.994 250.141C400.568 260.316 426.005 260.316 441.423 250.141C449.158 245.084 453 238.379 453 231.734Z" fill="white"/>
</mask>
<g mask="url(#mask3_212_4413)">
<path d="M453 231.734L452.74 372.231C452.74 378.877 448.899 385.581 441.164 390.639C425.694 400.813 400.308 400.813 384.734 390.639L384.994 250.141C400.568 260.316 426.005 260.316 441.423 250.141C449.158 245.084 453 238.379 453 231.734Z" fill="#CACACA"/>
</g>
<path d="M441.268 213.091C456.841 223.265 456.945 239.967 441.475 250.141C426.005 260.316 400.619 260.316 385.045 250.141L342.425 222.265C326.851 212.091 326.799 195.389 342.217 185.215C357.687 175.041 383.125 175.041 398.647 185.215L441.268 213.091Z" fill="#D9D9D9"/>
<path d="M330.589 200.565L330.692 164.75C330.692 171.513 334.586 178.276 342.425 183.392L342.321 219.208C334.482 214.091 330.589 207.328 330.589 200.565Z" fill="#D9D9D9"/>
<mask id="mask4_212_4413" style="mask-type:luminance" maskUnits="userSpaceOnUse" x="330" y="164" width="13" height="56">
<path d="M330.589 200.565L330.692 164.75C330.692 171.513 334.586 178.276 342.425 183.392L342.321 219.208C334.482 214.091 330.589 207.328 330.589 200.565Z" fill="white"/>
</mask>
<g mask="url(#mask4_212_4413)">
<path d="M342.373 183.392L342.269 219.208C334.43 214.091 330.537 207.328 330.537 200.565L330.64 164.75C330.64 171.513 334.534 178.276 342.373 183.392Z" fill="#D9D9D9"/>
</g>
<path d="M353.067 168.219L342.425 183.451C326.851 173.277 326.747 156.575 342.217 146.401C357.687 136.226 383.073 136.226 398.647 146.401L388.057 145.166C378.453 138.873 362.463 138.873 352.963 145.166C343.359 151.458 343.411 161.927 353.067 168.219Z" fill="#D9D9D9"/>
<mask id="mask5_212_4413" style="mask-type:luminance" maskUnits="userSpaceOnUse" x="330" y="138" width="69" height="46">
<path d="M353.067 168.219L342.425 183.451C326.851 173.277 326.747 156.575 342.217 146.401C357.687 136.226 383.073 136.226 398.647 146.401L388.057 145.166C378.453 138.873 362.463 138.873 352.963 145.166C343.359 151.458 343.411 161.927 353.067 168.219Z" fill="white"/>
</mask>
<g mask="url(#mask5_212_4413)">
<path d="M353.067 168.219L342.425 183.451C326.851 173.277 326.747 156.575 342.217 146.401C357.687 136.226 383.073 136.226 398.647 146.401L388.057 145.166C378.453 138.873 362.463 138.873 352.963 145.166C343.359 151.458 343.411 161.927 353.067 168.219Z" fill="#D9D9D9"/>
</g>
<path d="M388.057 145.166L398.647 146.342L441.268 174.218L430.677 173.042L388.057 145.166Z" fill="#D9D9D9"/>
<path d="M395.636 196.036L384.994 211.268L342.373 183.392L353.067 168.219L395.636 196.036Z" fill="#D9D9D9"/>
<path d="M384.994 211.268L384.89 247.083L342.321 219.207L342.373 183.392L384.994 211.268Z" fill="#D9D9D9"/>
<path d="M430.677 173.042C440.333 179.334 440.385 189.803 430.781 196.095C421.229 202.447 405.292 202.447 395.688 196.095L353.067 168.219C343.411 161.927 343.359 151.458 352.963 145.166C362.515 138.873 378.453 138.873 388.057 145.166L430.677 173.042Z" fill="#F7F7F7"/>
<path d="M453 192.861L452.896 228.676C452.896 235.322 449.055 242.026 441.371 247.084C425.901 257.258 400.516 257.258 384.942 247.084L385.046 211.268C400.62 221.443 426.005 221.443 441.475 211.268C449.158 206.211 453 199.565 453 192.861Z" fill="#D9D9D9"/>
<mask id="mask6_212_4413" style="mask-type:luminance" maskUnits="userSpaceOnUse" x="384" y="192" width="69" height="63">
<path d="M453 192.861L452.896 228.676C452.896 235.322 449.055 242.026 441.371 247.084C425.901 257.258 400.516 257.258 384.942 247.084L385.046 211.268C400.62 221.443 426.005 221.443 441.475 211.268C449.158 206.211 453 199.565 453 192.861Z" fill="white"/>
</mask>
<g mask="url(#mask6_212_4413)">
<path d="M453 192.861L452.896 228.676C452.896 235.322 449.055 242.026 441.371 247.084C425.901 257.258 400.516 257.258 384.942 247.084L385.046 211.268C400.62 221.443 426.005 221.443 441.475 211.268C449.158 206.211 453 199.565 453 192.861Z" fill="#CACACA"/>
</g>
<path d="M430.677 173.042L441.268 174.277C456.842 184.451 456.893 201.153 441.475 211.327C426.005 221.501 400.619 221.501 385.046 211.327L395.688 196.095C405.292 202.388 421.229 202.388 430.781 196.095C440.385 189.802 440.333 179.334 430.677 173.042Z" fill="#D9D9D9"/>
<mask id="mask7_212_4413" style="mask-type:luminance" maskUnits="userSpaceOnUse" x="385" y="173" width="68" height="46">
<path d="M430.677 173.042L441.268 174.277C456.842 184.451 456.893 201.153 441.475 211.327C426.005 221.501 400.619 221.501 385.046 211.327L395.688 196.095C405.292 202.388 421.229 202.388 430.781 196.095C440.385 189.802 440.333 179.334 430.677 173.042Z" fill="white"/>
</mask>
<g mask="url(#mask7_212_4413)">
<path d="M430.677 173.042L441.268 174.277C443.863 175.982 445.992 177.805 447.757 179.805L434.675 176.511C433.585 175.276 432.287 174.1 430.677 173.1V173.042Z" fill="#D9D9D9"/>
<path d="M434.675 176.452L447.757 179.746C455.596 188.744 454.661 200.27 444.953 208.622L432.962 194.389C438.983 189.214 439.606 181.981 434.727 176.394L434.675 176.452Z" fill="#D9D9D9"/>
<path d="M432.91 194.448L444.902 208.68C443.863 209.562 442.721 210.445 441.423 211.268C432.91 216.855 421.385 219.384 410.12 218.854L411.262 200.741C418.27 201.094 425.486 199.506 430.729 196.036C431.508 195.507 432.235 194.978 432.858 194.448H432.91Z" fill="#D9D9D9"/>
<path d="M411.314 200.741L410.171 218.855C401.087 218.384 392.209 215.914 385.253 211.444L395.843 196.154C400.152 198.918 405.707 200.447 411.365 200.741H411.314Z" fill="#D9D9D9"/>
<path d="M395.792 196.154L385.201 211.445C385.201 211.445 385.045 211.327 384.994 211.327L395.636 196.095C395.636 196.095 395.74 196.154 395.792 196.154Z" fill="#D9D9D9"/>
</g>
<path d="M415.934 217.678L424.759 214.62L405.499 307.128L396.674 310.187L415.934 217.678Z" fill="#F2F2F2"/>
<path d="M354.988 100.235L363.813 97.1764C373.573 93.7654 385.357 97.7057 396.674 109.703L387.849 112.761C376.48 100.764 364.747 96.8235 354.988 100.235Z" fill="#F2F2F2"/>
<mask id="mask8_212_4413" style="mask-type:luminance" maskUnits="userSpaceOnUse" x="354" y="95" width="43" height="18">
<path d="M354.988 100.235L363.813 97.1764C373.573 93.7654 385.357 97.7057 396.674 109.703L387.849 112.761C376.48 100.764 364.747 96.8235 354.988 100.235Z" fill="white"/>
</mask>
<g mask="url(#mask8_212_4413)">
<path d="M354.988 100.235L363.813 97.1766C372.483 94.1773 382.709 96.8825 392.833 105.939L384.007 108.997C373.884 99.9407 363.657 97.1766 354.988 100.235Z" fill="#F2F2F2"/>
<path d="M384.007 108.998L392.832 105.939C394.13 107.057 395.376 108.351 396.674 109.644L387.849 112.703C386.603 111.35 385.305 110.115 384.007 108.998Z" fill="#F2F2F2"/>
</g>
<path d="M387.797 112.761L396.622 109.703C419.152 133.58 431.767 180.805 424.759 214.679L415.934 217.737C422.994 183.922 410.327 136.638 387.797 112.761Z" fill="#F2F2F2"/>
<mask id="mask9_212_4413" style="mask-type:luminance" maskUnits="userSpaceOnUse" x="387" y="109" width="40" height="109">
<path d="M387.797 112.761L396.622 109.703C419.152 133.58 431.767 180.805 424.759 214.679L415.934 217.737C422.994 183.922 410.327 136.638 387.797 112.761Z" fill="white"/>
</mask>
<g mask="url(#mask9_212_4413)">
<path d="M387.797 112.761L396.622 109.703C403.007 116.466 408.562 125.053 413.13 134.756L404.305 137.814C399.737 128.17 394.182 119.524 387.797 112.761Z" fill="#F2F2F2"/>
<path d="M404.305 137.814L413.13 134.756C418.581 146.283 422.63 159.339 424.811 172.454L415.986 175.512C413.805 162.397 409.756 149.4 404.305 137.814Z" fill="#F2F2F2"/>
<path d="M415.986 175.453L424.811 172.395C426.887 184.745 427.303 197.095 425.797 208.328L416.972 211.386C418.477 200.153 418.01 187.744 415.986 175.453Z" fill="#F2F2F2"/>
<path d="M416.972 211.445L425.797 208.387C425.538 210.504 425.174 212.621 424.707 214.679L415.882 217.738C416.297 215.679 416.66 213.562 416.972 211.445Z" fill="#F2F2F2"/>
</g>
<path d="M387.797 112.761C410.327 136.638 422.942 183.862 415.934 217.737L396.674 310.187L300.531 246.73L334.067 130.875C341.127 97.0587 365.318 88.8841 387.797 112.761Z" fill="#D9D9D9"/>
<path d="M387.797 319.714L378.816 406.106L318.493 445.862L320.777 363.88L387.797 319.714Z" fill="#BFBFBF"/>
<path d="M221.207 419.221L212.641 334.299C212.641 345.002 218.819 355.765 231.226 363.88C255.937 380.053 296.222 380.053 320.725 363.88L318.441 445.862C296.378 460.388 260.142 460.388 237.871 445.862C226.71 438.569 221.103 428.924 221.155 419.279L221.207 419.221Z" fill="#BFBFBF"/>
<mask id="mask10_212_4413" style="mask-type:luminance" maskUnits="userSpaceOnUse" x="212" y="334" width="109" height="123">
<path d="M221.207 419.221L212.641 334.299C212.641 345.002 218.819 355.765 231.226 363.88C255.937 380.053 296.222 380.053 320.725 363.88L318.441 445.862C296.378 460.388 260.142 460.388 237.871 445.862C226.71 438.569 221.103 428.924 221.155 419.279L221.207 419.221Z" fill="white"/>
</mask>
<g mask="url(#mask10_212_4413)">
<path d="M320.777 363.88L318.493 445.861C296.43 460.388 260.194 460.388 237.923 445.861C226.762 438.569 221.155 428.924 221.207 419.279L212.642 334.357C212.642 345.061 218.819 355.823 231.227 363.939C255.937 380.112 296.222 380.112 320.725 363.939L320.777 363.88Z" fill="#BFBFBF"/>
</g>
<path d="M387.797 319.714L320.725 363.88C296.222 379.994 255.937 379.994 231.227 363.88C206.568 347.766 206.412 321.302 230.915 305.188L297.987 261.021L387.797 319.773V319.714Z" fill="#4B3D46"/>
<path d="M338.895 304.6V318.538C338.895 313.598 335.987 308.599 330.225 304.835C318.804 297.366 300.167 297.366 288.85 304.835V290.897C300.219 283.428 318.856 283.428 330.277 290.897C336.039 294.661 338.895 299.66 338.895 304.6Z" fill="#CACACA"/>
<mask id="mask11_212_4413" style="mask-type:luminance" maskUnits="userSpaceOnUse" x="288" y="285" width="51" height="34">
<path d="M338.895 304.6V318.538C338.895 313.598 335.987 308.599 330.225 304.835C318.804 297.366 300.167 297.366 288.85 304.835V290.897C300.219 283.428 318.856 283.428 330.277 290.897C336.039 294.661 338.895 299.66 338.895 304.6Z" fill="white"/>
</mask>
<g mask="url(#mask11_212_4413)">
<path d="M338.895 304.6V318.538C338.895 313.598 335.987 308.599 330.225 304.835C318.804 297.366 300.167 297.366 288.85 304.835V290.897C300.219 283.428 318.856 283.428 330.277 290.897C336.039 294.661 338.895 299.66 338.895 304.6Z" fill="#CACACA"/>
</g>
<path d="M288.902 290.897L288.85 304.835L254.276 327.594V313.656L288.902 290.897Z" fill="#CACACA"/>
<path d="M245.814 341.062V327.124C245.814 322.243 248.669 317.361 254.328 313.656V327.594C248.669 331.299 245.866 336.181 245.814 341.062Z" fill="#CACACA"/>
<mask id="mask12_212_4413" style="mask-type:luminance" maskUnits="userSpaceOnUse" x="245" y="313" width="10" height="29">
<path d="M245.814 341.062V327.124C245.814 322.243 248.669 317.361 254.328 313.656V327.594C248.669 331.299 245.866 336.181 245.814 341.062Z" fill="white"/>
</mask>
<g mask="url(#mask12_212_4413)">
<path d="M254.276 313.656V327.594C248.617 331.299 245.814 336.181 245.762 341.062V327.124C245.762 322.243 248.617 317.361 254.276 313.656Z" fill="#CACACA"/>
</g>
<path d="M397.66 310.246L397.608 324.184L325.138 371.937V357.999L397.66 310.246Z" fill="#CACACA"/>
<path d="M208.177 339.944V326.006C208.177 337.592 214.874 349.178 228.32 357.999C255.003 375.466 298.558 375.466 325.138 357.999V371.937C298.558 389.404 255.003 389.404 228.268 371.937C214.822 363.174 208.125 351.53 208.125 339.944H208.177Z" fill="#CACACA"/>
<mask id="mask13_212_4413" style="mask-type:luminance" maskUnits="userSpaceOnUse" x="208" y="326" width="118" height="60">
<path d="M208.177 339.944V326.006C208.177 337.592 214.874 349.178 228.32 357.999C255.003 375.466 298.558 375.466 325.138 357.999V371.937C298.558 389.404 255.003 389.404 228.268 371.937C214.822 363.174 208.125 351.53 208.125 339.944H208.177Z" fill="white"/>
</mask>
<g mask="url(#mask13_212_4413)">
<path d="M325.138 357.999V371.937C298.558 389.404 255.003 389.404 228.268 371.937C214.822 363.174 208.125 351.53 208.125 339.944V326.006C208.125 337.592 214.822 349.178 228.268 357.999C254.951 375.466 298.506 375.466 325.086 357.999H325.138Z" fill="#CACACA"/>
</g>
<path d="M227.818 294.754C201.29 312.22 201.394 340.802 228.129 358.269C254.865 375.735 298.368 375.735 324.948 358.269L397.47 310.515L300.341 247L227.818 294.754ZM295.617 341.096C284.3 348.565 265.663 348.565 254.242 341.096C242.821 333.627 242.769 321.395 254.086 313.926L288.66 291.166C299.977 283.698 318.614 283.698 330.035 291.166C341.456 298.635 341.508 310.868 330.191 318.337L295.617 341.096Z" fill="#F7F7F7"/>
<path d="M292.484 231.087V238.027C292.484 240.379 291.134 242.673 288.435 244.496V237.556C291.134 235.792 292.484 233.439 292.484 231.087Z" fill="#CACACA"/>
<mask id="mask14_212_4413" style="mask-type:luminance" maskUnits="userSpaceOnUse" x="288" y="231" width="5" height="14">
<path d="M292.484 231.087V238.027C292.484 240.379 291.134 242.673 288.435 244.496V237.556C291.134 235.792 292.484 233.439 292.484 231.087Z" fill="white"/>
</mask>
<g mask="url(#mask14_212_4413)">
<path d="M292.484 231.087V238.027C292.484 240.379 291.134 242.673 288.435 244.496V237.556C291.134 235.792 292.484 233.439 292.484 231.087Z" fill="#CACACA"/>
</g>
<path d="M288.487 237.556L288.435 244.496L253.861 267.314V260.316L288.487 237.556Z" fill="#CACACA"/>
<path d="M229.929 260.727V253.788C229.929 256.14 231.33 258.551 234.082 260.316C239.533 263.903 248.41 263.903 253.861 260.316V267.255C248.41 270.843 239.533 270.843 234.082 267.255C231.33 265.432 229.981 263.08 229.981 260.727H229.929Z" fill="#CACACA"/>
<mask id="mask15_212_4413" style="mask-type:luminance" maskUnits="userSpaceOnUse" x="229" y="253" width="25" height="17">
<path d="M229.929 260.727V253.788C229.929 256.14 231.33 258.551 234.082 260.316C239.533 263.903 248.41 263.903 253.861 260.316V267.255C248.41 270.843 239.533 270.843 234.082 267.255C231.33 265.432 229.981 263.08 229.981 260.727H229.929Z" fill="white"/>
</mask>
<g mask="url(#mask15_212_4413)">
<path d="M253.861 260.316V267.255C248.41 270.843 239.533 270.843 234.082 267.255C231.33 265.432 229.981 263.08 229.981 260.727V253.788C229.981 256.14 231.382 258.551 234.134 260.316C239.585 263.903 248.462 263.903 253.913 260.316H253.861Z" fill="#CACACA"/>
</g>
<path d="M288.383 224.559C293.834 228.146 293.834 233.969 288.435 237.556L253.809 260.316C248.358 263.903 239.481 263.903 234.03 260.316C228.579 256.728 228.527 250.906 233.978 247.318L268.604 224.5C274.003 220.913 282.932 220.913 288.383 224.5V224.559Z" fill="#F1F1F1"/>
<mask id="mask16_212_4413" style="mask-type:luminance" maskUnits="userSpaceOnUse" x="269" y="226" width="9" height="5">
<path d="M277.637 226.205V227.97C277.637 228.617 277.274 229.263 276.495 229.734C274.989 230.734 272.498 230.734 270.992 229.734C270.213 229.205 269.85 228.558 269.85 227.911V226.146C269.85 226.793 270.265 227.499 270.992 227.97C272.498 228.969 274.937 228.969 276.495 227.97C277.222 227.499 277.637 226.852 277.637 226.205Z" fill="white"/>
</mask>
<g mask="url(#mask16_212_4413)">
<path d="M277.637 226.205V227.97C277.637 228.617 277.274 229.263 276.495 229.734C274.989 230.734 272.498 230.734 270.992 229.734C270.213 229.205 269.85 228.558 269.85 227.911V226.146C269.85 226.793 270.265 227.499 270.992 227.97C272.498 228.969 274.937 228.969 276.495 227.97C277.222 227.499 277.637 226.852 277.637 226.205Z" fill="#A7A7A7"/>
</g>
<path d="M276.495 224.382C278 225.382 278 226.97 276.495 227.97C274.989 228.97 272.498 228.97 270.992 227.97C269.487 226.97 269.435 225.382 270.992 224.324C272.498 223.324 274.989 223.324 276.495 224.324V224.382Z" fill="#BFBFBF"/>
<mask id="mask17_212_4413" style="mask-type:luminance" maskUnits="userSpaceOnUse" x="262" y="236" width="13" height="6">
<path d="M274.107 236.262V238.026C274.107 239.026 273.536 239.967 272.394 240.731C270.162 242.202 266.424 242.202 264.14 240.731C262.997 239.967 262.426 238.967 262.426 238.026V236.262C262.426 237.261 262.997 238.261 264.14 238.967C266.424 240.437 270.11 240.437 272.394 238.967C273.536 238.202 274.107 237.261 274.107 236.262Z" fill="white"/>
</mask>
<g mask="url(#mask17_212_4413)">
<path d="M274.107 236.262V238.026C274.107 239.026 273.536 239.967 272.394 240.731C270.162 242.202 266.424 242.202 264.14 240.731C262.997 239.967 262.426 238.967 262.426 238.026V236.262C262.426 237.261 262.997 238.261 264.14 238.967C266.424 240.437 270.11 240.437 272.394 238.967C273.536 238.202 274.107 237.261 274.107 236.262Z" fill="#A7A7A7"/>
</g>
<path d="M272.394 233.498C274.678 234.968 274.678 237.438 272.394 238.908C270.162 240.378 266.424 240.378 264.14 238.908C261.855 237.438 261.855 234.968 264.14 233.498C266.424 232.027 270.11 232.027 272.394 233.498Z" fill="#BFBFBF"/>
<mask id="mask18_212_4413" style="mask-type:luminance" maskUnits="userSpaceOnUse" x="251" y="243" width="13" height="7">
<path d="M263.153 243.496V245.26C263.153 246.201 262.582 247.201 261.44 247.907C259.156 249.377 255.47 249.377 253.186 247.907C252.044 247.142 251.473 246.142 251.473 245.201V243.437C251.473 244.437 252.044 245.437 253.186 246.142C255.47 247.613 259.156 247.613 261.44 246.142C262.582 245.378 263.101 244.437 263.101 243.496H263.153Z" fill="white"/>
</mask>
<g mask="url(#mask18_212_4413)">
<path d="M263.153 243.496V245.26C263.153 246.201 262.582 247.201 261.44 247.907C259.156 249.377 255.47 249.377 253.186 247.907C252.044 247.142 251.473 246.142 251.473 245.201V243.437C251.473 244.437 252.044 245.437 253.186 246.142C255.47 247.613 259.156 247.613 261.44 246.142C262.582 245.378 263.101 244.437 263.101 243.496H263.153Z" fill="#A7A7A7"/>
</g>
<path d="M261.44 240.732C263.724 242.202 263.776 244.613 261.44 246.142C259.156 247.612 255.47 247.612 253.186 246.142C250.902 244.672 250.902 242.202 253.186 240.732C255.47 239.261 259.156 239.261 261.44 240.732Z" fill="#BFBFBF"/>
<mask id="mask19_212_4413" style="mask-type:luminance" maskUnits="userSpaceOnUse" x="240" y="250" width="13" height="7">
<path d="M252.251 250.67V252.435C252.251 253.434 251.68 254.375 250.538 255.14C248.306 256.61 244.568 256.61 242.284 255.14C241.142 254.375 240.571 253.376 240.571 252.435V250.67C240.571 251.67 241.142 252.67 242.284 253.376C244.568 254.846 248.254 254.846 250.538 253.376C251.68 252.611 252.251 251.67 252.251 250.67Z" fill="white"/>
</mask>
<g mask="url(#mask19_212_4413)">
<path d="M252.251 250.67V252.435C252.251 253.434 251.68 254.375 250.538 255.14C248.306 256.61 244.568 256.61 242.284 255.14C241.142 254.375 240.571 253.376 240.571 252.435V250.67C240.571 251.67 241.142 252.67 242.284 253.376C244.568 254.846 248.254 254.846 250.538 253.376C251.68 252.611 252.251 251.67 252.251 250.67Z" fill="#A7A7A7"/>
</g>
<path d="M250.486 247.965C252.771 249.435 252.771 251.905 250.486 253.376C248.254 254.846 244.516 254.846 242.232 253.376C239.948 251.905 239.948 249.435 242.232 247.965C244.516 246.495 248.202 246.495 250.486 247.965Z" fill="#BFBFBF"/>
<mask id="mask20_212_4413" style="mask-type:luminance" maskUnits="userSpaceOnUse" x="279" y="232" width="9" height="5">
<path d="M287.449 232.675V234.439C287.449 235.086 287.085 235.733 286.307 236.203C284.801 237.203 282.309 237.203 280.804 236.203C280.025 235.733 279.662 235.027 279.662 234.38V232.616C279.662 233.263 280.025 233.91 280.804 234.439C282.361 235.439 284.801 235.439 286.307 234.439C287.033 233.968 287.449 233.321 287.449 232.675Z" fill="white"/>
</mask>
<g mask="url(#mask20_212_4413)">
<path d="M287.449 232.675V234.439C287.449 235.086 287.085 235.733 286.307 236.203C284.801 237.203 282.309 237.203 280.804 236.203C280.025 235.733 279.662 235.027 279.662 234.38V232.616C279.662 233.263 280.025 233.91 280.804 234.439C282.361 235.439 284.801 235.439 286.307 234.439C287.033 233.968 287.449 233.321 287.449 232.675Z" fill="#A7A7A7"/>
</g>
<path d="M286.307 230.793C287.864 231.793 287.864 233.38 286.307 234.38C284.801 235.38 282.309 235.38 280.804 234.38C279.298 233.38 279.298 231.793 280.804 230.793C282.309 229.793 284.749 229.793 286.255 230.793H286.307Z" fill="#BFBFBF"/>
<path d="M214.718 518.021C215.756 516.198 216.899 517.08 218.404 517.08C220.273 517.08 222.246 516.139 223.855 515.199C225.983 514.022 227.904 512.434 229.929 511.082C235.172 507.494 241.038 505.024 247.06 503.789C250.954 503.025 255.003 502.613 258.585 504.966C260.558 506.318 262.167 508.318 263.153 510.67C264.14 512.964 263.724 515.316 263.257 517.727C262.946 519.374 262.53 521.021 261.804 522.491C260.35 525.431 257.754 527.431 255.262 529.254C252.355 531.312 249.241 533.194 245.866 534.018C243.115 534.724 240.208 534.665 237.56 535.664C235.743 536.37 234.134 537.488 232.68 538.781C231.486 539.84 230.448 541.31 228.994 541.84C225.983 542.957 222.609 543.545 219.494 542.898C213.368 541.545 209.319 535.9 210.773 528.784C211.292 526.255 212.278 523.844 213.265 521.491C213.888 520.021 214.251 518.786 214.718 517.963V518.021Z" fill="#261D22"/>
<path d="M157.198 439.922C153.201 434.041 137.471 436.981 131.865 436.158C126.673 435.452 121.534 434.393 116.446 433.276C114.162 432.806 111.203 432.629 109.075 431.571C107.258 430.63 112.397 414.457 110.476 413.516C108.971 412.751 93.4488 421.984 94.1756 436.393C95.4734 461.564 108.244 483.794 108.504 508.965C108.607 519.55 106.531 529.96 105.804 540.546C105.7 541.839 105.648 543.192 105.908 544.427C106.375 546.662 107.725 548.426 109.179 550.014C114.37 555.66 116.239 551.19 123.558 547.838C129.009 545.368 134.927 553.249 138.873 548.309C144.687 541.016 145.518 540.193 146.504 533.606C150.19 508.494 154.499 473.914 158.029 448.684C158.392 446.155 158.704 443.509 157.873 441.098C157.717 440.627 157.51 440.216 157.25 439.863L157.198 439.922Z" fill="#FF8C00"/>
<path d="M180.404 327.124C180.559 329.594 180.196 334.357 178.119 335.945C176.406 337.239 172.565 336.769 170.592 337.004C164.414 337.651 158.185 338.121 152.007 338.533C149.204 338.768 146.4 338.945 143.597 339.062C135.343 339.356 127.192 338.768 119.146 337.239C116.031 336.651 110.892 335.828 108.4 333.475C105.96 331.182 105.7 327.418 106.116 323.654C106.842 316.95 109.75 310.422 115.356 307.834C120.963 305.246 126.569 306.364 132.124 307.187C145.051 309.069 157.769 311.833 170.28 315.597C172.513 316.244 174.745 316.95 176.614 318.479C178.742 320.243 180.092 323.595 180.352 327.124H180.404Z" fill="white"/>
<path d="M284.282 307.246C285.061 305.305 287.501 305.305 289.369 305.658C289.785 301.718 291.55 298.013 294.249 295.484C295.132 294.661 296.274 293.896 297.312 294.367C298.506 294.837 298.921 296.484 299.596 297.719C300.687 299.718 302.815 300.895 304.84 300.6C305.463 300.542 306.137 300.306 306.708 300.6C307.747 301.13 307.747 302.718 307.799 304.011C307.954 307.893 309.875 311.422 310.29 315.303C310.706 319.126 309.46 323.066 307.072 325.771C308.785 327.653 308.266 331.182 306.501 333.005C304.736 334.828 302.192 335.357 299.804 335.475C296.897 335.592 293.99 335.298 291.186 334.475C293.003 331.182 291.446 326.242 288.279 324.948C287.76 324.713 287.137 324.595 286.722 324.125C285.372 322.537 287.708 317.832 287.137 315.421C286.514 312.951 283.192 310.187 284.334 307.422L284.282 307.246Z" fill="#665861"/>
<path d="M291.083 319.479C290.356 320.361 289.058 319.655 288.695 318.655C288.176 317.185 288.798 310.422 287.137 310.245C283.763 309.892 274.107 320.596 271.356 324.419C264.607 333.828 259.883 352.53 270.11 348.06C272.498 347.002 278.52 341.179 279.454 340.591C280.648 339.768 282.257 339.65 283.607 339.415C288.487 338.592 297.26 334.887 298.973 329.653C305.151 310.833 292.848 306.364 291.913 313.539C291.758 314.774 291.861 318.538 291.083 319.42V319.479Z" fill="#3574E0"/>
<path d="M130.1 430.571H176.095C174.07 403.871 173.707 377.053 176.095 350.412C177.029 340.003 178.327 329.652 178.223 319.184C178.223 318.949 178.223 318.714 178.223 318.537C178.119 314.715 178.119 310.245 176.199 306.893C174.485 303.952 171.111 302.423 168.619 300.6C160.105 294.425 151.021 289.367 141.52 285.486C127.089 279.605 112.345 267.608 96.927 277.429C95.3696 278.429 93.8641 279.605 92.5663 281.075C77.6153 297.601 92.2029 336.474 95.6292 367.526C96.7713 378.053 96.927 397.696 97.0828 410.987C97.1866 420.102 95.8368 418.632 94.7466 427.689C94.1237 433.276 93.5527 439.451 96.2521 444.156C99.1593 449.272 104.922 451.095 110.165 452.448C116.706 454.153 123.455 455.741 130.151 456.741V430.571H130.1Z" fill="#F2F2F2"/>
<path d="M110.269 273.665C107.621 273.548 104.974 273.901 102.274 274.783C100.665 319.831 107.206 363.527 115.72 409.399C118.782 425.16 121.222 442.215 127.763 456.389C130.93 456.918 134.045 457.33 137.212 457.624C133.007 450.86 130.1 443.333 129.009 435.099C119.769 379.818 106.635 328.182 110.269 273.665Z" fill="#FFAB00"/>
<path d="M177.341 337.239C172.824 337.357 168.308 338.121 163.843 338.827C161.144 351.765 165.868 368.115 161.715 382.17C152.059 412.928 122.78 417.045 97.0309 410.87C96.408 416.515 95.3178 422.279 94.6948 427.572C94.02 433.394 93.8123 438.687 96.0965 444.097C98.2249 449.155 101.392 453.566 104.506 457.859C106.323 460.446 108.244 463.034 110.58 464.975C112.449 466.504 114.526 467.562 116.654 468.68C120.444 470.621 124.337 472.62 128.438 473.385C131.086 473.855 133.785 473.855 136.485 473.855C139.133 473.855 141.832 473.855 144.48 473.443C152.37 472.267 159.534 467.68 166.127 462.681C168.048 461.211 170.021 459.682 171.526 457.682C174.901 453.389 176.043 447.508 176.977 441.862C177.496 438.628 177.652 436.158 176.718 433.1C175.731 429.806 175.783 426.043 175.576 422.573C175.057 414.516 174.745 406.4 174.589 398.343C174.278 382.347 174.745 366.291 176.147 350.354C176.51 346.002 176.977 341.591 177.393 337.239H177.341Z" fill="#FFAB00"/>
<path d="M182.48 308.893C170.436 296.543 164.155 298.777 156.575 310.539C151.54 318.42 151.28 331.476 165.037 342.062C185.854 358.117 207.658 383.934 222.349 379.171C226.451 377.818 229.877 374.113 231.278 369.526C234.601 358.411 227.385 354.647 226.502 353.588C196.6 316.42 187.568 315.421 182.532 308.834L182.48 308.893Z" fill="#F2F2F2"/>
<path d="M277.377 332.24C278.675 334.24 280.544 338.474 279.506 341.12C278.623 343.296 275.197 345.119 273.588 346.472C268.604 350.706 263.517 354.764 258.481 358.822C256.197 360.645 253.861 362.527 251.525 364.233C244.672 369.349 237.404 373.701 229.877 377.171C226.97 378.524 222.142 380.876 218.975 380.347C215.808 379.817 213.888 376.759 212.486 373.348C210.046 367.232 209.475 359.881 213.109 354.411C216.743 348.883 221.986 346.531 227.125 343.884C238.962 337.827 251.161 332.652 263.517 328.417C265.697 327.653 267.981 326.947 270.265 327.124C272.861 327.359 275.612 329.417 277.429 332.299L277.377 332.24Z" fill="#F2F2F2"/>
<path d="M277.377 332.24C275.56 329.359 272.809 327.3 270.213 327.065C267.929 326.889 265.697 327.594 263.465 328.359C255.574 331.064 235.432 335.71 227.748 339.18C233.459 346.649 241.194 363.233 242.907 372.996C245.243 371.231 256.197 360.646 258.481 358.822C263.568 354.765 268.604 350.707 273.588 346.472C275.145 345.12 278.623 343.297 279.506 341.121C280.544 338.533 278.675 334.24 277.377 332.24Z" fill="#3574E0"/>
<path d="M145.31 271.195C145.881 266.843 148.736 267.902 147.283 263.962C146.037 260.61 144.168 257.551 141.624 255.375C139.081 253.141 135.914 251.847 132.747 252.082C131.657 252.141 130.93 252.847 129.84 252.847C126.829 252.847 123.818 252.2 120.807 252.67C117.848 253.141 115.045 253.435 115.045 257.199C115.045 262.315 115.252 267.196 113.799 272.195C113.02 274.842 111.878 277.429 111.67 280.252C111.255 285.78 114.837 290.897 119.198 293.308C124.597 296.248 130.723 296.013 136.433 295.072C139.34 294.602 143.389 293.955 145.051 290.838C146.348 288.486 145.777 285.427 145.518 282.84C145.102 278.958 144.739 275.136 145.258 271.195H145.31Z" fill="#FFBFA2"/>
<path d="M158.133 215.855C159.95 218.384 161.351 221.148 161.818 224.441C162.805 231.793 160.157 239.32 161.559 246.613C162.909 253.67 160.261 269.725 147.958 273.842C141.728 275.9 129.477 273.489 125.531 271.372C120.236 268.49 116.758 262.668 113.591 257.022C87.894 210.856 140.742 191.861 158.133 215.855Z" fill="#FFBFA2"/>
<path d="M106.064 206.739C107.31 205.269 108.815 204.034 110.684 203.034C111.255 202.74 111.826 202.446 112.241 201.917C112.553 201.505 112.709 200.976 112.864 200.506C113.747 198.388 115.46 196.859 117.277 195.742C124.13 191.449 132.436 191.214 140.171 192.507C142.818 192.919 145.414 193.507 147.854 194.683C150.605 196.036 153.097 198.094 155.277 200.447C158.392 203.74 161.403 207.563 163.013 212.091C163.791 214.208 163.895 216.443 164.466 218.56C164.933 220.501 164.362 222.736 162.961 223.971C162.338 224.5 161.611 224.853 160.988 225.323C158.392 227.323 157.873 231.91 156.783 235.027C156.056 236.968 154.654 238.085 154.239 240.202C153.824 242.378 153.876 244.672 153.253 246.848C152.941 247.848 152.37 248.965 151.436 249.024C151.021 249.024 150.657 248.906 150.346 248.671C149.256 247.907 148.684 246.436 148.321 245.025C147.958 243.613 147.75 242.143 147.023 240.908C146.919 240.732 146.816 240.555 146.608 240.438C146.452 240.379 146.296 240.438 146.141 240.438C144.843 240.732 143.96 241.849 143.337 243.084C142.559 244.613 142.143 246.319 141.78 248.024C141.157 250.671 141.053 252.964 140.794 255.611C140.482 258.316 139.807 261.139 138.146 263.197C134.408 267.784 127.244 267.49 122.416 266.255C120.651 265.844 118.886 265.373 117.277 264.491C113.539 262.433 110.995 258.434 108.607 254.611C106.427 251.082 104.195 247.495 103.053 243.378C102.43 241.085 102.118 238.673 101.807 236.262C100.613 226.5 99.7303 214.032 106.012 206.681L106.064 206.739Z" fill="#C99C83"/>
<path d="M144.22 236.086C139.392 234.91 137.264 241.555 139.911 247.377C140.69 249.083 142.247 250.73 143.337 252.2C150.969 262.08 154.343 253.317 151.955 250.024C146.4 242.261 150.294 237.556 144.22 236.086Z" fill="#FFBFA2"/>
<path d="M144.324 246.73C143.857 246.025 138.769 241.379 142.87 239.497C144.012 238.967 145.051 240.202 145.051 241.496C145.051 242.143 144.791 242.79 144.791 243.437C144.791 243.849 144.895 244.201 144.999 244.554C145.362 245.554 146.919 246.73 146.452 247.965C145.985 249.083 144.583 247.024 144.324 246.672V246.73Z" fill="#F3A984"/>
<path d="M70.659 572.832C63.0797 574.656 42.9892 581.007 38.6285 571.891C36.4482 567.363 33.7487 557.954 36.552 554.601C47.0385 542.192 133.474 513.787 136.277 516.669C139.807 520.256 147.906 533.724 144.22 544.956C138.821 561.482 82.0799 570.127 70.7109 572.891L70.659 572.832Z" fill="#FF8C00"/>
<path d="M226.451 396.226C226.451 396.226 226.347 396.226 226.295 396.167C221.726 393.462 216.224 394.285 211.188 395.52C183.882 402.283 160.417 419.691 136.537 435.335C134.512 436.687 132.384 438.099 131.19 440.392C130.982 440.804 130.826 441.274 130.723 441.804C129.269 448.567 134.045 467.68 138.354 473.973C167.01 472.503 169.657 456.8 201.584 448.449C206.464 447.155 206.049 516.61 210.513 525.196C212.797 529.548 221.882 528.725 226.451 527.314C235.691 524.373 235.068 497.909 235.328 488.087C235.743 473.914 236.989 459.741 237.248 445.509C237.508 431.1 240.052 404.636 226.399 396.285L226.451 396.226Z" fill="#FFAB00"/>
<path d="M50.1013 605.648C43.664 614.999 39.511 611.882 36.1366 609.647C31.8797 606.824 30.4262 603.943 29.0764 597.415C25.6501 581.007 31.5683 581.125 28.1939 570.127C22.3796 551.308 39.9263 540.487 46.8308 554.778C51.6068 564.658 57.1615 595.474 50.1013 605.707V605.648Z" fill="#261D22"/>
<path d="M99.3669 420.455C115.2 382.464 128.386 331.534 165.92 298.659C162.961 296.66 160.002 294.778 156.939 293.014C127.4 324.83 108.504 365.644 97.0308 409.399C97.0308 409.928 97.0308 410.399 97.0308 410.928C97.0827 418.22 96.2521 418.75 95.3696 423.278C98.2767 424.278 98.5363 422.514 99.3669 420.455Z" fill="#FFAB00"/>
<path d="M306.501 523.608L297.779 517.845L297.727 511.552L306.449 517.316L306.501 523.608Z" fill="#CACACA"/>
<path d="M305.151 516.609L296.43 510.846C293.315 508.788 291.394 504.436 291.394 498.261C291.394 492.556 293.003 486.322 295.651 480.618L304.372 486.381C301.725 492.086 300.116 498.378 300.116 504.024C300.116 510.199 302.036 514.551 305.151 516.609Z" fill="#1248A5"/>
<mask id="mask21_212_4413" style="mask-type:luminance" maskUnits="userSpaceOnUse" x="291" y="480" width="15" height="37">
<path d="M305.151 516.609L296.43 510.846C293.315 508.788 291.394 504.436 291.394 498.261C291.394 492.556 293.003 486.322 295.651 480.618L304.372 486.381C301.725 492.086 300.116 498.378 300.116 504.024C300.116 510.199 302.036 514.551 305.151 516.609Z" fill="white"/>
</mask>
<g mask="url(#mask21_212_4413)">
<path d="M305.151 516.61L296.43 510.846C293.315 508.788 291.394 504.436 291.394 498.261C291.394 493.497 292.536 488.322 294.457 483.382L303.178 489.145C301.258 494.085 300.116 499.261 300.116 504.024C300.116 510.199 302.036 514.551 305.151 516.61Z" fill="#1248A5"/>
<path d="M303.178 489.145L294.457 483.382C294.82 482.441 295.236 481.5 295.651 480.618L304.372 486.381C303.957 487.322 303.542 488.204 303.178 489.145Z" fill="#1248A5"/>
</g>
<path d="M304.372 486.381L295.651 480.618L300.011 469.738L308.733 475.501L304.372 486.381Z" fill="#1248A5"/>
<path d="M308.733 475.502L300.012 469.738C303.23 461.622 304.268 453.448 302.763 447.332L311.484 453.095C312.99 459.152 312.003 467.386 308.733 475.502Z" fill="#1248A5"/>
<mask id="mask22_212_4413" style="mask-type:luminance" maskUnits="userSpaceOnUse" x="300" y="447" width="13" height="29">
<path d="M308.733 475.502L300.012 469.738C303.23 461.622 304.268 453.448 302.763 447.332L311.484 453.095C312.99 459.152 312.003 467.386 308.733 475.502Z" fill="white"/>
</mask>
<g mask="url(#mask22_212_4413)">
<path d="M308.733 475.502L300.011 469.738C300.011 469.738 300.115 469.562 300.115 469.444L308.837 475.208C308.837 475.208 308.733 475.384 308.733 475.502Z" fill="#1248A5"/>
<path d="M308.837 475.208L300.115 469.444C303.282 461.446 304.216 453.33 302.711 447.332L311.432 453.095C312.938 459.094 311.951 467.209 308.837 475.208Z" fill="#1248A5"/>
</g>
<path d="M311.484 453.095L302.711 447.331L301.05 440.451L309.771 446.214L311.484 453.095Z" fill="#1248A5"/>
<path d="M309.771 446.214L301.05 440.451C300.583 438.686 300.79 436.275 301.621 433.923L310.342 439.686C309.512 442.097 309.304 444.45 309.771 446.214Z" fill="#1248A5"/>
<mask id="mask23_212_4413" style="mask-type:luminance" maskUnits="userSpaceOnUse" x="300" y="433" width="11" height="14">
<path d="M309.771 446.214L301.05 440.451C300.583 438.686 300.79 436.275 301.621 433.923L310.342 439.686C309.512 442.097 309.304 444.45 309.771 446.214Z" fill="white"/>
</mask>
<g mask="url(#mask23_212_4413)">
<path d="M309.771 446.214L301.05 440.451C300.583 438.686 300.79 436.275 301.621 433.923L310.342 439.686C309.512 442.097 309.304 444.45 309.771 446.214Z" fill="#1248A5"/>
</g>
<path d="M306.449 517.315L306.501 523.608L329.914 508.259V501.966L306.449 517.315Z" fill="#D9D9D9"/>
<path d="M329.914 500.319C332.925 494.262 334.793 487.498 334.793 481.382C334.793 479.265 334.534 477.324 334.119 475.619L322.75 425.277L313.042 431.629L310.342 439.627C309.512 442.038 309.304 444.391 309.771 446.155L311.484 453.036C312.99 459.093 312.004 467.327 308.733 475.442L304.372 486.322C301.725 492.027 300.115 498.32 300.115 503.965C300.115 510.964 302.607 515.61 306.449 517.256L329.914 501.907V500.201V500.319Z" fill="#275EBE"/>
<path d="M310.342 439.627L301.621 433.923L304.32 425.866L313.042 431.629L310.342 439.627Z" fill="#1248A5"/>
<path d="M313.042 431.629L304.32 425.866L314.028 419.514L322.75 425.278L313.042 431.629Z" fill="#3574E0"/>
<path d="M320.258 417.985V424.513C320.258 425.689 319.583 426.807 318.233 427.689C315.534 429.453 311.173 429.453 308.474 427.689C307.124 426.807 306.449 425.63 306.449 424.454V417.926C306.449 419.102 307.124 420.279 308.474 421.161C311.173 422.925 315.534 422.925 318.233 421.161C319.583 420.279 320.206 419.161 320.258 417.985Z" fill="#CACACA"/>
<mask id="mask24_212_4413" style="mask-type:luminance" maskUnits="userSpaceOnUse" x="306" y="417" width="15" height="13">
<path d="M320.258 417.985V424.513C320.258 425.689 319.583 426.807 318.233 427.689C315.534 429.453 311.173 429.453 308.474 427.689C307.124 426.807 306.449 425.63 306.449 424.454V417.926C306.449 419.102 307.124 420.279 308.474 421.161C311.173 422.925 315.534 422.925 318.233 421.161C319.583 420.279 320.206 419.161 320.258 417.985Z" fill="white"/>
</mask>
<g mask="url(#mask24_212_4413)">
<path d="M320.258 417.985V424.513C320.258 425.689 319.583 426.806 318.233 427.689C317.507 428.159 316.676 428.512 315.793 428.747V422.219C316.728 421.984 317.558 421.631 318.285 421.161C319.635 420.278 320.258 419.161 320.31 417.985H320.258Z" fill="#CACACA"/>
<path d="M315.793 422.219V428.747C314.599 429.041 313.353 429.1 312.159 428.982V422.454C313.353 422.572 314.599 422.513 315.793 422.219Z" fill="#CACACA"/>
<path d="M312.159 422.396V428.924C310.81 428.747 309.564 428.394 308.525 427.689V421.161C309.564 421.808 310.81 422.219 312.159 422.396Z" fill="#CACACA"/>
<path d="M308.577 421.22V427.748C308.577 427.748 308.525 427.748 308.474 427.748C307.591 427.16 307.02 426.513 306.709 425.748V419.22C307.02 419.926 307.643 420.632 308.525 421.22C308.525 421.22 308.525 421.22 308.577 421.22Z" fill="#CACACA"/>
<path d="M306.708 419.161V425.689C306.501 425.278 306.449 424.866 306.449 424.454V417.926C306.449 418.338 306.553 418.75 306.708 419.161Z" fill="#CACACA"/>
</g>
<path d="M318.181 414.75C320.881 416.515 320.881 419.396 318.181 421.161C315.482 422.925 311.121 422.925 308.422 421.161C305.722 419.396 305.722 416.515 308.422 414.75C311.121 412.986 315.482 412.986 318.181 414.75Z" fill="#F2F2F2"/>
<path d="M314.963 395.52L321.815 399.989C320.673 399.225 319.064 399.401 317.403 400.46L310.55 395.99C312.211 394.932 313.769 394.755 314.963 395.52Z" fill="#F2F2F2"/>
<mask id="mask25_212_4413" style="mask-type:luminance" maskUnits="userSpaceOnUse" x="310" y="395" width="12" height="6">
<path d="M314.963 395.52L321.815 399.989C320.673 399.225 319.064 399.401 317.403 400.46L310.55 395.99C312.211 394.932 313.769 394.755 314.963 395.52Z" fill="white"/>
</mask>
<g mask="url(#mask25_212_4413)">
<path d="M317.403 400.46L310.55 395.99C311.017 395.696 311.484 395.461 311.952 395.285L318.804 399.754C318.337 399.931 317.87 400.166 317.403 400.46Z" fill="#F2F2F2"/>
<path d="M318.804 399.754L311.952 395.284C313.094 394.873 314.132 394.932 314.963 395.52L321.815 399.989C320.985 399.46 319.946 399.401 318.804 399.754Z" fill="#F2F2F2"/>
</g>
<path d="M315.534 401.754L308.681 397.225L310.602 395.99L317.403 400.46L315.534 401.754Z" fill="#F2F2F2"/>
<path d="M307.176 422.984L306.241 417.162L299.389 412.692L300.323 418.515C300.323 418.515 300.323 418.515 300.323 418.573C300.479 419.161 300.739 419.514 301.05 419.75L307.903 424.219C307.539 423.984 307.28 423.572 307.124 422.925L307.176 422.984Z" fill="#F2F2F2"/>
<path d="M297.883 436.804L294.457 434.569C295.547 430.806 296.066 426.983 295.755 423.807C295.651 422.749 295.495 421.749 295.651 420.514C296.274 416.221 300.738 414.927 302.815 412.633L306.241 414.868C304.165 417.162 299.7 418.456 299.077 422.749C298.921 423.984 299.077 424.983 299.181 426.042C299.441 429.218 298.921 433.04 297.883 436.804Z" fill="#F2F2F2"/>
<mask id="mask26_212_4413" style="mask-type:luminance" maskUnits="userSpaceOnUse" x="294" y="412" width="13" height="25">
<path d="M297.883 436.804L294.457 434.569C295.547 430.806 296.066 426.983 295.755 423.807C295.651 422.749 295.495 421.749 295.651 420.514C296.274 416.221 300.738 414.927 302.815 412.633L306.241 414.868C304.165 417.162 299.7 418.456 299.077 422.749C298.921 423.984 299.077 424.983 299.181 426.042C299.441 429.218 298.921 433.04 297.883 436.804Z" fill="white"/>
</mask>
<g mask="url(#mask26_212_4413)">
<path d="M297.883 436.804L294.457 434.569C295.391 431.335 295.911 428.1 295.859 425.277L299.285 427.512C299.285 430.394 298.818 433.57 297.883 436.804Z" fill="#F2F2F2"/>
<path d="M299.285 427.512L295.859 425.277C295.859 424.807 295.859 424.278 295.807 423.807C295.755 423.101 295.651 422.396 295.651 421.69L299.077 423.925C299.077 424.689 299.181 425.336 299.233 426.042C299.233 426.512 299.285 426.983 299.285 427.512Z" fill="#F2F2F2"/>
<path d="M299.025 423.925L295.599 421.69C295.599 421.337 295.599 420.925 295.651 420.573C295.962 418.455 297.208 417.103 298.61 415.985L302.036 418.22C300.634 419.338 299.389 420.749 299.077 422.807C299.025 423.219 299.025 423.572 299.025 423.925Z" fill="#F2F2F2"/>
<path d="M302.036 418.161L298.61 415.927C299.7 415.103 300.842 414.339 301.829 413.574L305.255 415.809C304.269 416.574 303.126 417.279 302.036 418.161Z" fill="#F2F2F2"/>
<path d="M305.255 415.868L301.829 413.633C302.192 413.339 302.555 413.045 302.815 412.692L306.241 414.927C305.93 415.28 305.618 415.574 305.255 415.868Z" fill="#F2F2F2"/>
</g>
<path d="M306.241 414.927L305.566 421.513C305.566 421.866 305.566 422.278 305.566 422.631L302.452 424.689C301.829 425.101 301.258 425.983 301.05 426.924C301.05 427.042 300.998 427.218 300.998 427.336C300.479 430.335 299.7 433.393 298.558 436.451L297.831 436.922C298.921 433.158 299.441 429.335 299.129 426.159C299.025 425.101 298.87 424.101 299.025 422.866C299.648 418.573 304.113 417.279 306.189 414.986L306.241 414.927Z" fill="#CACACA"/>
<path d="M304.217 409.105L297.364 404.635L308.681 397.225L315.534 401.753L304.217 409.105Z" fill="#F2F2F2"/>
<path d="M299.233 412.339L292.432 407.87L297.364 404.635L304.217 409.105L299.233 412.339Z" fill="#F2F2F2"/>
<path d="M299.285 421.69L292.432 417.22V407.87L299.233 412.339L299.285 421.69Z" fill="#F2F2F2"/>
<path d="M317.403 400.46C319.323 399.225 321.14 399.166 322.334 400.46L326.851 405.164V408.575L324.619 410.046C322.75 411.281 321.244 414.28 321.244 416.691L310.031 424.043C308.681 424.925 307.487 424.513 307.176 422.984L306.241 417.162L299.285 421.749V412.398L304.217 409.164L315.534 401.754L317.455 400.518L317.403 400.46Z" fill="#D9D9D9"/>
<path d="M294.457 415.633L299.233 412.457L299.181 421.808L294.405 423.102L294.457 415.633Z" fill="#CACACA"/>
<path d="M289.006 412.104L292.432 407.987L299.233 412.457L294.457 415.633L289.006 412.104Z" fill="#D9D9D9"/>
<path d="M294.457 415.633L294.405 423.101L289.006 419.573V412.104L294.457 415.633Z" fill="#BFBFBF"/>
<path d="M293.626 416.221V421.455L289.785 418.985V413.75L293.626 416.221Z" fill="#D9D9D9"/>
<path d="M330.796 478.736C330.796 470.326 325.553 466.915 319.168 471.091C312.73 475.325 307.539 485.558 307.539 493.968C307.539 502.378 312.73 505.789 319.168 501.613C325.605 497.379 330.796 487.146 330.796 478.736Z" fill="#FFC040"/>
<path d="M287.656 492.792V496.086C287.656 498.32 286.358 500.555 283.711 502.319C278.468 505.789 269.902 505.789 264.659 502.319C262.011 500.555 260.661 498.32 260.661 496.027V492.733C260.661 495.027 262.011 497.321 264.659 499.026C269.954 502.496 278.468 502.496 283.711 499.026C286.307 497.321 287.604 495.086 287.656 492.792Z" fill="#D9D9D9"/>
<mask id="mask27_212_4413" style="mask-type:luminance" maskUnits="userSpaceOnUse" x="260" y="492" width="28" height="13">
<path d="M287.656 492.792V496.086C287.656 498.32 286.358 500.555 283.711 502.319C278.468 505.789 269.902 505.789 264.659 502.319C262.011 500.555 260.661 498.32 260.661 496.027V492.733C260.661 495.027 262.011 497.321 264.659 499.026C269.954 502.496 278.468 502.496 283.711 499.026C286.307 497.321 287.604 495.086 287.656 492.792Z" fill="white"/>
</mask>
<g mask="url(#mask27_212_4413)">
<path d="M287.656 492.792V496.085C287.656 498.32 286.358 500.555 283.711 502.319C282.309 503.26 280.648 503.907 278.883 504.378V501.084C280.648 500.673 282.309 499.967 283.711 499.026C286.307 497.32 287.604 495.086 287.656 492.792Z" fill="#D9D9D9"/>
<path d="M278.883 501.084V504.378C276.599 504.907 274.159 505.084 271.823 504.79V501.496C274.211 501.79 276.651 501.614 278.883 501.084Z" fill="#D9D9D9"/>
<path d="M271.823 501.496V504.789C269.227 504.495 266.787 503.731 264.763 502.437V499.144C266.787 500.437 269.279 501.202 271.823 501.496Z" fill="#F2F2F2"/>
<path d="M264.762 499.085V502.378C264.762 502.378 264.659 502.32 264.607 502.261C262.894 501.143 261.751 499.791 261.129 498.379V495.086C261.751 496.497 262.894 497.85 264.607 498.967C264.607 498.967 264.711 499.026 264.762 499.085Z" fill="#D9D9D9"/>
<path d="M261.18 495.145V498.438C260.817 497.673 260.661 496.85 260.661 496.027V492.733C260.661 493.557 260.817 494.38 261.18 495.145Z" fill="#D9D9D9"/>
</g>
<path d="M283.659 486.499C288.954 489.969 288.954 495.556 283.711 499.026C278.468 502.496 269.902 502.496 264.659 499.026C259.363 495.556 259.363 489.969 264.607 486.499C269.85 483.03 278.416 483.03 283.659 486.499Z" fill="#D9D9D9"/>
<path d="M287.656 440.039L287.552 493.145C287.552 495.38 286.255 497.614 283.607 499.379C278.364 502.848 269.798 502.848 264.555 499.379C261.907 497.614 260.558 495.38 260.558 493.086L260.661 439.98C260.661 442.274 261.959 444.568 264.659 446.273C269.954 449.743 278.468 449.743 283.711 446.273C286.307 444.568 287.604 442.333 287.656 440.039Z" fill="#FF6A00"/>
<mask id="mask28_212_4413" style="mask-type:luminance" maskUnits="userSpaceOnUse" x="260" y="439" width="28" height="63">
<path d="M287.656 440.039L287.552 493.145C287.552 495.38 286.255 497.614 283.607 499.379C278.364 502.848 269.798 502.848 264.555 499.379C261.907 497.614 260.558 495.38 260.558 493.086L260.661 439.98C260.661 442.274 261.959 444.568 264.659 446.273C269.954 449.743 278.468 449.743 283.711 446.273C286.307 444.568 287.604 442.333 287.656 440.039Z" fill="white"/>
</mask>
<g mask="url(#mask28_212_4413)">
<path d="M287.656 440.039L287.552 493.145C287.552 495.379 286.255 497.614 283.607 499.378C282.205 500.319 280.544 500.966 278.779 501.437L278.883 448.331C280.648 447.92 282.309 447.214 283.711 446.273C286.307 444.567 287.604 442.333 287.656 440.039Z" fill="#FF6A00"/>
<path d="M278.935 448.332L278.831 501.437C276.547 501.966 274.107 502.143 271.771 501.849L271.875 448.743C274.211 449.037 276.651 448.861 278.935 448.332Z" fill="#FF6A00"/>
<path d="M271.875 448.743L271.771 501.849C269.175 501.555 266.735 500.79 264.71 499.496L264.814 446.391C266.839 447.684 269.279 448.449 271.875 448.743Z" fill="#FF8C00"/>
<path d="M264.814 446.391L264.711 499.496C264.711 499.496 264.607 499.437 264.555 499.379C262.842 498.261 261.7 496.909 261.077 495.497L261.181 442.392C261.803 443.803 262.946 445.156 264.659 446.273C264.659 446.273 264.763 446.332 264.814 446.391Z" fill="#FF6A00"/>
<path d="M261.18 442.392L261.077 495.497C260.765 494.733 260.557 493.909 260.557 493.086L260.661 439.98C260.661 440.804 260.817 441.627 261.18 442.392Z" fill="#FF6A00"/>
</g>
<path d="M283.711 433.746C289.006 437.216 289.006 442.803 283.763 446.273C278.52 449.743 269.954 449.743 264.711 446.273C259.415 442.803 259.415 437.216 264.659 433.746C269.902 430.277 278.468 430.277 283.711 433.746Z" fill="#FF6A00"/>
<path d="M286.306 430.806L287.604 439.922C287.604 442.157 286.306 444.392 283.659 446.156C278.416 449.626 269.85 449.626 264.607 446.156C261.959 444.392 260.609 442.157 260.609 439.863L262.011 430.748C262.011 432.806 263.205 434.864 265.593 436.393C270.369 439.51 278.052 439.51 282.776 436.393C285.112 434.864 286.306 432.806 286.306 430.806Z" fill="#D9D9D9"/>
<mask id="mask29_212_4413" style="mask-type:luminance" maskUnits="userSpaceOnUse" x="260" y="430" width="28" height="19">
<path d="M286.306 430.806L287.604 439.922C287.604 442.157 286.306 444.392 283.659 446.156C278.416 449.626 269.85 449.626 264.607 446.156C261.959 444.392 260.609 442.157 260.609 439.863L262.011 430.748C262.011 432.806 263.205 434.864 265.593 436.393C270.369 439.51 278.052 439.51 282.776 436.393C285.112 434.864 286.306 432.806 286.306 430.806Z" fill="white"/>
</mask>
<g mask="url(#mask29_212_4413)">
<path d="M286.306 430.806L287.604 439.922C287.604 442.157 286.306 444.391 283.659 446.156C282.257 447.097 280.596 447.743 278.831 448.214L278.416 438.275C279.973 437.863 281.478 437.275 282.724 436.452C285.061 434.923 286.255 432.864 286.255 430.865L286.306 430.806Z" fill="#D9D9D9"/>
<path d="M278.415 438.216L278.831 448.155C276.547 448.685 274.107 448.861 271.771 448.567L272.03 438.569C274.159 438.804 276.339 438.687 278.364 438.216H278.415Z" fill="#D9D9D9"/>
<path d="M272.082 438.628L271.823 448.626C269.227 448.332 266.787 447.567 264.763 446.273L265.749 436.511C267.566 437.687 269.798 438.393 272.082 438.628Z" fill="#F2F2F2"/>
<path d="M265.749 436.511L264.762 446.273C264.762 446.273 264.659 446.214 264.607 446.156C262.894 445.038 261.751 443.686 261.129 442.274L262.478 432.923C263.049 434.217 264.088 435.452 265.593 436.452C265.593 436.452 265.697 436.452 265.697 436.511H265.749Z" fill="#D9D9D9"/>
<path d="M262.478 432.924L261.129 442.274C260.817 441.51 260.609 440.686 260.609 439.863L262.011 430.748C262.011 431.453 262.167 432.218 262.478 432.924Z" fill="#D9D9D9"/>
</g>
<path d="M282.724 425.16C287.5 428.277 287.5 433.335 282.776 436.452C278.052 439.569 270.369 439.569 265.593 436.452C260.817 433.335 260.817 428.277 265.541 425.16C270.265 422.044 277.948 422.044 282.724 425.16Z" fill="#F2F2F2"/>
<path d="M286.358 427.278V430.63C286.358 432.688 285.164 434.688 282.776 436.276C278 439.392 270.265 439.392 265.489 436.276C263.101 434.688 261.855 432.629 261.855 430.571V427.219C261.855 429.277 263.049 431.335 265.489 432.923C270.265 436.04 278.052 436.04 282.776 432.923C285.164 431.394 286.306 429.336 286.306 427.278H286.358Z" fill="#4B3D46"/>
<mask id="mask30_212_4413" style="mask-type:luminance" maskUnits="userSpaceOnUse" x="261" y="427" width="26" height="12">
<path d="M286.358 427.278V430.63C286.358 432.688 285.164 434.688 282.776 436.276C278 439.392 270.265 439.392 265.489 436.276C263.101 434.688 261.855 432.629 261.855 430.571V427.219C261.855 429.277 263.049 431.335 265.489 432.923C270.265 436.04 278.052 436.04 282.776 432.923C285.164 431.394 286.306 429.336 286.306 427.278H286.358Z" fill="white"/>
</mask>
<g mask="url(#mask30_212_4413)">
<path d="M286.358 427.277V430.63C286.358 432.688 285.164 434.687 282.776 436.275C281.479 437.099 280.025 437.746 278.416 438.098V434.746C280.025 434.335 281.53 433.746 282.776 432.923C285.164 431.394 286.306 429.336 286.306 427.277H286.358Z" fill="#4B3D46"/>
<path d="M278.468 434.747V438.099C276.391 438.628 274.211 438.746 272.082 438.51V435.158C274.211 435.393 276.443 435.276 278.468 434.805V434.747Z" fill="#4B3D46"/>
<path d="M272.082 435.099V438.451C269.746 438.157 267.514 437.452 265.645 436.334V432.982C267.462 434.158 269.746 434.864 272.082 435.099Z" fill="#4B3D46"/>
<path d="M265.645 432.982V436.334C265.645 436.334 265.541 436.334 265.489 436.275C263.932 435.276 262.894 434.041 262.323 432.747V429.395C262.894 430.688 263.932 431.923 265.489 432.923C265.489 432.923 265.593 432.923 265.645 432.982Z" fill="#4B3D46"/>
<path d="M262.375 429.336V432.688C262.063 431.983 261.907 431.218 261.907 430.512V427.16C261.907 427.866 262.063 428.63 262.375 429.336Z" fill="#4B3D46"/>
</g>
<path d="M282.776 421.514C287.552 424.631 287.604 429.747 282.828 432.864C278.052 435.981 270.317 435.981 265.541 432.864C260.765 429.747 260.713 424.631 265.489 421.514C270.265 418.397 278 418.397 282.776 421.514Z" fill="#665861"/>
<path d="M281.686 422.279C285.891 425.043 285.891 429.453 281.686 432.218C277.533 434.982 270.733 434.982 266.528 432.218C262.323 429.453 262.323 425.043 266.528 422.279C270.681 419.515 277.481 419.515 281.686 422.279Z" fill="#4B3D46"/>
<path d="M274.73 426.395C274.366 426.16 273.743 426.16 273.38 426.395C273.017 426.63 273.017 427.042 273.38 427.277C273.743 427.513 274.366 427.513 274.73 427.277C275.093 427.042 275.093 426.63 274.73 426.395Z" fill="#32272D"/>
<path d="M272.445 424.866C272.082 424.631 271.459 424.631 271.096 424.866C270.732 425.102 270.732 425.513 271.096 425.749C271.459 425.984 272.082 425.984 272.445 425.749C272.809 425.513 272.809 425.102 272.445 424.866Z" fill="#32272D"/>
<path d="M270.161 423.337C269.798 423.102 269.175 423.102 268.812 423.337C268.448 423.572 268.448 423.984 268.812 424.219C269.175 424.454 269.798 424.454 270.161 424.219C270.525 423.984 270.525 423.572 270.161 423.337Z" fill="#32272D"/>
<path d="M268.033 425.102C267.514 424.984 266.995 425.219 266.891 425.513C266.735 425.866 267.047 426.16 267.566 426.278C268.085 426.396 268.604 426.16 268.708 425.866C268.864 425.513 268.552 425.219 268.033 425.102Z" fill="#32272D"/>
<path d="M267.514 427.277C266.995 427.395 266.683 427.689 266.839 428.042C266.995 428.395 267.514 428.571 267.981 428.454C268.5 428.336 268.812 428.042 268.656 427.689C268.5 427.336 267.981 427.16 267.514 427.277Z" fill="#32272D"/>
<path d="M268.76 429.395C268.396 429.63 268.396 430.042 268.76 430.277C269.123 430.512 269.746 430.512 270.11 430.277C270.473 430.042 270.473 429.63 270.11 429.395C269.746 429.159 269.123 429.159 268.76 429.395Z" fill="#32272D"/>
<path d="M271.407 430.747C271.251 431.1 271.563 431.394 272.082 431.512C272.601 431.629 273.12 431.394 273.224 431.1C273.38 430.747 273.068 430.453 272.549 430.336C272.03 430.218 271.511 430.453 271.407 430.747Z" fill="#32272D"/>
<path d="M274.782 431.1C274.937 431.453 275.457 431.629 275.924 431.512C276.443 431.394 276.754 431.1 276.599 430.747C276.443 430.394 275.924 430.218 275.457 430.336C274.989 430.453 274.626 430.747 274.782 431.1Z" fill="#32272D"/>
<path d="M277.949 430.277C278.312 430.512 278.935 430.512 279.298 430.277C279.662 430.042 279.662 429.63 279.298 429.395C278.935 429.159 278.312 429.159 277.949 429.395C277.585 429.63 277.585 430.042 277.949 430.277Z" fill="#32272D"/>
<path d="M280.077 428.571C280.596 428.689 281.115 428.454 281.219 428.16C281.375 427.807 281.063 427.513 280.544 427.395C280.025 427.278 279.506 427.513 279.402 427.807C279.246 428.16 279.558 428.454 280.077 428.571Z" fill="#32272D"/>
<path d="M280.596 426.336C281.115 426.219 281.427 425.925 281.271 425.572C281.115 425.219 280.596 425.043 280.129 425.16C279.61 425.278 279.298 425.572 279.454 425.925C279.61 426.278 280.129 426.454 280.596 426.336Z" fill="#32272D"/>
<path d="M279.35 424.278C279.713 424.043 279.713 423.631 279.35 423.396C278.987 423.161 278.364 423.161 278 423.396C277.637 423.631 277.637 424.043 278 424.278C278.364 424.514 278.987 424.514 279.35 424.278Z" fill="#32272D"/>
<path d="M276.702 422.867C276.858 422.514 276.547 422.22 276.028 422.102C275.508 421.985 274.989 422.22 274.885 422.514C274.73 422.867 275.041 423.161 275.56 423.278C276.079 423.396 276.599 423.161 276.702 422.867Z" fill="#32272D"/>
<path d="M273.328 422.514C273.172 422.161 272.653 421.985 272.186 422.102C271.667 422.22 271.355 422.514 271.511 422.867C271.667 423.22 272.186 423.396 272.653 423.278C273.172 423.161 273.484 422.867 273.328 422.514Z" fill="#32272D"/>
<path d="M270.68 426.748C270.161 426.866 269.85 427.16 270.006 427.513C270.161 427.866 270.68 428.042 271.148 427.924C271.615 427.807 271.978 427.513 271.823 427.16C271.667 426.807 271.148 426.631 270.68 426.748Z" fill="#32272D"/>
<path d="M272.29 428.689C272.134 429.042 272.446 429.336 272.965 429.454C273.484 429.571 274.003 429.336 274.107 429.042C274.262 428.689 273.951 428.395 273.432 428.278C272.913 428.16 272.394 428.395 272.29 428.689Z" fill="#32272D"/>
<path d="M275.664 428.748C276.027 428.983 276.65 428.983 277.014 428.748C277.377 428.512 277.377 428.101 277.014 427.865C276.65 427.63 276.027 427.63 275.664 427.865C275.301 428.101 275.301 428.512 275.664 428.748Z" fill="#32272D"/>
<path d="M277.429 426.866C277.948 426.748 278.26 426.454 278.104 426.101C277.948 425.748 277.429 425.572 276.962 425.69C276.443 425.807 276.131 426.101 276.287 426.454C276.443 426.807 276.962 426.983 277.429 426.866Z" fill="#32272D"/>
<path d="M275.82 424.925C275.976 424.572 275.664 424.278 275.145 424.16C274.626 424.043 274.107 424.278 274.003 424.572C273.847 424.925 274.159 425.219 274.678 425.337C275.197 425.454 275.716 425.219 275.82 424.925Z" fill="#32272D"/>
<path d="M270.68 426.748C270.161 426.866 269.85 427.16 270.006 427.513C270.161 427.866 270.68 428.042 271.148 427.924C271.615 427.807 271.978 427.513 271.823 427.16C271.667 426.807 271.148 426.631 270.68 426.748Z" fill="#32272D"/>
<path d="M272.29 428.689C272.134 429.042 272.446 429.336 272.965 429.454C273.484 429.571 274.003 429.336 274.107 429.042C274.262 428.689 273.951 428.395 273.432 428.278C272.913 428.16 272.394 428.395 272.29 428.689Z" fill="#32272D"/>
<path d="M283.711 470.268C278.468 473.679 269.954 473.679 264.659 470.268C262.011 468.503 260.661 466.269 260.661 463.975L260.558 475.149C260.558 477.443 261.855 479.736 264.555 481.442C269.85 484.912 278.364 484.912 283.607 481.442C283.607 481.442 283.607 481.442 283.659 481.442V470.327L283.711 470.268Z" fill="#F2F2F2"/>
</g>
<defs>
<clipPath id="clip0_212_4413">
<rect width="426" height="516" fill="white" transform="matrix(-1 0 0 1 453 96)"/>
</clipPath>
</defs>
</svg>
