<svg width="55" height="55" viewBox="0 0 55 55" fill="none" xmlns="http://www.w3.org/2000/svg">
<path fill-rule="evenodd" clip-rule="evenodd" d="M5.5 20.625C5.5 12.2843 12.2843 5.5 20.625 5.5C26.4935 5.5 31.581 8.86903 34.089 13.7668C32.6205 13.786 31.1877 13.9615 29.81 14.275C22.088 16.0213 16.0215 22.0882 14.2753 29.8102C15.785 30.858 17.578 31.4982 19.503 31.6935C20.6167 25.5032 25.5035 20.6169 31.6938 19.5031C32.5655 19.3464 33.4593 19.25 34.375 19.25C34.8205 19.25 35.2523 19.3047 35.6868 19.3487C35.7198 19.7694 35.75 20.1933 35.75 20.625C35.75 28.9657 28.9657 35.75 20.625 35.75C12.2843 35.75 5.5 28.9657 5.5 20.625ZM45.0423 16.7477C45.2403 18.0127 45.375 19.3022 45.375 20.625C45.375 21.6975 45.2842 22.7452 45.1522 23.7792C47.8362 26.5127 49.5 30.25 49.5 34.375C49.5 42.7158 42.7158 49.5 34.375 49.5C30.25 49.5 26.5127 47.8361 23.7792 45.1521C22.627 44.0191 21.681 42.6852 20.9357 41.2332C32.1832 41.0655 41.25 31.911 41.25 20.625C41.25 9.2345 32.0155 0 20.625 0C9.2345 0 0 9.2345 0 20.625C0 29.9503 6.193 37.8232 14.6877 40.3725C15.1882 42.0225 15.8703 43.5955 16.7475 45.042C20.3638 51.004 26.8923 55 34.375 55C45.7655 55 55 45.7655 55 34.375C55 26.8923 51.0043 20.364 45.0423 16.7477Z" fill="#F8F9FA"/>
</svg>
