<svg width="55" height="55" viewBox="0 0 55 55" fill="none" xmlns="http://www.w3.org/2000/svg">
<g clip-path="url(#clip0_440_1487)">
<path d="M49.9509 0.753044C49.0378 -0.160042 47.5876 -0.256722 46.5564 0.527458L35.3845 9.12121C34.7507 9.60461 34.3748 10.3673 34.3748 11.1622V16.9737L25.1794 26.1691C25.8992 26.6202 26.5759 27.1681 27.199 27.7911C27.822 28.4142 28.3699 29.1017 28.821 29.8107L38.0164 20.6261H43.8279C44.6335 20.6261 45.3855 20.2501 45.8689 19.6163L54.4626 8.44445C55.2576 7.4132 55.1609 5.96301 54.2371 5.04992L49.9509 0.753044ZM13.0408 30.2296L1.00952 42.2609C-0.333252 43.6036 -0.333252 45.7843 1.00952 47.1271L7.88452 54.0021C9.22729 55.3448 11.408 55.3448 12.7507 54.0021L24.782 41.9708C28.0261 38.7267 28.0261 33.4737 24.782 30.2296C21.5378 26.9855 16.2849 26.9855 13.0408 30.2296Z" fill="#F8F9FA"/>
</g>
<defs>
<clipPath id="clip0_440_1487">
<rect width="55" height="55" fill="white"/>
</clipPath>
</defs>
</svg>
