<svg width="55" height="55" viewBox="0 0 55 55" fill="none" xmlns="http://www.w3.org/2000/svg">
<path d="M37.2226 8.05573C37.6523 7.62611 38.2351 7.38477 38.8428 7.38477C39.4505 7.38477 40.0332 7.62611 40.463 8.05573L43.6942 11.287L43.7034 11.2962L43.7149 11.3053L46.9461 14.5366C47.3758 14.9666 47.6171 15.5497 47.6169 16.1576C47.6167 16.7655 47.375 17.3484 46.945 17.7781C46.515 18.2078 45.9319 18.4491 45.324 18.4489C44.716 18.4487 44.1331 18.207 43.7034 17.777L42.0832 16.1568L30.7394 27.5005L33.9799 30.7409C34.4057 31.1666 34.7434 31.6719 34.9739 32.2281C35.2043 32.7843 35.3229 33.3805 35.3229 33.9825C35.3229 34.5846 35.2043 35.1807 34.9739 35.7369C34.7434 36.2931 34.4057 36.7984 33.9799 37.2241L28.2644 42.9395C26.7597 44.4444 24.8656 45.5005 22.7945 45.9894C20.7233 46.4784 18.5569 46.3809 16.538 45.7078L14.3632 44.9837C13.3507 44.6459 12.4307 44.077 11.6761 43.322C10.9216 42.5671 10.3531 41.6468 10.0159 40.6341L9.29174 38.4616C8.6187 36.4427 8.5212 34.2763 9.01016 32.2051C9.49911 30.1339 10.5552 28.2398 12.0601 26.7351L17.7755 21.0174C18.2011 20.5916 18.7065 20.2538 19.2627 20.0234C19.8189 19.7929 20.415 19.6743 21.0171 19.6743C21.6191 19.6743 22.2152 19.7929 22.7714 20.0234C23.3276 20.2538 23.833 20.5916 24.2586 21.0174L27.499 24.2601L38.8428 12.9164L37.2226 11.2962C36.793 10.8664 36.5516 10.2836 36.5516 9.67594C36.5516 9.06828 36.793 8.48549 37.2226 8.05573Z" fill="#F8F9FA"/>
</svg>
