<svg width="55" height="55" viewBox="0 0 55 55" fill="none" xmlns="http://www.w3.org/2000/svg">
<path d="M16.0416 27.4997V29.7913H38.9582V27.4997C38.9582 25.6791 39.6804 23.9328 40.9662 22.644C42.2521 21.3551 43.9966 20.6289 45.8172 20.6247C45.8146 20.0254 45.761 19.4274 45.6568 18.8372C45.3031 17.0589 44.4301 15.4254 43.148 14.1433C41.8659 12.8612 40.2324 11.9881 38.4541 11.6345C37.5695 11.458 36.5062 11.458 34.3749 11.458H20.6249C18.4937 11.458 17.4303 11.458 16.5457 11.6345C14.7674 11.9881 13.1339 12.8612 11.8518 14.1433C10.5698 15.4254 9.69668 17.0589 9.34303 18.8372C9.23885 19.4274 9.18518 20.0254 9.18262 20.6247C11.0032 20.6289 12.7478 21.3551 14.0336 22.644C15.3195 23.9328 16.0416 25.6791 16.0416 27.4997Z" fill="#F8F9FA"/>
<path d="M42.2674 41.2503H12.7324C12.1107 41.2499 11.4911 41.1791 10.8853 41.0395V43.542C10.8853 43.9978 10.7043 44.435 10.3819 44.7573C10.0596 45.0797 9.62243 45.2607 9.16659 45.2607C8.71075 45.2607 8.27358 45.0797 7.95125 44.7573C7.62892 44.435 7.44784 43.9978 7.44784 43.542V39.3047C6.54906 38.5403 5.82733 37.5895 5.33268 36.5183C4.83803 35.447 4.58231 34.2811 4.58325 33.1012V27.5003C4.58325 26.2847 5.06614 25.119 5.92568 24.2594C6.78522 23.3999 7.95101 22.917 9.16659 22.917C10.3822 22.917 11.548 23.3999 12.4075 24.2594C13.267 25.119 13.7499 26.2847 13.7499 27.5003V30.2503C13.7499 30.7366 13.9431 31.2029 14.2869 31.5467C14.6307 31.8905 15.097 32.0837 15.5833 32.0837H39.4166C39.9028 32.0837 40.3691 31.8905 40.7129 31.5467C41.0568 31.2029 41.2499 30.7366 41.2499 30.2503V27.5003C41.2499 26.2847 41.7328 25.119 42.5924 24.2594C43.4519 23.3999 44.6177 22.917 45.8333 22.917C47.0488 22.917 48.2146 23.3999 49.0742 24.2594C49.9337 25.119 50.4166 26.2847 50.4166 27.5003V33.1012C50.4175 34.2811 50.1618 35.447 49.6672 36.5183C49.1725 37.5895 48.4508 38.5403 47.552 39.3047V43.542C47.552 43.9978 47.3709 44.435 47.0486 44.7573C46.7263 45.0797 46.2891 45.2607 45.8333 45.2607C45.3774 45.2607 44.9402 45.0797 44.6179 44.7573C44.2956 44.435 44.1145 43.9978 44.1145 43.542V41.0395C43.5087 41.1791 42.8891 41.2499 42.2674 41.2503Z" fill="#F8F9FA"/>
</svg>
