<svg width="55" height="55" viewBox="0 0 55 55" fill="none" xmlns="http://www.w3.org/2000/svg">
<path d="M48.1249 9.16797H22.9166C22.3088 9.16797 21.7259 9.40941 21.2961 9.83918C20.8664 10.269 20.6249 10.8518 20.6249 11.4596V36.668C20.6249 37.2758 20.8664 37.8587 21.2961 38.2884C21.7259 38.7182 22.3088 38.9596 22.9166 38.9596H48.1249C48.7327 38.9596 49.3156 38.7182 49.7454 38.2884C50.1751 37.8587 50.4166 37.2758 50.4166 36.668V11.4596C50.4166 10.8518 50.1751 10.269 49.7454 9.83918C49.3156 9.40941 48.7327 9.16797 48.1249 9.16797ZM4.58325 38.9596H20.6249V22.918H12.6041L4.58325 30.3223V38.9596Z" fill="#F8F9FA" stroke="#F8F9FA" stroke-width="2" stroke-linejoin="round"/>
<path d="M20.6249 41.25C20.6249 42.4656 20.142 43.6314 19.2825 44.4909C18.4229 45.3504 17.2572 45.8333 16.0416 45.8333C14.826 45.8333 13.6602 45.3504 12.8007 44.4909C11.9411 43.6314 11.4583 42.4656 11.4583 41.25M45.8333 41.25C45.8333 42.4656 45.3504 43.6314 44.4908 44.4909C43.6313 45.3504 42.4655 45.8333 41.2499 45.8333C40.0343 45.8333 38.8686 45.3504 38.009 44.4909C37.1495 43.6314 36.6666 42.4656 36.6666 41.25" stroke="#F8F9FA" stroke-width="2" stroke-linecap="round" stroke-linejoin="round"/>
</svg>
