<svg width="555" height="710" viewBox="0 0 555 710" fill="none" xmlns="http://www.w3.org/2000/svg">
<path d="M417.864 347.383H482.33C486.783 347.383 490.373 350.991 490.373 355.421V384.206C490.373 388.656 486.763 392.244 482.33 392.244H417.864C413.412 392.244 409.821 388.636 409.821 384.206V355.421C409.821 350.971 413.432 347.383 417.864 347.383Z" fill="#D8DBE3"/>
<path d="M538.011 410.605H473.525C469.083 410.605 465.482 414.204 465.482 418.644V447.449C465.482 451.888 469.083 455.487 473.525 455.487H538.011C542.453 455.487 546.054 451.888 546.054 447.449V418.644C546.054 414.204 542.453 410.605 538.011 410.605Z" fill="#D8DBE3"/>
<path d="M144.276 454.524H30.5881V544.407H144.276V454.524Z" fill="#8ACAFF"/>
<g style="mix-blend-mode:multiply" opacity="0.5">
<path d="M144.256 454.524H102.134V544.407H144.256V454.524Z" fill="#F9C1BB"/>
</g>
<path d="M87.4319 470.26H42.021V516.123H87.4319V470.26Z" fill="white"/>
<path d="M240.473 544.407H0V687.049H240.473V544.407Z" fill="#8ACAFF"/>
<g style="mix-blend-mode:multiply" opacity="0.5">
<path d="M73.191 544.407H0V687.911H73.191V544.407Z" fill="#F9C1BB"/>
</g>
<path d="M231.949 644.794H172.958V677.588H231.949V644.794Z" fill="white"/>
<path d="M49.5629 556.475H21.8229C17.6108 556.475 14.2009 559.882 14.2009 564.092C14.2009 568.301 17.6108 571.709 21.8229 571.709H49.5629C53.775 571.709 57.1848 568.301 57.1848 564.092C57.1848 559.882 53.775 556.475 49.5629 556.475Z" fill="#042C31"/>
<path d="M240.493 471.262H144.276V544.407H240.493V471.262Z" fill="#8ACAFF"/>
<g style="mix-blend-mode:multiply" opacity="0.5">
<path d="M240.473 471.262H179.156V544.407H240.473V471.262Z" fill="#F9C1BB"/>
</g>
<path d="M318.759 543.766H78.2856V545.049H318.759V543.766Z" fill="white"/>
<path d="M522.025 556.474C522.025 555.632 521.604 554.87 520.962 554.409L494.044 313.366L488.97 313.927L502.168 432.174H399.311L388.42 313.406L383.345 313.867L417.704 688.131L422.779 687.67L410.965 559.02H516.349L530.77 688.191L535.845 687.63L521.383 558.158C521.784 557.717 522.025 557.135 522.025 556.474ZM410.504 553.928L399.793 437.265H502.749L515.787 553.928H410.504Z" fill="#4A4772"/>
<path d="M490.935 325.914H371.331C369.927 325.914 368.783 327.057 368.783 328.46C368.783 329.863 369.927 331.006 371.331 331.006H490.935C492.339 331.006 493.483 329.863 493.483 328.46C493.483 327.057 492.339 325.914 490.935 325.914Z" fill="#67999B"/>
<path d="M497.033 310.139H373.417C368.583 310.139 364.671 314.047 364.671 318.878C364.671 323.709 368.583 327.618 373.417 327.618H497.033C501.867 327.618 505.778 323.709 505.778 318.878C505.778 314.047 501.867 310.139 497.033 310.139Z" fill="#B7B8D5"/>
<path d="M471.84 432.174H368.984L382.182 313.927L377.107 313.366L350.19 554.409C349.548 554.87 349.126 555.612 349.126 556.474C349.126 557.115 349.367 557.697 349.768 558.158L335.307 687.63L340.381 688.191L354.803 559.02H460.187L448.373 687.67L453.447 688.131L487.786 313.867L482.712 313.406L471.82 432.174H471.84ZM460.668 553.928H355.385L368.422 437.265H471.379L460.668 553.928Z" fill="#67739B"/>
<path d="M307.757 411.106H73.6421V429.408H307.757V411.106Z" fill="#BCC2DD"/>
<path d="M68.5473 0C67.1433 0 66 1.14257 66 2.54574V401.745C66 403.148 67.1433 404.291 68.5473 404.291C69.9514 404.291 71.0947 403.148 71.0947 401.745V2.54574C71.0947 1.14257 69.9514 0 68.5473 0Z" fill="#BCC2DD"/>
<path d="M299.633 24.7158H81.7654C80.3613 24.7158 79.218 25.8584 79.218 27.2616V401.765C79.218 403.169 80.3613 404.311 81.7654 404.311H299.653C301.058 404.311 302.201 403.169 302.201 401.765V27.2616C302.201 25.8584 301.058 24.7158 299.653 24.7158H299.633ZM201.811 399.22H84.3127V217.069H201.831V399.22H201.811ZM201.811 211.978H84.3127V29.8073H201.831V211.958L201.811 211.978ZM297.086 399.22H206.906V217.069H297.086V399.22ZM297.086 211.978H206.906V29.8073H297.086V211.958V211.978Z" fill="#BCC2DD"/>
<path d="M482.451 51.7168H417.965C413.523 51.7168 409.922 55.3156 409.922 59.7549V88.5598C409.922 92.9991 413.523 96.5979 417.965 96.5979H482.451C486.893 96.5979 490.494 92.9991 490.494 88.5598V59.7549C490.494 55.3156 486.893 51.7168 482.451 51.7168Z" fill="#D8DBE3"/>
<path d="M546.957 122.115H482.471C478.029 122.115 474.428 125.714 474.428 130.153V158.958C474.428 163.398 478.029 166.996 482.471 166.996H546.957C551.399 166.996 555 163.398 555 158.958V130.153C555 125.714 551.399 122.115 546.957 122.115Z" fill="#D8DBE3"/>
<path d="M409.199 122.115H344.714C340.271 122.115 336.67 125.714 336.67 130.153V158.958C336.67 163.398 340.271 166.996 344.714 166.996H409.199C413.642 166.996 417.243 163.398 417.243 158.958V130.153C417.243 125.714 413.642 122.115 409.199 122.115Z" fill="#EAE5DC"/>
<path d="M307.607 690.355C224.668 690.355 157.434 694.745 157.434 700.178C157.434 705.61 224.668 710 307.607 710C390.546 710 457.78 705.61 457.78 700.178C457.78 694.745 390.546 690.355 307.607 690.355Z" fill="#D8DBE3"/>
<path d="M235.318 670.852C239.631 685.064 249.64 686.949 265.626 675.764L273.268 655.297L240.233 649.564L235.318 670.852Z" fill="#FFBB90"/>
<path d="M388.159 640.304L401.357 657.723C417.764 664.979 430.682 665.22 433.871 645.916L413.753 618.635L388.159 640.304Z" fill="#3B82F6"/>
<path d="M385.612 169.021C334.083 165.273 279.566 172.769 253.069 195.962C226.573 219.154 254.895 264.135 254.895 264.135L266.187 364.261C298.059 370.916 333.862 370.214 372.514 364.261C375.502 319.32 375.362 273.176 372.514 225.969L393.635 219.775C387.657 205.383 385.772 187.863 385.632 169.001L385.612 169.021Z" fill="#3B82F6"/>
<path d="M331.094 162.947C330.754 163.007 330.533 163.348 330.593 163.689C330.653 163.969 335.989 192.474 312.28 198.788C288.452 205.122 273.809 181.83 273.669 181.609C273.488 181.309 273.087 181.208 272.786 181.409C272.486 181.589 272.385 181.99 272.586 182.291C272.726 182.511 284.44 201.173 304.117 201.173C306.804 201.173 309.653 200.833 312.621 200.031C337.493 193.396 331.917 163.749 331.857 163.448C331.796 163.107 331.435 162.867 331.115 162.947H331.094Z" fill="#042C31"/>
<g style="mix-blend-mode:multiply">
<path d="M385.612 169.021C377.348 168.419 368.984 168.119 360.7 168.099C360.68 168.66 360.86 169.241 360.64 169.762C328.086 249.161 277.901 211.196 277.901 211.196L288.231 228.515L257.462 267.262L254.915 264.115L266.207 364.241C298.079 370.896 333.882 370.194 372.534 364.241C375.522 319.299 375.382 273.155 372.534 225.949L393.655 219.755C387.678 205.363 385.792 187.843 385.652 168.981L385.612 169.021Z" fill="#F9C1BB"/>
</g>
<path d="M267.451 101.169C267.451 101.169 279.646 162.667 288.391 168.119C297.137 173.572 325.98 152.284 325.98 152.284L316.974 79.1389C316.974 79.1389 266.809 77.5954 267.451 101.148V101.169Z" fill="#FFBB90"/>
<path d="M315.148 67.1318C275.273 68.6753 266.849 69.3168 266.167 70.3992C265.485 71.4816 266.027 79.1188 266.027 79.1188C266.027 79.1188 257.964 76.2724 257.843 77.3749C257.703 78.4574 259.608 86.5155 259.608 86.5155C259.608 86.5155 251.144 84.6112 253.049 87.598C258.144 95.596 267.431 101.148 267.431 101.148C274.431 91.2261 276.557 97.841 281.672 92.9099C287.368 87.4175 303.836 81.0432 309.292 81.6044C314.747 82.1457 320.985 111.933 320.985 111.933C320.985 111.933 326.18 72.8648 315.128 67.1318H315.148Z" fill="#042C31"/>
<path d="M287.429 136.428C284.801 136.689 281.471 136.528 280.428 134.263C279.265 131.738 281.291 127.288 285.343 123.419C285.684 123.098 285.684 122.557 285.363 122.216C285.042 121.875 284.5 121.875 284.159 122.196C279.526 126.626 277.4 131.758 278.884 134.985C279.586 136.528 281.351 138.232 285.684 138.232C286.265 138.232 286.907 138.192 287.589 138.132C288.05 138.092 288.391 137.671 288.351 137.21C288.311 136.749 287.91 136.408 287.429 136.448V136.428Z" fill="#042C31"/>
<path d="M273.167 102.131C271.222 103.153 270.961 106.32 271.202 111.111C271.222 111.572 271.603 111.913 272.044 111.913C272.044 111.913 272.064 111.913 272.084 111.913C272.546 111.893 272.907 111.492 272.887 111.031C272.806 109.207 272.566 104.356 273.95 103.634C274.331 103.434 275.314 103.374 277.66 105.198C278.021 105.478 278.563 105.418 278.844 105.037C279.125 104.676 279.064 104.135 278.683 103.855C276.256 101.97 274.491 101.429 273.147 102.131H273.167Z" fill="#042C31"/>
<path d="M304.237 93.6718C298.38 90.9457 294.369 90.4646 291.942 92.2085C289.896 93.6718 289.154 96.5784 289.655 101.089C289.695 101.53 290.076 101.85 290.497 101.85C290.538 101.85 290.558 101.85 290.598 101.85C291.059 101.79 291.4 101.369 291.34 100.908C290.919 97.1196 291.44 94.654 292.924 93.5916C294.77 92.2686 298.34 92.8099 303.515 95.2153C303.936 95.4157 304.438 95.2153 304.638 94.8144C304.839 94.3934 304.638 93.8923 304.237 93.6919V93.6718Z" fill="#042C31"/>
<path d="M294.248 114.699C295.031 119.068 298.801 118.387 298.019 114.017C297.237 109.647 293.466 110.329 294.248 114.699Z" fill="#042C31"/>
<path d="M275.454 122.116C276.718 125.583 280.328 124.281 279.044 120.793C277.781 117.325 274.17 118.628 275.454 122.116Z" fill="#042C31"/>
<path d="M285.984 148.054C284.941 149.056 294.589 156.232 301.269 151.882C307.948 147.533 302.913 131.557 302.913 131.557L285.984 148.074V148.054Z" fill="#042C31"/>
<path d="M307.426 195.681C321.346 194.739 326.321 179.284 328.086 169.763C310.014 171.707 293.105 175.375 278.864 180.988C282.414 185.999 291.902 196.723 307.426 195.681Z" fill="#042C31"/>
<path d="M382.703 46.2239L301.028 54.1819C303.455 101.007 309.452 144.546 319.341 179.785L393.615 175.415L466.806 158.317L454.43 43.3174L382.703 46.2239Z" fill="#8ACAFF"/>
<path d="M353.68 55.0246L331.255 57.1694C327.825 57.4901 325.278 60.4969 325.518 63.9447C325.779 67.4926 328.888 70.1386 332.438 69.8179L354.863 67.7131C358.253 67.3924 360.8 64.4658 360.62 61.0581V61.0181C360.419 57.4099 357.27 54.7038 353.68 55.0446V55.0246Z" fill="#042C31"/>
<path d="M317.696 150.8L320.624 171.947L344.734 169.021L341.926 148.515L317.696 150.8Z" fill="white"/>
<path d="M407.094 163.75L458.161 152.905V138.132L404.907 147.112L407.094 163.75Z" fill="white"/>
<g style="mix-blend-mode:multiply" opacity="0.5">
<path d="M382.703 46.2244L393.635 175.396L466.826 158.297L454.43 43.2979L382.703 46.2244Z" fill="#F9C1BB"/>
</g>
<path d="M359.577 134.423C356.849 123.379 351.393 130.094 351.393 130.094C349.628 123.599 345.376 123.358 344.012 124.06C342.648 124.762 343.049 131.537 343.049 131.537C343.049 131.537 340.321 127.849 338.275 129.071C336.229 130.294 336.089 145.909 336.45 151.542C336.811 157.175 341.364 192.655 341.364 192.655C334.805 205.383 300.225 243.429 300.225 243.429L288.211 228.515C276.557 226.331 258.164 247.679 257.442 267.263C257.442 267.263 285.904 317.656 317.696 310.38C351.092 302.743 365.413 212.86 369.786 193.015C374.159 173.191 369.285 163.168 367.379 145.849C365.474 128.51 359.597 134.383 359.597 134.383L359.577 134.423Z" fill="#FFBB90"/>
<path d="M363.488 148.395C349.267 146.611 340.983 150.059 340.622 150.219C340.301 150.359 340.14 150.74 340.281 151.061C340.381 151.301 340.622 151.442 340.863 151.442C340.943 151.442 341.023 151.442 341.103 151.381C341.183 151.341 349.467 147.914 363.307 149.658C363.708 149.698 363.969 149.457 364.009 149.096C364.049 148.756 363.809 148.435 363.448 148.395H363.488Z" fill="#042C31"/>
<path d="M343.009 130.915C342.668 130.955 342.407 131.256 342.427 131.617L344.092 149.718C344.132 150.058 344.393 150.299 344.734 150.299C344.734 150.299 344.774 150.299 344.794 150.299C345.135 150.259 345.396 149.958 345.376 149.597L343.711 131.497C343.671 131.136 343.35 130.895 343.009 130.915Z" fill="#042C31"/>
<path d="M351.313 129.472C350.972 129.512 350.711 129.833 350.751 130.173L352.937 148.595C352.978 148.916 353.258 149.156 353.579 149.156C353.599 149.156 353.64 149.156 353.66 149.156C354.001 149.116 354.261 148.795 354.221 148.455L352.035 130.033C351.995 129.692 351.674 129.432 351.333 129.472H351.313Z" fill="#042C31"/>
<path d="M359.516 133.782C359.175 133.822 358.915 134.123 358.935 134.484L360.299 148.596C360.339 148.916 360.599 149.177 360.94 149.177C360.94 149.177 360.981 149.177 361.001 149.177C361.342 149.137 361.602 148.836 361.582 148.475L360.218 134.363C360.178 134.023 359.897 133.742 359.516 133.782Z" fill="#042C31"/>
<path d="M299.824 242.968C299.483 243.248 291.54 249.783 287.549 254.514C287.328 254.774 287.348 255.175 287.629 255.416C287.75 255.516 287.89 255.576 288.05 255.576C288.231 255.576 288.411 255.496 288.532 255.355C292.463 250.725 300.567 244.05 300.647 243.97C300.928 243.749 300.968 243.348 300.727 243.068C300.506 242.787 300.105 242.767 299.824 242.988V242.968Z" fill="#042C31"/>
<path d="M466.665 157.676L393.474 174.774C393.133 174.854 392.913 175.195 392.993 175.536C393.053 175.837 393.314 176.037 393.615 176.037C393.655 176.037 393.715 176.037 393.755 176.037L466.946 158.939C467.287 158.858 467.508 158.518 467.427 158.177C467.347 157.836 467.006 157.616 466.665 157.696V157.676Z" fill="#042C31"/>
<path d="M434.392 44.1196C430 36.2018 419.67 30.7495 412.389 32.9344C405.108 35.1193 393.274 37.665 389.623 37.8455C385.973 38.0259 383.927 46.1642 383.927 46.1642L393.454 45.7833C394.537 45.7433 399.612 48.5897 399.612 48.5897C400.896 54.5832 407.134 65.9087 413.472 77.3344L404.907 172.77L393.615 175.415L385.752 175.876C385.752 191.051 388.119 207.027 393.615 219.816C393.615 219.816 451.522 204.902 456.255 192.153C460.989 179.424 441.332 71.1605 440.971 69.8576C440.61 68.5547 438.785 52.0575 434.392 44.1396V44.1196Z" fill="#FFBB90"/>
<path d="M400.234 48.4095L400.174 48.1689L399.953 48.0286C398.128 46.9061 396.022 45.9439 393.655 45.1622L393.555 45.1221L383.907 45.523C383.566 45.523 383.285 45.8237 383.305 46.1845C383.305 46.5252 383.566 46.866 383.967 46.7858L393.374 46.405C395.5 47.1266 397.426 47.9885 399.09 48.9707C401.337 56.8084 407.274 67.733 412.85 77.4549L403.664 179.685C403.624 180.046 403.884 180.347 404.245 180.387C404.245 180.387 404.285 180.387 404.306 180.387C404.626 180.387 404.907 180.146 404.947 179.806L414.134 77.3747V77.1743L414.054 76.9939C408.437 67.2118 402.42 56.1469 400.254 48.3894L400.234 48.4095Z" fill="#042C31"/>
<path d="M441.593 69.7771C440.51 56.3268 435.836 45.6227 435.796 45.5225C435.656 45.2018 435.275 45.0614 434.954 45.2018C434.633 45.3421 434.493 45.7229 434.633 46.0437C434.673 46.1439 439.266 56.6676 440.329 69.8974C440.63 73.6459 442.115 81.5236 444 91.5261C448.934 117.765 457.198 161.704 455.633 192.113C455.633 192.474 455.874 192.754 456.235 192.774C456.235 192.774 456.255 192.774 456.275 192.774C456.616 192.774 456.897 192.514 456.917 192.173C458.502 161.604 450.218 117.585 445.284 91.2856C443.418 81.3232 441.934 73.4655 441.633 69.7972L441.593 69.7771Z" fill="#042C31"/>
<path d="M336.791 478.358C345.255 455.968 352.998 439.491 359.577 429.047C378.15 399.581 372.494 364.281 372.494 364.281H266.167C264.904 425.399 260.351 486.196 273.268 502.753C256.259 536.269 230.585 629.9 225.149 650.085C224.608 652.11 226.012 654.114 228.098 654.295L282.896 659.146C284.581 659.286 286.105 658.163 286.486 656.52C296.174 613.022 305.922 575.337 315.289 543.465L378.973 646.698C379.815 648.061 381.64 648.442 382.944 647.52L420.974 620.879C422.177 620.038 422.518 618.394 421.756 617.131L336.791 478.358Z" fill="#042C31"/>
<path d="M314.908 399.019L304.558 393.366C304.137 393.146 303.635 393.286 303.415 393.707C303.194 394.128 303.334 394.629 303.756 394.849L313.444 400.141L272.506 502.412C272.325 502.853 272.546 503.334 272.987 503.514C273.087 503.554 273.187 503.575 273.308 503.575C273.649 503.575 273.97 503.374 274.09 503.033L315.309 400.061C315.469 399.66 315.309 399.199 314.928 398.999L314.908 399.019Z" fill="#A8C2BB"/>
<path d="M352.035 442.597C351.614 442.396 351.112 442.597 350.911 443.018C350.671 443.539 327.564 495.576 314.466 543.224C301.369 590.811 285.182 658.523 285.022 659.205C284.921 659.666 285.202 660.127 285.643 660.227C285.704 660.227 285.784 660.247 285.844 660.247C286.225 660.247 286.586 659.987 286.666 659.586C286.827 658.904 303.013 591.232 316.111 543.665C329.189 496.158 352.235 444.22 352.476 443.699C352.677 443.278 352.476 442.777 352.055 442.577L352.035 442.597Z" fill="#A8C2BB"/>
<path d="M268.153 669.048C257.342 672.536 246.551 672.536 235.74 669.048C215.421 676.404 195.764 687.65 176.469 700.96C173.6 702.944 175.025 707.434 178.515 707.434H261.073C265.686 707.434 269.457 703.786 269.597 699.176C269.898 689.614 270.319 675.001 270.139 673.458C269.858 671.133 268.133 669.068 268.133 669.068L268.153 669.048Z" fill="#042C31"/>
<path d="M433.871 644.794C426.309 652.13 415.478 656.44 401.357 657.723C393.394 668.747 377.689 678.89 361.382 688.632C358.213 690.537 359.557 695.408 363.267 695.408H388.6C410.724 695.408 432.146 686.788 447.49 670.872C447.831 670.511 448.172 670.151 448.513 669.79C450.439 667.745 450.659 664.598 449.035 662.293C444.241 655.457 439.206 649.524 433.891 644.773L433.871 644.794Z" fill="#042C31"/>
</svg>
