<svg width="55" height="49" viewBox="0 0 55 49" fill="none" xmlns="http://www.w3.org/2000/svg">
<path d="M53.2812 43.125H48.125V34.0156C48.125 22.8438 44.3438 12.0156 37.2969 3.25C36.0938 1.875 34.5469 0.84375 32.6562 0.671875C30.7656 0.5 28.875 1.01562 27.5 2.21875C25.7812 3.42187 24.9219 5.14062 24.75 7.03125C24.5781 8.92188 25.2656 10.8125 26.4687 12.3594L28.3594 14.5937C31.1094 17.6875 31.1094 22.3281 28.7031 25.5937L26.4687 23.3594C24.75 21.6406 22.3438 20.7812 19.7656 20.7812H13.9219C9.28125 20.7812 5.32812 24.0469 4.46875 28.3438C5.84375 27.8281 7.21875 27.6562 8.59375 27.6562C15.2969 27.6562 20.625 32.9844 20.625 39.6875C20.625 42.2656 19.7656 44.6719 18.3906 46.5625H25.7812C30.0781 46.5625 33.6875 44.1562 35.2344 40.2031C36.7812 36.5938 35.75 32.4688 32.8281 29.7188L30.9375 28C34.7188 23.5313 34.7187 16.8281 30.7656 12.3594L28.875 10.125C28.1875 9.4375 27.8437 8.40625 28.0156 7.375C28.1875 6.34375 28.5312 5.48437 29.3906 4.79687C30.0781 4.10937 31.1094 3.9375 32.1406 3.9375C33.1719 4.10937 34.0312 4.45312 34.5469 5.3125C41.0781 13.3906 44.5156 23.5312 44.5156 33.8438V43.125H42.7969C41.7656 43.125 41.0781 43.8125 41.0781 44.8438C41.0781 45.875 41.7656 46.5625 42.7969 46.5625H53.1094C54.1406 46.5625 54.8281 45.875 54.8281 44.8438C54.8281 43.8125 54.3125 43.125 53.2812 43.125Z" fill="#F8F9FA"/>
<path d="M8.59375 48.2812C13.3399 48.2812 17.1875 44.4337 17.1875 39.6875C17.1875 34.9413 13.3399 31.0938 8.59375 31.0938C3.84755 31.0938 0 34.9413 0 39.6875C0 44.4337 3.84755 48.2812 8.59375 48.2812Z" fill="#F8F9FA"/>
</svg>
